<?xml version="1.0" encoding="UTF-8" standalone="no" ?>
<!DOCTYPE svg PUBLIC "-//W3C//DTD SVG 1.1//EN" "http://www.w3.org/Graphics/SVG/1.1/DTD/svg11.dtd">
<svg xmlns="http://www.w3.org/2000/svg" xmlns:xlink="http://www.w3.org/1999/xlink" version="1.1" width="1080" height="1080" viewBox="0 0 1080 1080" xml:space="preserve">
<desc>Created with Fabric.js 5.2.4</desc>
<defs>
</defs>
<g transform="matrix(1 0 0 1 540 540)" id="49c8024e-4108-4bdf-a0c2-998c8fa486ad"  >
<rect style="stroke: none; stroke-width: 1; stroke-dasharray: none; stroke-linecap: butt; stroke-dashoffset: 0; stroke-linejoin: miter; stroke-miterlimit: 4; fill: rgb(255,255,255); fill-rule: nonzero; opacity: 1; visibility: hidden;" vector-effect="non-scaling-stroke"  x="-540" y="-540" rx="0" ry="0" width="1080" height="1080" />
</g>
<g transform="matrix(1 0 0 1 540 540)" id="3ea9c507-38ab-4a91-8c65-0a7deed096fd"  >
</g>
<g transform="matrix(1 0 0 1 534.56 416.43)"  >
<path style="stroke: none; stroke-width: 1; stroke-dasharray: none; stroke-linecap: butt; stroke-dashoffset: 0; stroke-linejoin: miter; stroke-miterlimit: 4; fill: rgb(93,108,191); fill-rule: nonzero; opacity: 1;" vector-effect="non-scaling-stroke"  transform=" translate(-425.56, -371.93)" d="M 38.124554 702.204407 C 33.900833 697.106506 32.808239 691.050232 32.170158 684.940369 C 31.756422 680.978699 31.905909 676.951843 31.905542 672.954224 C 31.89374 544.127747 31.923363 415.30127 31.862001 286.474792 C 31.852823 267.207458 39.991211 252.992981 56.826706 243.570724 C 172.51062 178.826355 288.172852 114.043236 403.828644 49.248581 C 421.891663 39.129017 439.657013 39.098671 457.886292 49.302914 C 564.408752 108.931221 671.037415 168.369919 777.630798 227.871536 C 786.501038 232.822983 795.366211 237.783539 804.251709 242.707458 C 809.991211 245.888031 815.151978 249.749588 819.253784 255.348633 C 819.024963 257.770691 817.324951 258.607208 815.743103 259.508026 C 773.796265 283.395935 731.849487 307.283966 689.955261 331.264221 C 688.205505 332.265778 686.453308 333.237793 683.954102 332.596069 C 682.097839 331.580566 681.215759 330.165833 680.329895 328.747864 C 667.471069 308.166473 652.430786 289.297791 634.933533 272.508423 C 604.979004 243.765701 570.566956 222.056076 531.496704 207.753922 C 508.992188 199.515884 485.860504 193.992783 462.063873 191.696686 C 409.973785 186.670609 359.825439 194.185715 311.826691 215.558151 C 287.584717 226.352371 265.315552 240.243576 244.996338 257.136871 C 214.429184 282.550232 189.664734 312.726471 171.355515 348.207001 C 155.433411 379.061646 145.33461 411.626343 140.802185 445.960785 C 137.562683 470.500977 137.737686 495.046661 140.834686 519.626587 C 145.215714 554.397583 155.688248 587.205322 171.701721 618.310913 C 172.610992 620.077148 173.665176 621.815857 173.620636 624.285645 C 168.387451 630.067078 161.397888 632.634644 155.124207 636.239441 C 117.675804 657.756836 80.061058 678.984192 42.594963 700.471741 C 41.299236 701.214905 40.03643 702.037048 38.124554 702.204407 z" stroke-linecap="round" />
</g>
<g transform="matrix(1 0 0 1 735.42 524.24)"  >
<path style="stroke: none; stroke-width: 1; stroke-dasharray: none; stroke-linecap: butt; stroke-dashoffset: 0; stroke-linejoin: miter; stroke-miterlimit: 4; fill: rgb(57,73,170); fill-rule: nonzero; opacity: 1;" vector-effect="non-scaling-stroke"  transform=" translate(-626.42, -479.74)" d="M 683.904785 332.135101 C 691.155212 330.290833 696.678955 325.825714 702.71582 322.451691 C 726.078491 309.394135 749.272217 296.033508 772.498352 282.732635 C 787.93158 273.894531 803.31311 264.966278 819.037292 255.874695 C 828.390747 264.046783 830.437622 275.059998 830.663391 286.584564 C 830.904663 298.902191 830.716492 311.22821 830.718079 323.550568 C 830.731934 435.119812 830.758057 546.689087 830.738647 658.258301 C 830.737122 667.236206 831.299561 676.216309 830.341431 685.197998 C 829.676575 691.430115 827.89801 697.221008 824.605591 702.878784 C 821.794617 704.597107 819.856079 702.850525 817.902466 701.754639 C 786.525085 684.154907 754.897827 667.007446 723.402161 649.622437 C 711.455994 643.028198 699.684387 636.086914 687.056885 629.964355 C 672.37854 621.432068 657.740601 613.588501 643.19281 605.583679 C 621.658813 593.734863 600.155823 581.829529 578.593323 570.03302 C 571.605591 566.210083 564.824829 561.977844 557.11731 558.723206 C 544.958008 550.807739 532.254333 544.605469 519.923523 537.747925 C 499.892792 526.608215 479.772919 515.629028 459.71405 504.539246 C 447.221436 497.632629 434.628754 490.907196 422.043152 483.459351 C 421.476257 480.79715 423.33313 480.02832 424.881378 479.155853 C 468.337494 454.668518 511.49881 429.662933 555.292236 405.02948 C 567.241516 399.443787 578.047241 392.545166 589.175293 386.237915 C 618.540771 369.593964 647.790955 352.746735 677.115417 336.03009 C 679.28186 334.795105 681.285767 333.29129 683.904785 332.135101 z" stroke-linecap="round" />
</g>
<g transform="matrix(1 0 0 1 539.91 818.91)"  >
<path style="stroke: none; stroke-width: 1; stroke-dasharray: none; stroke-linecap: butt; stroke-dashoffset: 0; stroke-linejoin: miter; stroke-miterlimit: 4; fill: rgb(42,55,147); fill-rule: nonzero; opacity: 1;" vector-effect="non-scaling-stroke"  transform=" translate(-430.91, -774.41)" d="M 686.453003 628.947632 C 689.112549 629.443176 691.173401 630.347839 693.245117 631.492249 C 714.855713 643.430054 736.567871 655.183899 758.182678 667.114075 C 778.359192 678.250549 798.446838 689.547852 818.591919 700.741516 C 820.180542 701.624146 821.91217 702.249512 823.958984 703.042419 C 820.168762 711.063538 813.528259 716.484375 805.864807 720.789307 C 767.857544 742.140198 729.83252 763.459595 691.814148 784.790833 C 627.386169 820.93988 562.958435 857.089417 498.530548 893.238647 C 484.309998 901.21759 470.08551 909.189453 455.869476 917.176453 C 439.17099 926.558289 422.602936 926.147522 405.990143 916.817505 C 324.018616 870.780884 242.01503 824.801208 160.029083 778.790283 C 125.64225 759.492188 91.281258 740.14801 56.884892 720.866943 C 49.028885 716.463196 42.455196 710.778442 37.851158 702.55127 C 46.89402 695.833313 56.873249 690.868469 66.502266 685.321106 C 94.296539 669.308411 122.197678 653.48114 150.070724 637.605469 C 157.576965 633.3302 165.132645 629.141724 173.031219 624.795166 C 176.790482 625.591003 177.53035 628.847961 178.996246 631.318054 C 191.817917 652.923584 206.924637 672.772156 224.858841 690.360779 C 260.87323 725.681274 302.893158 750.831421 351.619324 764.473022 C 371.574249 770.059631 391.836548 773.393433 412.560577 774.80365 C 461.845215 778.15741 508.708374 769.101135 553.505981 748.738037 C 583.033569 735.31604 609.423767 717.260559 632.879028 694.788208 C 651.639282 676.814087 668.047302 657.034058 681.525574 634.816772 C 682.800537 632.71521 683.819946 630.336243 686.453003 628.947632 z" stroke-linecap="round" />
</g>
<g transform="matrix(1 0 0 1 520.96 527.31)"  >
<path style="stroke: none; stroke-width: 1; stroke-dasharray: none; stroke-linecap: butt; stroke-dashoffset: 0; stroke-linejoin: miter; stroke-miterlimit: 4; fill: rgb(254,254,254); fill-rule: nonzero; opacity: 1;" vector-effect="non-scaling-stroke"  transform=" translate(-411.96, -482.81)" d="M 686.707092 628.632935 C 669.028809 658.975708 647.245178 685.688354 620.345947 708.068726 C 574.846558 745.924561 522.743591 768.481384 463.867249 775.072083 C 343.142731 788.58606 230.36293 726.924316 173.624664 624.926636 C 159.092331 597.754211 148.097443 569.597046 142.687866 539.509155 C 126.060295 447.027039 147.215363 364.068115 207.679947 292.134125 C 252.483185 238.832245 309.977722 205.516022 378.625641 193.607239 C 468.001373 178.102676 548.477539 199.394455 619.108337 256.570038 C 645.126953 277.63208 666.246887 303.067871 683.996582 331.797852 C 684.230713 333.96347 682.553467 334.356232 681.322449 335.060181 C 640.33844 358.4953 599.340515 381.906067 558.338562 405.309692 C 557.92218 405.547333 557.424683 405.642609 556.623413 405.804688 C 554.43335 405.118317 553.511597 403.531586 552.460938 402.013428 C 527.158142 365.452301 492.558502 343.723724 448.381683 338.403625 C 406.321442 333.338379 368.576508 344.743896 336.548218 372.395599 C 306.666107 398.194519 289.76828 431.121002 286.230316 470.823853 C 284.06131 495.16452 288.576447 518.188293 297.528778 540.607971 C 298.829559 543.86554 300.460266 546.95929 302.499573 550.275269 C 309.879669 565.733398 320.193848 578.59259 332.42099 589.784424 C 354.235718 609.751892 379.790039 622.413696 409.179077 626.748169 C 448.422424 632.536072 484.224854 623.754211 516.590515 600.845703 C 531.321106 590.419312 543.310974 577.377869 553.371704 562.479248 C 554.299316 561.105591 555.069214 559.595886 556.859497 558.501465 C 558.804382 557.241211 560.050354 558.340332 561.320862 559.038696 C 602.712769 581.789795 644.099792 604.549683 685.479248 627.323303 C 685.901367 627.555542 686.21344 627.987671 686.707092 628.632935 z" stroke-linecap="round" />
</g>
<g transform="matrix(1 0 0 1 529.23 488.07)"  >
<path style="stroke: none; stroke-width: 1; stroke-dasharray: none; stroke-linecap: butt; stroke-dashoffset: 0; stroke-linejoin: miter; stroke-miterlimit: 4; fill: rgb(93,108,191); fill-rule: nonzero; opacity: 1;" vector-effect="non-scaling-stroke"  transform=" translate(-420.23, -443.57)" d="M 301.717377 551.231812 C 292.160034 535.107849 287.111664 517.722046 285.214417 499.567078 C 280.684448 456.219482 292.618286 417.681488 321.557068 385.075928 C 386.753204 311.618805 503.921631 321.795685 556.188965 405.46991 C 526.622559 422.807343 496.976624 439.832794 467.298767 456.802338 C 452.322845 465.365387 437.289032 473.827209 422.095215 482.62207 C 419.459991 486.844604 415.037781 488.014099 411.378265 490.110901 C 376.65152 510.008179 341.930054 529.915833 307.067047 549.574524 C 305.501862 550.457031 304.072235 551.754333 301.717377 551.231812 z" stroke-linecap="round" />
</g>
<g transform="matrix(1 0 0 1 538.3 600.95)"  >
<path style="stroke: none; stroke-width: 1; stroke-dasharray: none; stroke-linecap: butt; stroke-dashoffset: 0; stroke-linejoin: miter; stroke-miterlimit: 4; fill: rgb(42,54,147); fill-rule: nonzero; opacity: 1;" vector-effect="non-scaling-stroke"  transform=" translate(-429.3, -556.45)" d="M 301.46814 551.440674 C 314.250031 543.849915 327.146729 536.683838 339.973541 529.394775 C 363.045685 516.283691 386.075195 503.097565 409.124268 489.945862 C 413.156158 487.645294 417.196503 485.359558 421.570984 482.988159 C 432.565765 487.58725 442.438171 493.729614 452.606232 499.322296 C 470.019836 508.900146 487.474792 518.402771 504.898468 527.962402 C 521.625732 537.139893 538.335388 546.349426 555.05249 555.545471 C 555.936768 556.031921 556.801941 556.538696 557.122803 558.011719 C 537.793762 590.81366 509.827393 612.628296 473.820282 623.532471 C 407.023499 643.760803 336.360535 614.686768 302.393585 553.620422 C 302.070862 553.040283 301.830353 552.41449 301.46814 551.440674 z" stroke-linecap="round" />
</g>
</svg>