<?xml version="1.0" encoding="UTF-8" standalone="no" ?>
<!DOCTYPE svg PUBLIC "-//W3C//DTD SVG 1.1//EN" "http://www.w3.org/Graphics/SVG/1.1/DTD/svg11.dtd">
<svg xmlns="http://www.w3.org/2000/svg" xmlns:xlink="http://www.w3.org/1999/xlink" version="1.1" width="1080" height="1080" viewBox="0 0 1080 1080" xml:space="preserve">
<desc>Created with Fabric.js 5.2.4</desc>
<defs>
</defs>
<g transform="matrix(1 0 0 1 540 540)" id="f4558cd2-a8c2-4bd3-b4d7-0f80a1652072"  >
<rect style="stroke: none; stroke-width: 1; stroke-dasharray: none; stroke-linecap: butt; stroke-dashoffset: 0; stroke-linejoin: miter; stroke-miterlimit: 4; fill: rgb(255,255,255); fill-rule: nonzero; opacity: 1; visibility: hidden;" vector-effect="non-scaling-stroke"  x="-540" y="-540" rx="0" ry="0" width="1080" height="1080" />
</g>
<g transform="matrix(1 0 0 1 540 540)" id="6be857ba-3b28-498b-a43d-a97c7160f2ca"  >
</g>
<g transform="matrix(1 0 0 1 535.99 503.71)"  >
<path style="stroke: none; stroke-width: 1; stroke-dasharray: none; stroke-linecap: butt; stroke-dashoffset: 0; stroke-linejoin: miter; stroke-miterlimit: 4; fill: rgb(149,61,172); fill-rule: nonzero; opacity: 1;" vector-effect="non-scaling-stroke"  transform=" translate(-331.93, -164.75)" d="M 202.822845 278.556061 C 201.557907 274.527893 199.218643 270.50647 199.193451 266.470551 C 198.928375 223.996979 198.961395 181.520859 199.086227 139.045975 C 199.116974 128.582947 204.624252 121.322525 213.574142 116.206833 C 242.041672 99.934998 270.43161 83.52739 298.847229 67.164803 C 305.626648 63.260986 312.420532 59.380814 319.152466 55.396305 C 329.078217 49.521442 338.915771 49.466232 348.939178 55.260567 C 384.387817 75.752693 419.921509 96.098122 455.305084 116.701614 C 458.933807 118.81459 461.771759 122.285561 464.860809 125.727943 C 447.02887 136.564713 429.312714 146.799927 411.359253 156.825104 C 393.446442 128.840073 368.105469 113.798241 335.261017 113.14782 C 284.399719 112.14061 243.4758 154.282822 244.650391 205.12738 C 245.001083 220.307907 249.468964 234.178268 255.77948 247.67952 C 244.501114 254.024399 233.534988 260.167816 222.668289 266.48233 C 215.974701 270.371918 209.432846 274.522614 202.822845 278.556061 z" stroke-linecap="round" />
</g>
<g transform="matrix(1 0 0 1 538.55 639.9)"  >
<path style="stroke: none; stroke-width: 1; stroke-dasharray: none; stroke-linecap: butt; stroke-dashoffset: 0; stroke-linejoin: miter; stroke-miterlimit: 4; fill: rgb(104,33,122); fill-rule: nonzero; opacity: 1;" vector-effect="non-scaling-stroke"  transform=" translate(-334.48, -300.95)" d="M 202.844757 278.884857 C 209.432846 274.522614 215.974701 270.371918 222.668289 266.48233 C 233.534988 260.167816 244.501114 254.024399 256.063202 247.913513 C 278.763214 283.109985 316.239807 299.3255 355.194824 289.891632 C 380.095306 283.861359 399.331299 269.711731 412.171234 247.132355 C 430.375092 257.540466 448.249359 267.815704 466.123657 278.090942 C 462.849457 281.514374 460.143341 285.907867 456.212433 288.2099 C 420.150574 309.328613 383.893585 330.114655 347.651489 350.924561 C 338.862579 355.971069 329.797058 356.086548 320.995544 351.040527 C 284.45108 330.088989 247.927261 309.100159 211.541382 287.875549 C 208.127274 285.884033 205.733948 282.142609 202.844757 278.884857 z" stroke-linecap="round" />
</g>
<g transform="matrix(1 0 0 1 606.35 540.89)"  >
<path style="stroke: none; stroke-width: 1; stroke-dasharray: none; stroke-linecap: butt; stroke-dashoffset: 0; stroke-linejoin: miter; stroke-miterlimit: 4; fill: rgb(131,45,152); fill-rule: nonzero; opacity: 1;" vector-effect="non-scaling-stroke"  transform=" translate(-402.29, -201.94)" d="M 466.382385 277.832581 C 448.249359 267.815704 430.375092 257.540466 411.844025 247.045502 C 398.49292 239.535812 385.798584 232.245834 372.89151 224.689575 C 371.604553 223.670563 370.575165 222.841934 369.449249 222.176743 C 357.955719 215.386337 346.446533 208.622498 335.2034 201.640442 C 338.176819 199.835464 340.897461 198.256165 343.598663 196.644287 C 353.108704 190.969376 362.612061 185.283325 372.465881 179.669006 C 384.786041 173.027283 396.769073 166.337067 408.712463 159.576843 C 409.803772 158.959152 410.641235 157.893036 411.596588 157.035156 C 429.312714 146.799927 447.02887 136.564713 464.962463 126.048355 C 469.051056 130.667313 469.279297 136.47879 469.283905 142.32933 C 469.303833 167.60051 469.30658 192.871689 469.311005 218.142868 C 469.31369 233.272324 469.513977 248.406296 469.183655 263.528564 C 469.081024 268.226746 467.529419 272.893219 466.382385 277.832581 M 437.788361 195.276901 C 438.119507 189.156189 443.637329 193.764343 445.863831 191.301712 C 445.863831 189.293228 445.863831 187.178726 445.863831 184.969482 C 443.794586 184.629028 441.914459 184.319687 439.90509 183.98909 C 440.357697 180.248947 440.76535 176.88031 441.188141 173.386505 C 438.415802 173.386505 436.19693 173.386505 433.859314 173.386505 C 433.085785 177.195755 432.369995 180.720764 431.663422 184.200256 C 427.642609 184.200256 424.059814 184.200256 420.152893 184.200256 C 420.70343 180.434998 421.200287 177.036789 421.741119 173.337936 C 419.136688 173.337936 416.723877 173.337936 414.189667 173.337936 C 413.561157 176.623596 413.84256 180.397888 412.115936 182.592117 C 410.615417 184.499054 406.844025 184.619095 403.935303 185.575119 C 403.935303 187.463074 403.935303 189.546219 403.935303 191.799286 C 406.303711 191.986572 408.410187 192.153152 410.790161 192.341354 C 410.015442 196.59964 409.287079 200.602936 408.562836 204.583801 C 405.774628 204.765701 403.5224 204.912628 401.164307 205.066467 C 401.164307 207.538483 401.164307 209.635193 401.164307 211.958923 C 403.121368 212.151031 404.87915 212.323593 407.12442 212.544006 C 406.621002 216.315414 406.147461 219.862869 405.631775 223.726288 C 408.218628 223.726288 410.483734 223.726288 413.089996 223.726288 C 413.803192 220.045609 414.520172 216.345383 415.249146 212.583282 C 419.209473 212.583282 422.908508 212.583282 426.824982 212.583282 C 426.255737 216.50621 425.742188 220.045456 425.212952 223.692932 C 427.966858 223.692932 430.382233 223.692932 432.731445 223.692932 C 434.847992 213.065948 434.847992 213.065948 442.968018 211.621887 C 442.968018 209.424973 442.968018 207.227936 442.968018 205.068542 C 440.506439 204.842819 438.452942 204.654495 436.187225 204.446732 C 436.720886 201.31958 437.165344 198.715149 437.788361 195.276901 z" stroke-linecap="round" />
</g>
<g transform="matrix(1 0 0 1 532.13 541.79)"  >
<path style="stroke: none; stroke-width: 1; stroke-dasharray: none; stroke-linecap: butt; stroke-dashoffset: 0; stroke-linejoin: miter; stroke-miterlimit: 4; fill: rgb(253,253,253); fill-rule: nonzero; opacity: 1;" vector-effect="non-scaling-stroke"  transform=" translate(-328.07, -202.83)" d="M 411.359253 156.825104 C 410.641235 157.893036 409.803772 158.959152 408.712463 159.576843 C 396.769073 166.337067 384.786041 173.027283 372.405884 179.346558 C 358.167419 157.783264 331.452118 151.656616 310.446411 164.840927 C 289.859833 177.762146 283.294617 204.337326 295.726807 225.351166 C 300.056671 232.705521 305.754364 238.142929 312.913422 242.059662 C 332.43338 252.739075 359.521973 247.759247 373.104279 224.955841 C 385.798584 232.245834 398.49292 239.535812 411.514465 246.912659 C 399.331299 269.711731 380.095306 283.861359 355.194824 289.891632 C 316.239807 299.3255 278.763214 283.109985 256.417419 247.784286 C 249.468964 234.178268 245.001083 220.307907 244.650391 205.12738 C 243.4758 154.282822 284.399719 112.14061 335.261017 113.14782 C 368.105469 113.798241 393.446442 128.840073 411.359253 156.825104 z" stroke-linecap="round" />
</g>
<g transform="matrix(1 0 0 1 534.79 530.42)"  >
<path style="stroke: none; stroke-width: 1; stroke-dasharray: none; stroke-linecap: butt; stroke-dashoffset: 0; stroke-linejoin: miter; stroke-miterlimit: 4; fill: rgb(149,62,172); fill-rule: nonzero; opacity: 1;" vector-effect="non-scaling-stroke"  transform=" translate(-330.73, -191.47)" d="M 295.582062 225.009674 C 283.294617 204.337326 289.859833 177.762146 310.446411 164.840927 C 331.452118 151.656616 358.167419 157.783264 372.057983 179.279053 C 362.612061 185.283325 353.108704 190.969376 343.598663 196.644287 C 340.897461 198.256165 338.176819 199.835464 334.891785 201.799957 C 321.406342 209.783356 308.494202 217.396515 295.582062 225.009674 z" stroke-linecap="round" />
</g>
<g transform="matrix(1 0 0 1 538.37 563.67)"  >
<path style="stroke: none; stroke-width: 1; stroke-dasharray: none; stroke-linecap: butt; stroke-dashoffset: 0; stroke-linejoin: miter; stroke-miterlimit: 4; fill: rgb(104,34,122); fill-rule: nonzero; opacity: 1;" vector-effect="non-scaling-stroke"  transform=" translate(-334.31, -224.72)" d="M 295.726807 225.351181 C 308.494202 217.396515 321.406342 209.783356 334.630096 202.010712 C 346.446533 208.622498 357.955719 215.386337 369.449249 222.176743 C 370.575165 222.841934 371.604553 223.670563 372.89151 224.689575 C 359.521973 247.759247 332.43338 252.739075 312.913422 242.059662 C 305.754364 238.142929 300.056671 232.705521 295.726807 225.351181 z" stroke-linecap="round" />
</g>
<g transform="matrix(1 0 0 1 627.58 537.49)"  >
<path style="stroke: none; stroke-width: 1; stroke-dasharray: none; stroke-linecap: butt; stroke-dashoffset: 0; stroke-linejoin: miter; stroke-miterlimit: 4; fill: rgb(253,251,253); fill-rule: nonzero; opacity: 1;" vector-effect="non-scaling-stroke"  transform=" translate(-423.51, -198.53)" d="M 437.699097 195.693817 C 437.165344 198.715149 436.720886 201.31958 436.187225 204.446732 C 438.452942 204.654495 440.506439 204.842819 442.968018 205.068542 C 442.968018 207.227936 442.968018 209.424973 442.968018 211.621887 C 434.847992 213.065948 434.847992 213.065948 432.731445 223.692932 C 430.382233 223.692932 427.966858 223.692932 425.212952 223.692932 C 425.742188 220.045456 426.255737 216.50621 426.824982 212.583282 C 422.908508 212.583282 419.209473 212.583282 415.249146 212.583282 C 414.520172 216.345383 413.803192 220.045609 413.089996 223.726288 C 410.483734 223.726288 408.218628 223.726288 405.631775 223.726288 C 406.147461 219.862869 406.621002 216.315414 407.12442 212.544006 C 404.87915 212.323593 403.121368 212.151031 401.164307 211.958923 C 401.164307 209.635193 401.164307 207.538483 401.164307 205.066467 C 403.5224 204.912628 405.774628 204.765701 408.562836 204.583801 C 409.287079 200.602936 410.015442 196.59964 410.790161 192.341354 C 408.410187 192.153152 406.303711 191.986572 403.935303 191.799286 C 403.935303 189.546219 403.935303 187.463074 403.935303 185.575119 C 406.844025 184.619095 410.615417 184.499054 412.115936 182.592117 C 413.84256 180.397888 413.561157 176.623596 414.189667 173.337936 C 416.723877 173.337936 419.136688 173.337936 421.741119 173.337936 C 421.200287 177.036789 420.70343 180.434998 420.152893 184.200256 C 424.059814 184.200256 427.642609 184.200256 431.663422 184.200256 C 432.369995 180.720764 433.085785 177.195755 433.859314 173.386505 C 436.19693 173.386505 438.415802 173.386505 441.188141 173.386505 C 440.76535 176.88031 440.357697 180.248947 439.90509 183.98909 C 441.914459 184.319687 443.794586 184.629028 445.863831 184.969482 C 445.863831 187.178726 445.863831 189.293228 445.863831 191.301712 C 443.637329 193.764343 438.119507 189.156189 437.699097 195.693817 M 423.660156 191.914703 C 421.669312 192.386719 418.684113 190.540115 418.09967 194.292465 C 417.570496 197.69017 417.049622 201.089142 416.524597 204.490692 C 428.826324 206.138443 430.185028 204.870895 429.994629 191.914688 C 428.207123 191.914688 426.401367 191.914688 423.660156 191.914703 z" stroke-linecap="round" />
</g>
<g transform="matrix(1 0 0 1 627.33 537.42)"  >
<path style="stroke: none; stroke-width: 1; stroke-dasharray: none; stroke-linecap: butt; stroke-dashoffset: 0; stroke-linejoin: miter; stroke-miterlimit: 4; fill: rgb(134,50,155); fill-rule: nonzero; opacity: 1;" vector-effect="non-scaling-stroke"  transform=" translate(-423.27, -198.46)" d="M 424.127899 191.914703 C 426.401367 191.914688 428.207123 191.914688 429.994629 191.914688 C 430.185028 204.870895 428.826324 206.138443 416.524597 204.490692 C 417.049622 201.089142 417.570496 197.69017 418.09967 194.292465 C 418.684113 190.540115 421.669312 192.386719 424.127899 191.914703 z" stroke-linecap="round" />
</g>
</svg>