<?xml version="1.0" encoding="UTF-8" standalone="no" ?>
<!DOCTYPE svg PUBLIC "-//W3C//DTD SVG 1.1//EN" "http://www.w3.org/Graphics/SVG/1.1/DTD/svg11.dtd">
<svg xmlns="http://www.w3.org/2000/svg" xmlns:xlink="http://www.w3.org/1999/xlink" version="1.1" width="1080" height="1080" viewBox="0 0 1080 1080" xml:space="preserve">
<desc>Created with Fabric.js 5.2.4</desc>
<defs>
</defs>
<g transform="matrix(1 0 0 1 540 540)" id="d8305fe5-0cf8-4279-9f42-a97b9a1fc9d9"  >
<rect style="stroke: none; stroke-width: 1; stroke-dasharray: none; stroke-linecap: butt; stroke-dashoffset: 0; stroke-linejoin: miter; stroke-miterlimit: 4; fill: rgb(255,255,255); fill-rule: nonzero; opacity: 1; visibility: hidden;" vector-effect="non-scaling-stroke"  x="-540" y="-540" rx="0" ry="0" width="1080" height="1080" />
</g>
<g transform="matrix(1 0 0 1 540 540)" id="1dd5a2f4-ef78-4a34-8c9b-fbb9da017ec5"  >
</g>
<g transform="matrix(1 0 0 1 538.24 516.01)"  >
<path style="stroke: none; stroke-width: 1; stroke-dasharray: none; stroke-linecap: butt; stroke-dashoffset: 0; stroke-linejoin: miter; stroke-miterlimit: 4; fill: rgb(102,154,211); fill-rule: nonzero; opacity: 1;" vector-effect="non-scaling-stroke"  transform=" translate(-179.23, -157.02)" d="M 185.636993 42.354446 C 191.176315 42.214687 194.353363 46.570179 198.881012 48.122898 C 202.57196 49.388676 205.830872 51.914173 209.630737 53.957756 C 210.318176 54.268826 210.694748 54.388458 211.392426 54.508469 C 212.035339 54.805595 212.372971 55.03067 212.934448 55.468136 C 213.318054 55.799618 213.461136 55.943726 213.77179 56.340767 C 214.134491 56.947624 214.363052 57.278419 214.864532 57.769341 C 215.10376 57.952744 215.033051 57.968338 215.03801 57.932472 C 216.656403 59.416138 218.218842 61.011265 220.763397 61.748238 C 230.030762 65.327377 238.331284 70.194405 246.147568 75.555763 C 251.024765 78.901131 256.30658 81.532585 261.307434 84.475235 C 268.762085 88.861755 276.144104 93.476448 283.753632 97.513741 C 289.539429 100.583443 294.970886 104.300247 300.942474 107.083824 C 305.600525 109.255112 309.912048 112.32 312.81543 117.322556 C 314.110809 120.915016 311.301147 121.642372 309.509644 122.716805 C 297.030731 130.201065 284.499481 137.599625 271.773468 144.659775 C 269.021454 146.186523 266.439087 147.982452 263.398438 149.734589 C 262.414368 150.242752 261.703979 150.425613 260.260345 150.639587 C 259.305908 150.632843 259.075378 150.565674 258.540527 150.312805 C 255.400345 146.858429 253.43689 143.036987 251.210724 139.001099 C 250.565643 137.829819 250.584671 136.72258 249.639893 135.748047 C 249.253448 135.464661 249.087555 135.367844 248.688995 135.105042 C 248.311569 134.818893 248.166824 134.698746 247.619202 134.200699 C 247.088898 133.695648 246.961487 133.568481 246.462341 133.064606 C 245.96756 132.565414 245.844543 132.442947 245.34613 131.966492 C 244.841049 131.499527 244.711334 131.38652 244.176926 130.944351 C 243.63327 130.505341 243.494278 130.395493 243.14566 130.118652 C 242.651474 129.722748 242.366394 129.494431 241.84433 129.107086 C 241.279007 128.728622 240.949081 128.511459 240.343338 128.138855 C 235.88649 125.002235 231.869156 121.800865 227.475403 118.566719 C 226.707687 117.719734 226.368317 116.926437 225.344208 116.368317 C 224.902176 116.130966 224.730698 116.026451 224.316132 115.746506 C 223.49176 115.027 222.869431 114.555717 221.745941 114.372772 C 221.23877 114.249733 221.037018 114.185638 220.53978 113.993942 C 219.865616 113.648613 219.481903 113.440094 218.80394 113.062439 C 218.337112 112.739838 218.159866 112.594986 217.748627 112.196915 C 213.987122 108.438347 209.413681 109.052879 204.681946 108.815758 C 202.371399 108.825813 200.559998 108.326836 198.462555 107.309448 C 195.25618 105.14637 191.93512 104.600922 188.664993 104.579842 C 182.556259 104.540451 176.422394 103.99073 169.948212 105.077789 C 165.972366 105.509415 162.355103 105.689445 158.63913 107.284889 C 156.054718 107.430359 153.836655 107.548729 151.773468 109.317749 C 151.318054 109.573212 151.141907 109.681198 150.689484 109.917664 C 149.8703 110.265884 149.294968 110.38295 148.506653 110.721405 C 148.112106 110.966232 147.953674 111.062927 147.557098 111.305634 C 147.160233 111.551056 147.001511 111.650482 146.603287 111.904938 C 146.202332 112.167297 146.040894 112.274612 145.63475 112.5466 C 145.05249 112.939369 144.713364 113.165085 144.109009 113.577301 C 141.142181 115.426125 138.292313 116.797264 135.094803 118.191063 C 134.607773 118.395996 134.414169 118.471542 133.935944 118.648254 C 133.466202 118.811981 133.281082 118.874542 132.8255 119.029251 C 132.204971 119.247849 131.854401 119.372841 131.270782 119.645844 C 130.882202 119.897453 130.726044 119.99929 130.332474 120.257416 C 129.932419 120.517097 129.76976 120.620506 129.352203 120.871017 C 128.917465 121.102905 128.73761 121.187668 128.271729 121.360779 C 126.777771 121.782074 125.796661 122.450584 124.838516 123.690567 C 124.508797 124.103958 124.375366 124.270294 124.023636 124.674927 C 123.645981 125.060196 123.486603 125.207169 123.073372 125.556824 C 122.640862 125.879326 122.462204 125.999138 121.998512 126.262215 C 120.942024 126.740456 120.277344 127.216682 119.609032 128.151154 C 119.374718 128.603195 119.288727 128.788376 119.046425 129.236389 C 118.774704 129.666489 118.659302 129.833725 118.172607 130.480652 C 117.673851 131.117523 117.546394 131.274704 117.025681 131.900665 C 116.493309 132.52179 116.354179 132.674133 115.992706 133.044632 C 115.456268 133.536423 115.12574 133.788345 114.504509 134.166077 C 113.242294 134.636139 112.374382 135.128937 111.654251 136.304382 C 111.434387 136.763641 111.358871 136.954056 111.140457 137.417557 C 110.780731 138.03949 110.551498 138.379974 110.130234 138.962128 C 109.81765 139.367752 109.684601 139.52327 109.329208 139.887787 C 108.227699 140.6306 107.548294 141.317947 107.277481 142.679718 C 106.436989 145.217163 105.710373 147.472641 103.711365 149.388641 C 103.345856 149.746521 103.206924 149.893005 102.704536 150.500961 C 102.114128 151.264755 101.88871 151.568207 101.542686 152.120178 C 101.347397 152.536041 101.274475 152.704681 101.083649 153.12146 C 100.802483 153.695374 100.632828 154.017776 100.341827 154.585754 C 100.148529 155.001556 100.068924 155.167725 99.866211 155.583038 C 99.564659 156.162567 99.392052 156.496002 99.098328 157.093597 C 98.87809 157.526489 98.78373 157.697708 98.522697 158.110825 C 97.997673 158.821121 97.697548 159.321259 97.465073 160.181259 C 97.364349 160.669128 97.318054 160.863678 97.17971 161.343964 C 96.801918 162.367935 96.438087 163.081238 96.309296 164.190704 C 96.192581 164.692749 96.133789 164.89209 95.959229 165.383301 C 95.649048 166.049164 95.457573 166.424683 95.112083 167.083542 C 94.833481 167.544357 94.711792 167.723282 94.381691 168.149139 C 93.154015 171.969284 91.95929 175.516678 92.629074 179.688019 C 92.854301 181.60141 92.737312 183.132477 92.178528 185.012512 C 89.704453 191.463852 89.880066 197.609329 91.759476 204.121857 C 94.444038 210.927078 94.272514 218.052048 96.968781 224.843964 C 97.1717 225.859955 97.186981 226.537094 97.274155 227.515198 C 97.342697 228.016327 97.372108 228.213547 97.451614 228.699661 C 97.567101 229.366516 97.664856 229.73587 97.906944 230.361755 C 98.08564 230.80661 98.153252 230.986084 98.300171 231.441071 C 98.474281 232.272583 98.589661 232.822296 99.054749 233.536758 C 99.357765 233.900436 99.477844 234.048172 99.76236 234.430786 C 100.133232 234.98967 100.325294 235.321915 100.664459 235.906647 C 100.931557 236.318344 101.03492 236.487091 101.287392 236.915695 C 101.63504 237.535629 101.822174 237.901566 102.13652 238.565643 C 102.5093 239.496384 102.606796 240.153229 102.457947 241.169373 C 102.044548 242.159729 101.57151 242.680923 100.694481 243.311066 C 84.881325 252.782043 69.135666 261.655365 53.470398 270.66748 C 52.318817 271.329956 51.121845 271.918488 49.377987 271.82605 C 46.912018 269.983948 46.022747 267.629333 45.86779 264.580139 C 45.134323 262.450592 45.523113 260.593567 45.520962 258.787354 C 45.469017 215.175293 45.55584 171.563187 45.320736 127.477524 C 47.232681 118.866714 51.643715 112.399071 58.928387 108.119766 C 70.807396 101.141548 82.748924 94.269638 94.679977 87.380402 C 95.527779 86.890854 96.505684 86.626602 97.756165 86.124817 C 100.509605 84.571617 103.42691 84.104179 105.401772 81.780121 C 105.258507 81.456093 105.3722 81.257202 105.486633 81.262268 C 107.441643 81.156097 108.849457 79.928619 110.714203 79.097458 C 128.776566 68.257759 146.636246 57.679512 164.50238 47.112198 C 167.925583 45.087471 171.336823 43.023994 175.667206 42.19463 C 179.099503 42.815174 182.190018 42.386234 185.636993 42.354446 z" stroke-linecap="round" />
</g>
<g transform="matrix(1 0 0 1 540.43 653.3)"  >
<path style="stroke: none; stroke-width: 1; stroke-dasharray: none; stroke-linecap: butt; stroke-dashoffset: 0; stroke-linejoin: miter; stroke-miterlimit: 4; fill: rgb(2,68,128); fill-rule: nonzero; opacity: 1;" vector-effect="non-scaling-stroke"  transform=" translate(-181.42, -294.31)" d="M 49.023403 272.129578 C 56.848248 265.926178 65.700569 261.795624 74.029099 256.793274 C 82.384285 251.774887 90.921631 247.059784 99.719963 242.133698 C 104.096703 242.628723 105.292229 246.719971 108.516479 248.83757 C 111.399506 251.249771 113.627815 253.800934 115.69651 256.928406 C 116.340736 257.898407 116.547386 258.761597 117.539566 259.436768 C 118.003853 259.68811 118.188515 259.794189 118.647331 260.071533 C 119.103287 260.363098 119.285095 260.483398 120.013779 260.982697 C 120.745354 261.493073 120.930046 261.624512 121.392349 261.958618 C 129.430939 267.049957 136.538513 272.928589 144.917725 277.565063 C 153.449921 282.957916 162.856003 284.300446 172.166367 285.331299 C 178.391098 286.020538 184.793198 285.872131 191.467865 285.063629 C 192.764542 284.542816 193.709625 284.195618 195.080719 284.037842 C 196.777267 284.029022 198.157211 284.570709 199.729828 283.518311 C 205.050415 281.234039 210.896225 281.655426 215.802292 278.100464 C 217.558868 277.146301 219.098999 276.598938 220.992447 276.035583 C 222.329987 275.733582 223.470078 275.881714 224.398911 274.67218 C 224.695007 274.252777 224.812546 274.085175 225.140839 273.69693 C 225.657166 273.220398 225.977646 272.985077 226.563934 272.630615 C 226.97319 272.390045 227.135422 272.294464 227.545456 272.071045 C 228.123352 271.782837 228.457535 271.631439 229.035187 271.355408 C 229.438034 271.135651 229.601501 271.049652 230.01532 270.839783 C 230.616074 270.568115 230.96376 270.414276 231.581146 270.129578 C 232.043121 269.926971 232.232819 269.849396 232.719543 269.677643 C 234.393082 269.232025 235.184341 268.259491 235.906189 266.732117 C 236.802139 265.496826 237.744232 264.823456 239.057709 264.057831 C 242.172974 262.269196 246.482269 262.406342 246.712128 257.344421 C 246.958389 256.586273 247.167953 256.185577 247.635651 255.553452 C 248.44072 254.692886 249.272568 254.321075 249.791138 253.199158 C 250.467529 252.187332 251.109192 251.580734 252.053131 250.797302 C 253.873688 249.071289 256.204956 248.100906 256.018677 244.984818 C 256.298859 243.072372 256.974152 241.754578 258.511597 240.535095 C 264.771454 239.458679 268.73938 243.787506 273.18512 246.269836 C 285.643463 253.226135 297.651123 260.986572 310.428741 267.395844 C 311.769348 268.068298 313.121796 268.7435 313.823547 270.642212 C 312.097656 275.712494 308.446167 278.816986 304.238342 281.25293 C 267.95871 302.255432 231.663193 323.230743 195.331726 344.143433 C 185.764877 349.650146 176.130829 349.618927 166.477448 344.04834 C 132.056885 324.185455 97.576195 304.426727 63.177887 284.525513 C 57.778206 281.401489 51.835312 278.740906 49.023403 272.129578 z" stroke-linecap="round" />
</g>
<g transform="matrix(1 0 0 1 608.08 553.34)"  >
<path style="stroke: none; stroke-width: 1; stroke-dasharray: none; stroke-linecap: butt; stroke-dashoffset: 0; stroke-linejoin: miter; stroke-miterlimit: 4; fill: rgb(2,89,156); fill-rule: nonzero; opacity: 1;" vector-effect="non-scaling-stroke"  transform=" translate(-249.07, -194.34)" d="M 314.151123 270.706116 C 299.480164 264.479797 286.177094 255.890015 272.532501 247.875671 C 268.473541 245.491562 264.480835 242.719543 259.610474 241.043335 C 256.539093 241.148056 254.715485 239.296188 252.633301 238.003494 C 242.117233 231.474884 231.022781 225.95871 220.063019 219.477127 C 208.21376 213.624832 197.424866 206.631271 186.21373 200.384171 C 184.357742 199.349991 182.682968 197.931747 181.621887 195.539764 C 181.661285 192.168213 184.142181 191.146164 186.209351 189.906479 C 193.296463 185.656433 200.628082 181.820999 207.890488 177.15715 C 211.45787 175.687531 214.377457 173.7603 217.729156 171.910233 C 218.42926 171.507889 218.822372 171.26857 219.49881 170.832733 C 223.228821 168.400894 227.135895 167.100723 231.062714 165.085693 C 233.407944 164.326096 235.590866 164.016632 237.360535 162.06897 C 237.742798 161.67543 237.89917 161.519669 238.313065 161.153534 C 239.107254 160.546478 239.679092 160.201401 240.498657 159.616776 C 243.559708 157.839371 246.150574 155.907455 249.518158 154.688721 C 254.006363 155.372299 256.317596 151.870804 259.742462 150.17543 C 259.967499 149.920609 259.994446 149.982086 259.961609 149.975128 C 260.434723 149.54689 261.1315 149.523285 261.790741 148.846863 C 277.448456 139.501129 292.976288 130.457245 308.485138 121.380905 C 310.031067 120.476173 311.895599 119.985756 312.917755 117.977272 C 315.097748 118.944885 315.435394 121.191872 315.96228 123.680527 C 315.832062 124.224419 315.737976 124.404839 315.880188 124.778412 C 316.116547 124.97155 316.045105 124.981331 316.050812 124.945724 C 316.694092 125.98378 316.49115 127.173019 316.490479 128.321487 C 316.4646 173.694382 316.569397 219.067322 316.262939 264.904541 C 316.331757 267.340271 315.133545 268.812561 314.151123 270.706116 z" stroke-linecap="round" />
</g>
<g transform="matrix(1 0 0 1 675.63 554.19)"  >
<path style="stroke: none; stroke-width: 1; stroke-dasharray: none; stroke-linecap: butt; stroke-dashoffset: 0; stroke-linejoin: miter; stroke-miterlimit: 4; fill: rgb(26,98,153); fill-rule: nonzero; opacity: 1;" vector-effect="non-scaling-stroke"  transform=" translate(-316.62, -195.2)" d="M 316.360138 265.015381 C 316.059265 218.866348 316.037537 172.363785 316.036133 125.385666 C 317.389923 126.028015 317.203247 127.574448 317.202911 129.054642 C 317.192841 172.947159 317.182068 216.839691 317.141144 260.732178 C 317.139923 262.042236 316.813873 263.351929 316.360138 265.015381 z" stroke-linecap="round" />
</g>
<g transform="matrix(1 0 0 1 404.46 554.59)"  >
<path style="stroke: none; stroke-width: 1; stroke-dasharray: none; stroke-linecap: butt; stroke-dashoffset: 0; stroke-linejoin: miter; stroke-miterlimit: 4; fill: rgb(139,182,226); fill-rule: nonzero; opacity: 1;" vector-effect="non-scaling-stroke"  transform=" translate(-45.45, -195.6)" d="M 45.092331 127.466873 C 46.214157 128.297836 45.999805 129.837128 45.999454 131.320343 C 45.989059 175.296158 45.970787 219.271957 45.933105 263.728546 C 44.497116 263.295013 44.960896 261.829529 44.960716 260.585663 C 44.954319 216.36705 44.981548 172.148422 45.092331 127.466873 z" stroke-linecap="round" />
</g>
<g transform="matrix(1 0 0 1 460.74 442.8)"  >
<path style="stroke: none; stroke-width: 1; stroke-dasharray: none; stroke-linecap: butt; stroke-dashoffset: 0; stroke-linejoin: miter; stroke-miterlimit: 4; fill: rgb(127,163,203); fill-rule: nonzero; opacity: 1;" vector-effect="non-scaling-stroke"  transform=" translate(-101.74, -83.8)" d="M 104.974213 81.615211 C 105.353638 86.108856 101.58358 85.313545 98.475159 85.993416 C 99.878822 83.943474 102.46209 83.137024 104.974213 81.615211 z" stroke-linecap="round" />
</g>
<g transform="matrix(1 0 0 1 577 419.22)"  >
<path style="stroke: none; stroke-width: 1; stroke-dasharray: none; stroke-linecap: butt; stroke-dashoffset: 0; stroke-linejoin: miter; stroke-miterlimit: 4; fill: rgb(132,162,200); fill-rule: nonzero; opacity: 1;" vector-effect="non-scaling-stroke"  transform=" translate(-217.99, -60.23)" d="M 220.91098 61.621361 C 217.501846 63.468105 216.257614 61.044266 215.069107 58.18792 C 217.454285 58.196716 219.192444 59.626717 220.91098 61.621361 z" stroke-linecap="round" />
</g>
<g transform="matrix(1 0 0 1 571.53 414.25)"  >
<path style="stroke: none; stroke-width: 1; stroke-dasharray: none; stroke-linecap: butt; stroke-dashoffset: 0; stroke-linejoin: miter; stroke-miterlimit: 4; fill: rgb(3,7,19); fill-rule: nonzero; opacity: 1;" vector-effect="non-scaling-stroke"  transform=" translate(-212.52, -55.26)" d="M 211.236755 55.510315 C 210.741547 55.012005 210.476456 54.76741 210.095749 54.278614 C 212.538742 52.879288 214.957657 52.0242 214.952057 56.740784 C 214.503357 57.418659 214.027756 57.50658 213.265121 57.110641 C 213.015625 56.829533 213.033829 56.944778 213.090759 56.932083 C 212.516815 56.636993 211.944229 56.269806 211.236755 55.510315 z" stroke-linecap="round" />
</g>
<g transform="matrix(1 0 0 1 539.97 401.46)"  >
<path style="stroke: none; stroke-width: 1; stroke-dasharray: none; stroke-linecap: butt; stroke-dashoffset: 0; stroke-linejoin: miter; stroke-miterlimit: 4; fill: rgb(146,180,207); fill-rule: nonzero; opacity: 1;" vector-effect="non-scaling-stroke"  transform=" translate(-180.96, -42.47)" d="M 185.560028 42.142464 C 182.955322 43.578144 179.828506 43.112251 176.368637 42.426117 C 179.05188 41.656609 182.080872 41.76733 185.560028 42.142464 z" stroke-linecap="round" />
</g>
<g transform="matrix(1 0 0 1 467.27 439.16)"  >
<path style="stroke: none; stroke-width: 1; stroke-dasharray: none; stroke-linecap: butt; stroke-dashoffset: 0; stroke-linejoin: miter; stroke-miterlimit: 4; fill: rgb(127,163,203); fill-rule: nonzero; opacity: 1;" vector-effect="non-scaling-stroke"  transform=" translate(-108.26, -80.17)" d="M 110.575356 78.865387 C 110.019112 80.836823 108.43589 81.687302 105.944275 81.428299 C 107.146065 80.477745 108.691063 79.688156 110.575356 78.865387 z" stroke-linecap="round" />
</g>
<g transform="matrix(1 0 0 1 573.13 416.35)"  >
<path style="stroke: none; stroke-width: 1; stroke-dasharray: none; stroke-linecap: butt; stroke-dashoffset: 0; stroke-linejoin: miter; stroke-miterlimit: 4; fill: rgb(132,162,200); fill-rule: nonzero; opacity: 1;" vector-effect="non-scaling-stroke"  transform=" translate(-214.13, -57.36)" d="M 213.196564 57.086662 C 213.444 56.894447 213.872391 56.959362 214.621033 57.075905 C 214.941315 57.127533 215.014343 57.541553 215.059052 57.747147 C 214.528336 57.74976 213.952927 57.546776 213.196564 57.086662 z" stroke-linecap="round" />
</g>
<g transform="matrix(1 0 0 1 674.91 483.44)"  >
<path style="stroke: none; stroke-width: 1; stroke-dasharray: none; stroke-linecap: butt; stroke-dashoffset: 0; stroke-linejoin: miter; stroke-miterlimit: 4; fill: rgb(26,98,153); fill-rule: nonzero; opacity: 1;" vector-effect="non-scaling-stroke"  transform=" translate(-315.91, -124.45)" d="M 316.103577 124.732544 C 315.738403 124.849777 315.59906 124.614929 315.812317 124.155502 C 315.926117 124.043991 316.090576 124.493546 316.103577 124.732544 z" stroke-linecap="round" />
</g>
<g transform="matrix(1 0 0 1 533.31 553.97)"  >
<path style="stroke: none; stroke-width: 1; stroke-dasharray: none; stroke-linecap: butt; stroke-dashoffset: 0; stroke-linejoin: miter; stroke-miterlimit: 4; fill: rgb(252,254,254); fill-rule: nonzero; opacity: 1;" vector-effect="non-scaling-stroke"  transform=" translate(-174.3, -194.98)" d="M 219.631638 217.752731 C 223.95372 217.209091 226.249802 220.604507 228.889679 222.310989 C 238.732666 228.673782 249.923004 232.764694 259.145599 240.652481 C 258.205475 242.068665 257.888824 243.47818 257.292603 245.11084 C 256.29068 247.658569 254.420944 249.321609 253.203201 251.723663 C 252.347412 252.445267 251.739029 252.945023 251.042648 253.733276 C 250.385178 254.636658 249.756973 255.185684 248.797501 255.80809 C 248.228882 255.902298 248.037811 256.019745 247.933136 256.461029 C 247.04454 260.722595 243.563873 262.377533 240.28476 264.678589 C 239.166122 265.51825 238.343491 266.177216 237.225708 266.962006 C 235.539215 268.331268 234.468185 270.058197 231.959702 270.197266 C 231.607071 270.246613 231.403244 270.271637 231.363129 270.36615 C 231.896362 271.583771 230.833969 271.369293 230.018936 271.656494 C 229.676743 271.676056 229.793396 271.714661 229.79306 271.653229 C 229.695984 272.418213 229.00386 272.460907 228.120422 272.767578 C 227.826385 272.896332 227.943146 272.926788 227.953293 272.86731 C 227.637177 273.390839 227.04335 273.481049 226.237152 273.793091 C 226.000214 273.969666 225.986115 273.982269 225.976807 273.984009 C 224.969238 275.053589 223.962875 276.111389 222.285583 276.791992 C 220.548218 277.557068 219.113144 278.242371 217.347275 279.029236 C 211.566956 281.324951 205.823593 282.545013 199.874405 284.382751 C 198.572037 285.025574 197.561676 284.994232 196.169189 284.748535 C 195.105591 285.067383 194.412857 285.477753 193.405624 285.856323 C 176.383911 287.495636 160.149597 285.905457 144.384003 278.567627 C 139.89595 277.415253 136.826294 274.701294 133.568146 272.205292 C 129.443939 269.045807 124.567764 266.962311 120.407494 263.237122 C 119.810303 262.812592 119.522629 262.544037 119.232224 261.943054 C 119.194496 261.648712 119.174782 261.832123 119.26693 261.828278 C 118.932327 261.798828 118.583351 261.620789 118.206512 261.000946 C 118.100929 260.711548 118.104805 260.850006 118.172981 260.837799 C 116.90596 260.507874 115.92144 259.761841 115.172226 258.230713 C 112.856125 255.501511 110.743813 253.021149 108.432411 250.285706 C 106.105347 247.269821 103.414902 244.913528 102.114258 241.193146 C 101.823166 240.383774 101.549339 239.926651 101.146973 239.23616 C 100.524948 238.581146 100.518387 237.955505 100.216248 237.13179 C 100.085938 236.864456 100.061035 236.970047 100.114578 236.97876 C 99.589035 236.623672 99.51693 235.99736 99.209137 235.14859 C 99.063148 234.879684 99.105965 234.966431 99.147659 234.941925 C 97.871262 234.149353 97.617508 232.828339 97.241928 231.192627 C 97.077637 230.899979 97.066582 230.987228 97.110497 230.98941 C 96.58812 230.619659 96.515778 230.000229 96.24379 229.141052 C 96.120918 228.862808 96.174484 228.9729 96.227493 228.942291 C 95.735199 228.710159 95.492905 228.320404 95.737961 227.406006 C 93.012146 220.253677 92.037628 212.98175 90.761635 205.341156 C 90.380585 204.499054 90.192963 204.041199 89.966965 203.196167 C 89.713409 202.340881 89.59285 201.841888 89.511047 200.933487 C 89.851311 195.638245 88.738312 190.67276 90.381592 185.461349 C 90.803993 183.418381 91.034225 181.741013 91.293411 179.639481 C 91.230103 175.188248 92.627632 171.449158 93.852371 167.346893 C 94.141197 167.072937 94.073029 167.032516 94.074707 167.072113 C 94.386002 166.6073 94.49543 166.036469 94.788986 165.234467 C 94.957039 164.997955 95.026505 164.934128 94.995544 164.898529 C 95.979866 163.893845 95.228844 162.573471 95.918106 161.26236 C 96.199547 161.041153 96.11795 161.10849 96.156609 161.144592 C 96.676788 159.936035 97.071838 158.657288 97.928314 157.251892 C 98.192482 157.047455 98.096336 157.028519 98.091354 157.077255 C 98.400772 156.597717 98.490395 155.989716 98.922226 155.225586 C 99.153488 155.030121 99.064507 155.035004 99.070999 155.079086 C 99.401886 154.597977 99.490219 153.987549 99.924591 153.222137 C 100.156059 153.025787 100.069992 153.038742 100.080879 153.080887 C 100.663391 152.318222 100.394936 151.333374 100.950516 150.2742 C 101.239166 150.085129 101.108788 150.30397 101.21904 150.367752 C 101.303596 150.028488 101.457474 149.724991 101.907898 149.270767 C 103.98275 147.366013 105.313492 145.323395 105.947968 142.45787 C 106.783134 141.101425 107.73629 140.292526 108.899544 139.264282 C 109.159149 139.09201 109.093414 139.048752 109.088455 139.087784 C 109.404518 138.595215 109.487465 137.973297 110.010857 137.282349 C 110.288231 137.151459 110.242531 137.296463 110.316109 137.315582 C 110.92411 135.569275 112.489296 134.669205 113.935944 133.26889 C 114.520744 133.027298 114.749878 132.850876 114.970856 132.359634 C 115.230515 131.852341 115.446259 131.577438 115.90406 131.174255 C 116.121521 131.026825 116.031868 131.015656 116.028091 131.060669 C 116.21582 130.820236 116.434883 130.55806 116.891388 130.168457 C 117.097084 130.014236 117.013405 130.01355 117.014137 130.055389 C 117.214371 129.816635 117.437668 129.556702 117.895844 129.167725 C 118.10331 129.014923 118.030655 129.055313 118.052956 129.090393 C 118.665253 127.308342 120.419144 126.641655 121.979111 125.364349 C 122.282776 125.245567 122.21154 125.189568 122.195274 125.231857 C 122.230064 124.889557 122.399498 124.570793 122.983627 124.282654 C 123.262039 124.23748 123.231926 124.321777 123.275063 124.333733 C 124.475281 122.255531 126.581894 121.422356 128.855469 120.270172 C 129.166824 120.142342 129.09198 120.104546 129.080048 120.14473 C 129.214005 119.849037 129.425858 119.561775 129.963684 119.24575 C 130.223785 119.168419 130.114075 119.20092 130.140015 119.251915 C 130.35585 118.563332 131.012405 118.529495 131.867035 118.247208 C 132.150955 118.128555 132.082382 118.072922 132.058441 118.110031 C 132.260529 117.76255 132.561066 117.449524 133.261078 117.148705 C 136.880615 115.502434 140.175171 113.915504 143.767456 112.139191 C 144.285294 111.689835 144.538818 111.4674 145.059357 111.188797 C 145.297699 111.10038 145.667694 111.092216 145.834778 111.012695 C 146.243591 110.716438 146.487671 110.50238 146.963577 110.209595 C 147.193085 110.128197 147.056351 110.135979 147.067505 110.203537 C 147.600952 109.165047 148.675095 109.639542 149.831512 109.296837 C 150.155121 109.170753 150.072678 109.173981 150.083328 109.213837 C 152.05603 107.965714 154.20372 107.159248 156.893433 106.665054 C 160.890182 105.894157 164.378647 104.550621 168.508408 104.457504 C 169.929642 104.053986 170.995163 103.999939 172.47464 104.002686 C 174.246155 103.972298 175.623993 104.083786 177.367889 103.576691 C 184.634583 103.417694 191.484436 103.329887 198.522263 105.606949 C 200.677475 106.207542 202.436462 106.643013 204.586884 107.080254 C 209.450684 108.606705 214.513351 108.371208 218.635559 111.899658 C 218.853149 112.21032 218.92131 112.165695 218.884674 112.147896 C 219.402451 112.395935 220.012878 112.490639 220.780579 112.934494 C 220.975021 113.170074 220.95491 113.078293 220.910385 113.093269 C 222.061874 113.680977 223.543793 113.567039 224.705536 114.924217 C 224.877563 115.213181 224.926956 115.151314 224.889526 115.138405 C 225.781769 115.55275 226.75119 115.905106 227.780518 116.775635 C 232.379242 120.28244 236.756042 123.576218 241.435608 127.006699 C 242.1194 127.252998 242.439362 127.455849 242.783203 128.041962 C 242.954041 128.598343 243.12439 128.799454 243.583405 128.97789 C 244.095642 129.207565 244.388016 129.415588 244.824646 129.869308 C 244.993851 130.07991 244.991241 130.006744 244.954681 130.008667 C 245.187866 130.213745 245.440445 130.436188 245.829056 130.880066 C 245.984802 131.079285 245.985519 131.009506 245.950806 131.013 C 246.189545 131.215363 246.441513 131.438721 246.828766 131.884079 C 246.982513 132.085083 246.985641 132.014343 246.950256 132.01561 C 247.188263 132.215851 247.441483 132.437836 247.827209 132.88472 C 247.979889 133.086594 247.98317 133.015717 247.947723 133.017258 C 248.194824 133.221298 248.453415 133.451004 248.826553 133.926422 C 248.961899 134.148499 248.90361 134.048157 248.855484 134.080566 C 250.123795 134.877396 250.968033 136.040909 251.787643 137.634506 C 254.541809 141.496857 257.121765 145.104202 258.864655 149.548859 C 257.055176 153.473053 253.412201 154.262497 249.845322 155.738586 C 246.862778 157.38208 244.239563 158.986176 241.327484 160.777725 C 240.599426 161.46257 239.960587 161.482574 239.103745 161.774017 C 238.821426 161.891724 238.929306 161.914368 238.934418 161.859497 C 237.189941 163.635864 235.082245 164.867294 232.380524 165.76236 C 228.322205 167.946884 224.535309 169.927383 220.37709 171.935516 C 215.916229 170.502502 215.132446 165.807373 211.538834 163.419739 C 211.104965 163.104736 210.946915 162.96167 210.609558 162.565491 C 210.085022 162.058807 210.509888 161.109222 209.278931 161.360382 C 205.96286 159.954361 203.046585 158.406021 200.137695 156.168488 C 197.902786 153.642227 195.080597 153.209946 191.993652 152.505432 C 186.704407 151.092361 181.668304 151.562057 176.285004 151.49762 C 171.71463 151.655624 167.723022 152.610641 163.643555 154.634827 C 163.14534 154.965454 162.95134 155.104996 162.474182 155.461761 C 161.987534 155.79805 161.784073 155.91713 161.257782 156.171295 C 158.166046 156.796432 155.981674 158.286102 153.869476 160.534515 C 153.505157 160.948257 153.375488 161.128006 153.038605 161.56839 C 152.677292 161.98851 152.523178 162.147964 152.117035 162.528198 C 151.680817 162.879074 151.496628 163.009186 151.01001 163.293823 C 148.966904 164.27771 147.803406 165.654587 146.816559 167.637878 C 146.526535 168.086655 146.41185 168.262924 146.115936 168.689087 C 145.374405 169.486557 144.819855 170.038513 144.451874 171.066498 C 144.312439 171.523849 144.24884 171.704666 144.063751 172.145905 C 143.760361 172.741425 143.566437 173.069397 143.209717 173.63092 C 142.851471 174.189041 142.636124 174.501236 142.26474 175.05307 C 141.823486 175.796478 141.461456 176.260391 141.233414 177.140808 C 141.045044 177.636337 140.957016 177.833694 140.697037 178.312256 C 139.136414 182.026642 137.59552 185.416473 137.498444 189.586975 C 137.594971 193.026993 137.275833 196.106659 137.776901 199.536179 C 138.115601 201.812851 138.467178 203.705643 139.022522 205.914032 C 139.378036 209.612228 140.256195 212.749344 142.75473 215.583984 C 143.204758 215.932663 143.373123 216.089249 143.762833 216.513351 C 146.638275 222.998444 151.943054 226.779617 157.191772 231.069687 C 157.983719 231.704376 158.487869 232.153198 159.334045 232.718781 C 159.805725 233.043121 159.990295 233.181091 160.427994 233.555084 C 165.48468 236.493958 170.687332 237.887741 176.500854 238.501297 C 179.692307 238.381744 182.536423 238.821625 185.699677 238.025986 C 189.546936 237.545807 192.815414 236.313889 196.526871 235.395859 C 198.548111 235.473145 199.955353 234.800964 201.541138 233.687286 C 201.963791 233.32576 202.135849 233.184509 202.593628 232.872787 C 204.128815 232.23027 205.23439 231.566116 206.180206 230.137238 C 209.782059 226.65567 214.040253 224.289566 216.053497 219.723251 C 216.602829 218.477264 217.990341 218.044632 219.631638 217.752731 z" stroke-linecap="round" />
</g>
<g transform="matrix(1 0 0 1 542.68 463.13)"  >
<path style="stroke: none; stroke-width: 1; stroke-dasharray: none; stroke-linecap: butt; stroke-dashoffset: 0; stroke-linejoin: miter; stroke-miterlimit: 4; fill: rgb(97,133,185); fill-rule: nonzero; opacity: 1;" vector-effect="non-scaling-stroke"  transform=" translate(-183.68, -104.14)" d="M 173.665649 104.316544 C 172.2229 104.402885 171.066925 104.629074 169.46698 104.838882 C 168.801956 104.691566 168.580933 104.560631 168.67691 104.210587 C 178.90033 102.470337 188.774323 101.736038 198.696777 105.489227 C 191.952667 104.781082 184.987595 103.780769 177.457199 104.047211 C 176.080475 104.83503 174.979797 104.39476 173.665649 104.316544 z" stroke-linecap="round" />
</g>
<g transform="matrix(1 0 0 1 613.8 511.92)"  >
<path style="stroke: none; stroke-width: 1; stroke-dasharray: none; stroke-linecap: butt; stroke-dashoffset: 0; stroke-linejoin: miter; stroke-miterlimit: 4; fill: rgb(24,80,132); fill-rule: nonzero; opacity: 1;" vector-effect="non-scaling-stroke"  transform=" translate(-254.8, -152.93)" d="M 249.912048 155.842072 C 252.395554 153.914871 255.305115 152.051758 258.519867 150.044067 C 259.014984 149.927155 259.204926 149.954803 259.681152 149.951538 C 258.012451 153.934402 255.04158 156.31395 249.912048 155.842072 z" stroke-linecap="round" />
</g>
<g transform="matrix(1 0 0 1 571.03 468.58)"  >
<path style="stroke: none; stroke-width: 1; stroke-dasharray: none; stroke-linecap: butt; stroke-dashoffset: 0; stroke-linejoin: miter; stroke-miterlimit: 4; fill: rgb(109,146,186); fill-rule: nonzero; opacity: 1;" vector-effect="non-scaling-stroke"  transform=" translate(-212.03, -109.59)" d="M 218.824646 111.84333 C 214.397614 110.665337 209.942062 109.120346 205.232422 107.32869 C 209.790588 107.897949 215.329453 106.429192 218.824646 111.84333 z" stroke-linecap="round" />
</g>
<g transform="matrix(1 0 0 1 448.79 553.92)"  >
<path style="stroke: none; stroke-width: 1; stroke-dasharray: none; stroke-linecap: butt; stroke-dashoffset: 0; stroke-linejoin: miter; stroke-miterlimit: 4; fill: rgb(87,130,179); fill-rule: nonzero; opacity: 1;" vector-effect="non-scaling-stroke"  transform=" translate(-89.78, -194.92)" d="M 90.330864 202.574982 C 90.402275 203.338837 90.521408 203.787064 90.631531 204.584747 C 89.01976 204.357529 88.907288 202.991074 89.02169 201.63942 C 89.478378 196.243652 87.932327 190.736816 90.24614 185.262146 C 90.457428 190.322327 90.341103 195.54892 90.188828 201.218796 C 90.228111 201.861191 90.303352 202.060272 90.330864 202.574982 z" stroke-linecap="round" />
</g>
<g transform="matrix(1 0 0 1 463.27 604.3)"  >
<path style="stroke: none; stroke-width: 1; stroke-dasharray: none; stroke-linecap: butt; stroke-dashoffset: 0; stroke-linejoin: miter; stroke-miterlimit: 4; fill: rgb(19,54,97); fill-rule: nonzero; opacity: 1;" vector-effect="non-scaling-stroke"  transform=" translate(-104.26, -245.31)" d="M 101.816948 240.948547 C 104.839119 243.164612 106.044724 246.614548 108.264542 249.664413 C 104.528633 248.701523 103.33828 244.758194 100.264244 242.308746 C 100.552826 241.722488 101.044861 241.389359 101.816948 240.948547 z" stroke-linecap="round" />
</g>
<g transform="matrix(1 0 0 1 451.41 531.99)"  >
<path style="stroke: none; stroke-width: 1; stroke-dasharray: none; stroke-linecap: butt; stroke-dashoffset: 0; stroke-linejoin: miter; stroke-miterlimit: 4; fill: rgb(115,148,188); fill-rule: nonzero; opacity: 1;" vector-effect="non-scaling-stroke"  transform=" translate(-92.4, -173)" d="M 93.807251 167.110748 C 93.332642 170.902924 92.524086 174.732925 91.518951 178.889114 C 90.36985 174.895477 91.094917 170.874664 93.807251 167.110748 z" stroke-linecap="round" />
</g>
<g transform="matrix(1 0 0 1 521.93 464.51)"  >
<path style="stroke: none; stroke-width: 1; stroke-dasharray: none; stroke-linecap: butt; stroke-dashoffset: 0; stroke-linejoin: miter; stroke-miterlimit: 4; fill: rgb(115,148,188); fill-rule: nonzero; opacity: 1;" vector-effect="non-scaling-stroke"  transform=" translate(-162.92, -105.52)" d="M 168.563004 103.991425 C 168.993896 103.991478 169.011749 104.406883 169.017365 104.614693 C 165.305374 105.592079 161.587753 106.361656 157.462463 107.150223 C 156.920898 106.982872 156.786972 106.796532 156.837341 106.319473 C 160.667313 105.034325 164.209274 103.474304 168.563004 103.991425 z" stroke-linecap="round" />
</g>
<g transform="matrix(1 0 0 1 512.76 466.61)"  >
<path style="stroke: none; stroke-width: 1; stroke-dasharray: none; stroke-linecap: butt; stroke-dashoffset: 0; stroke-linejoin: miter; stroke-miterlimit: 4; fill: rgb(109,149,187); fill-rule: nonzero; opacity: 1;" vector-effect="non-scaling-stroke"  transform=" translate(-153.76, -107.62)" d="M 156.641541 106.020256 C 157.025909 106.218849 157.030182 106.408951 157.044632 106.88414 C 154.985031 107.845238 152.915268 108.521255 150.469727 109.225479 C 151.615189 107.155998 153.576828 105.896164 156.641541 106.020256 z" stroke-linecap="round" />
</g>
<g transform="matrix(1 0 0 1 485.22 481.2)"  >
<path style="stroke: none; stroke-width: 1; stroke-dasharray: none; stroke-linecap: butt; stroke-dashoffset: 0; stroke-linejoin: miter; stroke-miterlimit: 4; fill: rgb(115,148,188); fill-rule: nonzero; opacity: 1;" vector-effect="non-scaling-stroke"  transform=" translate(-126.22, -122.21)" d="M 128.789993 120.110962 C 127.434311 121.513107 125.701805 122.883881 123.643753 124.300171 C 123.67614 121.322845 125.651756 120.231987 128.789993 120.110962 z" stroke-linecap="round" />
</g>
<g transform="matrix(1 0 0 1 479.08 486.1)"  >
<path style="stroke: none; stroke-width: 1; stroke-dasharray: none; stroke-linecap: butt; stroke-dashoffset: 0; stroke-linejoin: miter; stroke-miterlimit: 4; fill: rgb(105,141,180); fill-rule: nonzero; opacity: 1;" vector-effect="non-scaling-stroke"  transform=" translate(-120.08, -127.11)" d="M 121.900879 125.211685 C 121.574226 126.943176 120.071724 127.85585 118.380554 129.004639 C 117.796227 126.564781 119.25695 125.52179 121.900879 125.211685 z" stroke-linecap="round" />
</g>
<g transform="matrix(1 0 0 1 471.18 494.17)"  >
<path style="stroke: none; stroke-width: 1; stroke-dasharray: none; stroke-linecap: butt; stroke-dashoffset: 0; stroke-linejoin: miter; stroke-miterlimit: 4; fill: rgb(111,146,182); fill-rule: nonzero; opacity: 1;" vector-effect="non-scaling-stroke"  transform=" translate(-112.17, -135.18)" d="M 113.848709 133.113159 C 113.533134 134.763718 112.356346 136.032227 110.691376 137.243683 C 109.94593 134.845993 111.395325 133.750473 113.848709 133.113159 z" stroke-linecap="round" />
</g>
<g transform="matrix(1 0 0 1 609.45 494.93)"  >
<path style="stroke: none; stroke-width: 1; stroke-dasharray: none; stroke-linecap: butt; stroke-dashoffset: 0; stroke-linejoin: miter; stroke-miterlimit: 4; fill: rgb(105,141,180); fill-rule: nonzero; opacity: 1;" vector-effect="non-scaling-stroke"  transform=" translate(-250.45, -135.94)" d="M 251.984497 137.515015 C 250.382965 137.40567 249.883575 135.88623 248.906097 134.420044 C 250.845032 134.107178 251.850189 135.17601 251.984497 137.515015 z" stroke-linecap="round" />
</g>
<g transform="matrix(1 0 0 1 466.58 499.57)"  >
<path style="stroke: none; stroke-width: 1; stroke-dasharray: none; stroke-linecap: butt; stroke-dashoffset: 0; stroke-linejoin: miter; stroke-miterlimit: 4; fill: rgb(111,146,182); fill-rule: nonzero; opacity: 1;" vector-effect="non-scaling-stroke"  transform=" translate(-107.57, -140.58)" d="M 108.805168 139.104141 C 108.731438 140.38649 108.060707 141.473236 106.385117 142.054443 C 106.153816 140.572205 106.783813 139.435852 108.805168 139.104141 z" stroke-linecap="round" />
</g>
<g transform="matrix(1 0 0 1 457.1 591.93)"  >
<path style="stroke: none; stroke-width: 1; stroke-dasharray: none; stroke-linecap: butt; stroke-dashoffset: 0; stroke-linejoin: miter; stroke-miterlimit: 4; fill: rgb(98,132,174); fill-rule: nonzero; opacity: 1;" vector-effect="non-scaling-stroke"  transform=" translate(-98.09, -232.94)" d="M 97.053268 231.282318 C 98.30661 231.681763 98.527557 233.070557 99.142319 234.583969 C 97.082771 234.754013 96.995552 233.249374 97.053268 231.282318 z" stroke-linecap="round" />
</g>
<g transform="matrix(1 0 0 1 456.03 518.09)"  >
<path style="stroke: none; stroke-width: 1; stroke-dasharray: none; stroke-linecap: butt; stroke-dashoffset: 0; stroke-linejoin: miter; stroke-miterlimit: 4; fill: rgb(105,141,180); fill-rule: nonzero; opacity: 1;" vector-effect="non-scaling-stroke"  transform=" translate(-97.03, -159.1)" d="M 97.858185 157.186447 C 97.71994 158.310349 97.247391 159.573242 96.485054 161.008423 C 95.928741 159.651138 96.083099 158.266617 97.858185 157.186447 z" stroke-linecap="round" />
</g>
<g transform="matrix(1 0 0 1 581.96 472.97)"  >
<path style="stroke: none; stroke-width: 1; stroke-dasharray: none; stroke-linecap: butt; stroke-dashoffset: 0; stroke-linejoin: miter; stroke-miterlimit: 4; fill: rgb(109,146,186); fill-rule: nonzero; opacity: 1;" vector-effect="non-scaling-stroke"  transform=" translate(-222.95, -113.97)" d="M 224.835236 114.840096 C 223.675034 114.685944 222.472504 114.158714 221.067917 113.369858 C 222.339127 113.086441 223.993942 112.539917 224.835236 114.840096 z" stroke-linecap="round" />
</g>
<g transform="matrix(1 0 0 1 585.47 474.91)"  >
<path style="stroke: none; stroke-width: 1; stroke-dasharray: none; stroke-linecap: butt; stroke-dashoffset: 0; stroke-linejoin: miter; stroke-miterlimit: 4; fill: rgb(109,146,186); fill-rule: nonzero; opacity: 1;" vector-effect="non-scaling-stroke"  transform=" translate(-226.47, -115.92)" d="M 227.913025 116.654068 C 227.064209 116.545799 226.125961 116.102936 225.019913 115.392784 C 226.0392 115.034248 227.230896 114.931511 227.913025 116.654068 z" stroke-linecap="round" />
</g>
<g transform="matrix(1 0 0 1 454.51 521.93)"  >
<path style="stroke: none; stroke-width: 1; stroke-dasharray: none; stroke-linecap: butt; stroke-dashoffset: 0; stroke-linejoin: miter; stroke-miterlimit: 4; fill: rgb(105,141,180); fill-rule: nonzero; opacity: 1;" vector-effect="non-scaling-stroke"  transform=" translate(-95.51, -162.94)" d="M 95.919189 161.255096 C 95.953674 162.157806 95.707809 163.274445 95.213264 164.627014 C 95.09761 163.713425 94.795082 162.477371 95.919189 161.255096 z" stroke-linecap="round" />
</g>
<g transform="matrix(1 0 0 1 459.72 510.59)"  >
<path style="stroke: none; stroke-width: 1; stroke-dasharray: none; stroke-linecap: butt; stroke-dashoffset: 0; stroke-linejoin: miter; stroke-miterlimit: 4; fill: rgb(105,141,180); fill-rule: nonzero; opacity: 1;" vector-effect="non-scaling-stroke"  transform=" translate(-100.71, -151.59)" d="M 100.9487 150.278107 C 101.702721 151.10437 101.04567 151.866135 100.366684 152.904541 C 100.043678 152.188446 99.948471 151.243805 100.9487 150.278107 z" stroke-linecap="round" />
</g>
<g transform="matrix(1 0 0 1 507.62 468.69)"  >
<path style="stroke: none; stroke-width: 1; stroke-dasharray: none; stroke-linecap: butt; stroke-dashoffset: 0; stroke-linejoin: miter; stroke-miterlimit: 4; fill: rgb(109,149,187); fill-rule: nonzero; opacity: 1;" vector-effect="non-scaling-stroke"  transform=" translate(-148.61, -109.7)" d="M 149.799866 109.131828 C 149.358673 109.548058 148.56221 109.925362 147.422211 110.28688 C 147.57869 109.298752 148.435089 109.042076 149.799866 109.131828 z" stroke-linecap="round" />
</g>
<g transform="matrix(1 0 0 1 571.07 415.14)"  >
<path style="stroke: none; stroke-width: 1; stroke-dasharray: none; stroke-linecap: butt; stroke-dashoffset: 0; stroke-linejoin: miter; stroke-miterlimit: 4; fill: rgb(132,162,200); fill-rule: nonzero; opacity: 1;" vector-effect="non-scaling-stroke"  transform=" translate(-212.07, -56.15)" d="M 211.092804 55.547073 C 211.647247 55.63258 212.287872 56.008545 213.038086 56.651955 C 212.298889 56.909195 211.549744 56.717659 211.092804 55.547073 z" stroke-linecap="round" />
</g>
<g transform="matrix(1 0 0 1 454.89 586.91)"  >
<path style="stroke: none; stroke-width: 1; stroke-dasharray: none; stroke-linecap: butt; stroke-dashoffset: 0; stroke-linejoin: miter; stroke-miterlimit: 4; fill: rgb(98,132,174); fill-rule: nonzero; opacity: 1;" vector-effect="non-scaling-stroke"  transform=" translate(-95.88, -227.92)" d="M 95.731407 227.235748 C 96.06678 227.471054 96.211594 227.872269 96.318451 228.592575 C 95.577728 228.631805 95.104553 228.239456 95.731407 227.235748 z" stroke-linecap="round" />
</g>
<g transform="matrix(1 0 0 1 455.66 588.91)"  >
<path style="stroke: none; stroke-width: 1; stroke-dasharray: none; stroke-linecap: butt; stroke-dashoffset: 0; stroke-linejoin: miter; stroke-miterlimit: 4; fill: rgb(98,132,174); fill-rule: nonzero; opacity: 1;" vector-effect="non-scaling-stroke"  transform=" translate(-96.65, -229.92)" d="M 96.127121 229.179596 C 96.4776 229.352386 96.83429 229.841965 97.172699 230.66156 C 96.814049 230.49321 96.473686 229.994797 96.127121 229.179596 z" stroke-linecap="round" />
</g>
<g transform="matrix(1 0 0 1 458.62 594.93)"  >
<path style="stroke: none; stroke-width: 1; stroke-dasharray: none; stroke-linecap: butt; stroke-dashoffset: 0; stroke-linejoin: miter; stroke-miterlimit: 4; fill: rgb(98,132,174); fill-rule: nonzero; opacity: 1;" vector-effect="non-scaling-stroke"  transform=" translate(-99.62, -235.93)" d="M 99.091331 235.194794 C 99.414719 235.371674 99.766289 235.863663 100.142982 236.671555 C 99.818581 236.494949 99.469048 236.002441 99.091331 235.194794 z" stroke-linecap="round" />
</g>
<g transform="matrix(1 0 0 1 459.58 596.92)"  >
<path style="stroke: none; stroke-width: 1; stroke-dasharray: none; stroke-linecap: butt; stroke-dashoffset: 0; stroke-linejoin: miter; stroke-miterlimit: 4; fill: rgb(98,132,174); fill-rule: nonzero; opacity: 1;" vector-effect="non-scaling-stroke"  transform=" translate(-100.58, -237.93)" d="M 100.093048 237.174286 C 100.42366 237.36731 100.761383 237.870178 101.058769 238.687897 C 100.712349 238.496552 100.406258 237.990326 100.093048 237.174286 z" stroke-linecap="round" />
</g>
<g transform="matrix(1 0 0 1 490.16 477.7)"  >
<path style="stroke: none; stroke-width: 1; stroke-dasharray: none; stroke-linecap: butt; stroke-dashoffset: 0; stroke-linejoin: miter; stroke-miterlimit: 4; fill: rgb(115,148,188); fill-rule: nonzero; opacity: 1;" vector-effect="non-scaling-stroke"  transform=" translate(-131.15, -118.71)" d="M 131.833313 118.132446 C 131.693512 118.506218 131.236069 118.883881 130.47229 119.282227 C 130.615845 118.914055 131.06575 118.5252 131.833313 118.132446 z" stroke-linecap="round" />
</g>
<g transform="matrix(1 0 0 1 578.92 471.64)"  >
<path style="stroke: none; stroke-width: 1; stroke-dasharray: none; stroke-linecap: butt; stroke-dashoffset: 0; stroke-linejoin: miter; stroke-miterlimit: 4; fill: rgb(109,146,186); fill-rule: nonzero; opacity: 1;" vector-effect="non-scaling-stroke"  transform=" translate(-219.91, -112.65)" d="M 220.790329 112.914642 C 220.386917 112.99205 219.798798 112.814034 219.029358 112.383057 C 219.433899 112.306473 220.01976 112.482849 220.790329 112.914642 z" stroke-linecap="round" />
</g>
<g transform="matrix(1 0 0 1 453.54 525.07)"  >
<path style="stroke: none; stroke-width: 1; stroke-dasharray: none; stroke-linecap: butt; stroke-dashoffset: 0; stroke-linejoin: miter; stroke-miterlimit: 4; fill: rgb(115,148,188); fill-rule: nonzero; opacity: 1;" vector-effect="non-scaling-stroke"  transform=" translate(-94.54, -166.07)" d="M 94.740234 165.20343 C 94.836151 165.589432 94.715271 166.180908 94.335381 166.942047 C 94.225395 166.544098 94.374413 165.976501 94.740234 165.20343 z" stroke-linecap="round" />
</g>
<g transform="matrix(1 0 0 1 457.63 515.08)"  >
<path style="stroke: none; stroke-width: 1; stroke-dasharray: none; stroke-linecap: butt; stroke-dashoffset: 0; stroke-linejoin: miter; stroke-miterlimit: 4; fill: rgb(105,141,180); fill-rule: nonzero; opacity: 1;" vector-effect="non-scaling-stroke"  transform=" translate(-98.62, -156.08)" d="M 98.895279 155.206879 C 98.972191 155.616211 98.790901 156.202286 98.347992 156.957184 C 98.269936 156.545212 98.453506 155.964417 98.895279 155.206879 z" stroke-linecap="round" />
</g>
<g transform="matrix(1 0 0 1 458.61 513.06)"  >
<path style="stroke: none; stroke-width: 1; stroke-dasharray: none; stroke-linecap: butt; stroke-dashoffset: 0; stroke-linejoin: miter; stroke-miterlimit: 4; fill: rgb(105,141,180); fill-rule: nonzero; opacity: 1;" vector-effect="non-scaling-stroke"  transform=" translate(-99.61, -154.06)" d="M 99.898621 153.203217 C 99.953438 153.593292 99.750824 154.160812 99.312851 154.925751 C 99.265396 154.542328 99.453293 153.961487 99.898621 153.203217 z" stroke-linecap="round" />
</g>
<g transform="matrix(1 0 0 1 619.95 508.29)"  >
<path style="stroke: none; stroke-width: 1; stroke-dasharray: none; stroke-linecap: butt; stroke-dashoffset: 0; stroke-linejoin: miter; stroke-miterlimit: 4; fill: rgb(24,80,132); fill-rule: nonzero; opacity: 1;" vector-effect="non-scaling-stroke"  transform=" translate(-260.94, -149.29)" d="M 261.623474 148.660156 C 261.477692 148.995346 261.029388 149.436539 260.254944 149.922958 C 260.392853 149.567505 260.856903 149.166824 261.623474 148.660156 z" stroke-linecap="round" />
</g>
<g transform="matrix(1 0 0 1 460.82 508.81)"  >
<path style="stroke: none; stroke-width: 1; stroke-dasharray: none; stroke-linecap: butt; stroke-dashoffset: 0; stroke-linejoin: miter; stroke-miterlimit: 4; fill: rgb(105,141,180); fill-rule: nonzero; opacity: 1;" vector-effect="non-scaling-stroke"  transform=" translate(-101.82, -149.82)" d="M 101.775505 149.180115 C 102.459732 149.58873 102.134438 150.037094 101.532455 150.452087 C 101.405914 150.073715 101.482536 149.715881 101.775505 149.180115 z" stroke-linecap="round" />
</g>
<g transform="matrix(1 0 0 1 468.68 497.12)"  >
<path style="stroke: none; stroke-width: 1; stroke-dasharray: none; stroke-linecap: butt; stroke-dashoffset: 0; stroke-linejoin: miter; stroke-miterlimit: 4; fill: rgb(111,146,182); fill-rule: nonzero; opacity: 1;" vector-effect="non-scaling-stroke"  transform=" translate(-109.68, -138.13)" d="M 110.001526 137.283997 C 110.066055 137.703293 109.843887 138.255127 109.352615 138.966888 C 109.293945 138.556717 109.504387 137.986633 110.001526 137.283997 z" stroke-linecap="round" />
</g>
<g transform="matrix(1 0 0 1 607.42 492.6)"  >
<path style="stroke: none; stroke-width: 1; stroke-dasharray: none; stroke-linecap: butt; stroke-dashoffset: 0; stroke-linejoin: miter; stroke-miterlimit: 4; fill: rgb(105,141,180); fill-rule: nonzero; opacity: 1;" vector-effect="non-scaling-stroke"  transform=" translate(-248.41, -133.6)" d="M 248.845795 133.910095 C 248.653366 133.956238 248.344833 133.763962 247.974289 133.295242 C 248.184753 133.236435 248.45723 133.454071 248.845795 133.910095 z" stroke-linecap="round" />
</g>
<g transform="matrix(1 0 0 1 505.61 469.56)"  >
<path style="stroke: none; stroke-width: 1; stroke-dasharray: none; stroke-linecap: butt; stroke-dashoffset: 0; stroke-linejoin: miter; stroke-miterlimit: 4; fill: rgb(109,149,187); fill-rule: nonzero; opacity: 1;" vector-effect="non-scaling-stroke"  transform=" translate(-146.61, -110.56)" d="M 146.95668 110.200653 C 146.977646 110.391373 146.762192 110.654541 146.274292 110.925438 C 146.174194 110.640083 146.413666 110.420067 146.95668 110.200653 z" stroke-linecap="round" />
</g>
<g transform="matrix(1 0 0 1 503.7 470.54)"  >
<path style="stroke: none; stroke-width: 1; stroke-dasharray: none; stroke-linecap: butt; stroke-dashoffset: 0; stroke-linejoin: miter; stroke-miterlimit: 4; fill: rgb(109,149,187); fill-rule: nonzero; opacity: 1;" vector-effect="non-scaling-stroke"  transform=" translate(-144.69, -111.55)" d="M 145.054352 111.182602 C 145.061676 111.357025 144.825668 111.613678 144.327408 111.910065 C 144.313782 111.721481 144.562408 111.493149 145.054352 111.182602 z" stroke-linecap="round" />
</g>
<g transform="matrix(1 0 0 1 491.83 476.63)"  >
<path style="stroke: none; stroke-width: 1; stroke-dasharray: none; stroke-linecap: butt; stroke-dashoffset: 0; stroke-linejoin: miter; stroke-miterlimit: 4; fill: rgb(115,148,188); fill-rule: nonzero; opacity: 1;" vector-effect="non-scaling-stroke"  transform=" translate(-132.82, -117.64)" d="M 133.275665 117.183426 C 133.288177 117.403091 132.990311 117.716805 132.36348 118.088821 C 132.344772 117.857246 132.655014 117.56736 133.275665 117.183426 z" stroke-linecap="round" />
</g>
<g transform="matrix(1 0 0 1 601.31 486.72)"  >
<path style="stroke: none; stroke-width: 1; stroke-dasharray: none; stroke-linecap: butt; stroke-dashoffset: 0; stroke-linejoin: miter; stroke-miterlimit: 4; fill: rgb(105,141,180); fill-rule: nonzero; opacity: 1;" vector-effect="non-scaling-stroke"  transform=" translate(-242.31, -127.73)" d="M 242.762161 128.05719 C 242.571991 128.100449 242.266495 127.883102 241.84967 127.404594 C 242.041168 127.361137 242.344009 127.578857 242.762161 128.05719 z" stroke-linecap="round" />
</g>
<g transform="matrix(1 0 0 1 488.66 478.68)"  >
<path style="stroke: none; stroke-width: 1; stroke-dasharray: none; stroke-linecap: butt; stroke-dashoffset: 0; stroke-linejoin: miter; stroke-miterlimit: 4; fill: rgb(115,148,188); fill-rule: nonzero; opacity: 1;" vector-effect="non-scaling-stroke"  transform=" translate(-129.66, -119.69)" d="M 129.970032 119.258141 C 130.024246 119.463501 129.824692 119.758583 129.346634 120.119293 C 129.284164 119.905907 129.500214 119.626884 129.970032 119.258141 z" stroke-linecap="round" />
</g>
<g transform="matrix(1 0 0 1 606.43 491.56)"  >
<path style="stroke: none; stroke-width: 1; stroke-dasharray: none; stroke-linecap: butt; stroke-dashoffset: 0; stroke-linejoin: miter; stroke-miterlimit: 4; fill: rgb(105,141,180); fill-rule: nonzero; opacity: 1;" vector-effect="non-scaling-stroke"  transform=" translate(-247.42, -132.57)" d="M 247.856354 132.859406 C 247.672531 132.908783 247.365173 132.730972 246.986343 132.285034 C 247.187531 132.221985 247.46019 132.427094 247.856354 132.859406 z" stroke-linecap="round" />
</g>
<g transform="matrix(1 0 0 1 605.43 490.56)"  >
<path style="stroke: none; stroke-width: 1; stroke-dasharray: none; stroke-linecap: butt; stroke-dashoffset: 0; stroke-linejoin: miter; stroke-miterlimit: 4; fill: rgb(105,141,180); fill-rule: nonzero; opacity: 1;" vector-effect="non-scaling-stroke"  transform=" translate(-246.42, -131.57)" d="M 246.859848 131.856873 C 246.675201 131.906555 246.367874 131.728012 245.988327 131.28299 C 246.189789 131.220551 246.463486 131.424606 246.859848 131.856873 z" stroke-linecap="round" />
</g>
<g transform="matrix(1 0 0 1 474.6 490.6)"  >
<path style="stroke: none; stroke-width: 1; stroke-dasharray: none; stroke-linecap: butt; stroke-dashoffset: 0; stroke-linejoin: miter; stroke-miterlimit: 4; fill: rgb(105,141,180); fill-rule: nonzero; opacity: 1;" vector-effect="non-scaling-stroke"  transform=" translate(-115.6, -131.61)" d="M 115.888306 131.157257 C 115.939072 131.3396 115.756622 131.652359 115.308632 132.05719 C 115.247086 131.862061 115.45108 131.57486 115.888306 131.157257 z" stroke-linecap="round" />
</g>
<g transform="matrix(1 0 0 1 481.74 483.76)"  >
<path style="stroke: none; stroke-width: 1; stroke-dasharray: none; stroke-linecap: butt; stroke-dashoffset: 0; stroke-linejoin: miter; stroke-miterlimit: 4; fill: rgb(115,148,188); fill-rule: nonzero; opacity: 1;" vector-effect="non-scaling-stroke"  transform=" translate(-122.73, -124.77)" d="M 123.004166 124.314087 C 123.089157 124.548172 122.916283 124.858864 122.461212 125.221855 C 122.368111 124.979668 122.557198 124.685181 123.004166 124.314087 z" stroke-linecap="round" />
</g>
<g transform="matrix(1 0 0 1 604.44 489.55)"  >
<path style="stroke: none; stroke-width: 1; stroke-dasharray: none; stroke-linecap: butt; stroke-dashoffset: 0; stroke-linejoin: miter; stroke-miterlimit: 4; fill: rgb(105,141,180); fill-rule: nonzero; opacity: 1;" vector-effect="non-scaling-stroke"  transform=" translate(-245.43, -130.56)" d="M 245.85997 130.853149 C 245.685669 130.894943 245.386536 130.710617 245.002777 130.268448 C 245.190475 130.21608 245.462814 130.421555 245.85997 130.853149 z" stroke-linecap="round" />
</g>
<g transform="matrix(1 0 0 1 475.59 489.58)"  >
<path style="stroke: none; stroke-width: 1; stroke-dasharray: none; stroke-linecap: butt; stroke-dashoffset: 0; stroke-linejoin: miter; stroke-miterlimit: 4; fill: rgb(105,141,180); fill-rule: nonzero; opacity: 1;" vector-effect="non-scaling-stroke"  transform=" translate(-116.58, -130.59)" d="M 116.871597 130.146225 C 116.917099 130.32486 116.737122 130.635498 116.290726 131.025909 C 116.231583 130.82988 116.43885 130.554047 116.871597 130.146225 z" stroke-linecap="round" />
</g>
<g transform="matrix(1 0 0 1 603.38 488.56)"  >
<path style="stroke: none; stroke-width: 1; stroke-dasharray: none; stroke-linecap: butt; stroke-dashoffset: 0; stroke-linejoin: miter; stroke-miterlimit: 4; fill: rgb(105,141,180); fill-rule: nonzero; opacity: 1;" vector-effect="non-scaling-stroke"  transform=" translate(-244.38, -129.57)" d="M 244.8461 129.848267 C 244.676025 129.897476 244.3582 129.715057 243.909317 129.283661 C 244.084946 129.228668 244.391647 129.422653 244.8461 129.848267 z" stroke-linecap="round" />
</g>
<g transform="matrix(1 0 0 1 476.58 488.58)"  >
<path style="stroke: none; stroke-width: 1; stroke-dasharray: none; stroke-linecap: butt; stroke-dashoffset: 0; stroke-linejoin: miter; stroke-miterlimit: 4; fill: rgb(105,141,180); fill-rule: nonzero; opacity: 1;" vector-effect="non-scaling-stroke"  transform=" translate(-117.58, -129.58)" d="M 117.875092 129.143951 C 117.918808 129.323639 117.734299 129.632355 117.282333 130.019135 C 117.22554 129.822464 117.436211 129.547729 117.875092 129.143951 z" stroke-linecap="round" />
</g>
<g transform="matrix(1 0 0 1 527.52 641.92)"  >
<path style="stroke: none; stroke-width: 1; stroke-dasharray: none; stroke-linecap: butt; stroke-dashoffset: 0; stroke-linejoin: miter; stroke-miterlimit: 4; fill: rgb(19,54,97); fill-rule: nonzero; opacity: 1;" vector-effect="non-scaling-stroke"  transform=" translate(-168.52, -282.93)" d="M 144.13501 278.658203 C 153.917953 281.409515 163.683807 284.732239 174.160431 285.431763 C 180.38591 285.847473 186.534119 285.610474 192.901978 285.500122 C 192.104828 286.932831 190.777405 286.928986 189.442841 286.998596 C 174.844376 287.75946 160.535172 286.532532 146.815857 280.998138 C 145.698227 280.547302 144.641891 280.237762 144.13501 278.658203 z" stroke-linecap="round" />
</g>
<g transform="matrix(1 0 0 1 603.1 619.89)"  >
<path style="stroke: none; stroke-width: 1; stroke-dasharray: none; stroke-linecap: butt; stroke-dashoffset: 0; stroke-linejoin: miter; stroke-miterlimit: 4; fill: rgb(10,50,95); fill-rule: nonzero; opacity: 1;" vector-effect="non-scaling-stroke"  transform=" translate(-244.1, -260.9)" d="M 240.200073 265.016907 C 241.63739 261.490936 245.093109 259.785583 247.611298 256.782043 C 249.509048 263.084564 243.938217 263.229004 240.200073 265.016907 z" stroke-linecap="round" />
</g>
<g transform="matrix(1 0 0 1 566.79 641.09)"  >
<path style="stroke: none; stroke-width: 1; stroke-dasharray: none; stroke-linecap: butt; stroke-dashoffset: 0; stroke-linejoin: miter; stroke-miterlimit: 4; fill: rgb(23,59,95); fill-rule: nonzero; opacity: 1;" vector-effect="non-scaling-stroke"  transform=" translate(-207.78, -282.09)" d="M 198.944626 284.436584 C 204.746689 282.362335 210.489899 280.649811 216.624802 279.034058 C 212.331055 283.121979 206.140442 282.742004 200.418716 284.878967 C 199.602249 285.337097 199.210159 285.240692 198.944626 284.436584 z" stroke-linecap="round" />
</g>
<g transform="matrix(1 0 0 1 614.42 607.65)"  >
<path style="stroke: none; stroke-width: 1; stroke-dasharray: none; stroke-linecap: butt; stroke-dashoffset: 0; stroke-linejoin: miter; stroke-miterlimit: 4; fill: rgb(10,50,95); fill-rule: nonzero; opacity: 1;" vector-effect="non-scaling-stroke"  transform=" translate(-255.41, -248.65)" d="M 253.270493 251.880157 C 252.910446 249.172989 255.199005 247.641296 256.686951 245.422897 C 259.719055 249.521545 254.202881 249.378525 253.270493 251.880157 z" stroke-linecap="round" />
</g>
<g transform="matrix(1 0 0 1 593.26 628)"  >
<path style="stroke: none; stroke-width: 1; stroke-dasharray: none; stroke-linecap: butt; stroke-dashoffset: 0; stroke-linejoin: miter; stroke-miterlimit: 4; fill: rgb(21,61,105); fill-rule: nonzero; opacity: 1;" vector-effect="non-scaling-stroke"  transform=" translate(-234.25, -269.01)" d="M 231.894211 270.432892 C 233.167007 269.16626 234.726944 268.085876 236.608734 267.046631 C 236.098572 269.274994 235.803604 272.184509 231.894211 270.432892 z" stroke-linecap="round" />
</g>
<g transform="matrix(1 0 0 1 582.92 634.62)"  >
<path style="stroke: none; stroke-width: 1; stroke-dasharray: none; stroke-linecap: butt; stroke-dashoffset: 0; stroke-linejoin: miter; stroke-miterlimit: 4; fill: rgb(19,54,97); fill-rule: nonzero; opacity: 1;" vector-effect="non-scaling-stroke"  transform=" translate(-223.91, -275.62)" d="M 222.187988 277.091553 C 222.206894 274.887085 224.169037 274.963409 225.63858 274.025818 C 225.567673 275.945435 225.003464 277.728363 222.187988 277.091553 z" stroke-linecap="round" />
</g>
<g transform="matrix(1 0 0 1 556.95 643.93)"  >
<path style="stroke: none; stroke-width: 1; stroke-dasharray: none; stroke-linecap: butt; stroke-dashoffset: 0; stroke-linejoin: miter; stroke-miterlimit: 4; fill: rgb(15,51,91); fill-rule: nonzero; opacity: 1;" vector-effect="non-scaling-stroke"  transform=" translate(-197.95, -284.94)" d="M 198.663239 284.035889 C 199.178268 284.349945 199.396301 284.584869 199.865356 284.905182 C 198.840912 286.021423 197.577194 286.261169 196.028442 284.923798 C 196.467514 283.77771 197.453369 284.109558 198.663239 284.035889 z" stroke-linecap="round" />
</g>
<g transform="matrix(1 0 0 1 475.55 618.52)"  >
<path style="stroke: none; stroke-width: 1; stroke-dasharray: none; stroke-linecap: butt; stroke-dashoffset: 0; stroke-linejoin: miter; stroke-miterlimit: 4; fill: rgb(7,45,94); fill-rule: nonzero; opacity: 1;" vector-effect="non-scaling-stroke"  transform=" translate(-116.55, -259.53)" d="M 114.995377 258.35556 C 116.549164 257.958588 116.876602 259.600067 118.101395 260.530396 C 116.548729 261.078003 115.244392 260.734497 114.995377 258.35556 z" stroke-linecap="round" />
</g>
<g transform="matrix(1 0 0 1 608.76 613.97)"  >
<path style="stroke: none; stroke-width: 1; stroke-dasharray: none; stroke-linecap: butt; stroke-dashoffset: 0; stroke-linejoin: miter; stroke-miterlimit: 4; fill: rgb(10,50,95); fill-rule: nonzero; opacity: 1;" vector-effect="non-scaling-stroke"  transform=" translate(-249.75, -254.98)" d="M 248.85408 255.886139 C 249.108429 255.324142 249.708359 254.719376 250.63147 254.068192 C 250.735001 254.980988 250.27446 255.708084 248.85408 255.886139 z" stroke-linecap="round" />
</g>
<g transform="matrix(1 0 0 1 585.99 632.39)"  >
<path style="stroke: none; stroke-width: 1; stroke-dasharray: none; stroke-linecap: butt; stroke-dashoffset: 0; stroke-linejoin: miter; stroke-miterlimit: 4; fill: rgb(19,54,97); fill-rule: nonzero; opacity: 1;" vector-effect="non-scaling-stroke"  transform=" translate(-226.98, -273.39)" d="M 226.297485 273.919861 C 226.460327 273.623871 226.92041 273.278046 227.671967 272.869995 C 227.507202 273.161896 227.05098 273.515961 226.297485 273.919861 z" stroke-linecap="round" />
</g>
<g transform="matrix(1 0 0 1 587.83 631.27)"  >
<path style="stroke: none; stroke-width: 1; stroke-dasharray: none; stroke-linecap: butt; stroke-dashoffset: 0; stroke-linejoin: miter; stroke-miterlimit: 4; fill: rgb(19,54,97); fill-rule: nonzero; opacity: 1;" vector-effect="non-scaling-stroke"  transform=" translate(-228.82, -272.28)" d="M 228.154938 272.884979 C 228.282547 272.515991 228.738724 272.135651 229.493805 271.673553 C 229.356323 272.019073 228.919907 272.44635 228.154938 272.884979 z" stroke-linecap="round" />
</g>
<g transform="matrix(1 0 0 1 589.59 630.14)"  >
<path style="stroke: none; stroke-width: 1; stroke-dasharray: none; stroke-linecap: butt; stroke-dashoffset: 0; stroke-linejoin: miter; stroke-miterlimit: 4; fill: rgb(21,61,105); fill-rule: nonzero; opacity: 1;" vector-effect="non-scaling-stroke"  transform=" translate(-230.58, -271.15)" d="M 229.991882 271.70462 C 230.07251 271.358063 230.468277 271.040039 231.093536 270.591339 C 231.345139 271.172882 231.040649 271.624359 229.991882 271.70462 z" stroke-linecap="round" />
</g>
<g transform="matrix(1 0 0 1 478.73 621.32)"  >
<path style="stroke: none; stroke-width: 1; stroke-dasharray: none; stroke-linecap: butt; stroke-dashoffset: 0; stroke-linejoin: miter; stroke-miterlimit: 4; fill: rgb(7,45,94); fill-rule: nonzero; opacity: 1;" vector-effect="non-scaling-stroke"  transform=" translate(-119.73, -262.32)" d="M 119.270721 261.930298 C 119.536339 261.897491 119.878189 262.146271 120.179398 262.715942 C 119.874817 262.761871 119.610886 262.486847 119.270721 261.930298 z" stroke-linecap="round" />
</g>
<g transform="matrix(1 0 0 1 477.74 620.26)"  >
<path style="stroke: none; stroke-width: 1; stroke-dasharray: none; stroke-linecap: butt; stroke-dashoffset: 0; stroke-linejoin: miter; stroke-miterlimit: 4; fill: rgb(7,45,94); fill-rule: nonzero; opacity: 1;" vector-effect="non-scaling-stroke"  transform=" translate(-118.74, -261.26)" d="M 118.238335 260.96936 C 118.437927 260.90329 118.774918 261.095062 119.235504 261.555634 C 119.031303 261.625336 118.703514 261.42627 118.238335 260.96936 z" stroke-linecap="round" />
</g>
<g transform="matrix(1 0 0 1 534.36 542.9)"  >
<path style="stroke: none; stroke-width: 1; stroke-dasharray: none; stroke-linecap: butt; stroke-dashoffset: 0; stroke-linejoin: miter; stroke-miterlimit: 4; fill: rgb(102,154,211); fill-rule: nonzero; opacity: 1;" vector-effect="non-scaling-stroke"  transform=" translate(-175.36, -183.9)" d="M 140.8013 174.752243 C 141.221863 174.214096 141.420639 173.861618 141.772598 173.247131 C 142.203568 172.796326 142.453613 172.576416 142.815308 172.114761 C 142.959259 171.909225 142.964035 171.9841 142.934174 171.961395 C 144.176346 171.123337 143.962997 169.583527 144.742447 168.160126 C 144.883575 167.86116 144.921921 167.982254 144.882584 167.932404 C 147.43866 166.763519 149.024445 164.643539 150.466858 161.97287 C 150.552521 161.649216 150.701706 161.632278 150.717072 161.705765 C 151.116898 161.760696 151.431244 161.602661 151.765198 161.042908 C 151.85495 160.780701 151.774704 160.816498 151.760864 160.774811 C 155.130112 159.671738 157.083801 156.287048 160.695526 155.023926 C 160.860504 154.718719 160.816635 154.79538 160.792114 154.758652 C 161.021439 154.672989 161.275314 154.624039 161.897705 154.452362 C 166.372879 152.661865 170.677231 151.652252 175.350098 150.512451 C 181.029938 150.522949 186.327118 150.19014 191.934204 151.510681 C 195.294571 152.19342 197.98172 153.553238 201.153122 154.771027 C 203.43306 157.952454 208.348694 156.809891 209.894135 160.96933 C 210.305038 161.34314 210.505875 161.418365 210.969254 161.679428 C 211.231812 161.865265 211.126038 161.813934 211.159912 161.765884 C 211.999847 163.568451 214.203278 164.441711 214.576553 166.960251 C 214.243683 171.498077 212.535217 174.968994 209.277344 178.091736 C 200.202332 183.74614 191.27124 189.055161 182.116516 194.617737 C 181.509048 196.690521 180.054306 197.585495 178.638168 198.393143 C 168.460449 204.197693 158.524734 210.421341 148.20433 215.977112 C 146.762268 216.753418 145.322006 217.638596 143.221909 217.209351 C 142.890488 217.044418 142.422333 217.054855 142.196686 216.992416 C 140.38002 214.03183 139.20636 210.946716 137.989487 207.558929 C 137.160461 205.46843 136.13591 203.775238 136.134827 201.363342 C 136.86615 197.420441 136.328201 193.807846 136.505402 189.805237 C 136.820023 185.283142 138.810883 181.607178 139.699249 177.228333 C 139.841278 176.847412 139.849136 176.937988 139.803894 176.933441 C 140.649872 176.519852 140.432098 175.653595 140.8013 174.752243 z" stroke-linecap="round" />
</g>
<g transform="matrix(1 0 0 1 540.33 576.4)"  >
<path style="stroke: none; stroke-width: 1; stroke-dasharray: none; stroke-linecap: butt; stroke-dashoffset: 0; stroke-linejoin: miter; stroke-miterlimit: 4; fill: rgb(2,68,129); fill-rule: nonzero; opacity: 1;" vector-effect="non-scaling-stroke"  transform=" translate(-181.32, -217.4)" d="M 142.91954 217.418777 C 155.663635 209.712967 168.436783 202.3815 181.551407 194.960663 C 193.657043 203.636566 207.01149 209.74501 219.721603 217.574219 C 216.168701 222.382462 213.638306 228.180725 207.415894 230.93074 C 205.425461 229.131607 205.551025 231.138153 205.096725 231.955872 C 204.710297 232.651413 204.156479 233.213181 203.302216 233.945984 C 203.113327 234.234192 203.116745 234.136093 203.164398 234.147827 C 201.579819 234.761948 199.969696 235.410645 198.260941 236.594315 C 194.605652 237.824997 191.210815 238.859772 187.440857 239.843597 C 183.803894 239.145676 180.506546 239.669662 176.823486 239.479431 C 170.692719 238.113617 164.847931 237.169037 159.157013 234.299561 C 158.780396 234.157654 158.910675 234.121353 158.920502 234.188248 C 158.649445 233.596436 158.02713 233.518021 157.194656 233.196564 C 151.32782 228.818237 145.085876 225.193359 142.91954 217.418777 z" stroke-linecap="round" />
</g>
<g transform="matrix(1 0 0 1 653.74 554.86)"  >
<path style="stroke: none; stroke-width: 1; stroke-dasharray: none; stroke-linecap: butt; stroke-dashoffset: 0; stroke-linejoin: miter; stroke-miterlimit: 4; fill: rgb(236,246,249); fill-rule: nonzero; opacity: 1;" vector-effect="non-scaling-stroke"  transform=" translate(-294.74, -195.87)" d="M 307.583405 189.577103 C 308.403839 189.848618 308.83844 189.995361 309.600189 190.24884 C 311.101593 192.884155 310.276428 195.543549 310.228088 198.527527 C 309.798065 199.199585 309.576447 199.482635 309.145996 199.937851 C 306.358398 201.342422 302.753052 198.99968 301.001892 201.411392 C 299.418304 203.592407 300.814941 206.888779 300.105286 210.036896 C 296.852783 212.049988 293.820435 211.949234 290.385071 210.379028 C 289.76593 209.838516 289.514313 209.60466 289.150269 209.136505 C 288.8461 208.633392 288.603302 208.36116 288.575989 208.061295 C 287.896973 200.602554 287.900391 200.602249 280.370544 200.346893 C 278.155182 197.520172 279.665558 194.543472 278.976257 191.368835 C 279.365143 188.607468 281.301514 189.143051 282.809937 189.031601 C 288.455292 188.614456 288.458649 188.646988 288.50116 182.841492 C 288.505981 182.182281 288.513184 181.523788 288.850861 180.538544 C 292.426819 180.166061 295.735687 180.122665 299.471466 180.232712 C 300.227417 180.745697 300.451813 181.126755 300.485565 181.651047 C 300.926483 188.496536 300.93158 188.496201 307.583405 189.577103 z" stroke-linecap="round" />
</g>
<g transform="matrix(1 0 0 1 615.38 554.14)"  >
<path style="stroke: none; stroke-width: 1; stroke-dasharray: none; stroke-linecap: butt; stroke-dashoffset: 0; stroke-linejoin: miter; stroke-miterlimit: 4; fill: rgb(243,250,252); fill-rule: nonzero; opacity: 1;" vector-effect="non-scaling-stroke"  transform=" translate(-256.37, -195.15)" d="M 270.639282 189.5896 C 272.910797 192.958939 271.668213 196.33313 271.28894 199.880585 C 270.795044 200.19577 270.64444 200.301559 270.486023 200.314835 C 262.614594 200.974838 262.614532 200.973969 262.158691 209.48053 C 261.894073 209.807831 261.850525 209.787033 261.827972 209.795593 C 258.81488 212.239563 255.594803 211.493103 252.007324 210.225922 C 250.48558 207.893158 251.233856 205.615463 250.918579 203.04689 C 250.739304 202.116669 250.472748 201.664001 249.719696 201.100372 C 247.295837 199.983215 245.065689 201.694229 242.608948 200.390167 C 240.051376 197.484406 240.727783 194.22934 241.326157 191.352249 C 241.995651 188.133408 245.234802 189.2845 247.942505 188.977188 C 251.006348 188.867706 250.733383 186.80983 250.984894 185.085861 C 251.25592 183.22818 250.319366 181.124878 252.478485 179.394897 C 256.093872 179.642044 259.918579 177.093094 262.253571 181.549347 C 262.013763 183.699234 261.944122 185.434433 261.956329 187.597 C 264.40686 190.812592 267.631897 188.403519 270.639282 189.5896 z" stroke-linecap="round" />
</g>
<g transform="matrix(1 0 0 1 573.25 531.71)"  >
<path style="stroke: none; stroke-width: 1; stroke-dasharray: none; stroke-linecap: butt; stroke-dashoffset: 0; stroke-linejoin: miter; stroke-miterlimit: 4; fill: rgb(96,159,219); fill-rule: nonzero; opacity: 1;" vector-effect="non-scaling-stroke"  transform=" translate(-214.24, -172.71)" d="M 209.47464 178.312607 C 209.008255 174.141174 212.548218 171.203918 213.647522 167.109955 C 217.245789 167.266891 217.578217 170.382263 219.047394 172.605743 C 215.891586 174.689072 212.853729 176.438583 209.47464 178.312607 z" stroke-linecap="round" />
</g>
<g transform="matrix(1 0 0 1 604.03 553.4)"  >
<path style="stroke: none; stroke-width: 1; stroke-dasharray: none; stroke-linecap: butt; stroke-dashoffset: 0; stroke-linejoin: miter; stroke-miterlimit: 4; fill: rgb(34,88,136); fill-rule: nonzero; opacity: 1;" vector-effect="non-scaling-stroke"  transform=" translate(-245.02, -194.41)" d="M 250.221832 189.547882 C 249.842926 189.877197 249.681473 189.920105 249.518631 189.926086 C 240.453445 190.259445 240.363144 190.380157 242.605698 199.939545 C 243.120041 200.293152 243.223434 200.453445 243.134064 200.82515 C 237.807724 199.138885 240.296661 194.844513 240.311203 191.619476 C 240.323761 188.838104 243.136688 188.300919 245.528458 188.06604 C 246.680771 187.952881 247.8508 188.020233 249.434326 187.995193 C 250.273438 188.301117 250.4785 188.716034 250.221832 189.547882 z" stroke-linecap="round" />
</g>
<g transform="matrix(1 0 0 1 654.27 570.31)"  >
<path style="stroke: none; stroke-width: 1; stroke-dasharray: none; stroke-linecap: butt; stroke-dashoffset: 0; stroke-linejoin: miter; stroke-miterlimit: 4; fill: rgb(12,79,131); fill-rule: nonzero; opacity: 1;" vector-effect="non-scaling-stroke"  transform=" translate(-295.27, -211.31)" d="M 289.966156 210.401581 C 292.984741 210.008255 295.951935 209.944153 299.355469 209.81134 C 300.009491 209.610519 300.227264 209.478424 300.693329 209.636627 C 299.435059 214.486954 295.581696 212.663208 292.544281 212.964676 C 291.037384 213.114227 289.353912 213.159073 289.966156 210.401581 z" stroke-linecap="round" />
</g>
<g transform="matrix(1 0 0 1 642.45 544.61)"  >
<path style="stroke: none; stroke-width: 1; stroke-dasharray: none; stroke-linecap: butt; stroke-dashoffset: 0; stroke-linejoin: miter; stroke-miterlimit: 4; fill: rgb(15,67,114); fill-rule: nonzero; opacity: 1;" vector-effect="non-scaling-stroke"  transform=" translate(-283.44, -185.62)" d="M 288.820129 180.451385 C 289.130829 183.389099 290.790802 187.510727 288.36615 189.437057 C 286.403839 190.996078 282.472778 190.076981 279.149475 190.596024 C 278.313171 190.711884 276.611725 191.151535 277.445251 190.100067 C 278.651215 188.578735 280.810516 187.837601 282.861633 188.084167 C 287.227448 188.608994 288.473694 186.492554 288.030151 182.579651 C 287.961853 181.977203 288.346893 181.32338 288.820129 180.451385 z" stroke-linecap="round" />
</g>
<g transform="matrix(1 0 0 1 606.24 563.66)"  >
<path style="stroke: none; stroke-width: 1; stroke-dasharray: none; stroke-linecap: butt; stroke-dashoffset: 0; stroke-linejoin: miter; stroke-miterlimit: 4; fill: rgb(10,61,107); fill-rule: nonzero; opacity: 1;" vector-effect="non-scaling-stroke"  transform=" translate(-247.23, -204.67)" d="M 243.224854 201.246307 C 242.941284 201.036575 242.973633 200.584259 242.995148 200.358551 C 245.397751 200.085815 247.77887 200.038788 250.591034 200.11087 C 251.02211 200.22998 251.461884 200.456818 251.451691 200.704041 C 251.476807 203.305695 251.5121 205.660156 251.455627 208.444595 C 251.172363 209.030609 250.980835 209.186646 250.430054 209.251846 C 250.065109 208.99707 250.035477 208.82988 250.057159 208.669632 C 250.734482 203.666473 249.531418 200.374817 243.224854 201.246307 z" stroke-linecap="round" />
</g>
<g transform="matrix(1 0 0 1 614.77 569.86)"  >
<path style="stroke: none; stroke-width: 1; stroke-dasharray: none; stroke-linecap: butt; stroke-dashoffset: 0; stroke-linejoin: miter; stroke-miterlimit: 4; fill: rgb(40,95,141); fill-rule: nonzero; opacity: 1;" vector-effect="non-scaling-stroke"  transform=" translate(-255.76, -210.86)" d="M 250.16098 209.483612 C 250.360306 209.096649 250.643372 209.010986 251.141937 208.889313 C 254.364624 210.968124 257.746765 209.471024 261.365387 209.847183 C 258.789124 213.890427 255.47049 213.891022 250.16098 209.483612 z" stroke-linecap="round" />
</g>
<g transform="matrix(1 0 0 1 574.54 526.46)"  >
<path style="stroke: none; stroke-width: 1; stroke-dasharray: none; stroke-linecap: butt; stroke-dashoffset: 0; stroke-linejoin: miter; stroke-miterlimit: 4; fill: rgb(109,149,187); fill-rule: nonzero; opacity: 1;" vector-effect="non-scaling-stroke"  transform=" translate(-215.53, -167.46)" d="M 219.170441 172.851013 C 217.428757 171.123138 215.92807 169.306732 214.216995 167.240723 C 213.301605 165.316452 211.295715 164.455017 211.17395 162.072998 C 215.31044 163.798065 217.331528 167.749695 219.889618 171.644287 C 219.807648 172.229584 219.609558 172.496017 219.170441 172.851013 z" stroke-linecap="round" />
</g>
<g transform="matrix(1 0 0 1 615.51 538.78)"  >
<path style="stroke: none; stroke-width: 1; stroke-dasharray: none; stroke-linecap: butt; stroke-dashoffset: 0; stroke-linejoin: miter; stroke-miterlimit: 4; fill: rgb(12,79,131); fill-rule: nonzero; opacity: 1;" vector-effect="non-scaling-stroke"  transform=" translate(-256.5, -179.79)" d="M 262.310669 181.701874 C 261.808746 179.121857 259.637329 180.042007 258.023376 179.96225 C 256.237488 179.874008 254.445465 179.909439 252.191223 179.939117 C 251.426819 180.338959 251.047379 180.490448 250.331512 180.237274 C 253.151794 176.804565 257.066376 178.084839 260.68396 178.237106 C 262.270081 178.303848 263.247223 179.597595 262.310669 181.701874 z" stroke-linecap="round" />
</g>
<g transform="matrix(1 0 0 1 662.73 544.04)"  >
<path style="stroke: none; stroke-width: 1; stroke-dasharray: none; stroke-linecap: butt; stroke-dashoffset: 0; stroke-linejoin: miter; stroke-miterlimit: 4; fill: rgb(9,57,103); fill-rule: nonzero; opacity: 1;" vector-effect="non-scaling-stroke"  transform=" translate(-303.72, -185.05)" d="M 307.719116 189.438507 C 299.515167 190.274933 299.515167 190.274933 299.819885 180.810883 C 300.455231 180.027466 301.026428 180.279922 300.910217 180.810013 C 299.708893 186.290466 302.787048 188.346756 307.719116 189.438507 z" stroke-linecap="round" />
</g>
<g transform="matrix(1 0 0 1 643.65 563.23)"  >
<path style="stroke: none; stroke-width: 1; stroke-dasharray: none; stroke-linecap: butt; stroke-dashoffset: 0; stroke-linejoin: miter; stroke-miterlimit: 4; fill: rgb(9,57,103); fill-rule: nonzero; opacity: 1;" vector-effect="non-scaling-stroke"  transform=" translate(-284.65, -204.23)" d="M 280.103485 200.450378 C 280.489746 200.088043 280.979309 200.032074 281.469635 200.02507 C 289.336121 199.912567 289.336151 199.913971 289.144226 208.462219 C 288.750061 208.510406 288.18631 208.096176 288.216064 207.730225 C 288.63559 202.57045 287.125641 199.719162 281.300415 201.638535 C 281.056793 201.718796 280.576935 201.082169 280.103485 200.450378 z" stroke-linecap="round" />
</g>
<g transform="matrix(1 0 0 1 609.77 543.94)"  >
<path style="stroke: none; stroke-width: 1; stroke-dasharray: none; stroke-linecap: butt; stroke-dashoffset: 0; stroke-linejoin: miter; stroke-miterlimit: 4; fill: rgb(12,64,116); fill-rule: nonzero; opacity: 1;" vector-effect="non-scaling-stroke"  transform=" translate(-250.77, -184.95)" d="M 250.049835 180.473038 C 250.442444 180.030502 250.809875 180.028076 251.451813 180.006439 C 250.932083 183.252167 252.809448 186.80423 250.331787 189.887436 C 249.972839 189.436707 249.940643 189.021912 249.882141 188.295837 C 249.912094 185.627411 249.968384 183.270264 250.049835 180.473038 z" stroke-linecap="round" />
</g>
<g transform="matrix(1 0 0 1 625.19 563.99)"  >
<path style="stroke: none; stroke-width: 1; stroke-dasharray: none; stroke-linecap: butt; stroke-dashoffset: 0; stroke-linejoin: miter; stroke-miterlimit: 4; fill: rgb(10,55,96); fill-rule: nonzero; opacity: 1;" vector-effect="non-scaling-stroke"  transform=" translate(-266.19, -204.99)" d="M 262.171204 209.876831 C 261.889069 209.308044 261.881317 208.808258 261.879425 208.308456 C 261.847687 199.975937 261.84787 199.975937 270.49472 200.076996 C 270.528687 200.385208 270.077637 200.896088 269.691895 200.850784 C 263.035889 200.069 262.432983 204.118073 263.010681 209.565994 C 262.827545 209.979797 262.637909 209.96283 262.171204 209.876831 z" stroke-linecap="round" />
</g>
<g transform="matrix(1 0 0 1 663.08 563.95)"  >
<path style="stroke: none; stroke-width: 1; stroke-dasharray: none; stroke-linecap: butt; stroke-dashoffset: 0; stroke-linejoin: miter; stroke-miterlimit: 4; fill: rgb(10,55,96); fill-rule: nonzero; opacity: 1;" vector-effect="non-scaling-stroke"  transform=" translate(-304.07, -204.96)" d="M 300.96582 209.483429 C 300.748383 209.903992 300.555084 209.881027 300.076782 209.800323 C 299.761902 209.418777 299.712555 209.095413 299.705078 208.771088 C 299.503143 200.02034 299.503845 200.020325 308.480469 200.072174 C 308.52713 200.359299 308.078766 200.87204 307.712708 200.818832 C 300.867218 199.823975 300.444336 204.026489 300.96582 209.483429 z" stroke-linecap="round" />
</g>
<g transform="matrix(1 0 0 1 625.43 548.19)"  >
<path style="stroke: none; stroke-width: 1; stroke-dasharray: none; stroke-linecap: butt; stroke-dashoffset: 0; stroke-linejoin: miter; stroke-miterlimit: 4; fill: rgb(26,79,124); fill-rule: nonzero; opacity: 1;" vector-effect="non-scaling-stroke"  transform=" translate(-266.42, -189.2)" d="M 270.872833 189.470642 C 267.938995 189.663269 264.736877 191.118515 261.973938 188.449448 C 264.726807 190.111572 268.118805 186.732773 270.872833 189.470642 z" stroke-linecap="round" />
</g>
<g transform="matrix(1 0 0 1 594.54 522.91)"  >
<path style="stroke: none; stroke-width: 1; stroke-dasharray: none; stroke-linecap: butt; stroke-dashoffset: 0; stroke-linejoin: miter; stroke-miterlimit: 4; fill: rgb(12,64,116); fill-rule: nonzero; opacity: 1;" vector-effect="non-scaling-stroke"  transform=" translate(-235.53, -163.91)" d="M 232.479263 165.972458 C 233.715622 163.96199 235.985687 162.95752 238.582581 161.85614 C 238.154816 165.012939 235.505646 165.50087 232.479263 165.972458 z" stroke-linecap="round" />
</g>
<g transform="matrix(1 0 0 1 669.52 553.7)"  >
<path style="stroke: none; stroke-width: 1; stroke-dasharray: none; stroke-linecap: butt; stroke-dashoffset: 0; stroke-linejoin: miter; stroke-miterlimit: 4; fill: rgb(9,57,103); fill-rule: nonzero; opacity: 1;" vector-effect="non-scaling-stroke"  transform=" translate(-310.52, -194.71)" d="M 310.298157 198.643921 C 309.946198 196.339813 309.872711 193.763077 309.863281 190.77095 C 312.220337 192.859268 310.768036 195.666367 310.298157 198.643921 z" stroke-linecap="round" />
</g>
<g transform="matrix(1 0 0 1 598.93 520.39)"  >
<path style="stroke: none; stroke-width: 1; stroke-dasharray: none; stroke-linecap: butt; stroke-dashoffset: 0; stroke-linejoin: miter; stroke-miterlimit: 4; fill: rgb(12,64,116); fill-rule: nonzero; opacity: 1;" vector-effect="non-scaling-stroke"  transform=" translate(-239.93, -161.39)" d="M 239.140442 161.893616 C 239.344238 161.534317 239.867035 161.17691 240.714233 160.892334 C 240.512222 161.275299 239.985825 161.585403 239.140442 161.893616 z" stroke-linecap="round" />
</g>
<g transform="matrix(1 0 0 1 622.17 569.1)"  >
<path style="stroke: none; stroke-width: 1; stroke-dasharray: none; stroke-linecap: butt; stroke-dashoffset: 0; stroke-linejoin: miter; stroke-miterlimit: 4; fill: rgb(40,95,141); fill-rule: nonzero; opacity: 1;" vector-effect="non-scaling-stroke"  transform=" translate(-263.16, -210.1)" d="M 263.001129 210.011581 C 262.999176 210.019669 263.326965 210.201447 263.326965 210.201447 C 263.326965 210.201447 263.100281 210.178131 263.058716 210.087463 C 263.017151 209.99678 263.003082 210.003494 263.001129 210.011581 z" stroke-linecap="round" />
</g>
<g transform="matrix(1 0 0 1 526.68 596.03)"  >
<path style="stroke: none; stroke-width: 1; stroke-dasharray: none; stroke-linecap: butt; stroke-dashoffset: 0; stroke-linejoin: miter; stroke-miterlimit: 4; fill: rgb(15,51,91); fill-rule: nonzero; opacity: 1;" vector-effect="non-scaling-stroke"  transform=" translate(-167.67, -237.04)" d="M 158.99115 234.443192 C 164.343414 235.598129 169.906418 237.038605 175.746948 238.726715 C 176.230148 239.121323 176.435837 239.268326 176.329666 239.631073 C 169.942947 239.683578 164.44136 237.63678 158.99115 234.443192 z" stroke-linecap="round" />
</g>
<g transform="matrix(1 0 0 1 527.55 511.49)"  >
<path style="stroke: none; stroke-width: 1; stroke-dasharray: none; stroke-linecap: butt; stroke-dashoffset: 0; stroke-linejoin: miter; stroke-miterlimit: 4; fill: rgb(113,148,186); fill-rule: nonzero; opacity: 1;" vector-effect="non-scaling-stroke"  transform=" translate(-168.55, -152.5)" d="M 175.307343 150.778549 C 171.104202 152.834747 166.997192 154.030334 162.391418 154.918503 C 161.862854 154.813599 161.717163 154.649841 161.771255 154.224976 C 165.700104 151.555908 169.935989 150.727997 174.61908 150.079742 C 175.218124 150.271545 175.413651 150.419769 175.307343 150.778549 z" stroke-linecap="round" />
</g>
<g transform="matrix(1 0 0 1 543.09 509.76)"  >
<path style="stroke: none; stroke-width: 1; stroke-dasharray: none; stroke-linecap: butt; stroke-dashoffset: 0; stroke-linejoin: miter; stroke-miterlimit: 4; fill: rgb(98,132,174); fill-rule: nonzero; opacity: 1;" vector-effect="non-scaling-stroke"  transform=" translate(-184.08, -150.77)" d="M 175.466827 150.999588 C 175.005508 150.98912 175.008575 150.556107 175.015594 150.339722 C 180.788284 149.32132 186.500595 149.572754 192.55687 151.11586 C 193.075516 151.365112 193.191086 151.489655 193.135773 151.803253 C 187.273499 151.881454 181.658401 150.447159 175.466827 150.999588 z" stroke-linecap="round" />
</g>
<g transform="matrix(1 0 0 1 515.32 516.77)"  >
<path style="stroke: none; stroke-width: 1; stroke-dasharray: none; stroke-linecap: butt; stroke-dashoffset: 0; stroke-linejoin: miter; stroke-miterlimit: 4; fill: rgb(111,146,182); fill-rule: nonzero; opacity: 1;" vector-effect="non-scaling-stroke"  transform=" translate(-156.31, -157.78)" d="M 160.49913 154.744568 C 158.509888 157.363113 156.399353 160.332657 152.126556 160.810577 C 154.039154 158.035217 156.85437 156.073395 160.49913 154.744568 z" stroke-linecap="round" />
</g>
<g transform="matrix(1 0 0 1 506.88 523.83)"  >
<path style="stroke: none; stroke-width: 1; stroke-dasharray: none; stroke-linecap: butt; stroke-dashoffset: 0; stroke-linejoin: miter; stroke-miterlimit: 4; fill: rgb(115,152,191); fill-rule: nonzero; opacity: 1;" vector-effect="non-scaling-stroke"  transform=" translate(-147.87, -164.84)" d="M 150.259491 161.770386 C 151.313461 165.639786 149.071976 167.266602 145.225311 167.906525 C 145.922852 165.348404 148.071945 163.728836 150.259491 161.770386 z" stroke-linecap="round" />
</g>
<g transform="matrix(1 0 0 1 497.02 542.19)"  >
<path style="stroke: none; stroke-width: 1; stroke-dasharray: none; stroke-linecap: butt; stroke-dashoffset: 0; stroke-linejoin: miter; stroke-miterlimit: 4; fill: rgb(111,146,182); fill-rule: nonzero; opacity: 1;" vector-effect="non-scaling-stroke"  transform=" translate(-138.02, -183.2)" d="M 139.540848 177.050934 C 140.268387 180.967316 138.113358 184.510956 137.115143 188.692383 C 136.821457 189.228714 136.68721 189.421036 136.35762 189.320755 C 136.172638 184.838058 137.691238 181.042252 139.540848 177.050934 z" stroke-linecap="round" />
</g>
<g transform="matrix(1 0 0 1 498.95 571)"  >
<path style="stroke: none; stroke-width: 1; stroke-dasharray: none; stroke-linecap: butt; stroke-dashoffset: 0; stroke-linejoin: miter; stroke-miterlimit: 4; fill: rgb(113,148,186); fill-rule: nonzero; opacity: 1;" vector-effect="non-scaling-stroke"  transform=" translate(-139.94, -212.01)" d="M 137.914795 207.457031 C 139.396118 210.188065 141.503998 212.83374 141.972046 216.562469 C 139.136475 214.507767 138.4673 211.101822 137.914795 207.457031 z" stroke-linecap="round" />
</g>
<g transform="matrix(1 0 0 1 556.14 512.08)"  >
<path style="stroke: none; stroke-width: 1; stroke-dasharray: none; stroke-linecap: butt; stroke-dashoffset: 0; stroke-linejoin: miter; stroke-miterlimit: 4; fill: rgb(115,148,188); fill-rule: nonzero; opacity: 1;" vector-effect="non-scaling-stroke"  transform=" translate(-197.14, -153.08)" d="M 193.224289 152.242279 C 192.96489 151.992325 192.955368 151.61647 192.957657 151.428528 C 195.868225 151.714279 198.512726 152.892715 201.316193 154.56604 C 198.495026 155.324905 196.129669 153.428864 193.224289 152.242279 z" stroke-linecap="round" />
</g>
<g transform="matrix(1 0 0 1 495.41 553.84)"  >
<path style="stroke: none; stroke-width: 1; stroke-dasharray: none; stroke-linecap: butt; stroke-dashoffset: 0; stroke-linejoin: miter; stroke-miterlimit: 4; fill: rgb(95,126,166); fill-rule: nonzero; opacity: 1;" vector-effect="non-scaling-stroke"  transform=" translate(-136.41, -194.84)" d="M 136.085297 189.481262 C 136.162277 189.028168 136.559525 189.026596 136.757614 189.031494 C 136.796219 192.796127 137.478592 196.579727 136.405121 200.657867 C 135.678879 197.315155 135.672867 193.627335 136.085297 189.481262 z" stroke-linecap="round" />
</g>
<g transform="matrix(1 0 0 1 540.37 598.54)"  >
<path style="stroke: none; stroke-width: 1; stroke-dasharray: none; stroke-linecap: butt; stroke-dashoffset: 0; stroke-linejoin: miter; stroke-miterlimit: 4; fill: rgb(2,33,69); fill-rule: nonzero; opacity: 1;" vector-effect="non-scaling-stroke"  transform=" translate(-181.37, -239.55)" d="M 176.468933 239.925842 C 176.017807 239.846817 176.014816 239.410767 176.019638 239.192566 C 179.4702 239.103638 182.915955 239.232925 186.713715 239.577423 C 183.683823 239.863388 180.301941 239.934143 176.468933 239.925842 z" stroke-linecap="round" />
</g>
<g transform="matrix(1 0 0 1 564.17 591.39)"  >
<path style="stroke: none; stroke-width: 1; stroke-dasharray: none; stroke-linecap: butt; stroke-dashoffset: 0; stroke-linejoin: miter; stroke-miterlimit: 4; fill: rgb(15,51,91); fill-rule: nonzero; opacity: 1;" vector-effect="non-scaling-stroke"  transform=" translate(-205.16, -232.4)" d="M 203.446152 234.168243 C 204.269226 233.053391 203.222214 229.625351 206.875397 230.910919 C 206.674957 232.816803 205.093201 233.313751 203.446152 234.168243 z" stroke-linecap="round" />
</g>
<g transform="matrix(1 0 0 1 559.6 594.45)"  >
<path style="stroke: none; stroke-width: 1; stroke-dasharray: none; stroke-linecap: butt; stroke-dashoffset: 0; stroke-linejoin: miter; stroke-miterlimit: 4; fill: rgb(15,51,91); fill-rule: nonzero; opacity: 1;" vector-effect="non-scaling-stroke"  transform=" translate(-200.59, -235.45)" d="M 198.335876 236.788849 C 198.639694 234.479782 200.505066 234.19162 202.843811 234.118195 C 201.698456 235.035538 200.18486 235.911514 198.335876 236.788849 z" stroke-linecap="round" />
</g>
<g transform="matrix(1 0 0 1 502.99 528.94)"  >
<path style="stroke: none; stroke-width: 1; stroke-dasharray: none; stroke-linecap: butt; stroke-dashoffset: 0; stroke-linejoin: miter; stroke-miterlimit: 4; fill: rgb(115,152,191); fill-rule: nonzero; opacity: 1;" vector-effect="non-scaling-stroke"  transform=" translate(-143.99, -169.95)" d="M 144.591125 168.038788 C 144.905441 169.310745 145.422256 170.920242 143.260895 171.859161 C 142.801437 170.485291 143.267395 169.244965 144.591125 168.038788 z" stroke-linecap="round" />
</g>
<g transform="matrix(1 0 0 1 534.18 463.12)"  >
<path style="stroke: none; stroke-width: 1; stroke-dasharray: none; stroke-linecap: butt; stroke-dashoffset: 0; stroke-linejoin: miter; stroke-miterlimit: 4; fill: rgb(115,148,188); fill-rule: nonzero; opacity: 1;" vector-effect="non-scaling-stroke"  transform=" translate(-175.18, -104.13)" d="M 173.66925 104.272354 C 174.379364 104.1008 175.379868 104.024902 176.688492 103.980392 C 175.984299 104.130531 174.97197 104.249275 173.66925 104.272354 z" stroke-linecap="round" />
</g>
<g transform="matrix(1 0 0 1 499.38 534.7)"  >
<path style="stroke: none; stroke-width: 1; stroke-dasharray: none; stroke-linecap: butt; stroke-dashoffset: 0; stroke-linejoin: miter; stroke-miterlimit: 4; fill: rgb(111,146,182); fill-rule: nonzero; opacity: 1;" vector-effect="non-scaling-stroke"  transform=" translate(-140.38, -175.71)" d="M 140.729309 174.618561 C 140.776703 175.264832 140.530319 175.963074 140.021301 176.79512 C 139.984283 176.176117 140.209915 175.42334 140.729309 174.618561 z" stroke-linecap="round" />
</g>
<g transform="matrix(1 0 0 1 516.94 592.63)"  >
<path style="stroke: none; stroke-width: 1; stroke-dasharray: none; stroke-linecap: butt; stroke-dashoffset: 0; stroke-linejoin: miter; stroke-miterlimit: 4; fill: rgb(15,51,91); fill-rule: nonzero; opacity: 1;" vector-effect="non-scaling-stroke"  transform=" translate(-157.93, -233.64)" d="M 157.085083 233.293427 C 157.510345 233.244171 158.072052 233.473938 158.782043 233.979401 C 158.360748 234.027573 157.791138 233.800018 157.085083 233.293427 z" stroke-linecap="round" />
</g>
<g transform="matrix(1 0 0 1 569.74 520.37)"  >
<path style="stroke: none; stroke-width: 1; stroke-dasharray: none; stroke-linecap: butt; stroke-dashoffset: 0; stroke-linejoin: miter; stroke-miterlimit: 4; fill: rgb(109,149,187); fill-rule: nonzero; opacity: 1;" vector-effect="non-scaling-stroke"  transform=" translate(-210.73, -161.38)" d="M 211.197571 161.670868 C 210.932892 161.838013 210.66217 161.736053 210.261932 161.413635 C 210.602478 160.599991 210.852859 161.190826 211.197571 161.670868 z" stroke-linecap="round" />
</g>
<g transform="matrix(1 0 0 1 510.29 520.25)"  >
<path style="stroke: none; stroke-width: 1; stroke-dasharray: none; stroke-linecap: butt; stroke-dashoffset: 0; stroke-linejoin: miter; stroke-miterlimit: 4; fill: rgb(115,152,191); fill-rule: nonzero; opacity: 1;" vector-effect="non-scaling-stroke"  transform=" translate(-151.28, -161.26)" d="M 151.571716 160.816544 C 151.652145 161.06279 151.449356 161.344864 150.989487 161.703094 C 150.91777 161.470306 151.103119 161.161346 151.571716 160.816544 z" stroke-linecap="round" />
</g>
<g transform="matrix(1 0 0 1 520.54 513.44)"  >
<path style="stroke: none; stroke-width: 1; stroke-dasharray: none; stroke-linecap: butt; stroke-dashoffset: 0; stroke-linejoin: miter; stroke-miterlimit: 4; fill: rgb(111,146,182); fill-rule: nonzero; opacity: 1;" vector-effect="non-scaling-stroke"  transform=" translate(-161.53, -154.44)" d="M 161.714722 153.992371 C 161.978409 154.132828 161.985764 154.301804 162.000824 154.72406 C 161.799179 154.950607 161.589798 154.923843 161.074005 154.809509 C 160.997849 154.488235 161.228119 154.254562 161.714722 153.992371 z" stroke-linecap="round" />
</g>
<g transform="matrix(1 0 0 1 501.43 531.42)"  >
<path style="stroke: none; stroke-width: 1; stroke-dasharray: none; stroke-linecap: butt; stroke-dashoffset: 0; stroke-linejoin: miter; stroke-miterlimit: 4; fill: rgb(115,152,191); fill-rule: nonzero; opacity: 1;" vector-effect="non-scaling-stroke"  transform=" translate(-142.42, -172.43)" d="M 142.700806 172.003006 C 142.759628 172.179733 142.559998 172.450241 142.143082 172.852936 C 142.097977 172.689011 142.270157 172.392899 142.700806 172.003006 z" stroke-linecap="round" />
</g>
<g transform="matrix(1 0 0 1 449.26 561.27)"  >
<path style="stroke: none; stroke-width: 1; stroke-dasharray: none; stroke-linecap: butt; stroke-dashoffset: 0; stroke-linejoin: miter; stroke-miterlimit: 4; fill: rgb(102,154,211); fill-rule: nonzero; opacity: 1;" vector-effect="non-scaling-stroke"  transform=" translate(-90.26, -202.28)" d="M 90.37278 202.685883 C 90.132133 202.642441 90.062233 202.373169 90.113159 201.872437 C 90.384895 201.886475 90.488075 202.159485 90.37278 202.685883 z" stroke-linecap="round" />
</g>
<g transform="matrix(1 0 0 1 610.31 559.53)"  >
<path style="stroke: none; stroke-width: 1; stroke-dasharray: none; stroke-linecap: butt; stroke-dashoffset: 0; stroke-linejoin: miter; stroke-miterlimit: 4; fill: rgb(40,95,141); fill-rule: nonzero; opacity: 1;" vector-effect="non-scaling-stroke"  transform=" translate(-251.3, -200.54)" d="M 251.556976 200.777969 C 251.231613 200.882797 251.104645 200.740433 251.041351 200.37706 C 251.359085 200.146729 251.575867 200.271622 251.556976 200.777969 z" stroke-linecap="round" />
</g>
</svg>