<?xml version="1.0" encoding="UTF-8" standalone="no" ?>
<!DOCTYPE svg PUBLIC "-//W3C//DTD SVG 1.1//EN" "http://www.w3.org/Graphics/SVG/1.1/DTD/svg11.dtd">
<svg xmlns="http://www.w3.org/2000/svg" xmlns:xlink="http://www.w3.org/1999/xlink" version="1.1" width="1080" height="1080" viewBox="0 0 1080 1080" xml:space="preserve">
<desc>Created with Fabric.js 5.2.4</desc>
<defs>
</defs>
<g transform="matrix(1 0 0 1 540 540)" id="fee7a0e3-12c6-41dc-972c-47a69d601dfa"  >
<rect style="stroke: none; stroke-width: 1; stroke-dasharray: none; stroke-linecap: butt; stroke-dashoffset: 0; stroke-linejoin: miter; stroke-miterlimit: 4; fill: rgb(255,255,255); fill-rule: nonzero; opacity: 1; visibility: hidden;" vector-effect="non-scaling-stroke"  x="-540" y="-540" rx="0" ry="0" width="1080" height="1080" />
</g>
<g transform="matrix(1 0 0 1 540 540)" id="fef45a01-1213-4a05-82cc-516a56ad1b2b"  >
</g>
<g transform="matrix(1 0 0 1 540 540)"  >
<path style="stroke: none; stroke-width: 1; stroke-dasharray: none; stroke-linecap: butt; stroke-dashoffset: 0; stroke-linejoin: miter; stroke-miterlimit: 4; fill: rgb(71,112,76); fill-rule: nonzero; opacity: 0;" vector-effect="non-scaling-stroke"  transform=" translate(-259.94, -260.05)" d="M 344 519 C 229.360855 519 115.221703 519 1.041278 519 C 1.041278 346.402466 1.041278 173.804947 1.041278 1.103708 C 173.555847 1.103708 346.111786 1.103708 518.833862 1.103708 C 518.833862 173.666534 518.833862 346.333252 518.833862 519 C 460.80484 519 402.652435 519 344 519 M 349.924835 404.16214 C 349.924835 406.600098 349.924835 409.038025 349.924835 411.030121 C 343.115234 412.085602 336.931671 413.122986 330.724121 413.988403 C 320.455048 415.420044 310.845612 423.661804 310.035065 433.558746 C 308.921631 447.1539 313.749756 454.209778 326.573242 456.65097 C 333.644684 457.997162 340.774078 457.506226 347.110199 453.09256 C 348.619751 452.041046 350.657745 451.748108 352.600281 451.053467 C 352.908691 452.891632 353.144867 454.299408 353.374298 455.66687 C 357.990173 455.66687 362.236145 455.66687 366.999725 455.66687 C 366.999725 453.549561 366.999695 451.759857 366.999725 449.970154 C 366.999786 434.659058 367.126251 419.346497 366.944977 404.037537 C 366.858154 396.706482 364.43985 389.902924 357.314911 386.868286 C 344.972015 381.611176 332.345795 383.249359 319.728882 386.68927 C 313.925262 388.271515 313.490845 391.298218 314.838318 396.419952 C 315.753357 399.898041 316.765259 400.030518 319.92392 399.225586 C 325.721191 397.748291 331.682251 396.774384 337.631958 396.074768 C 343.309052 395.407166 347.393158 398.098083 349.924835 404.16214 M 187.489532 421.015259 C 179.46524 428.272278 180.564148 437.85788 183.082016 446.292664 C 186.761566 458.61911 206.115417 460.354126 217.16449 453.569061 C 222.607224 450.226776 223.702774 450.161652 225.869232 455.580688 C 229.849945 455.580688 233.751999 455.580688 236.99968 455.580688 C 236.99968 436.583252 237.101746 418.009338 236.944443 399.437592 C 236.88916 392.910004 231.244431 386.155487 224.706131 385.062866 C 211.904831 382.923737 199.151978 382.854858 186.919601 388.159546 C 186.089691 388.51947 184.815475 389.57019 184.912781 390.075134 C 185.555023 393.407867 186.516449 396.679077 187.245331 399.476959 C 194.86644 398.242035 201.750168 396.55423 208.709625 396.140472 C 217.884048 395.595062 222.994568 402.163635 221.394058 411.863922 C 209.587601 411.748291 197.976166 413.077118 187.489532 421.015259 M 239.467224 187.904297 C 246.160828 194.634232 252.78186 201.455811 261.584442 205.708969 C 255.623367 194.966492 248.586594 185.111404 242.533493 174.685226 C 238.200302 167.221512 234.742615 159.072937 238.012344 149.969315 C 241.301849 140.810699 246.941925 133.289932 254.220474 126.963913 C 267.719757 115.231201 282.241638 104.448166 291.4599 88.628296 C 297.093201 78.960739 300.626678 68.585686 298.97464 57.126602 C 297.998016 50.3522 295.831696 44.079338 290.171783 38.934422 C 289.632446 40.232903 288.977264 41.018463 289.098114 41.657253 C 289.604492 44.334412 290.756195 46.941872 290.923126 49.62149 C 291.532196 59.39674 289.555908 68.609917 283.778564 76.715744 C 280.913361 80.735733 278.139587 84.912987 274.708618 88.415939 C 269.637634 93.593269 264.239136 98.508797 258.586243 103.044998 C 246.53598 112.714844 233.70639 121.410774 224.641357 134.403702 C 217.952072 143.991425 216.876373 157.284424 223.290909 166.332657 C 228.347687 173.465652 233.808212 180.312439 239.467224 187.904297 M 167.657486 322.999969 C 173.044907 323.593414 178.425461 324.260132 183.821152 324.76532 C 195.801727 325.886993 207.771332 327.424957 219.779755 327.873383 C 234.254776 328.41394 248.780212 328.40921 263.256256 327.882599 C 276.762817 327.391266 290.360657 326.72052 303.684204 324.633942 C 317.375031 322.489838 330.877319 318.879944 344.261719 315.185486 C 348.85025 313.918915 353.154053 310.855835 356.932861 307.802765 C 358.413574 306.606415 359.127319 302.729553 358.318146 300.902863 C 357.459045 298.963501 354.378265 298.00827 352.26767 296.623291 C 351.845886 296.888153 351.424103 297.153046 351.002319 297.417908 C 354.734894 303.405823 351.01532 305.415985 346.596802 306.969574 C 343.508575 308.05545 340.438293 309.365753 337.245544 309.947723 C 328.521698 311.537964 319.77417 313.126648 310.968323 314.109222 C 297.021332 315.665466 283.040222 317.432404 269.036041 317.849243 C 241.85231 318.658417 214.645767 318.486664 187.688446 313.963959 C 181.465454 312.919891 175.450851 311.24585 169.873123 306.870667 C 174.185638 304.197083 178.564957 302.249237 183.096542 300.766846 C 187.779648 299.234894 192.610687 298.155121 197.377014 296.877533 C 195.428162 295.156036 193.223801 294.100189 191.012024 294.084473 C 177.164871 293.986084 164.395248 297.865997 152.681534 305.190735 C 149.386765 307.251007 146.484909 310.364502 148.342896 314.185669 C 149.558975 316.686646 152.879944 318.573944 155.669876 319.796783 C 159.208969 321.348053 163.165344 321.947235 167.657486 322.999969 M 266.142273 455.851135 C 271.300354 455.898987 276.463806 456.090302 281.612793 455.896393 C 282.944672 455.846252 284.98584 454.89801 285.420898 453.83725 C 289.473541 443.956207 293.606995 434.081085 296.992218 423.961792 C 299.962891 415.081787 302.110016 405.917511 304.402863 396.823822 C 305.319489 393.188293 305.651794 389.405457 306.360321 385.005157 C 301.223663 385.005157 296.919189 385.22348 292.650177 384.928772 C 289.779144 384.730591 288.762299 386.25769 288.32666 388.470367 C 286.810242 396.172119 285.667053 403.954987 283.921478 411.601898 C 282.06662 419.727448 279.6875 427.733276 277.421082 436.226868 C 271.977325 418.665497 266.768707 401.862701 261.657166 385.373016 C 255.441757 385.373016 249.864746 385.373016 243.725952 385.373016 C 245.970337 393.354034 247.897003 400.907318 250.224152 408.335114 C 255.157379 424.080933 260.299377 439.761322 266.142273 455.851135 M 170.164246 462.51358 C 171.442657 455.878113 173.709427 449.259613 173.823929 442.604126 C 174.259384 417.294037 174.004578 391.971924 173.988571 366.654327 C 173.987457 364.891479 173.82962 363.128784 173.744019 361.352783 C 167.625244 361.352783 162.055191 361.352783 156.000092 361.352783 C 156.000092 363.663269 156.000092 365.625732 156.000076 367.588165 C 155.999969 394.238281 155.912537 420.888794 156.047272 447.538239 C 156.094238 456.823975 151.812973 463.438019 144.307907 468.191528 C 141.209183 470.154175 141.298462 472.266296 143.219833 474.66214 C 145.022934 476.910614 147.148911 478.900146 149.136353 481.007355 C 158.159424 477.351166 165.664841 472.183807 170.164246 462.51358 M 319.271545 108.879951 C 322.225769 106.758354 325.179993 104.636757 328.134216 102.515152 C 327.854553 102.108261 327.57489 101.701363 327.295197 101.294464 C 310.056091 104.496109 294.648346 112.141808 280.134613 121.584305 C 271.934845 126.918968 264.586792 134.025986 261.604736 143.325287 C 256.621368 158.865356 261.366913 172.908127 272.374969 184.599258 C 278.435272 191.035583 280.155426 198.896408 275.778778 206.436981 C 273.949005 209.589462 271.694122 212.495193 269.561218 215.617538 C 270.227966 215.781616 270.554016 215.944016 270.866821 215.921692 C 271.513123 215.875565 272.227722 215.881866 272.783325 215.604462 C 282.129974 210.937836 290.025909 204.340363 293.773712 194.575516 C 297.622162 184.548584 294.546478 175.247589 287.655212 167.01828 C 284.768799 163.571396 282.144745 159.662399 280.414642 155.538437 C 276.413452 146.00087 280.750763 137.906799 287.537506 132.066742 C 297.27652 123.686203 308.149445 116.623405 319.271545 108.879951 M 238.913071 224.802292 C 225.06427 223.666626 211.215469 222.530945 197.366669 221.395279 C 197.190933 220.550156 197.015198 219.705032 196.839478 218.859909 C 204.644882 211.005951 217.025238 212.181702 226.330215 206.092697 C 212.357224 201.936356 177.603012 212.456985 171.37236 222.345566 C 175.265366 229.386902 182.679657 229.925369 189.184601 230.796753 C 199.955292 232.239563 210.89827 232.579163 221.783325 232.934143 C 232.739838 233.291473 243.721848 233.382446 254.679031 233.085693 C 272.279449 232.609024 289.814697 230.824326 306.929474 226.729492 C 313.306549 225.203766 319.078217 221.147797 325.125977 218.24559 C 324.936096 217.759155 324.746246 217.272736 324.556366 216.786301 C 323.990326 216.746033 323.409912 216.6035 322.860352 216.680649 C 312.787231 218.095001 302.759033 220.085907 292.638123 220.842941 C 277.088715 222.006027 261.473907 222.279739 245.893143 223.056656 C 243.829605 223.159546 241.802887 224.000839 238.913071 224.802292 M 253.808365 299.148926 C 272.534546 299.453186 290.536652 296.189331 307.994781 288.888916 C 304.096161 282.644897 291.723724 278.290955 284.41217 279.254364 C 272.529022 280.820099 260.583374 282.017456 248.62886 282.884308 C 243.727951 283.239716 238.691284 282.631775 233.796646 281.914307 C 228.727463 281.171234 223.755569 279.764435 218.738052 278.647278 C 219.393951 276.308197 219.843048 274.706635 220.29213 273.105072 C 218.688705 273.379364 217.074951 273.605164 215.485107 273.943298 C 214.196609 274.217346 212.881119 274.494049 211.675125 275.001404 C 208.464859 276.351868 205.411514 277.771271 204.973175 281.98764 C 204.502625 286.514038 206.662857 289.519775 210.429214 291.035034 C 216.187531 293.351715 222.059891 295.783936 228.116211 296.863464 C 236.339828 298.329346 244.78273 298.565094 253.808365 299.148926 M 289.86615 262.566467 C 296.763062 261.032104 303.670807 259.543274 310.544342 257.910553 C 311.489685 257.686005 313.048523 256.597809 312.966583 256.168243 C 312.755676 255.062469 312.004883 253.772964 311.073334 253.145477 C 308.352417 251.312683 305.468506 249.71106 302.582245 248.140579 C 301.612366 247.612885 300.39975 247.063858 299.372162 247.180023 C 284.122314 248.904205 269.102448 252.651642 253.595444 252.135498 C 247.01445 251.916443 240.403656 252.328491 233.84053 251.913666 C 227.643143 251.521942 221.439774 250.692841 215.333847 249.549698 C 210.187592 248.586212 209.818665 246.997482 212.813995 242.595596 C 213.321854 241.849258 213.518875 240.891403 213.859497 240.031265 C 213.599014 239.626953 213.338516 239.222641 213.078033 238.818329 C 209.190933 240.558945 205.187851 242.085327 201.453171 244.107452 C 198.428589 245.745117 194.905685 248.035736 196.231323 251.992065 C 197.158295 254.758575 199.634338 258.404419 202.083725 259.022827 C 213.308472 261.856842 224.680862 264.541504 236.162781 265.820709 C 253.850555 267.791168 271.411224 264.238403 289.86615 262.566467 M 232.616394 341.999878 C 237.763397 342.127411 242.911377 342.392975 248.057236 342.356934 C 264.327515 342.243073 280.628418 342.570831 296.856506 341.651825 C 309.079468 340.959564 321.223236 338.714569 333.375763 336.975708 C 345.881134 335.186371 357.638672 331.045837 367.569 323.202301 C 369.734283 321.492035 373.556824 318.072784 371.160431 313.249146 C 369.639954 313.800354 368.191498 314.138641 366.926147 314.817963 C 362.479889 317.205017 358.357147 320.572266 353.637512 321.997589 C 342.217468 325.446503 330.665497 328.877167 318.916321 330.711365 C 304.326141 332.989105 289.483856 333.65213 274.750122 335.009186 C 273.758057 335.100555 272.76416 335.217651 271.769806 335.231995 C 257.823792 335.432617 243.856506 336.168671 229.937714 335.638245 C 217.998413 335.183228 206.118317 333.23645 194.201935 332.051025 C 192.41095 331.872864 190.564743 332.249725 188.744095 332.369781 C 188.70076 333.020721 188.657425 333.671661 188.61409 334.322601 C 202.469849 339.27063 217.031143 340.784698 232.616394 341.999878 M 348.837067 242.299713 C 340.035645 248.819061 331.234192 255.338394 322.432739 261.857727 C 324.511932 262.730743 326.379028 263.003876 327.9505 262.445374 C 336.634033 259.359039 345.230499 256.445709 353.360443 251.569504 C 360.991119 246.992737 366.386292 241.152863 370.35675 233.829254 C 374.365723 226.43457 372.306824 214.823166 365.584839 208.817184 C 356.890991 201.049393 346.551483 202.546555 336.294922 203.812454 C 332.964355 204.223526 329.973633 205.251251 328.516235 209.404953 C 330.098877 209.562653 331.184906 209.809769 332.254333 209.751556 C 335.549622 209.572144 338.834717 209.150558 342.130707 209.049286 C 351.319855 208.766983 360.406372 220.734787 356.784393 229.163834 C 354.879486 233.596924 351.71756 237.489868 348.837067 242.299713 M 375.530548 383.203186 C 372.423431 383.203186 369.316315 383.203186 365.950867 383.203186 C 366.540497 386.222382 366.971985 388.432007 367.40155 390.631592 C 370.878815 390.631592 374.291748 390.631592 378.880005 390.631592 C 377.866425 387.706299 377.06665 385.398071 375.530548 383.203186 z" stroke-linecap="round" />
</g>
<g transform="matrix(1 0 0 1 618.52 700.35)"  >
<path style="stroke: none; stroke-width: 1; stroke-dasharray: none; stroke-linecap: butt; stroke-dashoffset: 0; stroke-linejoin: miter; stroke-miterlimit: 4; fill: rgb(225,30,33); fill-rule: nonzero; opacity: 1;" vector-effect="non-scaling-stroke"  transform=" translate(-338.46, -420.4)" d="M 349.824524 403.756653 C 347.393158 398.098083 343.309052 395.407166 337.631958 396.074768 C 331.682251 396.774384 325.721191 397.748291 319.92392 399.225586 C 316.765259 400.030518 315.753357 399.898041 314.838318 396.419952 C 313.490845 391.298218 313.925262 388.271515 319.728882 386.68927 C 332.345795 383.249359 344.972015 381.611176 357.314911 386.868286 C 364.43985 389.902924 366.858154 396.706482 366.944977 404.037537 C 367.126251 419.346497 366.999786 434.659058 366.999725 449.970154 C 366.999695 451.759857 366.999725 453.549561 366.999725 455.66687 C 362.236145 455.66687 357.990173 455.66687 353.374298 455.66687 C 353.144867 454.299408 352.908691 452.891632 352.600281 451.053467 C 350.657745 451.748108 348.619751 452.041046 347.110199 453.09256 C 340.774078 457.506226 333.644684 457.997162 326.573242 456.65097 C 313.749756 454.209778 308.921631 447.1539 310.035065 433.558746 C 310.845612 423.661804 320.455048 415.420044 330.724121 413.988403 C 336.931671 413.122986 343.115234 412.085602 349.924835 411.030121 C 349.924835 409.038025 349.924835 406.600098 349.824524 403.756653 M 332.069702 443.630157 C 333.921783 444.063934 335.966797 445.21698 337.585968 444.782562 C 341.010803 443.863708 344.312836 442.300781 347.453522 440.609009 C 348.572937 440.006012 349.67215 438.306427 349.758331 437.037994 C 350.044769 432.821686 349.866638 428.573792 349.866638 423.589752 C 344.563293 424.10965 340.020325 424.670837 335.460205 424.969666 C 330.839905 425.272491 328.034698 428.04184 327.246277 432.068695 C 326.425446 436.260925 326.655029 440.75293 332.069702 443.630157 z" stroke-linecap="round" />
</g>
<g transform="matrix(1 0 0 1 489.2 700.55)"  >
<path style="stroke: none; stroke-width: 1; stroke-dasharray: none; stroke-linecap: butt; stroke-dashoffset: 0; stroke-linejoin: miter; stroke-miterlimit: 4; fill: rgb(225,30,33); fill-rule: nonzero; opacity: 1;" vector-effect="non-scaling-stroke"  transform=" translate(-209.14, -420.6)" d="M 187.752289 420.752014 C 197.976166 413.077118 209.587601 411.748291 221.394058 411.863922 C 222.994568 402.163635 217.884048 395.595062 208.709625 396.140472 C 201.750168 396.55423 194.86644 398.242035 187.245331 399.476959 C 186.516449 396.679077 185.555023 393.407867 184.912781 390.075134 C 184.815475 389.57019 186.089691 388.51947 186.919601 388.159546 C 199.151978 382.854858 211.904831 382.923737 224.706131 385.062866 C 231.244431 386.155487 236.88916 392.910004 236.944443 399.437592 C 237.101746 418.009338 236.99968 436.583252 236.99968 455.580688 C 233.751999 455.580688 229.849945 455.580688 225.869232 455.580688 C 223.702774 450.161652 222.607224 450.226776 217.16449 453.569061 C 206.115417 460.354126 186.761566 458.61911 183.082016 446.292664 C 180.564148 437.85788 179.46524 428.272278 187.752289 420.752014 M 198.025879 437.947388 C 202.084595 445.243958 205.391037 446.191528 213.968094 442.516205 C 222.444168 438.884125 224.167496 434.506226 221.041595 424.020294 C 217.493256 424.020294 213.81041 423.679535 210.214249 424.092926 C 203.2453 424.894135 196.726547 427.7771 198.025879 437.947388 z" stroke-linecap="round" />
</g>
<g transform="matrix(1 0 0 1 539.26 402.27)"  >
<path style="stroke: none; stroke-width: 1; stroke-dasharray: none; stroke-linecap: butt; stroke-dashoffset: 0; stroke-linejoin: miter; stroke-miterlimit: 4; fill: rgb(225,30,33); fill-rule: nonzero; opacity: 1;" vector-effect="non-scaling-stroke"  transform=" translate(-259.2, -122.32)" d="M 239.27832 187.595322 C 233.808212 180.312439 228.347687 173.465652 223.290909 166.332657 C 216.876373 157.284424 217.952072 143.991425 224.641357 134.403702 C 233.70639 121.410774 246.53598 112.714844 258.586243 103.044998 C 264.239136 98.508797 269.637634 93.593269 274.708618 88.415939 C 278.139587 84.912987 280.913361 80.735733 283.778564 76.715744 C 289.555908 68.609917 291.532196 59.39674 290.923126 49.62149 C 290.756195 46.941872 289.604492 44.334412 289.098114 41.657253 C 288.977264 41.018463 289.632446 40.232903 290.171783 38.934422 C 295.831696 44.079338 297.998016 50.3522 298.97464 57.126602 C 300.626678 68.585686 297.093201 78.960739 291.4599 88.628296 C 282.241638 104.448166 267.719757 115.231201 254.220474 126.963913 C 246.941925 133.289932 241.301849 140.810699 238.012344 149.969315 C 234.742615 159.072937 238.200302 167.221512 242.533493 174.685226 C 248.586594 185.111404 255.623367 194.966492 261.584442 205.708969 C 252.78186 201.455811 246.160828 194.634232 239.27832 187.595322 z" stroke-linecap="round" />
</g>
<g transform="matrix(1 0 0 1 533.27 591.13)"  >
<path style="stroke: none; stroke-width: 1; stroke-dasharray: none; stroke-linecap: butt; stroke-dashoffset: 0; stroke-linejoin: miter; stroke-miterlimit: 4; fill: rgb(10,110,182); fill-rule: nonzero; opacity: 1;" vector-effect="non-scaling-stroke"  transform=" translate(-253.21, -311.18)" d="M 167.299637 322.978455 C 163.165344 321.947235 159.208969 321.348053 155.669876 319.796783 C 152.879944 318.573944 149.558975 316.686646 148.342896 314.185669 C 146.484909 310.364502 149.386765 307.251007 152.681534 305.190735 C 164.395248 297.865997 177.164871 293.986084 191.012024 294.084473 C 193.223801 294.100189 195.428162 295.156036 197.377014 296.877533 C 192.610687 298.155121 187.779648 299.234894 183.096542 300.766846 C 178.564957 302.249237 174.185638 304.197083 169.873123 306.870667 C 175.450851 311.24585 181.465454 312.919891 187.688446 313.963959 C 214.645767 318.486664 241.85231 318.658417 269.036041 317.849243 C 283.040222 317.432404 297.021332 315.665466 310.968323 314.109222 C 319.77417 313.126648 328.521698 311.537964 337.245544 309.947723 C 340.438293 309.365753 343.508575 308.05545 346.596802 306.969574 C 351.01532 305.415985 354.734894 303.405823 351.002319 297.417908 C 351.424103 297.153046 351.845886 296.888153 352.26767 296.623291 C 354.378265 298.00827 357.459045 298.963501 358.318146 300.902863 C 359.127319 302.729553 358.413574 306.606415 356.932861 307.802765 C 353.154053 310.855835 348.85025 313.918915 344.261719 315.185486 C 330.877319 318.879944 317.375031 322.489838 303.684204 324.633942 C 290.360657 326.72052 276.762817 327.391266 263.256256 327.882599 C 248.780212 328.40921 234.254776 328.41394 219.779755 327.873383 C 207.771332 327.424957 195.801727 325.886993 183.821152 324.76532 C 178.425461 324.260132 173.044907 323.593414 167.299637 322.978455 z" stroke-linecap="round" />
</g>
<g transform="matrix(1 0 0 1 555.11 700.39)"  >
<path style="stroke: none; stroke-width: 1; stroke-dasharray: none; stroke-linecap: butt; stroke-dashoffset: 0; stroke-linejoin: miter; stroke-miterlimit: 4; fill: rgb(225,30,33); fill-rule: nonzero; opacity: 1;" vector-effect="non-scaling-stroke"  transform=" translate(-275.04, -420.44)" d="M 265.749023 455.659851 C 260.299377 439.761322 255.157379 424.080933 250.224152 408.335114 C 247.897003 400.907318 245.970337 393.354034 243.725952 385.373016 C 249.864746 385.373016 255.441757 385.373016 261.657166 385.373016 C 266.768707 401.862701 271.977325 418.665497 277.421082 436.226868 C 279.6875 427.733276 282.06662 419.727448 283.921478 411.601898 C 285.667053 403.954987 286.810242 396.172119 288.32666 388.470367 C 288.762299 386.25769 289.779144 384.730591 292.650177 384.928772 C 296.919189 385.22348 301.223663 385.005157 306.360321 385.005157 C 305.651794 389.405457 305.319489 393.188293 304.402863 396.823822 C 302.110016 405.917511 299.962891 415.081787 296.992218 423.961792 C 293.606995 434.081085 289.473541 443.956207 285.420898 453.83725 C 284.98584 454.89801 282.944672 455.846252 281.612793 455.896393 C 276.463806 456.090302 271.300354 455.898987 265.749023 455.659851 z" stroke-linecap="round" />
</g>
<g transform="matrix(1 0 0 1 438.03 701.13)"  >
<path style="stroke: none; stroke-width: 1; stroke-dasharray: none; stroke-linecap: butt; stroke-dashoffset: 0; stroke-linejoin: miter; stroke-miterlimit: 4; fill: rgb(225,30,33); fill-rule: nonzero; opacity: 1;" vector-effect="non-scaling-stroke"  transform=" translate(-157.97, -421.18)" d="M 170.09108 462.903687 C 165.664841 472.183807 158.159424 477.351166 149.136353 481.007355 C 147.148911 478.900146 145.022934 476.910614 143.219833 474.66214 C 141.298462 472.266296 141.209183 470.154175 144.307907 468.191528 C 151.812973 463.438019 156.094238 456.823975 156.047272 447.538239 C 155.912537 420.888794 155.999969 394.238281 156.000076 367.588165 C 156.000092 365.625732 156.000092 363.663269 156.000092 361.352783 C 162.055191 361.352783 167.625244 361.352783 173.744019 361.352783 C 173.82962 363.128784 173.987457 364.891479 173.988571 366.654327 C 174.004578 391.971924 174.259384 417.294037 173.823929 442.604126 C 173.709427 449.259613 171.442657 455.878113 170.09108 462.903687 z" stroke-linecap="round" />
</g>
<g transform="matrix(1 0 0 1 573.94 438.56)"  >
<path style="stroke: none; stroke-width: 1; stroke-dasharray: none; stroke-linecap: butt; stroke-dashoffset: 0; stroke-linejoin: miter; stroke-miterlimit: 4; fill: rgb(225,30,33); fill-rule: nonzero; opacity: 1;" vector-effect="non-scaling-stroke"  transform=" translate(-293.88, -158.61)" d="M 318.904907 108.939011 C 308.149445 116.623405 297.27652 123.686203 287.537506 132.066742 C 280.750763 137.906799 276.413452 146.00087 280.414642 155.538437 C 282.144745 159.662399 284.768799 163.571396 287.655212 167.01828 C 294.546478 175.247589 297.622162 184.548584 293.773712 194.575516 C 290.025909 204.340363 282.129974 210.937836 272.783325 215.604462 C 272.227722 215.881866 271.513123 215.875565 270.866821 215.921692 C 270.554016 215.944016 270.227966 215.781616 269.561218 215.617538 C 271.694122 212.495193 273.949005 209.589462 275.778778 206.436981 C 280.155426 198.896408 278.435272 191.035583 272.374969 184.599258 C 261.366913 172.908127 256.621368 158.865356 261.604736 143.325287 C 264.586792 134.025986 271.934845 126.918968 280.134613 121.584305 C 294.648346 112.141808 310.056091 104.496109 327.295197 101.294464 C 327.57489 101.701363 327.854553 102.108261 328.134216 102.515152 C 325.179993 104.636757 322.225769 106.758354 318.904907 108.939011 z" stroke-linecap="round" />
</g>
<g transform="matrix(1 0 0 1 528.31 499.16)"  >
<path style="stroke: none; stroke-width: 1; stroke-dasharray: none; stroke-linecap: butt; stroke-dashoffset: 0; stroke-linejoin: miter; stroke-miterlimit: 4; fill: rgb(10,110,182); fill-rule: nonzero; opacity: 1;" vector-effect="non-scaling-stroke"  transform=" translate(-248.25, -219.21)" d="M 239.33609 224.65123 C 241.802887 224.000839 243.829605 223.159546 245.893143 223.056656 C 261.473907 222.279739 277.088715 222.006027 292.638123 220.842941 C 302.759033 220.085907 312.787231 218.095001 322.860352 216.680649 C 323.409912 216.6035 323.990326 216.746033 324.556366 216.786301 C 324.746246 217.272736 324.936096 217.759155 325.125977 218.24559 C 319.078217 221.147797 313.306549 225.203766 306.929474 226.729492 C 289.814697 230.824326 272.279449 232.609024 254.679031 233.085693 C 243.721848 233.382446 232.739838 233.291473 221.783325 232.934143 C 210.89827 232.579163 199.955292 232.239563 189.184601 230.796753 C 182.679657 229.925369 175.265366 229.386902 171.37236 222.345566 C 177.603012 212.456985 212.357224 201.936356 226.330215 206.092697 C 217.025238 212.181702 204.644882 211.005951 196.839478 218.859909 C 197.015198 219.705032 197.190933 220.550156 197.366669 221.395279 C 211.215469 222.530945 225.06427 223.666626 239.33609 224.65123 z" stroke-linecap="round" />
</g>
<g transform="matrix(1 0 0 1 536.51 566.12)"  >
<path style="stroke: none; stroke-width: 1; stroke-dasharray: none; stroke-linecap: butt; stroke-dashoffset: 0; stroke-linejoin: miter; stroke-miterlimit: 4; fill: rgb(10,110,182); fill-rule: nonzero; opacity: 1;" vector-effect="non-scaling-stroke"  transform=" translate(-256.45, -286.18)" d="M 253.469971 299.238678 C 244.78273 298.565094 236.339828 298.329346 228.116211 296.863464 C 222.059891 295.783936 216.187531 293.351715 210.429214 291.035034 C 206.662857 289.519775 204.502625 286.514038 204.973175 281.98764 C 205.411514 277.771271 208.464859 276.351868 211.675125 275.001404 C 212.881119 274.494049 214.196609 274.217346 215.485107 273.943298 C 217.074951 273.605164 218.688705 273.379364 220.292145 273.105072 C 219.843048 274.706635 219.393951 276.308197 218.738052 278.647278 C 223.755569 279.764435 228.727463 281.171234 233.796646 281.914307 C 238.691284 282.631775 243.727951 283.239716 248.62886 282.884308 C 260.583374 282.017456 272.529022 280.820099 284.41217 279.254364 C 291.723724 278.290955 304.096161 282.644897 307.994781 288.888916 C 290.536652 296.189331 272.534546 299.453186 253.469971 299.238678 z" stroke-linecap="round" />
</g>
<g transform="matrix(1 0 0 1 534.52 532.56)"  >
<path style="stroke: none; stroke-width: 1; stroke-dasharray: none; stroke-linecap: butt; stroke-dashoffset: 0; stroke-linejoin: miter; stroke-miterlimit: 4; fill: rgb(10,110,182); fill-rule: nonzero; opacity: 1;" vector-effect="non-scaling-stroke"  transform=" translate(-254.46, -252.61)" d="M 289.439972 262.697571 C 271.411224 264.238403 253.850555 267.791168 236.162781 265.820709 C 224.680862 264.541504 213.308472 261.856842 202.083725 259.022827 C 199.634338 258.404419 197.158295 254.758575 196.231323 251.992065 C 194.905685 248.035736 198.428589 245.745117 201.453171 244.107452 C 205.187851 242.085327 209.190933 240.558945 213.078033 238.818329 C 213.338516 239.222641 213.599014 239.626953 213.859497 240.031265 C 213.518875 240.891403 213.321854 241.849258 212.813995 242.595596 C 209.818665 246.997482 210.187592 248.586212 215.333847 249.549698 C 221.439774 250.692841 227.643143 251.521942 233.84053 251.913666 C 240.403656 252.328491 247.01445 251.916443 253.595444 252.135498 C 269.102448 252.651642 284.122314 248.904205 299.372162 247.180023 C 300.39975 247.063858 301.612366 247.612885 302.582245 248.140579 C 305.468506 249.71106 308.352417 251.312683 311.073334 253.145477 C 312.004883 253.772964 312.755676 255.062469 312.966583 256.168243 C 313.048523 256.597809 311.489685 257.686005 310.544342 257.910553 C 303.670807 259.543274 296.763062 261.032104 289.439972 262.697571 z" stroke-linecap="round" />
</g>
<g transform="matrix(1 0 0 1 560.33 607.75)"  >
<path style="stroke: none; stroke-width: 1; stroke-dasharray: none; stroke-linecap: butt; stroke-dashoffset: 0; stroke-linejoin: miter; stroke-miterlimit: 4; fill: rgb(10,110,182); fill-rule: nonzero; opacity: 1;" vector-effect="non-scaling-stroke"  transform=" translate(-280.27, -327.8)" d="M 232.135223 341.999329 C 217.031143 340.784698 202.469849 339.27063 188.61409 334.322601 C 188.657425 333.671661 188.70076 333.020721 188.744095 332.369781 C 190.564743 332.249725 192.41095 331.872864 194.201935 332.051025 C 206.118317 333.23645 217.998413 335.183228 229.937714 335.638245 C 243.856506 336.168671 257.823792 335.432617 271.769806 335.231995 C 272.76416 335.217651 273.758057 335.100555 274.750122 335.009186 C 289.483856 333.65213 304.326141 332.989105 318.916321 330.711365 C 330.665497 328.877167 342.217468 325.446503 353.637512 321.997589 C 358.357147 320.572266 362.479889 317.205017 366.926147 314.817963 C 368.191498 314.138641 369.639954 313.800354 371.160431 313.249146 C 373.556824 318.072784 369.734283 321.492035 367.569 323.202301 C 357.638672 331.045837 345.881134 335.186371 333.375763 336.975708 C 321.223236 338.714569 309.079468 340.959564 296.856506 341.651825 C 280.628418 342.570831 264.327515 342.243073 248.057236 342.356934 C 242.911377 342.392975 237.763397 342.127411 232.135223 341.999329 z" stroke-linecap="round" />
</g>
<g transform="matrix(1 0 0 1 627.48 512.71)"  >
<path style="stroke: none; stroke-width: 1; stroke-dasharray: none; stroke-linecap: butt; stroke-dashoffset: 0; stroke-linejoin: miter; stroke-miterlimit: 4; fill: rgb(10,110,182); fill-rule: nonzero; opacity: 1;" vector-effect="non-scaling-stroke"  transform=" translate(-347.41, -232.76)" d="M 348.980164 241.963211 C 351.71756 237.489868 354.879486 233.596924 356.784393 229.163834 C 360.406372 220.734787 351.319855 208.766983 342.130707 209.049286 C 338.834717 209.150558 335.549622 209.572144 332.254333 209.751556 C 331.184906 209.809769 330.098877 209.562653 328.516235 209.404953 C 329.973633 205.251251 332.964355 204.223526 336.294922 203.812454 C 346.551483 202.546555 356.890991 201.049393 365.584839 208.817184 C 372.306824 214.823166 374.365723 226.43457 370.35675 233.829254 C 366.386292 241.152863 360.991119 246.992737 353.360443 251.569504 C 345.230499 256.445709 336.634033 259.359039 327.9505 262.445374 C 326.379028 263.003876 324.511932 262.730743 322.432739 261.857727 C 331.234192 255.338394 340.035645 248.819061 348.980164 241.963211 z" stroke-linecap="round" />
</g>
<g transform="matrix(1 0 0 1 652.48 666.84)"  >
<path style="stroke: none; stroke-width: 1; stroke-dasharray: none; stroke-linecap: butt; stroke-dashoffset: 0; stroke-linejoin: miter; stroke-miterlimit: 4; fill: rgb(225,30,33); fill-rule: nonzero; opacity: 1;" vector-effect="non-scaling-stroke"  transform=" translate(-372.42, -386.89)" d="M 375.898712 383.146515 C 377.06665 385.398071 377.866425 387.706299 378.880005 390.631592 C 374.291748 390.631592 370.878815 390.631592 367.40155 390.631592 C 366.971985 388.432007 366.540497 386.222382 365.950867 383.203186 C 369.316315 383.203186 372.423431 383.203186 375.898712 383.146515 z" stroke-linecap="round" />
</g>
<g transform="matrix(1 0 0 1 618.47 714.18)"  >
<path style="stroke: none; stroke-width: 1; stroke-dasharray: none; stroke-linecap: butt; stroke-dashoffset: 0; stroke-linejoin: miter; stroke-miterlimit: 4; fill: rgb(71,112,76); fill-rule: nonzero; opacity: 0;" vector-effect="non-scaling-stroke"  transform=" translate(-338.4, -434.23)" d="M 331.760925 443.385406 C 326.655029 440.75293 326.425446 436.260925 327.246277 432.068695 C 328.034698 428.04184 330.839905 425.272491 335.460205 424.969666 C 340.020325 424.670837 344.563293 424.10965 349.866638 423.589752 C 349.866638 428.573792 350.044769 432.821686 349.758331 437.037994 C 349.67215 438.306427 348.572937 440.006012 347.453522 440.609009 C 344.312836 442.300781 341.010803 443.863708 337.585968 444.782562 C 335.966797 445.21698 333.921783 444.063934 331.760925 443.385406 z" stroke-linecap="round" />
</g>
<g transform="matrix(1 0 0 1 490.24 714.19)"  >
<path style="stroke: none; stroke-width: 1; stroke-dasharray: none; stroke-linecap: butt; stroke-dashoffset: 0; stroke-linejoin: miter; stroke-miterlimit: 4; fill: rgb(71,112,76); fill-rule: nonzero; opacity: 0;" vector-effect="non-scaling-stroke"  transform=" translate(-210.17, -434.24)" d="M 198.016632 437.531311 C 196.726547 427.7771 203.2453 424.894135 210.214249 424.092926 C 213.81041 423.679535 217.493256 424.020294 221.041595 424.020294 C 224.167496 434.506226 222.444168 438.884125 213.968094 442.516205 C 205.391037 446.191528 202.084595 445.243958 198.016632 437.531311 z" stroke-linecap="round" />
</g>
</svg>