<?xml version="1.0" encoding="UTF-8" standalone="no" ?>
<!DOCTYPE svg PUBLIC "-//W3C//DTD SVG 1.1//EN" "http://www.w3.org/Graphics/SVG/1.1/DTD/svg11.dtd">
<svg xmlns="http://www.w3.org/2000/svg" xmlns:xlink="http://www.w3.org/1999/xlink" version="1.1" width="1080" height="1080" viewBox="0 0 1080 1080" xml:space="preserve">
<desc>Created with Fabric.js 5.2.4</desc>
<defs>
</defs>
<g transform="matrix(1 0 0 1 540 540)" id="8b5bad7b-8754-4d54-bf7f-105b5103c0da"  >
<rect style="stroke: none; stroke-width: 1; stroke-dasharray: none; stroke-linecap: butt; stroke-dashoffset: 0; stroke-linejoin: miter; stroke-miterlimit: 4; fill: rgb(255,255,255); fill-rule: nonzero; opacity: 1; visibility: hidden;" vector-effect="non-scaling-stroke"  x="-540" y="-540" rx="0" ry="0" width="1080" height="1080" />
</g>
<g transform="matrix(1 0 0 1 540 540)" id="dd2ce6ab-165c-4b5e-921e-f8d9699f5df9"  >
</g>
<g transform="matrix(1 0 0 1 540 540)"  >
<path style="stroke: none; stroke-width: 1; stroke-dasharray: none; stroke-linecap: butt; stroke-dashoffset: 0; stroke-linejoin: miter; stroke-miterlimit: 4; fill: rgb(255,255,255); fill-rule: nonzero; opacity: 1;" vector-effect="non-scaling-stroke"  transform=" translate(-961.02, -960.98)" d="M 1.25675 1917.222656 C 1 1279.872925 1.003088 642.745972 0.921088 5.618958 C 0.920634 2.089922 1.365956 0.88994 5.380512 0.89066 C 642.507507 1.004869 1279.634521 1.003956 1916.761597 0.901975 C 1920.398438 0.901393 1921.09375 1.686023 1921.09314 5.26103 C 1920.996216 642.388062 1920.994995 1279.515015 1921.111816 1916.64209 C 1921.112549 1920.703491 1919.851685 1921.077515 1916.358521 1921.076904 C 1498.551514 1920.995483 1080.744385 1921 662.468628 1921 C 661.220398 1918.494385 662.849854 1916.895142 664.25 1915.282471 C 693.076477 1882.084839 721.466003 1848.510986 750.307495 1815.326172 C 752.772034 1812.490479 755.314331 1809.661865 757.222229 1806.345581 C 755.349548 1805.000977 753.4552 1805.477905 751.675964 1805.477661 C 537.603821 1805.455444 323.531616 1805.468384 109.459488 1805.383545 C 103.893036 1805.381348 99.750092 1806.780884 96.044731 1811.269287 C 74.956703 1836.812622 52.454582 1861.151855 31.550554 1886.864014 C 25.053232 1894.855591 17.641148 1902.096802 11.300097 1910.774414 C 10.58926 1911.391479 10.167047 1911.707642 9.435854 1912.224854 C 8.190489 1913.134155 7.408633 1913.993652 6.42943 1915.137207 C 5.285463 1916.02832 4.28077 1916.532471 3.141564 1917.435791 C 2.385937 1917.661621 1.943117 1917.611694 1.25675 1917.222656 z" stroke-linecap="round" />
</g>
<g transform="matrix(1 0 0 1 -39.78 1441.48)"  >
<path style="stroke: none; stroke-width: 1; stroke-dasharray: none; stroke-linecap: butt; stroke-dashoffset: 0; stroke-linejoin: miter; stroke-miterlimit: 4; fill: rgb(43,53,65); fill-rule: nonzero; opacity: 1;" vector-effect="non-scaling-stroke"  transform=" translate(-381.24, -1862.47)" d="M 5.498929 1915.195801 C 6.36902 1914.00293 7.031316 1913.049316 7.857754 1911.781006 C 8.205953 1911.46228 8.39001 1911.458374 8.658687 1911.19165 C 15.937412 1902.85144 23.617188 1895.148804 30.205463 1886.604492 C 38.8549 1875.387085 48.483795 1865.044922 57.566696 1854.2229 C 70.644341 1838.641235 84.065399 1823.348389 97.212212 1807.824219 C 99.883018 1804.67041 103.029686 1804.033447 106.886147 1804.035889 C 204.526871 1804.098267 302.167633 1804.084473 399.808411 1804.084229 C 517.277222 1804.083984 634.746094 1804.084106 752.214905 1804.083862 C 754.871216 1804.083862 757.527466 1804.083862 761.479797 1804.083862 C 727.828857 1843.322266 694.816162 1881.81665 661.901733 1920.655518 C 441.666656 1921 221.333328 1921 1 1920.5 C 1.495544 1919.567139 1.526885 1919.019775 1.193573 1918.215088 C 1 1918 1 1917.5 1 1917.25 C 1.191395 1917.83728 1.718166 1918.276978 3.033783 1917.986938 C 3.181036 1916.168213 4.56307 1916.067261 5.498929 1915.195801 z" stroke-linecap="round" />
</g>
<g transform="matrix(1 0 0 1 -419.27 1497.87)"  >
<path style="stroke: none; stroke-width: 1; stroke-dasharray: none; stroke-linecap: butt; stroke-dashoffset: 0; stroke-linejoin: miter; stroke-miterlimit: 4; fill: rgb(234,234,234); fill-rule: nonzero; opacity: 1;" vector-effect="non-scaling-stroke"  transform=" translate(-1.75, -1918.86)" d="M 1 1918.333252 C 1.386695 1917.957397 1.923363 1917.731812 2.133941 1917.904175 C 3.005809 1918.618408 2.132712 1919.155884 1.411256 1919.87207 C 1 1919.555542 1 1919.111084 1 1918.333252 z" stroke-linecap="round" />
</g>
<g transform="matrix(1 0 0 1 941.08 795.62)"  >
<path style="stroke: none; stroke-width: 1; stroke-dasharray: none; stroke-linecap: butt; stroke-dashoffset: 0; stroke-linejoin: miter; stroke-miterlimit: 4; fill: rgb(196,199,202); fill-rule: nonzero; opacity: 1;" vector-effect="non-scaling-stroke"  transform=" translate(-1362.1, -1216.6)" d="M 1363.022705 1285.446045 C 1360.643677 1285.324585 1361.241455 1283.369263 1361.240479 1281.825195 C 1361.215942 1238.303711 1361.219116 1194.782104 1361.223877 1151.26062 C 1361.223999 1150.112915 1361.059692 1148.914917 1362.294678 1147.758789 C 1362.795898 1192.778442 1363.176025 1237.987183 1362.481812 1283.194824 C 1362.472046 1283.823853 1362.797729 1284.45813 1363.022705 1285.446045 z" stroke-linecap="round" />
</g>
<g transform="matrix(1 0 0 1 1009.29 667.95)"  >
<path style="stroke: none; stroke-width: 1; stroke-dasharray: none; stroke-linecap: butt; stroke-dashoffset: 0; stroke-linejoin: miter; stroke-miterlimit: 4; fill: rgb(255,255,255); fill-rule: nonzero; opacity: 1;" vector-effect="non-scaling-stroke"  transform=" translate(-1430.31, -1088.94)" d="M 1424.914673 1092.098389 C 1427.090332 1088.920532 1429.300171 1086.174072 1431.771606 1083.22168 C 1432.626831 1082.352295 1433.274292 1081.782104 1434.541138 1081.845337 C 1436.011108 1082.664795 1435.988403 1083.666382 1435.043335 1084.352173 C 1432.188232 1086.423706 1431.646606 1089.598633 1431.133057 1092.653442 C 1430.7854 1094.72168 1430.478394 1096.050049 1427.949707 1096.035156 C 1425.355103 1096.019775 1424.89624 1094.595825 1424.914673 1092.098389 z" stroke-linecap="round" />
</g>
<g transform="matrix(1 0 0 1 1030.43 639.01)"  >
<path style="stroke: none; stroke-width: 1; stroke-dasharray: none; stroke-linecap: butt; stroke-dashoffset: 0; stroke-linejoin: miter; stroke-miterlimit: 4; fill: rgb(241,241,242); fill-rule: nonzero; opacity: 1;" vector-effect="non-scaling-stroke"  transform=" translate(-1451.45, -1059.99)" d="M 1449.148438 1060.140381 C 1449.295044 1059.03894 1449.723267 1058.146484 1450.376953 1057.061768 C 1451.172119 1057.443359 1451.83606 1057.951904 1452.290405 1058.606079 C 1453.077759 1059.739746 1454.781616 1060.968018 1452.865112 1062.349854 C 1450.527954 1064.034912 1450.256592 1061.585571 1449.148438 1060.140381 z" stroke-linecap="round" />
</g>
<g transform="matrix(1 0 0 1 773.63 132.76)"  >
<path style="stroke: none; stroke-width: 1; stroke-dasharray: none; stroke-linecap: butt; stroke-dashoffset: 0; stroke-linejoin: miter; stroke-miterlimit: 4; fill: rgb(241,241,242); fill-rule: nonzero; opacity: 1;" vector-effect="non-scaling-stroke"  transform=" translate(-1194.65, -553.74)" d="M 1198.958252 554.403259 C 1196.246338 554.60199 1193.470703 554.496643 1190.340576 554.21991 C 1192.966919 552.046448 1195.930542 553.111267 1198.958252 554.403259 z" stroke-linecap="round" />
</g>
<g transform="matrix(1 0 0 1 1005.24 321.85)"  >
<path style="stroke: none; stroke-width: 1; stroke-dasharray: none; stroke-linecap: butt; stroke-dashoffset: 0; stroke-linejoin: miter; stroke-miterlimit: 4; fill: rgb(245,245,245); fill-rule: nonzero; opacity: 1;" vector-effect="non-scaling-stroke"  transform=" translate(-1426.25, -742.84)" d="M 1423.974976 742.983276 C 1424.102051 742.234314 1424.550537 741.629761 1425.259033 740.907471 C 1426.644653 741.65332 1429.409912 741.643982 1428.252563 743.800171 C 1427.029785 746.07843 1425.596313 743.70105 1423.974976 742.983276 z" stroke-linecap="round" />
</g>
<g transform="matrix(1 0 0 1 1002.95 245.41)"  >
<path style="stroke: none; stroke-width: 1; stroke-dasharray: none; stroke-linecap: butt; stroke-dashoffset: 0; stroke-linejoin: miter; stroke-miterlimit: 4; fill: rgb(227,231,234); fill-rule: nonzero; opacity: 1;" vector-effect="non-scaling-stroke"  transform=" translate(-1423.96, -666.4)" d="M 1426.026001 668.55896 C 1424.688721 667.54187 1423.358398 666.129883 1421.896973 664.416931 C 1424.892212 663.669312 1426.115967 665.227905 1426.026001 668.55896 z" stroke-linecap="round" />
</g>
<g transform="matrix(1 0 0 1 986.99 689.21)"  >
<path style="stroke: none; stroke-width: 1; stroke-dasharray: none; stroke-linecap: butt; stroke-dashoffset: 0; stroke-linejoin: miter; stroke-miterlimit: 4; fill: rgb(234,234,234); fill-rule: nonzero; opacity: 1;" vector-effect="non-scaling-stroke"  transform=" translate(-1408.01, -1110.19)" d="M 1406.173462 1112.05957 C 1407.018799 1110.661987 1408.188354 1109.407959 1409.643066 1108.002197 C 1409.655884 1109.987793 1411.049561 1113.438477 1406.173462 1112.05957 z" stroke-linecap="round" />
</g>
<g transform="matrix(1 0 0 1 1029.96 536.18)"  >
<path style="stroke: none; stroke-width: 1; stroke-dasharray: none; stroke-linecap: butt; stroke-dashoffset: 0; stroke-linejoin: miter; stroke-miterlimit: 4; fill: rgb(215,217,221); fill-rule: nonzero; opacity: 1;" vector-effect="non-scaling-stroke"  transform=" translate(-1450.98, -957.16)" d="M 1448.259033 957.317749 C 1449.7771 956.776428 1451.541748 956.495911 1453.692871 956.307007 C 1452.687988 958.996643 1450.501709 957.838074 1448.259033 957.317749 z" stroke-linecap="round" />
</g>
<g transform="matrix(1 0 0 1 1063.98 533.24)"  >
<path style="stroke: none; stroke-width: 1; stroke-dasharray: none; stroke-linecap: butt; stroke-dashoffset: 0; stroke-linejoin: miter; stroke-miterlimit: 4; fill: rgb(215,217,221); fill-rule: nonzero; opacity: 1;" vector-effect="non-scaling-stroke"  transform=" translate(-1484.99, -954.22)" d="M 1482.283813 954.398315 C 1483.793091 953.874146 1485.554199 953.599976 1487.703613 953.404785 C 1486.684082 955.992126 1484.511841 954.852417 1482.283813 954.398315 z" stroke-linecap="round" />
</g>
<g transform="matrix(1 0 0 1 1081.2 487.18)"  >
<path style="stroke: none; stroke-width: 1; stroke-dasharray: none; stroke-linecap: butt; stroke-dashoffset: 0; stroke-linejoin: miter; stroke-miterlimit: 4; fill: rgb(196,199,202); fill-rule: nonzero; opacity: 1;" vector-effect="non-scaling-stroke"  transform=" translate(-1502.22, -908.17)" d="M 1501.953613 910.975586 C 1501.057251 909.326538 1501.609863 907.512512 1501.962524 905.355103 C 1503.521118 906.923157 1503.068604 908.853455 1501.953613 910.975586 z" stroke-linecap="round" />
</g>
<g transform="matrix(1 0 0 1 822.13 139.43)"  >
<path style="stroke: none; stroke-width: 1; stroke-dasharray: none; stroke-linecap: butt; stroke-dashoffset: 0; stroke-linejoin: miter; stroke-miterlimit: 4; fill: rgb(196,199,202); fill-rule: nonzero; opacity: 1;" vector-effect="non-scaling-stroke"  transform=" translate(-1243.15, -560.42)" d="M 1246.006104 561.428955 C 1244.250366 561.267151 1242.409546 560.785278 1240.291748 560.087463 C 1242.346802 558.550354 1244.123901 559.878113 1246.006104 561.428955 z" stroke-linecap="round" />
</g>
<g transform="matrix(1 0 0 1 1082.23 474.66)"  >
<path style="stroke: none; stroke-width: 1; stroke-dasharray: none; stroke-linecap: butt; stroke-dashoffset: 0; stroke-linejoin: miter; stroke-miterlimit: 4; fill: rgb(196,199,202); fill-rule: nonzero; opacity: 1;" vector-effect="non-scaling-stroke"  transform=" translate(-1503.24, -895.65)" d="M 1502.929688 897.989075 C 1502.605225 896.644836 1502.554688 895.129395 1502.713989 893.301941 C 1504.319458 894.523682 1504.093872 896.151489 1502.929688 897.989075 z" stroke-linecap="round" />
</g>
<g transform="matrix(1 0 0 1 1035.64 381.58)"  >
<path style="stroke: none; stroke-width: 1; stroke-dasharray: none; stroke-linecap: butt; stroke-dashoffset: 0; stroke-linejoin: miter; stroke-miterlimit: 4; fill: rgb(215,217,221); fill-rule: nonzero; opacity: 1;" vector-effect="non-scaling-stroke"  transform=" translate(-1456.65, -802.57)" d="M 1458.951904 802.973267 C 1457.631104 803.223083 1456.15332 803.197388 1454.355835 802.991638 C 1455.592041 801.506714 1457.186279 801.799316 1458.951904 802.973267 z" stroke-linecap="round" />
</g>
<g transform="matrix(1 0 0 1 1040.98 535.24)"  >
<path style="stroke: none; stroke-width: 1; stroke-dasharray: none; stroke-linecap: butt; stroke-dashoffset: 0; stroke-linejoin: miter; stroke-miterlimit: 4; fill: rgb(215,217,221); fill-rule: nonzero; opacity: 1;" vector-effect="non-scaling-stroke"  transform=" translate(-1461.99, -956.23)" d="M 1460.20874 956.285583 C 1461.154785 955.827637 1462.300171 955.612 1463.776367 955.530518 C 1463.208374 957.384216 1461.846802 957.121582 1460.20874 956.285583 z" stroke-linecap="round" />
</g>
<g transform="matrix(1 0 0 1 803.14 135.73)"  >
<path style="stroke: none; stroke-width: 1; stroke-dasharray: none; stroke-linecap: butt; stroke-dashoffset: 0; stroke-linejoin: miter; stroke-miterlimit: 4; fill: rgb(215,217,221); fill-rule: nonzero; opacity: 1;" vector-effect="non-scaling-stroke"  transform=" translate(-1224.15, -556.71)" d="M 1225.98999 557.243774 C 1224.928467 557.455383 1223.771118 557.365967 1222.314941 557.095337 C 1223.318115 555.656433 1224.610229 555.74884 1225.98999 557.243774 z" stroke-linecap="round" />
</g>
<g transform="matrix(1 0 0 1 927.97 943.46)"  >
<path style="stroke: none; stroke-width: 1; stroke-dasharray: none; stroke-linecap: butt; stroke-dashoffset: 0; stroke-linejoin: miter; stroke-miterlimit: 4; fill: rgb(227,231,234); fill-rule: nonzero; opacity: 1;" vector-effect="non-scaling-stroke"  transform=" translate(-1348.99, -1364.45)" d="M 1347.242188 1365.393555 C 1348.167358 1364.588013 1349.289551 1363.99353 1350.732178 1363.3927 C 1350.472778 1365.143188 1349.207275 1365.783081 1347.242188 1365.393555 z" stroke-linecap="round" />
</g>
<g transform="matrix(1 0 0 1 8.61 928.22)"  >
<path style="stroke: none; stroke-width: 1; stroke-dasharray: none; stroke-linecap: butt; stroke-dashoffset: 0; stroke-linejoin: miter; stroke-miterlimit: 4; fill: rgb(241,241,242); fill-rule: nonzero; opacity: 1;" vector-effect="non-scaling-stroke"  transform=" translate(-429.63, -1349.21)" d="M 428.310089 1347.644897 C 429.31604 1348.252808 430.21048 1349.280884 431.083191 1350.651367 C 429.028809 1351.071655 427.735382 1350.427124 428.310089 1347.644897 z" stroke-linecap="round" />
</g>
<g transform="matrix(1 0 0 1 1051.98 534.28)"  >
<path style="stroke: none; stroke-width: 1; stroke-dasharray: none; stroke-linecap: butt; stroke-dashoffset: 0; stroke-linejoin: miter; stroke-miterlimit: 4; fill: rgb(215,217,221); fill-rule: nonzero; opacity: 1;" vector-effect="non-scaling-stroke"  transform=" translate(-1473, -955.27)" d="M 1471.217163 955.32312 C 1472.161255 954.88092 1473.303589 954.676514 1474.77832 954.600098 C 1474.183838 956.358826 1472.838745 956.133362 1471.217163 955.32312 z" stroke-linecap="round" />
</g>
<g transform="matrix(1 0 0 1 1012.63 660.12)"  >
<path style="stroke: none; stroke-width: 1; stroke-dasharray: none; stroke-linecap: butt; stroke-dashoffset: 0; stroke-linejoin: miter; stroke-miterlimit: 4; fill: rgb(215,217,221); fill-rule: nonzero; opacity: 1;" vector-effect="non-scaling-stroke"  transform=" translate(-1433.64, -1081.11)" d="M 1434.888672 1081.590332 C 1434.11792 1082.294067 1433.383179 1082.639893 1432.34082 1083.000732 C 1432.843994 1081.79541 1433.654785 1080.575073 1434.752686 1079.216797 C 1435.001343 1079.796753 1434.963013 1080.514648 1434.888672 1081.590332 z" stroke-linecap="round" />
</g>
<g transform="matrix(1 0 0 1 1081.07 430.03)"  >
<path style="stroke: none; stroke-width: 1; stroke-dasharray: none; stroke-linecap: butt; stroke-dashoffset: 0; stroke-linejoin: miter; stroke-miterlimit: 4; fill: rgb(196,199,202); fill-rule: nonzero; opacity: 1;" vector-effect="non-scaling-stroke"  transform=" translate(-1502.08, -851.01)" d="M 1502.348999 852.765869 C 1501.278687 851.984741 1501.485352 850.764099 1501.334839 849.254639 C 1503.367676 849.526672 1502.922119 851.057739 1502.348999 852.765869 z" stroke-linecap="round" />
</g>
<g transform="matrix(1 0 0 1 1080.15 497.13)"  >
<path style="stroke: none; stroke-width: 1; stroke-dasharray: none; stroke-linecap: butt; stroke-dashoffset: 0; stroke-linejoin: miter; stroke-miterlimit: 4; fill: rgb(196,199,202); fill-rule: nonzero; opacity: 1;" vector-effect="non-scaling-stroke"  transform=" translate(-1501.17, -918.11)" d="M 1500.556152 919.92218 C 1500.430908 918.900024 1500.585083 917.739441 1500.94458 916.29895 C 1502.596436 917.403442 1501.595215 918.583496 1500.556152 919.92218 z" stroke-linecap="round" />
</g>
<g transform="matrix(1 0 0 1 809.64 136.74)"  >
<path style="stroke: none; stroke-width: 1; stroke-dasharray: none; stroke-linecap: butt; stroke-dashoffset: 0; stroke-linejoin: miter; stroke-miterlimit: 4; fill: rgb(215,217,221); fill-rule: nonzero; opacity: 1;" vector-effect="non-scaling-stroke"  transform=" translate(-1230.65, -557.73)" d="M 1232.013184 558.220764 C 1231.248413 558.4198 1230.405396 558.33606 1229.290283 558.076233 C 1230.005615 556.742981 1230.976929 556.832031 1232.013184 558.220764 z" stroke-linecap="round" />
</g>
<g transform="matrix(1 0 0 1 1059.51 383.74)"  >
<path style="stroke: none; stroke-width: 1; stroke-dasharray: none; stroke-linecap: butt; stroke-dashoffset: 0; stroke-linejoin: miter; stroke-miterlimit: 4; fill: rgb(196,199,202); fill-rule: nonzero; opacity: 1;" vector-effect="non-scaling-stroke"  transform=" translate(-1480.53, -804.73)" d="M 1481.854492 804.927551 C 1481.147583 805.230164 1480.268433 805.279114 1479.198853 805.13147 C 1479.812744 803.957581 1480.716919 804.003113 1481.854492 804.927551 z" stroke-linecap="round" />
</g>
<g transform="matrix(1 0 0 1 -416.69 1495.24)"  >
<path style="stroke: none; stroke-width: 1; stroke-dasharray: none; stroke-linecap: butt; stroke-dashoffset: 0; stroke-linejoin: miter; stroke-miterlimit: 4; fill: rgb(234,234,234); fill-rule: nonzero; opacity: 1;" vector-effect="non-scaling-stroke"  transform=" translate(-4.33, -1916.23)" d="M 5.332353 1914.972656 C 5.133448 1915.744995 4.560113 1916.533203 3.740458 1917.484009 C 2.874043 1916.150269 3.315887 1915.239014 5.332353 1914.972656 z" stroke-linecap="round" />
</g>
<g transform="matrix(1 0 0 1 906.42 201.05)"  >
<path style="stroke: none; stroke-width: 1; stroke-dasharray: none; stroke-linecap: butt; stroke-dashoffset: 0; stroke-linejoin: miter; stroke-miterlimit: 4; fill: rgb(215,217,221); fill-rule: nonzero; opacity: 1;" vector-effect="non-scaling-stroke"  transform=" translate(-1327.44, -622.03)" d="M 1328.589844 620.963135 C 1328.173218 621.700623 1327.410156 622.4328 1326.328125 623.098267 C 1326.097656 621.633179 1326.94812 621.055908 1328.589844 620.963135 z" stroke-linecap="round" />
</g>
<g transform="matrix(1 0 0 1 1017.33 305.73)"  >
<path style="stroke: none; stroke-width: 1; stroke-dasharray: none; stroke-linecap: butt; stroke-dashoffset: 0; stroke-linejoin: miter; stroke-miterlimit: 4; fill: rgb(234,234,234); fill-rule: nonzero; opacity: 1;" vector-effect="non-scaling-stroke"  transform=" translate(-1438.35, -726.71)" d="M 1437.211182 727.083496 C 1437.192993 726.598755 1437.47644 726.247498 1437.970459 725.805725 C 1438.639771 726.123413 1439.553101 726.661499 1439.47998 726.91803 C 1439.119873 728.180176 1438.236206 727.434814 1437.211182 727.083496 z" stroke-linecap="round" />
</g>
<g transform="matrix(1 0 0 1 958.91 889.56)"  >
<path style="stroke: none; stroke-width: 1; stroke-dasharray: none; stroke-linecap: butt; stroke-dashoffset: 0; stroke-linejoin: miter; stroke-miterlimit: 4; fill: rgb(196,199,202); fill-rule: nonzero; opacity: 1;" vector-effect="non-scaling-stroke"  transform=" translate(-1379.92, -1310.54)" d="M 1380.355469 1311.81311 C 1379.860229 1311.182983 1379.57959 1310.386841 1379.272827 1309.266357 C 1380.359741 1309.514893 1380.901978 1310.367188 1380.355469 1311.81311 z" stroke-linecap="round" />
</g>
<g transform="matrix(1 0 0 1 1013.93 358.02)"  >
<path style="stroke: none; stroke-width: 1; stroke-dasharray: none; stroke-linecap: butt; stroke-dashoffset: 0; stroke-linejoin: miter; stroke-miterlimit: 4; fill: rgb(215,217,221); fill-rule: nonzero; opacity: 1;" vector-effect="non-scaling-stroke"  transform=" translate(-1434.94, -779)" d="M 1435.354126 779.807983 C 1434.854004 779.480286 1434.555542 778.992676 1434.295532 778.216248 C 1435.306763 778.099365 1435.976074 778.486877 1435.354126 779.807983 z" stroke-linecap="round" />
</g>
<g transform="matrix(1 0 0 1 -2.2 903.03)"  >
<path style="stroke: none; stroke-width: 1; stroke-dasharray: none; stroke-linecap: butt; stroke-dashoffset: 0; stroke-linejoin: miter; stroke-miterlimit: 4; fill: rgb(196,199,202); fill-rule: nonzero; opacity: 1;" vector-effect="non-scaling-stroke"  transform=" translate(-418.82, -1324.01)" d="M 418.608826 1323.187988 C 419.017792 1323.569824 419.218231 1324.112427 419.27951 1324.836182 C 418.389648 1324.684814 418.088928 1324.152588 418.608826 1323.187988 z" stroke-linecap="round" />
</g>
<g transform="matrix(1 0 0 1 1013.13 562.14)"  >
<path style="stroke: none; stroke-width: 1; stroke-dasharray: none; stroke-linecap: butt; stroke-dashoffset: 0; stroke-linejoin: miter; stroke-miterlimit: 4; fill: rgb(227,231,234); fill-rule: nonzero; opacity: 1;" vector-effect="non-scaling-stroke"  transform=" translate(-1434.14, -983.13)" d="M 1433.616455 984.013977 C 1433.490479 983.511292 1433.627563 982.974915 1433.975586 982.240967 C 1435.159058 982.859558 1434.840698 983.470886 1433.616455 984.013977 z" stroke-linecap="round" />
</g>
<g transform="matrix(1 0 0 1 795.11 134.8)"  >
<path style="stroke: none; stroke-width: 1; stroke-dasharray: none; stroke-linecap: butt; stroke-dashoffset: 0; stroke-linejoin: miter; stroke-miterlimit: 4; fill: rgb(215,217,221); fill-rule: nonzero; opacity: 1;" vector-effect="non-scaling-stroke"  transform=" translate(-1216.12, -555.78)" d="M 1217.020752 556.037964 C 1216.557983 556.292358 1216.008301 556.315186 1215.228882 556.171082 C 1215.552246 555.038269 1216.202271 555.023743 1217.020752 556.037964 z" stroke-linecap="round" />
</g>
<g transform="matrix(1 0 0 1 -412.64 1490.21)"  >
<path style="stroke: none; stroke-width: 1; stroke-dasharray: none; stroke-linecap: butt; stroke-dashoffset: 0; stroke-linejoin: miter; stroke-miterlimit: 4; fill: rgb(234,234,234); fill-rule: nonzero; opacity: 1;" vector-effect="non-scaling-stroke"  transform=" translate(-8.38, -1911.19)" d="M 8.582516 1910.954346 C 8.682561 1911.151245 8.54527 1911.305542 8.176676 1911.428955 C 8.073023 1911.236694 8.206292 1911.074585 8.582516 1910.954346 z" stroke-linecap="round" />
</g>
<g transform="matrix(1 0 0 1 995.51 233.5)"  >
<path style="stroke: none; stroke-width: 1; stroke-dasharray: none; stroke-linecap: butt; stroke-dashoffset: 0; stroke-linejoin: miter; stroke-miterlimit: 4; fill: rgb(215,217,221); fill-rule: nonzero; opacity: 1;" vector-effect="non-scaling-stroke"  transform=" translate(-1416.53, -654.48)" d="M 1416.529785 654.482422 C 1416.547852 654.518188 1416.511719 654.446655 1416.529785 654.482422 z" stroke-linecap="round" />
</g>
<g transform="matrix(1 0 0 1 -44.02 1444.53)"  >
<path style="stroke: none; stroke-width: 1; stroke-dasharray: none; stroke-linecap: butt; stroke-dashoffset: 0; stroke-linejoin: miter; stroke-miterlimit: 4; fill: rgb(246,247,247); fill-rule: nonzero; opacity: 1;" vector-effect="non-scaling-stroke"  transform=" translate(-377, -1865.52)" d="M 400.012634 1856.084229 C 395.051361 1867.586548 390.111725 1878.685547 385.458923 1889.903687 C 384.18866 1892.966431 382.619537 1894.109741 379.21814 1894.022827 C 370.372986 1893.796631 370.423981 1893.961548 366.854553 1885.632202 C 360.564941 1870.955444 354.332611 1856.251221 347.780243 1841.691772 C 345.959778 1837.646606 346.884338 1837.017944 350.898804 1837.102905 C 360.439301 1837.304688 360.438507 1837.148071 364.098145 1845.721802 C 368.40033 1855.80127 372.710632 1865.877319 377.465454 1877.003174 C 380.084106 1871.038818 382.317871 1865.978516 384.528748 1860.908325 C 387.12088 1854.963745 390.037872 1849.130371 392.16275 1843.022217 C 393.799774 1838.316406 396.296967 1836.688965 401.281067 1837.060913 C 408.083954 1837.568604 408.117096 1837.195801 405.476807 1843.35498 C 403.707397 1847.482422 401.921051 1851.602539 400.012634 1856.084229 z" stroke-linecap="round" />
</g>
<g transform="matrix(1 0 0 1 7.26 1451.11)"  >
<path style="stroke: none; stroke-width: 1; stroke-dasharray: none; stroke-linecap: butt; stroke-dashoffset: 0; stroke-linejoin: miter; stroke-miterlimit: 4; fill: rgb(246,247,247); fill-rule: nonzero; opacity: 1;" vector-effect="non-scaling-stroke"  transform=" translate(-428.28, -1872.09)" d="M 405.704834 1877.064697 C 403.286743 1861.894043 411.965729 1850.946045 427.035583 1849.636475 C 440.491333 1848.467163 451.083893 1858.193359 451.252533 1871.572388 C 451.296844 1875.090576 450.221375 1876.121826 446.729919 1876.015991 C 438.579681 1875.768677 430.416656 1875.91272 422.259216 1875.966797 C 421.178101 1875.973877 419.706024 1875.34021 419.064514 1876.536865 C 418.312805 1877.939331 419.624847 1879.023682 420.394379 1880.013794 C 423.951874 1884.590576 432.384705 1885.922119 438.21701 1882.077759 C 443.843903 1878.368774 444.934052 1883.915405 446.835632 1886.148071 C 449.590118 1889.381836 445.200317 1890.089966 443.543671 1891.12793 C 432.137848 1898.273804 409.510773 1894.976929 405.704834 1877.064697 z" stroke-linecap="round" />
</g>
<g transform="matrix(1 0 0 1 -124.78 1450.99)"  >
<path style="stroke: none; stroke-width: 1; stroke-dasharray: none; stroke-linecap: butt; stroke-dashoffset: 0; stroke-linejoin: miter; stroke-miterlimit: 4; fill: rgb(245,246,246); fill-rule: nonzero; opacity: 1;" vector-effect="non-scaling-stroke"  transform=" translate(-296.24, -1871.97)" d="M 305.710266 1878.01001 C 305.643188 1874.857178 305.741974 1872.180786 305.474976 1869.541626 C 304.875244 1863.613647 302.265381 1860.96106 297.21991 1860.843506 C 291.634552 1860.713257 287.488403 1863.9552 287.067719 1869.636353 C 286.589569 1876.093994 286.530884 1882.613159 286.800476 1889.084351 C 286.96875 1893.124756 285.59552 1894.514893 281.73288 1893.958008 C 280.428497 1893.769897 279.057129 1893.785034 277.74704 1893.950317 C 274.629913 1894.343506 273.785156 1892.994629 273.820038 1889.993774 C 273.959229 1878.013916 273.955627 1866.030396 273.812866 1854.050537 C 273.776917 1851.033691 274.798859 1849.267822 277.724487 1850.243164 C 280.57663 1851.19397 285.37207 1846.901855 286.359192 1853.398804 C 286.553925 1854.680176 287.973663 1853.381226 288.661804 1852.917847 C 292.394012 1850.405029 296.608276 1849.40686 300.969879 1849.51416 C 310.914215 1849.758911 317.406097 1855.358032 318.234741 1865.30249 C 318.950989 1873.898193 318.5354 1882.58728 318.652588 1891.234497 C 318.677551 1893.076782 317.941681 1893.758911 316.033447 1893.982788 C 306.190155 1895.137085 305.71283 1894.779663 305.710144 1884.993286 C 305.709534 1882.829956 305.710114 1880.666626 305.710266 1878.01001 z" stroke-linecap="round" />
</g>
<g transform="matrix(1 0 0 1 141.45 1451.16)"  >
<path style="stroke: none; stroke-width: 1; stroke-dasharray: none; stroke-linecap: butt; stroke-dashoffset: 0; stroke-linejoin: miter; stroke-miterlimit: 4; fill: rgb(247,248,248); fill-rule: nonzero; opacity: 1;" vector-effect="non-scaling-stroke"  transform=" translate(-562.46, -1872.14)" d="M 539.228943 1878.552246 C 534.391907 1857.527588 553.215942 1844.741089 572.078552 1851.261963 C 582.828857 1854.978394 588.460938 1866.108154 585.82373 1877.490601 C 583.326172 1888.270264 572.624451 1895.719727 560.900452 1894.622559 C 550.675781 1893.665649 542.753479 1889.348877 539.228943 1878.552246 z" stroke-linecap="round" />
</g>
<g transform="matrix(1 0 0 1 -179.23 1451.12)"  >
<path style="stroke: none; stroke-width: 1; stroke-dasharray: none; stroke-linecap: butt; stroke-dashoffset: 0; stroke-linejoin: miter; stroke-miterlimit: 4; fill: rgb(247,248,248); fill-rule: nonzero; opacity: 1;" vector-effect="non-scaling-stroke"  transform=" translate(-241.79, -1872.11)" d="M 220.161285 1861.42334 C 227.095474 1851.257202 237.59285 1847.404541 249.100616 1850.516357 C 260.72699 1853.660156 267.468292 1864.280151 265.339935 1876.099487 C 263.216125 1887.893433 252.551804 1895.732056 240.110046 1894.644165 C 222.218857 1893.079712 213.302673 1878.504028 220.161285 1861.42334 z" stroke-linecap="round" />
</g>
<g transform="matrix(1 0 0 1 57.03 1451.11)"  >
<path style="stroke: none; stroke-width: 1; stroke-dasharray: none; stroke-linecap: butt; stroke-dashoffset: 0; stroke-linejoin: miter; stroke-miterlimit: 4; fill: rgb(246,247,247); fill-rule: nonzero; opacity: 1;" vector-effect="non-scaling-stroke"  transform=" translate(-478.04, -1872.09)" d="M 471.902466 1893.272705 C 462.065979 1889.801147 456.747009 1883.195312 456.231384 1873.111938 C 455.756256 1863.819946 460.663544 1855.72644 468.645996 1852.050049 C 477.739471 1847.861938 489.753021 1849.042603 495.932373 1854.93335 C 497.700562 1856.618774 500.753723 1858.401978 499.07605 1861.326294 C 497.176788 1864.636841 490.346924 1865.44873 487.83374 1863.230469 C 483.304443 1859.232544 476.506287 1859.350098 472.451782 1863.496338 C 468.16153 1867.883667 468.22467 1876.571777 472.577728 1880.827759 C 476.842194 1884.99707 483.322266 1884.9823 487.945221 1880.88208 C 488.962982 1879.97937 489.468445 1877.778931 491.374176 1878.685547 C 494.210785 1880.03479 497.031006 1881.532593 499.543518 1883.392212 C 500.535431 1884.126587 499.115692 1885.491211 498.484711 1886.371216 C 493.717255 1893.02002 486.733398 1894.695435 479.131592 1894.618042 C 476.846161 1894.594727 474.568451 1893.813965 471.902466 1893.272705 z" stroke-linecap="round" />
</g>
<g transform="matrix(1 0 0 1 -228.8 1451.16)"  >
<path style="stroke: none; stroke-width: 1; stroke-dasharray: none; stroke-linecap: butt; stroke-dashoffset: 0; stroke-linejoin: miter; stroke-miterlimit: 4; fill: rgb(246,247,247); fill-rule: nonzero; opacity: 1;" vector-effect="non-scaling-stroke"  transform=" translate(-192.21, -1872.15)" d="M 211.41478 1881.696411 C 213.774124 1882.720215 214.796707 1883.90564 213.0802 1885.97998 C 212.234558 1887.001709 211.470505 1888.110596 210.5177 1889.021118 C 203.8508 1895.392822 191.009155 1896.537231 181.941925 1891.616089 C 173.184555 1886.863159 168.91301 1877.234375 171.018982 1866.993774 C 172.933365 1857.684692 180.852585 1850.937988 191.262299 1849.848877 C 199.62825 1848.973389 207.15155 1850.483887 212.693405 1857.573242 C 214.405121 1859.762817 214.439835 1861.140747 211.634827 1862.503174 C 207.85524 1864.338989 204.895447 1867.151123 200.612076 1862.32605 C 197.147995 1858.424072 189.711929 1859.948242 186.240982 1863.963379 C 182.62944 1868.141113 182.649857 1875.911621 186.2836 1880.187134 C 189.808167 1884.334229 197.025803 1885.852173 200.587753 1881.939697 C 204.575943 1877.55896 207.50798 1879.173096 211.41478 1881.696411 z" stroke-linecap="round" />
</g>
<g transform="matrix(1 0 0 1 98.05 1446.54)"  >
<path style="stroke: none; stroke-width: 1; stroke-dasharray: none; stroke-linecap: butt; stroke-dashoffset: 0; stroke-linejoin: miter; stroke-miterlimit: 4; fill: rgb(247,248,248); fill-rule: nonzero; opacity: 1;" vector-effect="non-scaling-stroke"  transform=" translate(-519.06, -1867.52)" d="M 532.38855 1893.618408 C 530.050354 1894.08667 528.085083 1894.593262 526.106384 1894.652588 C 515.726624 1894.964355 509.859985 1889.582031 509.29245 1879.16748 C 509.084381 1875.349365 509.252197 1871.511108 509.23233 1867.682129 C 509.214905 1864.324585 510.30481 1860.877441 504.363647 1860.92395 C 500.612885 1860.953369 503.148529 1856.605347 502.575836 1854.307861 C 502.153046 1852.611816 502.552826 1850.771851 505.040192 1851.135864 C 508.80603 1851.687378 509.808075 1849.767578 509.204651 1846.553955 C 508.2005 1841.205933 510.699127 1840.123413 515.522705 1840.419312 C 522.049316 1840.819336 522.419434 1840.537231 522.090088 1847.03772 C 521.829407 1852.182739 525.089722 1851.327515 527.854797 1851.042603 C 531.906921 1850.624878 533.263672 1851.860474 533.253174 1856.147339 C 533.242859 1860.371826 531.959412 1861.902222 527.906677 1861.23291 C 523.483887 1860.502563 521.585083 1862.056519 522.12085 1866.810791 C 522.546936 1870.591797 522.087158 1874.463867 522.237732 1878.286865 C 522.424927 1883.040771 524.893127 1885.302246 529.405212 1883.843872 C 534.990417 1882.038696 533.661316 1886.862427 535.097534 1888.9552 C 536.972107 1891.686646 535.139099 1892.780884 532.38855 1893.618408 z" stroke-linecap="round" />
</g>
<g transform="matrix(1 0 0 1 187.18 1450.84)"  >
<path style="stroke: none; stroke-width: 1; stroke-dasharray: none; stroke-linecap: butt; stroke-dashoffset: 0; stroke-linejoin: miter; stroke-miterlimit: 4; fill: rgb(241,241,242); fill-rule: nonzero; opacity: 1;" vector-effect="non-scaling-stroke"  transform=" translate(-608.2, -1871.83)" d="M 594.381348 1871.000122 C 594.376953 1864.849365 594.463623 1859.196411 594.327026 1853.548706 C 594.265015 1850.98584 595.121948 1849.854248 597.75647 1850.086304 C 599.405945 1850.231567 601.098267 1850.286255 602.735657 1850.08728 C 605.783936 1849.717163 607.488647 1850.685547 606.927734 1854.668823 C 611.031616 1851.895996 614.756836 1849.903442 619.215515 1849.667236 C 621.135681 1849.56543 622.061401 1849.868408 621.959167 1851.930542 C 621.885315 1853.422607 621.805725 1854.937988 621.977661 1856.41394 C 622.393066 1859.979614 621.511902 1861.510498 617.329224 1861.638916 C 611.089783 1861.830688 607.871521 1865.688965 607.661133 1872.107544 C 607.46521 1878.084106 607.487305 1884.077148 607.690613 1890.053589 C 607.79541 1893.13501 606.708496 1894.077881 603.687561 1894.001587 C 592.140747 1893.710205 594.635498 1895.291992 594.398315 1884.962036 C 594.295349 1880.476929 594.381165 1875.987427 594.381348 1871.000122 z" stroke-linecap="round" />
</g>
<g transform="matrix(1 0 0 1 -266.35 1444.58)"  >
<path style="stroke: none; stroke-width: 1; stroke-dasharray: none; stroke-linecap: butt; stroke-dashoffset: 0; stroke-linejoin: miter; stroke-miterlimit: 4; fill: rgb(249,249,249); fill-rule: nonzero; opacity: 1;" vector-effect="non-scaling-stroke"  transform=" translate(-154.67, -1865.57)" d="M 148.075226 1875.998779 C 148.075424 1864.191284 148.207611 1852.880859 147.997528 1841.576904 C 147.93222 1838.063721 148.985992 1837.054688 152.477829 1837.103027 C 161.240051 1837.224365 161.242783 1837.053711 161.242767 1845.654907 C 161.242722 1860.122437 161.098007 1874.592163 161.336746 1889.055786 C 161.401535 1892.981689 160.364853 1894.156006 156.396271 1894.021606 C 148.08194 1893.739746 148.074448 1893.963745 148.07518 1885.478149 C 148.075439 1882.484863 148.075211 1879.491577 148.075226 1875.998779 z" stroke-linecap="round" />
</g>
<g transform="matrix(1 0 0 1 478.33 563.6)"  >
<path style="stroke: none; stroke-width: 1; stroke-dasharray: none; stroke-linecap: butt; stroke-dashoffset: 0; stroke-linejoin: miter; stroke-miterlimit: 4; fill: rgb(234,234,234); fill-rule: nonzero; opacity: 1;" vector-effect="non-scaling-stroke"  transform=" translate(-899.35, -984.59)" d="M 889 728.848389 C 898.49884 728.846985 907.498657 728.919739 916.49585 728.797302 C 919.059326 728.762451 920.833496 729.509644 922.445862 731.572327 C 925.93158 736.031738 929.593323 740.364075 933.370667 744.5802 C 934.934631 746.325928 935.202576 747.62262 934.038208 749.794922 C 925.600708 765.535339 918.830383 781.993225 913.63031 799.073303 C 912.785828 801.847046 911.311768 802.520691 908.675293 802.723389 C 895.395264 803.744141 882.121704 804.871155 868.863525 806.145081 C 862.504944 806.756104 859.392822 809.766235 858.183838 816.109436 C 850.080322 858.628052 850.074402 901.151123 858.276001 943.658203 C 859.44989 949.742493 862.993652 952.758972 869.297852 953.282043 C 881.576538 954.300903 893.848328 955.427551 906.140991 956.23822 C 910.57251 956.530457 912.951904 957.831299 914.401611 962.600403 C 919.248535 978.545471 925.633911 993.941589 933.589233 1008.612244 C 935.159302 1011.507568 934.798157 1013.266174 932.786316 1015.587952 C 924.714111 1024.903198 916.803345 1034.358643 908.841125 1043.769165 C 902.923889 1050.763062 902.646545 1054.164429 907.669067 1061.547363 C 931.562988 1096.670898 961.068726 1126.178833 996.315796 1149.914917 C 1002.72345 1154.22998 1006.56311 1153.920776 1012.470581 1148.913818 C 1022.002075 1140.835327 1031.626343 1132.864502 1041.066772 1124.681274 C 1043.629272 1122.460083 1045.498291 1121.84082 1048.858398 1123.642944 C 1063.996094 1131.76123 1079.801025 1138.407471 1096.282715 1143.319458 C 1099.115479 1144.163818 1100.124512 1145.463257 1100.350342 1148.463257 C 1101.349121 1161.726929 1102.640259 1174.96936 1103.897461 1188.212524 C 1104.46228 1194.161255 1107.056763 1197.35376 1112.936035 1198.575317 C 1125.314087 1201.146973 1137.834229 1202.869873 1150.43457 1203.917603 C 1168.05481 1205.382446 1185.67749 1205.441772 1203.31189 1203.97998 C 1216.253296 1202.907104 1229.100586 1201.183228 1241.820923 1198.625488 C 1248.019653 1197.379272 1250.493896 1193.924194 1251.059448 1187.374512 C 1252.203735 1174.121216 1253.520874 1160.882568 1254.605225 1147.624756 C 1254.800537 1145.237061 1255.680786 1144.154663 1257.939087 1143.500854 C 1267.38562 1140.765625 1276.599121 1137.332031 1285.635376 1133.4729 C 1288.810669 1132.116821 1289.263916 1133.141113 1289.259033 1136.047119 C 1289.202393 1169.542725 1289.173828 1203.038574 1289.295288 1236.533813 C 1289.307007 1239.771606 1288.204468 1240.667358 1285.279175 1240.295776 C 1284.131226 1240.150024 1282.949219 1240.272583 1281.782715 1240.272583 C 1026.815918 1240.272583 771.848999 1240.272583 516.882141 1240.272583 C 509.375336 1240.272583 509.39856 1240.272339 509.398865 1232.973145 C 509.406006 1067.161377 509.404327 901.349609 509.421265 735.537842 C 509.422058 727.815857 508.678284 728.864319 516.047913 728.863159 C 640.198608 728.84259 764.349304 728.848389 889 728.848389 z" stroke-linecap="round" />
</g>
<g transform="matrix(1 0 0 1 756.2 458.61)"  >
<path style="stroke: none; stroke-width: 1; stroke-dasharray: none; stroke-linecap: butt; stroke-dashoffset: 0; stroke-linejoin: miter; stroke-miterlimit: 4; fill: rgb(83,114,145); fill-rule: nonzero; opacity: 1;" vector-effect="non-scaling-stroke"  transform=" translate(-1177.21, -879.59)" d="M 933.17627 711.766357 C 927.724609 705.762756 927.718567 705.758362 932.006836 699.826172 C 949.579895 675.516479 970.475403 654.489868 994.54718 636.612122 C 1003.486145 629.973267 1003.438171 630.075867 1012.279419 637.691956 C 1020.334412 644.630859 1028.595703 651.329895 1036.686279 658.228088 C 1040.644165 661.602661 1044.772705 661.751465 1049.146851 659.365845 C 1062.596802 652.030334 1076.170044 644.953186 1090.755005 640.087036 C 1097.368164 637.880676 1104.03772 635.833496 1110.727295 633.869385 C 1116.409912 632.200989 1119.666016 629.042053 1120.233276 622.689758 C 1121.265747 611.127502 1122.47876 599.58313 1123.060791 587.984863 C 1123.45105 580.208374 1123.662598 580.223206 1132.055054 578.876648 C 1148.807007 576.188843 1165.672852 574.736023 1182.598755 575.168884 C 1197.161255 575.54126 1211.706055 576.885315 1226.126709 579.148315 C 1228.958862 579.592712 1230.734497 580.500793 1231.213989 584.360657 C 1232.830322 597.373596 1232.895142 610.503296 1234.705688 623.502197 C 1235.540771 629.497375 1238.826294 632.356995 1243.967896 633.740295 C 1260.72998 638.249878 1276.822266 644.487854 1292.357422 652.180969 C 1296.37854 654.172241 1300.270508 656.432068 1304.169678 658.659729 C 1309.981812 661.980164 1313.62146 661.939392 1318.745728 657.739502 C 1328.636108 649.63324 1338.473999 641.456848 1348.13147 633.076294 C 1350.629761 630.908386 1352.475952 630.687439 1355.075195 632.574646 C 1374.256104 646.500854 1391.796509 662.196228 1407.225952 680.235229 C 1413.062744 687.059265 1418.675781 694.037781 1423.973633 701.288818 C 1426.022217 704.092773 1426.444824 706.088562 1423.849609 709.052551 C 1415.760132 718.29187 1408.189209 727.984009 1400.141479 737.261414 C 1395.692871 742.389771 1395.362793 747.405701 1398.614502 753.166992 C 1408.123535 770.014587 1415.709229 787.712708 1421.574585 806.144958 C 1422.530762 809.149963 1423.148438 812.269775 1424.216919 815.230347 C 1425.960815 820.062866 1429.381104 822.62085 1434.694092 822.977661 C 1447.419678 823.832214 1460.125366 824.978943 1472.845337 825.923035 C 1476.153687 826.168701 1477.446655 828.184387 1477.854614 831.049255 C 1478.64856 836.623352 1479.498901 842.196533 1480.041992 847.797668 C 1481.731689 865.225891 1481.426758 882.722534 1480.907349 900.171143 C 1480.618286 909.884827 1478.653564 919.545715 1477.517578 929.239014 C 1477.195068 931.990662 1476.054199 932.939697 1473.083252 933.167847 C 1460.046387 934.168945 1447.05127 935.705444 1434.018677 936.776184 C 1427.854736 937.282593 1424.919067 940.745667 1423.453491 946.291077 C 1418.15564 966.337097 1409.947144 985.232544 1400.192261 1003.447815 C 1397.434937 1008.596619 1394.332275 1013.458252 1397.922485 1019.11853 C 1400.307617 1022.878967 1403.429199 1026.183838 1406.317139 1029.61145 C 1412.208496 1036.604126 1418.069824 1043.626221 1424.144531 1050.45752 C 1426.3302 1052.915405 1426.384033 1054.667969 1424.424927 1057.36853 C 1405.03186 1084.10083 1381.934692 1107.073975 1355.342285 1126.642456 C 1352.342285 1128.849976 1350.579956 1128.601318 1348.15625 1126.5271 C 1338.816162 1118.533569 1329.374756 1110.657349 1320.098267 1102.591187 C 1314.164307 1097.431519 1311.096069 1097.021606 1304.025757 1100.956421 C 1285.213135 1111.426514 1265.515137 1119.741943 1244.694092 1125.342163 C 1236.766113 1127.474487 1234.746826 1130.546509 1233.968262 1140.480347 C 1233.048462 1152.215942 1231.908936 1163.93457 1231.034424 1175.673218 C 1230.830688 1178.409058 1230.154541 1179.579346 1227.10083 1180.118408 C 1205.391113 1183.950806 1183.485718 1184.634033 1161.578125 1183.750244 C 1150.20874 1183.291748 1138.787109 1182.172729 1127.518921 1180.068359 C 1125.029297 1179.603516 1124.153809 1178.687256 1123.938354 1176.306519 C 1123.057373 1166.571777 1121.754028 1156.865723 1121.200073 1147.115479 C 1120.954346 1142.789917 1120.383545 1138.513672 1119.928345 1134.236084 C 1119.437744 1129.626953 1116.231812 1127.206909 1111.762939 1125.957764 C 1094.108398 1121.022339 1077.031738 1114.528931 1060.650757 1106.273804 C 1056.938721 1104.403198 1053.346924 1102.290527 1049.727417 1100.240723 C 1044.307129 1097.170898 1040.820923 1097.487549 1036.069458 1101.481567 C 1025.896851 1110.032349 1015.648438 1118.494263 1005.579163 1127.164551 C 1003.641968 1128.83252 1002.460266 1128.833252 1000.509033 1127.365723 C 983.202698 1114.349243 966.690063 1100.508057 952.26532 1084.220581 C 945.084656 1076.112671 938.484558 1067.575195 931.624207 1059.22876 C 928.757263 1055.740723 928.233887 1053.20459 931.661011 1049.396729 C 939.879333 1040.265747 947.449951 1030.554565 955.388428 1021.167664 C 958.933411 1016.975952 959.40155 1012.522217 956.914185 1007.821777 C 946.153992 987.488159 936.555054 966.704224 930.792114 944.299011 C 929.067932 937.59552 923.114929 936.628723 917.366882 936.092468 C 905.491211 934.984558 893.609985 933.875977 881.707458 933.158997 C 878.62793 932.973511 877.496826 931.708679 877.185486 929.161926 C 876.040527 919.796692 874.714233 910.441772 873.96814 901.042358 C 872.824219 886.629578 872.828369 872.169434 873.967163 857.756104 C 874.670776 848.849976 875.973145 839.98999 877.063965 831.116272 C 877.490173 827.648743 879.434387 826.091553 883.055176 825.850159 C 895.617432 825.012451 908.166626 823.964417 920.711548 822.88916 C 925.870728 822.447021 929.480042 819.65332 930.867554 814.650391 C 936.85144 793.073792 945.274658 772.528076 956.315369 753.040649 C 959.851624 746.799133 959.226074 742.53833 954.63678 737.148254 C 947.53241 728.804504 940.494995 720.403748 933.17627 711.766357 z" stroke-linecap="round" />
</g>
<g transform="matrix(1 0 0 1 478.14 571.48)"  >
<path style="stroke: none; stroke-width: 1; stroke-dasharray: none; stroke-linecap: butt; stroke-dashoffset: 0; stroke-linejoin: miter; stroke-miterlimit: 4; fill: rgb(125,125,126); fill-rule: nonzero; opacity: 1;" vector-effect="non-scaling-stroke"  transform=" translate(-899.15, -992.46)" d="M 892 1298.989624 C 865.500793 1298.989624 839.501526 1298.991943 813.502319 1298.988159 C 806.425476 1298.987061 806.113647 1298.685913 805.857422 1291.812134 C 805.615662 1285.326172 801.819641 1281.896729 794.739685 1281.89502 C 749.074402 1281.884155 703.409058 1281.894043 657.743774 1281.894775 C 593.579041 1281.89563 529.414307 1281.895264 465.249573 1281.893799 C 458.042694 1281.893555 458.036011 1281.88855 458.036011 1274.936523 C 458.035217 1080.942383 458.035675 886.948181 458.037079 692.954041 C 458.037109 686.162537 458.042175 686.153625 464.891296 686.153503 C 613.053528 686.151733 761.215698 686.148621 909.37793 686.195007 C 911.089233 686.195557 913.496582 685.150879 914.394897 687.042847 C 915.074036 688.473328 913.063171 689.863159 912.238647 691.253845 C 909.312622 696.189453 904.461121 700.049988 903.999329 706.363708 C 903.886658 707.904053 902.478577 707.899353 901.298828 707.910583 C 898.799133 707.934387 896.299133 707.931946 893.799255 707.931946 C 764.303162 707.931946 634.807068 707.930176 505.310944 707.93634 C 502.645813 707.936462 499.957794 707.823669 497.320496 708.119812 C 492.487885 708.662415 489.187714 712.293579 488.895081 717.135803 C 488.784637 718.962891 488.856018 720.801331 488.856018 722.634583 C 488.854523 897.629333 488.854095 1072.624023 488.853638 1247.618774 C 488.853638 1258.291504 492.398071 1261.813477 503.209045 1261.813721 C 767.034485 1261.818237 1030.859863 1261.817139 1294.685303 1261.842041 C 1298.050293 1261.842407 1301.358887 1261.757568 1304.43103 1260.217896 C 1308.850586 1258.002563 1310.203979 1254.257446 1310.194458 1249.497192 C 1310.118896 1211.665283 1310.194946 1173.832764 1310.081421 1136.000977 C 1310.070435 1132.358154 1311.125366 1128.751465 1310.32605 1125.088379 C 1310.21521 1124.580688 1310.53479 1123.615967 1310.924072 1123.432129 C 1311.980103 1122.932983 1312.835205 1123.818604 1313.550415 1124.417236 C 1318.779053 1128.793701 1323.954834 1133.233276 1329.143188 1137.657715 C 1329.523193 1137.981567 1329.81665 1138.447266 1330.242676 1138.671021 C 1339.577759 1143.572876 1340.37854 1151.664673 1340.257935 1161.261108 C 1339.776245 1199.58728 1339.969238 1237.923584 1340.171997 1276.254639 C 1340.197021 1280.99939 1338.737061 1281.991211 1334.272827 1281.98645 C 1224.942871 1281.869629 1115.612793 1281.89502 1006.282776 1281.895142 C 996.008728 1281.895264 993.503662 1284.068115 992.953674 1294.182251 C 992.705933 1298.73938 989.970398 1299.018921 986.492432 1299.014282 C 955.161682 1298.972656 923.830811 1298.989746 892 1298.989624 z" stroke-linecap="round" />
</g>
<g transform="matrix(1 0 0 1 478.16 904.32)"  >
<path style="stroke: none; stroke-width: 1; stroke-dasharray: none; stroke-linecap: butt; stroke-dashoffset: 0; stroke-linejoin: miter; stroke-miterlimit: 4; fill: rgb(126,126,127); fill-rule: nonzero; opacity: 1;" vector-effect="non-scaling-stroke"  transform=" translate(-899.18, -1325.31)" d="M 981 1347.911621 C 812.539612 1347.911743 644.579163 1347.922241 476.618774 1347.887817 C 465.478271 1347.88562 454.874054 1345.667358 447.524689 1336.437988 C 441.807922 1329.258789 438.000763 1321.07373 440.934906 1311.483398 C 442.625641 1305.957031 446.729828 1303.082642 452.47229 1302.893677 C 455.634888 1302.789551 458.803467 1302.863037 461.96933 1302.863037 C 567.944336 1302.862427 673.919312 1302.880371 779.894287 1302.791138 C 783.75177 1302.787842 786.109009 1303.622314 788.119873 1307.316406 C 792.813965 1315.939331 800.667053 1319.972412 810.377686 1319.9823 C 869.69696 1320.042969 929.016418 1320.076172 988.33551 1319.955566 C 998.544922 1319.934814 1006.834534 1315.740723 1011.282471 1306.07373 C 1012.88855 1302.583008 1015.409973 1302.853149 1018.244873 1302.85376 C 1069.232788 1302.865479 1120.220825 1302.862671 1171.20874 1302.862671 C 1228.028687 1302.862671 1284.850464 1303.113281 1341.66748 1302.703125 C 1357.849976 1302.586304 1359.875 1312.031982 1357.726685 1323.320801 C 1355.297485 1336.085571 1344.208374 1345.32251 1331.325928 1347.137939 C 1326.670898 1347.793823 1322.065063 1347.902466 1317.420898 1347.902954 C 1205.447266 1347.914429 1093.473633 1347.911865 981 1347.911621 z" stroke-linecap="round" />
</g>
<g transform="matrix(1 0 0 1 536.31 216.39)"  >
<path style="stroke: none; stroke-width: 1; stroke-dasharray: none; stroke-linecap: butt; stroke-dashoffset: 0; stroke-linejoin: miter; stroke-miterlimit: 4; fill: rgb(241,241,242); fill-rule: nonzero; opacity: 1;" vector-effect="non-scaling-stroke"  transform=" translate(-957.32, -637.37)" d="M 956.529968 639.398987 C 955.860229 638.206665 954.376892 636.974426 955.445251 635.854553 C 956.797119 634.4375 957.97821 636.357239 959.577942 636.801392 C 959.217957 638.176697 958.309082 639.113403 956.529968 639.398987 z" stroke-linecap="round" />
</g>
<g transform="matrix(1 0 0 1 528.67 224.49)"  >
<path style="stroke: none; stroke-width: 1; stroke-dasharray: none; stroke-linecap: butt; stroke-dashoffset: 0; stroke-linejoin: miter; stroke-miterlimit: 4; fill: rgb(241,241,242); fill-rule: nonzero; opacity: 1;" vector-effect="non-scaling-stroke"  transform=" translate(-949.69, -645.47)" d="M 949.342285 646.983887 C 948.525879 646.325684 947.426941 645.299683 947.620056 644.903381 C 948.404053 643.2948 950.092712 644.269775 951.78418 644.051758 C 951.335632 645.01825 950.494751 645.961914 949.342285 646.983887 z" stroke-linecap="round" />
</g>
<g transform="matrix(1 0 0 1 727.47 133.8)"  >
<path style="stroke: none; stroke-width: 1; stroke-dasharray: none; stroke-linecap: butt; stroke-dashoffset: 0; stroke-linejoin: miter; stroke-miterlimit: 4; fill: rgb(215,217,221); fill-rule: nonzero; opacity: 1;" vector-effect="non-scaling-stroke"  transform=" translate(-1148.48, -554.79)" d="M 1146.232178 555.505981 C 1147.113037 553.458984 1148.802368 553.993042 1150.734375 554.712097 C 1149.50647 555.188049 1148.020752 555.406067 1146.232178 555.505981 z" stroke-linecap="round" />
</g>
<g transform="matrix(1 0 0 1 709.51 135.91)"  >
<path style="stroke: none; stroke-width: 1; stroke-dasharray: none; stroke-linecap: butt; stroke-dashoffset: 0; stroke-linejoin: miter; stroke-miterlimit: 4; fill: rgb(215,217,221); fill-rule: nonzero; opacity: 1;" vector-effect="non-scaling-stroke"  transform=" translate(-1130.52, -556.89)" d="M 1128.301514 557.749756 C 1128.890015 555.193604 1130.780396 556.095947 1132.743164 556.661377 C 1131.54187 557.216187 1130.106323 557.521057 1128.301514 557.749756 z" stroke-linecap="round" />
</g>
<g transform="matrix(1 0 0 1 717.99 134.85)"  >
<path style="stroke: none; stroke-width: 1; stroke-dasharray: none; stroke-linecap: butt; stroke-dashoffset: 0; stroke-linejoin: miter; stroke-miterlimit: 4; fill: rgb(215,217,221); fill-rule: nonzero; opacity: 1;" vector-effect="non-scaling-stroke"  transform=" translate(-1139.01, -555.83)" d="M 1137.246582 556.568542 C 1137.697266 554.623169 1139.091431 554.914795 1140.766235 555.681763 C 1139.848022 556.163696 1138.717407 556.41272 1137.246582 556.568542 z" stroke-linecap="round" />
</g>
<g transform="matrix(1 0 0 1 552.84 201.65)"  >
<path style="stroke: none; stroke-width: 1; stroke-dasharray: none; stroke-linecap: butt; stroke-dashoffset: 0; stroke-linejoin: miter; stroke-miterlimit: 4; fill: rgb(241,241,242); fill-rule: nonzero; opacity: 1;" vector-effect="non-scaling-stroke"  transform=" translate(-973.85, -622.63)" d="M 974.935547 624.024841 C 973.601807 623.935486 972.878906 623.157104 972.770081 621.840515 C 972.753967 621.645569 973.143494 621.231689 973.340515 621.23468 C 974.618225 621.25415 974.947021 622.126892 974.936829 623.614014 C 974.904663 624.008911 974.912537 623.997986 974.935547 624.024841 z" stroke-linecap="round" />
</g>
<g transform="matrix(1 0 0 1 697.49 137.89)"  >
<path style="stroke: none; stroke-width: 1; stroke-dasharray: none; stroke-linecap: butt; stroke-dashoffset: 0; stroke-linejoin: miter; stroke-miterlimit: 4; fill: rgb(215,217,221); fill-rule: nonzero; opacity: 1;" vector-effect="non-scaling-stroke"  transform=" translate(-1118.51, -558.88)" d="M 1117.2229 559.576233 C 1117.370483 558.030579 1118.33606 557.828308 1119.793701 558.649475 C 1119.159424 559.138611 1118.348633 559.396973 1117.2229 559.576233 z" stroke-linecap="round" />
</g>
<g transform="matrix(1 0 0 1 692.48 138.87)"  >
<path style="stroke: none; stroke-width: 1; stroke-dasharray: none; stroke-linecap: butt; stroke-dashoffset: 0; stroke-linejoin: miter; stroke-miterlimit: 4; fill: rgb(215,217,221); fill-rule: nonzero; opacity: 1;" vector-effect="non-scaling-stroke"  transform=" translate(-1113.5, -559.85)" d="M 1112.220215 560.536194 C 1112.370483 559.034912 1113.332642 558.839294 1114.771484 559.592407 C 1114.147827 560.07959 1113.341919 560.347107 1112.220215 560.536194 z" stroke-linecap="round" />
</g>
<g transform="matrix(1 0 0 1 631.54 211.9)"  >
<path style="stroke: none; stroke-width: 1; stroke-dasharray: none; stroke-linecap: butt; stroke-dashoffset: 0; stroke-linejoin: miter; stroke-miterlimit: 4; fill: rgb(241,241,242); fill-rule: nonzero; opacity: 1;" vector-effect="non-scaling-stroke"  transform=" translate(-1052.56, -632.88)" d="M 1051.291992 633.732666 C 1051.17041 632.229492 1052.204346 631.945557 1053.828613 632.043457 C 1053.320801 632.628418 1052.462891 633.179626 1051.291992 633.732666 z" stroke-linecap="round" />
</g>
<g transform="matrix(1 0 0 1 703.98 136.81)"  >
<path style="stroke: none; stroke-width: 1; stroke-dasharray: none; stroke-linecap: butt; stroke-dashoffset: 0; stroke-linejoin: miter; stroke-miterlimit: 4; fill: rgb(215,217,221); fill-rule: nonzero; opacity: 1;" vector-effect="non-scaling-stroke"  transform=" translate(-1125, -557.8)" d="M 1124.152344 558.304199 C 1124.256958 557.335938 1124.791382 556.915894 1125.84314 557.701233 C 1125.453857 558.066956 1124.933105 558.237305 1124.152344 558.304199 z" stroke-linecap="round" />
</g>
<g transform="matrix(1 0 0 1 0.88 879.23)"  >
<path style="stroke: none; stroke-width: 1; stroke-dasharray: none; stroke-linecap: butt; stroke-dashoffset: 0; stroke-linejoin: miter; stroke-miterlimit: 4; fill: rgb(215,217,221); fill-rule: nonzero; opacity: 1;" vector-effect="non-scaling-stroke"  transform=" translate(-421.9, -1300.22)" d="M 421.657654 1301.393311 C 421.044586 1300.57959 421.119995 1299.706055 422.506592 1299.042847 C 422.538361 1299.709229 422.219727 1300.454468 421.657654 1301.393311 z" stroke-linecap="round" />
</g>
<g transform="matrix(1 0 0 1 7.53 1442.81)"  >
<path style="stroke: none; stroke-width: 1; stroke-dasharray: none; stroke-linecap: butt; stroke-dashoffset: 0; stroke-linejoin: miter; stroke-miterlimit: 4; fill: rgb(49,59,70); fill-rule: nonzero; opacity: 1;" vector-effect="non-scaling-stroke"  transform=" translate(-428.55, -1863.79)" d="M 438.64624 1867.448364 C 432.713959 1867.932373 426.917542 1867.941284 421.128845 1868.157593 C 417.540558 1868.291626 418.22583 1866.553833 419.343933 1864.55896 C 421.434357 1860.828979 424.920868 1859.250366 428.919037 1859.439819 C 433.776398 1859.669922 437.412537 1862.041748 438.64624 1867.448364 z" stroke-linecap="round" />
</g>
<g transform="matrix(1 0 0 1 141.33 1451.29)"  >
<path style="stroke: none; stroke-width: 1; stroke-dasharray: none; stroke-linecap: butt; stroke-dashoffset: 0; stroke-linejoin: miter; stroke-miterlimit: 4; fill: rgb(49,59,70); fill-rule: nonzero; opacity: 1;" vector-effect="non-scaling-stroke"  transform=" translate(-562.35, -1872.27)" d="M 556.917358 1861.669922 C 565.231445 1858.698975 571.535583 1861.733765 573.02771 1869.066772 C 574.307983 1875.358521 571.60083 1881.248657 566.523254 1883.219116 C 561.416565 1885.200928 555.780762 1883.296021 553.11554 1878.687134 C 549.812622 1872.975586 551.176208 1866.387085 556.917358 1861.669922 z" stroke-linecap="round" />
</g>
<g transform="matrix(1 0 0 1 -179.32 1451.19)"  >
<path style="stroke: none; stroke-width: 1; stroke-dasharray: none; stroke-linecap: butt; stroke-dashoffset: 0; stroke-linejoin: miter; stroke-miterlimit: 4; fill: rgb(49,59,70); fill-rule: nonzero; opacity: 1;" vector-effect="non-scaling-stroke"  transform=" translate(-241.69, -1872.17)" d="M 249.019135 1862.942627 C 249.803589 1863.851074 250.389603 1864.462158 250.794449 1865.176025 C 254.067902 1870.94751 252.914963 1878.422852 248.248154 1881.899536 C 243.907471 1885.133423 237.431091 1884.526489 233.697906 1880.536011 C 229.970917 1876.552246 229.712738 1868.893677 233.15213 1864.34021 C 236.697586 1859.646362 242.505875 1859.032471 249.019135 1862.942627 z" stroke-linecap="round" />
</g>
<g transform="matrix(1 0 0 1 756.11 458.88)"  >
<path style="stroke: none; stroke-width: 1; stroke-dasharray: none; stroke-linecap: butt; stroke-dashoffset: 0; stroke-linejoin: miter; stroke-miterlimit: 4; fill: rgb(43,53,64); fill-rule: nonzero; opacity: 1;" vector-effect="non-scaling-stroke"  transform=" translate(-1177.13, -879.86)" d="M 1003.245117 986.735962 C 989.064758 963.445129 979.57843 938.649475 975.411255 912.1427 C 969.176514 872.484253 974.046448 834.053284 990.426208 797.201721 C 1002.295776 770.497131 1019.105469 747.402832 1040.74231 727.843689 C 1062.517944 708.158997 1087.372559 693.691345 1115.446411 684.977173 C 1132.120728 679.801453 1149.141846 676.751648 1166.672607 675.821838 C 1206.209473 673.724609 1243.049805 682.325806 1277.540283 701.661926 C 1306.704834 718.012268 1330.359985 740.241821 1348.578979 768.150879 C 1365.239258 793.672302 1376.17041 821.500244 1379.879883 851.888611 C 1381.365601 864.059875 1381.593384 876.276489 1381.411621 888.607727 C 1380.980835 917.827759 1372.758057 944.82373 1360.403564 970.808716 C 1353.089722 986.191772 1343.439209 1000.180115 1332.264038 1013.008667 C 1313.921021 1034.065674 1292.294556 1051.032227 1267.164429 1063.310303 C 1247.484863 1072.925293 1226.735229 1079.030518 1204.99939 1082.14856 C 1191.577148 1084.073975 1178.099365 1084.739868 1164.726074 1083.776733 C 1131.106812 1081.355103 1099.59314 1071.719482 1070.748535 1053.908447 C 1047.396851 1039.489136 1027.58313 1021.290039 1011.555969 999.004089 C 1008.743774 995.093811 1006.153137 991.024231 1003.245117 986.735962 z" stroke-linecap="round" />
</g>
<g transform="matrix(1 0 0 1 756.31 458.68)"  >
<path style="stroke: none; stroke-width: 1; stroke-dasharray: none; stroke-linecap: butt; stroke-dashoffset: 0; stroke-linejoin: miter; stroke-miterlimit: 4; fill: rgb(252,209,72); fill-rule: nonzero; opacity: 1;" vector-effect="non-scaling-stroke"  transform=" translate(-1177.32, -879.67)" d="M 1204.149658 1061.117432 C 1170.319092 1065.951294 1137.838623 1062.320435 1106.90918 1048.896606 C 1052.224854 1025.16272 1015.458984 984.602356 1000.455444 926.894531 C 983.642944 862.229065 998.526428 804.100159 1043.691162 754.524475 C 1072.315674 723.10437 1108.343628 704.543335 1150.233276 698.25238 C 1250.657593 683.170715 1343.835693 751.929565 1358.711426 853.013611 C 1367.293579 911.33075 1350.614624 962.844299 1310.135376 1005.970947 C 1281.473389 1036.507568 1245.995117 1054.616943 1204.149658 1061.117432 z" stroke-linecap="round" />
</g>
<g transform="matrix(1 0 0 1 756.39 458.76)"  >
<path style="stroke: none; stroke-width: 1; stroke-dasharray: none; stroke-linecap: butt; stroke-dashoffset: 0; stroke-linejoin: miter; stroke-miterlimit: 4; fill: rgb(45,54,63); fill-rule: nonzero; opacity: 1;" vector-effect="non-scaling-stroke"  transform=" translate(-1177.41, -879.75)" d="M 1181.656494 823.565918 C 1185.245483 809.977722 1188.697754 796.7771 1192.216675 783.594299 C 1194.275146 775.882263 1199.469971 772.314575 1205.987061 774.004761 C 1211.92334 775.544373 1214.624634 781.58429 1212.645142 788.980286 C 1195.969116 851.287537 1179.287842 913.593384 1162.603271 975.898376 C 1160.665283 983.135559 1155.53894 987.015015 1149.802734 985.622314 C 1143.01001 983.973022 1140.090698 978.260864 1142.209595 970.360474 C 1155.299683 921.554504 1168.430298 872.759521 1181.656494 823.565918 z" stroke-linecap="round" />
</g>
<g transform="matrix(1 0 0 1 671.93 458.67)"  >
<path style="stroke: none; stroke-width: 1; stroke-dasharray: none; stroke-linecap: butt; stroke-dashoffset: 0; stroke-linejoin: miter; stroke-miterlimit: 4; fill: rgb(45,54,63); fill-rule: nonzero; opacity: 1;" vector-effect="non-scaling-stroke"  transform=" translate(-1092.94, -879.65)" d="M 1072.984619 906.009033 C 1066.234009 900.034546 1059.680298 894.370361 1053.281128 888.536804 C 1046.803711 882.631836 1046.887451 876.451843 1053.398438 870.687012 C 1075.096191 851.476257 1096.806763 832.28009 1118.532227 813.10083 C 1124.226929 808.073425 1130.182983 807.882263 1134.442993 812.479675 C 1138.948608 817.342102 1138.338501 823.524963 1132.588379 828.645874 C 1114.553101 844.70752 1096.495239 860.744385 1078.324219 876.651611 C 1075.666626 878.978149 1075.412842 880.232178 1078.221802 882.677429 C 1096.057373 898.203613 1113.721191 913.926941 1131.495972 929.523315 C 1134.875854 932.489014 1137.765991 935.659912 1137.314453 940.488892 C 1136.928833 944.61377 1134.704102 947.718628 1130.832397 949.283264 C 1126.562134 951.008911 1122.703613 949.999451 1119.278442 946.961121 C 1105.324585 934.583618 1091.348145 922.231567 1077.378662 909.871643 C 1076.006714 908.657715 1074.625977 907.453735 1072.984619 906.009033 z" stroke-linecap="round" />
</g>
<g transform="matrix(1 0 0 1 840.83 458.63)"  >
<path style="stroke: none; stroke-width: 1; stroke-dasharray: none; stroke-linecap: butt; stroke-dashoffset: 0; stroke-linejoin: miter; stroke-miterlimit: 4; fill: rgb(45,54,63); fill-rule: nonzero; opacity: 1;" vector-effect="non-scaling-stroke"  transform=" translate(-1261.84, -879.62)" d="M 1237.328125 917.341797 C 1250.548584 905.613281 1263.426514 894.032288 1276.521362 882.701904 C 1279.304321 880.294006 1279.272827 879.046143 1276.588501 876.694397 C 1258.300049 860.671997 1240.085449 844.56427 1221.943481 828.375977 C 1214.983765 822.16571 1216.326294 813.101379 1224.4552 809.891113 C 1228.471313 808.305115 1232.04187 809.304016 1235.109619 812.013428 C 1257.577759 831.8573 1280.046875 851.700562 1302.40686 871.665894 C 1308.092041 876.742249 1307.582275 883.230652 1301.256714 888.85437 C 1283.335693 904.78717 1265.335327 920.63092 1247.366455 936.509949 C 1243.498047 939.928406 1239.67041 943.394348 1235.753174 946.75592 C 1230.454346 951.303162 1224.399292 951.193176 1220.181885 946.571411 C 1215.946045 941.92926 1216.408691 936.081421 1221.713989 931.142273 C 1226.709473 926.491455 1231.937256 922.090027 1237.328125 917.341797 z" stroke-linecap="round" />
</g>
</svg>