<?xml version="1.0" encoding="UTF-8" standalone="no" ?>
<!DOCTYPE svg PUBLIC "-//W3C//DTD SVG 1.1//EN" "http://www.w3.org/Graphics/SVG/1.1/DTD/svg11.dtd">
<svg xmlns="http://www.w3.org/2000/svg" xmlns:xlink="http://www.w3.org/1999/xlink" version="1.1" width="1080" height="1080" viewBox="0 0 1080 1080" xml:space="preserve">
<desc>Created with Fabric.js 5.2.4</desc>
<defs>
</defs>
<g transform="matrix(1 0 0 1 540 540)" id="500f8dfc-9a31-401d-a8d7-2afbe3f49664"  >
<rect style="stroke: none; stroke-width: 1; stroke-dasharray: none; stroke-linecap: butt; stroke-dashoffset: 0; stroke-linejoin: miter; stroke-miterlimit: 4; fill: rgb(255,255,255); fill-rule: nonzero; opacity: 1; visibility: hidden;" vector-effect="non-scaling-stroke"  x="-540" y="-540" rx="0" ry="0" width="1080" height="1080" />
</g>
<g transform="matrix(1 0 0 1 540 540)" id="4d7fdb09-1e80-4851-8cd6-47d8ddc95027"  >
</g>
<g transform="matrix(1 0 0 1 540 540)"  >
<path style="stroke: none; stroke-width: 1; stroke-dasharray: none; stroke-linecap: butt; stroke-dashoffset: 0; stroke-linejoin: miter; stroke-miterlimit: 4; fill: rgb(0,0,0); fill-rule: nonzero; opacity: 0;" vector-effect="non-scaling-stroke"  transform=" translate(-256.94, -257.05)" d="M 340 513 C 226.694199 513 113.88839 513 1.041291 513 C 1.041291 342.402496 1.041291 171.804993 1.041291 1.103745 C 171.555817 1.103745 342.111694 1.103745 512.833801 1.103745 C 512.833801 171.666534 512.833801 342.333252 512.833801 513 C 455.471649 513 397.985809 513 340 513 M 316.204773 448.901184 C 326.765442 444.606964 337.700958 441.045258 347.811737 435.871735 C 371.61026 423.694427 392.321991 407.454407 409.708527 386.936401 C 420.585327 374.100525 429.913849 360.286743 437.197876 345.245483 C 447.357574 324.266083 454.038666 302.204071 456.116211 278.778748 C 457.777252 260.049896 457.924652 241.327942 454.767883 222.889542 C 451.099243 201.461044 444.028748 181.017227 433.490051 161.783829 C 425.724304 147.611099 416.692902 134.38562 405.864044 122.509933 C 385.08783 99.725288 360.364929 82.50119 331.690918 70.850685 C 313.189362 63.333355 293.993347 58.511532 274.250305 57.273563 C 256.148254 56.138496 237.915604 56.378544 219.843857 59.88728 C 195.012146 64.708496 171.917786 73.685196 150.525787 87.039497 C 133.079544 97.930618 117.818573 111.343605 104.369286 126.979607 C 93.50808 139.606735 84.464775 153.383804 77.045891 168.150528 C 65.868599 190.398117 58.82737 214.172821 57.345638 238.945938 C 56.313042 256.209961 57.069267 273.841614 59.417583 290.981415 C 62.370365 312.533081 69.990341 332.913666 80.495903 352.176056 C 88.228035 366.353271 97.256134 379.572113 108.081329 391.439301 C 128.850937 414.208221 153.534103 431.48587 182.201828 443.108856 C 201.003967 450.731995 220.501465 455.585052 240.611191 456.80957 C 265.85965 458.347046 291.007324 456.781647 316.204773 448.901184 z" stroke-linecap="round" />
</g>
<g transform="matrix(1 0 0 1 540.15 539.95)"  >
<path style="stroke: none; stroke-width: 1; stroke-dasharray: none; stroke-linecap: butt; stroke-dashoffset: 0; stroke-linejoin: miter; stroke-miterlimit: 4; fill: rgb(133,200,8); fill-rule: nonzero; opacity: 1;" vector-effect="non-scaling-stroke"  transform=" translate(-257.09, -257)" d="M 315.795929 448.942505 C 291.007324 456.781647 265.85965 458.347046 240.611191 456.80957 C 220.501465 455.585052 201.003967 450.731995 182.201828 443.108856 C 153.534103 431.48587 128.850937 414.208221 108.081329 391.439301 C 97.256134 379.572113 88.228035 366.353271 80.495903 352.176056 C 69.990341 332.913666 62.370365 312.533081 59.417583 290.981415 C 57.069267 273.841614 56.313042 256.209961 57.345638 238.945938 C 58.82737 214.172821 65.868599 190.398117 77.045891 168.150528 C 84.464775 153.383804 93.50808 139.606735 104.369286 126.979607 C 117.818573 111.343605 133.079544 97.930618 150.525787 87.039497 C 171.917786 73.685196 195.012146 64.708496 219.843857 59.88728 C 237.915604 56.378544 256.148254 56.138496 274.250305 57.273563 C 293.993347 58.511532 313.189362 63.333355 331.690918 70.850685 C 360.364929 82.50119 385.08783 99.725288 405.864044 122.509933 C 416.692902 134.38562 425.724304 147.611099 433.490051 161.783829 C 444.028748 181.017227 451.099243 201.461044 454.767883 222.889542 C 457.924652 241.327942 457.777252 260.049896 456.116211 278.778748 C 454.038666 302.204071 447.357574 324.266083 437.197876 345.245483 C 429.913849 360.286743 420.585327 374.100525 409.708527 386.936401 C 392.321991 407.454407 371.61026 423.694427 347.811737 435.871735 C 337.700958 441.045258 326.765442 444.606964 315.795929 448.942505 M 319.000336 297.5 C 319.000336 268.400696 319.000336 239.301422 319.000336 210.144409 C 277.134888 210.144409 235.885651 210.144409 194.513947 210.144409 C 194.513947 249.274292 194.513947 288.134613 194.513947 327.588257 C 199.812317 327.588257 204.726135 327.588257 209.878906 327.588257 C 209.878906 340.670837 209.825348 353.160187 209.896118 365.648865 C 209.951202 375.369202 216.454391 382.144775 225.508789 382.108582 C 234.421219 382.072998 240.9039 375.133759 240.988312 365.443909 C 241.046356 358.778748 241.000168 352.112701 241.000336 345.447052 C 241.000488 339.528351 241.000366 333.60965 241.000366 327.760925 C 251.764725 327.760925 261.805939 327.760925 272.124878 327.760925 C 272.124878 340.50473 272.071777 352.824646 272.141541 365.14389 C 272.198181 375.144775 278.741089 382.110474 287.889648 382.097992 C 296.880829 382.085724 303.202423 375.365906 303.304779 365.438324 C 303.416443 354.607758 303.321381 343.775177 303.346771 332.943542 C 303.350891 331.187073 303.51236 329.431 303.620728 327.285553 C 308.958679 327.285553 313.731628 327.285553 319.000336 327.285553 C 319.000336 317.412964 319.000336 307.956482 319.000336 297.5 M 313.370026 175.166733 C 308.963593 165.622879 302.062836 158.08168 293.923706 151.637161 C 296.43927 147.213547 298.742096 143.16507 301.043823 139.115967 C 302.387146 136.752884 303.175018 134.399948 300.174927 132.69519 C 297.089844 130.942139 295.631653 133.071655 294.292603 135.36203 C 291.889801 139.471909 289.469116 143.571335 287.092529 147.612793 C 266.475281 137.130981 246.499283 137.334885 226.189117 147.596008 C 223.83371 143.662491 221.53685 139.843735 219.257751 136.014404 C 217.846527 133.64325 216.306168 131.04364 213.072403 132.833755 C 209.874176 134.604218 211.051086 137.237198 212.48056 139.710693 C 214.778854 143.6875 217.015915 147.699677 219.284454 151.706802 C 202.831009 164.737915 194.172775 181.061432 193.922318 201.793839 C 235.928619 201.793839 277.323059 201.793839 318.885681 201.793839 C 319.430786 192.455627 317.282471 184.005203 313.370026 175.166733 M 327.483582 216.25769 C 327.432617 237.562378 327.239319 258.868103 327.396118 280.171265 C 327.465149 289.546173 334.296204 296.129944 343.079987 296.110962 C 351.839813 296.09198 358.520203 289.502228 358.611908 280.010345 C 358.809753 259.537262 358.776642 239.060196 358.625732 218.586319 C 358.557709 209.352768 352.84433 203.063583 344.388123 202.196442 C 336.560028 201.393738 329.868958 206.68045 327.483582 216.25769 M 171.383408 202.138962 C 160.983475 203.138626 155.391953 209.018051 155.345734 219.397644 C 155.257568 239.201477 155.259628 259.006378 155.387848 278.809723 C 155.40567 281.564545 155.889328 284.509766 156.957993 287.026947 C 159.812057 293.749573 167.095047 297.298553 174.194107 295.892609 C 181.545425 294.436676 186.597504 287.981049 186.644302 279.38797 C 186.752167 259.58432 186.716766 239.779633 186.665924 219.975555 C 186.639343 209.620819 182.432068 204.537903 171.383408 202.138962 z" stroke-linecap="round" />
</g>
<g transform="matrix(1 0 0 1 539.82 579.07)"  >
<path style="stroke: none; stroke-width: 1; stroke-dasharray: none; stroke-linecap: butt; stroke-dashoffset: 0; stroke-linejoin: miter; stroke-miterlimit: 4; fill: rgb(255,255,254); fill-rule: nonzero; opacity: 1;" vector-effect="non-scaling-stroke"  transform=" translate(-256.76, -296.13)" d="M 319.000336 298 C 319.000336 307.956482 319.000336 317.412964 319.000336 327.285553 C 313.731628 327.285553 308.958679 327.285553 303.620728 327.285553 C 303.51236 329.431 303.350891 331.187073 303.346771 332.943542 C 303.321381 343.775177 303.416443 354.607758 303.304779 365.438324 C 303.202423 375.365906 296.880829 382.085724 287.889648 382.097992 C 278.741089 382.110474 272.198181 375.144775 272.141541 365.14389 C 272.071777 352.824646 272.124878 340.50473 272.124878 327.760925 C 261.805939 327.760925 251.764725 327.760925 241.000366 327.760925 C 241.000366 333.60965 241.000488 339.528351 241.000336 345.447052 C 241.000168 352.112701 241.046356 358.778748 240.988312 365.443909 C 240.9039 375.133759 234.421219 382.072998 225.508789 382.108582 C 216.454391 382.144775 209.951202 375.369202 209.896118 365.648865 C 209.825348 353.160187 209.878906 340.670837 209.878906 327.588257 C 204.726135 327.588257 199.812317 327.588257 194.513947 327.588257 C 194.513947 288.134613 194.513947 249.274292 194.513947 210.144409 C 235.885651 210.144409 277.134888 210.144409 319.000336 210.144409 C 319.000336 239.301422 319.000336 268.400696 319.000336 298 z" stroke-linecap="round" />
</g>
<g transform="matrix(1 0 0 1 539.51 449.87)"  >
<path style="stroke: none; stroke-width: 1; stroke-dasharray: none; stroke-linecap: butt; stroke-dashoffset: 0; stroke-linejoin: miter; stroke-miterlimit: 4; fill: rgb(254,255,253); fill-rule: nonzero; opacity: 1;" vector-effect="non-scaling-stroke"  transform=" translate(-256.45, -166.92)" d="M 313.559845 175.494843 C 317.282471 184.005203 319.430786 192.455627 318.885681 201.793839 C 277.323059 201.793839 235.928619 201.793839 193.922318 201.793839 C 194.172775 181.061432 202.831009 164.737915 219.284454 151.706802 C 217.015915 147.699677 214.778854 143.6875 212.48056 139.710693 C 211.051086 137.237198 209.874176 134.604218 213.072403 132.833755 C 216.306168 131.04364 217.846527 133.64325 219.257751 136.014404 C 221.53685 139.843735 223.83371 143.662491 226.189117 147.596008 C 246.499283 137.334885 266.475281 137.130981 287.092529 147.612793 C 289.469116 143.571335 291.889801 139.471909 294.292603 135.36203 C 295.631653 133.071655 297.089844 130.942139 300.174927 132.69519 C 303.175018 134.399948 302.387146 136.752884 301.043823 139.115967 C 298.742096 143.16507 296.43927 147.213547 293.923706 151.637161 C 302.062836 158.08168 308.963593 165.622879 313.559845 175.494843 M 236.698029 163.32515 C 229.70134 160.629578 224.709457 166.674057 225.533051 171.5923 C 226.181992 175.467621 228.441956 177.875656 232.33606 178.416763 C 235.992706 178.924881 238.958435 177.457397 240.451309 174.083908 C 242.28392 169.942657 241.308868 166.34375 236.698029 163.32515 M 282.707184 178.210129 C 286.940979 176.851486 288.902161 173.856186 288.400055 169.536087 C 287.976257 165.890198 285.763519 163.534958 282.057648 162.868698 C 277.415314 162.034103 273.307373 165.049072 272.791809 169.584091 C 272.176025 175.000351 275.575623 178.256195 282.707184 178.210129 z" stroke-linecap="round" />
</g>
<g transform="matrix(1 0 0 1 626.11 532.06)"  >
<path style="stroke: none; stroke-width: 1; stroke-dasharray: none; stroke-linecap: butt; stroke-dashoffset: 0; stroke-linejoin: miter; stroke-miterlimit: 4; fill: rgb(252,254,249); fill-rule: nonzero; opacity: 1;" vector-effect="non-scaling-stroke"  transform=" translate(-343.04, -249.11)" d="M 327.565186 215.840881 C 329.868958 206.68045 336.560028 201.393738 344.388123 202.196442 C 352.84433 203.063583 358.557709 209.352768 358.625732 218.586319 C 358.776642 239.060196 358.809753 259.537262 358.611908 280.010345 C 358.520203 289.502228 351.839813 296.09198 343.079987 296.110962 C 334.296204 296.129944 327.465149 289.546173 327.396118 280.171265 C 327.239319 258.868103 327.432617 237.562378 327.565186 215.840881 z" stroke-linecap="round" />
</g>
<g transform="matrix(1 0 0 1 454.06 532.13)"  >
<path style="stroke: none; stroke-width: 1; stroke-dasharray: none; stroke-linecap: butt; stroke-dashoffset: 0; stroke-linejoin: miter; stroke-miterlimit: 4; fill: rgb(252,254,249); fill-rule: nonzero; opacity: 1;" vector-effect="non-scaling-stroke"  transform=" translate(-171, -249.18)" d="M 171.792053 202.161514 C 182.432068 204.537903 186.639343 209.620819 186.665924 219.975555 C 186.716766 239.779633 186.752167 259.58432 186.644302 279.38797 C 186.597504 287.981049 181.545425 294.436676 174.194107 295.892609 C 167.095047 297.298553 159.812057 293.749573 156.957993 287.026947 C 155.889328 284.509766 155.40567 281.564545 155.387848 278.809723 C 155.259628 259.006378 155.257568 239.201477 155.345734 219.397644 C 155.391953 209.018051 160.983475 203.138626 171.792053 202.161514 z" stroke-linecap="round" />
</g>
<g transform="matrix(1 0 0 1 516.45 453.6)"  >
<path style="stroke: none; stroke-width: 1; stroke-dasharray: none; stroke-linecap: butt; stroke-dashoffset: 0; stroke-linejoin: miter; stroke-miterlimit: 4; fill: rgb(137,202,17); fill-rule: nonzero; opacity: 1;" vector-effect="non-scaling-stroke"  transform=" translate(-233.39, -170.65)" d="M 237.040466 163.546906 C 241.308868 166.34375 242.28392 169.942657 240.451309 174.083908 C 238.958435 177.457397 235.992706 178.924881 232.33606 178.416763 C 228.441956 177.875656 226.181992 175.467621 225.533051 171.5923 C 224.709457 166.674057 229.70134 160.629578 237.040466 163.546906 z" stroke-linecap="round" />
</g>
<g transform="matrix(1 0 0 1 563.66 453.46)"  >
<path style="stroke: none; stroke-width: 1; stroke-dasharray: none; stroke-linecap: butt; stroke-dashoffset: 0; stroke-linejoin: miter; stroke-miterlimit: 4; fill: rgb(137,202,16); fill-rule: nonzero; opacity: 1;" vector-effect="non-scaling-stroke"  transform=" translate(-280.6, -170.51)" d="M 282.344299 178.297638 C 275.575623 178.256195 272.176025 175.000351 272.791809 169.584091 C 273.307373 165.049072 277.415314 162.034103 282.057648 162.868698 C 285.763519 163.534958 287.976257 165.890198 288.400055 169.536087 C 288.902161 173.856186 286.940979 176.851486 282.344299 178.297638 z" stroke-linecap="round" />
</g>
</svg>