<?xml version="1.0" standalone="no"?>
<!DOCTYPE svg PUBLIC "-//W3C//DTD SVG 20010904//EN"
 "http://www.w3.org/TR/2001/REC-SVG-20010904/DTD/svg10.dtd">
<svg version="1.0" xmlns="http://www.w3.org/2000/svg"
 width="360.000000pt" height="194.000000pt" viewBox="0 0 360.000000 194.000000"
 preserveAspectRatio="xMidYMid meet">

<g transform="translate(0.000000,194.000000) scale(0.100000,-0.100000)"
fill="#000000" stroke="none">
<path d="M1270 1625 c0 -30 5 -55 10 -55 6 0 10 17 11 38 l0 37 16 -32 c9 -18
19 -33 23 -33 4 0 14 15 23 33 l16 32 0 -37 c1 -21 6 -38 11 -38 6 0 10 25 10
55 0 44 -3 55 -16 55 -9 0 -21 -13 -27 -30 -6 -16 -14 -30 -18 -30 -4 0 -12
14 -19 30 -21 50 -40 38 -40 -25z"/>
<path d="M1410 1673 c0 -5 7 -17 15 -27 8 -11 15 -30 15 -42 0 -13 5 -26 10
-29 6 -3 10 3 10 14 0 11 9 36 21 55 12 20 16 36 10 36 -6 0 -16 -10 -22 -22
l-12 -22 -17 22 c-18 22 -30 28 -30 15z"/>
<path d="M824 1624 c-130 -22 -235 -65 -340 -139 -78 -56 -127 -111 -149 -168
-17 -45 -17 -47 2 -84 11 -21 28 -40 38 -41 15 -3 17 1 11 32 -9 48 11 84 93
165 122 119 252 181 397 189 115 6 190 -14 229 -60 24 -28 27 -38 22 -79 -7
-60 -35 -114 -81 -158 -19 -19 -32 -39 -29 -44 3 -6 1 -7 -5 -3 -6 3 -38 -11
-71 -32 -57 -37 -139 -68 -159 -61 -15 6 99 206 148 262 24 27 54 53 67 58 32
12 29 27 -12 46 -27 13 -40 14 -59 5 -28 -13 -123 -150 -186 -270 -24 -45 -49
-82 -56 -82 -22 0 -47 47 -42 80 5 36 -7 40 -16 5 -7 -27 5 -57 37 -92 l20
-22 -37 -92 c-21 -51 -40 -114 -43 -140 -5 -43 -3 -48 21 -64 15 -10 30 -15
34 -11 4 4 12 38 18 76 15 90 68 205 95 207 10 1 19 -2 19 -8 0 -13 38 -11 42
2 2 6 23 12 46 14 86 7 203 100 253 200 41 84 46 130 21 187 -44 101 -173 149
-328 122z m-234 -104 c-14 -11 -29 -20 -34 -20 -5 0 -18 -7 -28 -17 -10 -9
-21 -14 -24 -10 -7 6 85 67 101 67 6 0 -1 -9 -15 -20z m339 -355 c-19 -20
-109 -48 -109 -35 0 6 8 10 18 10 9 0 35 9 57 19 50 24 53 25 34 6z m-126 -42
c-7 -2 -19 -2 -25 0 -7 3 -2 5 12 5 14 0 19 -2 13 -5z"/>
<path d="M2624 1543 c-3 -10 -17 -40 -30 -68 -110 -232 -162 -362 -208 -520
-54 -190 -62 -239 -42 -270 10 -15 24 -29 32 -32 15 -6 44 13 44 29 0 6 -6 6
-14 -1 -36 -30 -20 76 34 234 46 133 177 434 223 510 40 66 47 84 40 105 -11
32 -70 42 -79 13z"/>
<path d="M1864 1478 c-8 -29 -16 -35 -58 -45 -46 -11 -159 -27 -286 -40 -30
-3 -64 -11 -75 -18 -38 -24 -95 -28 -116 -9 -18 16 -19 16 -19 0 0 -36 20 -56
55 -56 33 0 35 -2 35 -35 0 -26 8 -43 36 -70 l35 -35 -42 -19 c-23 -11 -47
-17 -53 -15 -6 2 -18 -26 -28 -68 -19 -76 -45 -123 -69 -123 -23 0 -15 138 9
154 5 3 11 13 14 22 4 9 27 27 53 39 44 21 45 23 30 41 -10 10 -31 22 -47 28
-28 10 -33 8 -62 -23 -34 -38 -86 -165 -86 -209 0 -62 49 -98 102 -76 32 13
88 115 88 160 0 24 8 31 56 53 l56 26 29 -21 c34 -24 37 -50 8 -90 -27 -38
-36 -101 -18 -116 35 -28 55 -24 98 19 24 24 57 63 74 87 l32 43 5 -76 c7 -86
31 -131 71 -131 18 0 29 10 44 42 17 36 49 63 60 51 1 -1 -19 -63 -46 -136
-27 -74 -49 -144 -49 -157 0 -13 10 -29 24 -38 30 -20 37 -12 54 58 17 69 80
268 90 281 4 6 45 15 92 18 l85 7 11 -29 c6 -17 23 -38 38 -47 37 -24 79 -5
110 49 31 53 49 137 36 170 -7 19 -5 26 8 31 15 6 13 10 -11 31 -16 13 -41 24
-57 24 -16 0 -32 5 -35 10 -3 6 -11 10 -18 10 -6 0 -4 -7 6 -17 16 -16 16 -18
-4 -39 -11 -12 -33 -55 -49 -95 -29 -76 -40 -85 -97 -88 -18 -1 -23 4 -23 25
0 62 100 214 164 250 24 13 13 34 -18 34 -13 0 -31 -12 -44 -30 -18 -24 -28
-29 -46 -24 -15 3 -34 -1 -49 -11 -35 -23 -105 -126 -131 -193 -20 -51 -26
-58 -59 -66 -29 -7 -37 -15 -37 -31 0 -12 -9 -34 -20 -48 -59 -74 -69 55 -19
223 17 58 38 119 45 137 8 17 14 36 14 41 0 6 3 12 8 14 4 2 15 20 25 42 l18
38 157 -5 c191 -6 249 -18 264 -55 6 -17 12 -22 15 -14 6 16 -23 49 -57 67
-42 21 -129 35 -250 39 -96 3 -115 7 -112 19 2 14 -32 47 -49 47 -3 0 -10 -15
-15 -32z m-34 -73 c0 -2 -18 -49 -39 -102 -21 -54 -44 -118 -51 -143 -7 -25
-26 -62 -43 -83 -33 -42 -127 -121 -134 -113 -3 3 5 20 18 38 15 20 24 47 24
71 0 40 -15 58 -74 97 l-23 16 31 50 c17 28 34 66 37 83 8 38 19 43 143 70 96
21 111 23 111 16z m-280 -78 c0 -25 -31 -106 -46 -118 -11 -9 -19 -8 -39 5
-28 18 -31 39 -13 78 18 37 98 65 98 35z m530 -169 c-16 -34 -32 -81 -36 -105
-6 -39 -9 -43 -35 -43 l-29 0 31 63 c66 132 127 207 69 85z m240 -56 c0 -52
-26 -117 -58 -145 -30 -27 -43 -13 -38 41 7 83 12 94 60 142 26 27 36 17 36
-38z"/>
<path d="M2693 1299 c4 -13 7 -40 7 -59 l0 -35 19 32 c11 17 28 36 38 41 23
14 9 29 -36 38 -32 7 -34 6 -28 -17z"/>
<path d="M2914 1231 c15 -17 15 -19 0 -32 -9 -7 -26 -35 -38 -60 -15 -35 -45
-68 -110 -123 -49 -42 -95 -76 -102 -76 -14 0 -13 4 31 129 28 80 24 94 -24
89 -19 -2 -25 -9 -26 -33 -1 -16 -12 -65 -25 -108 -27 -87 -22 -110 23 -115
21 -3 43 13 110 77 85 82 106 97 87 62 -18 -35 -11 -71 20 -103 25 -24 36 -29
58 -23 38 10 52 23 78 80 28 60 40 127 26 151 -8 14 -6 21 5 30 25 17 -17 54
-61 54 -19 0 -38 5 -41 10 -3 6 -11 10 -17 10 -6 0 -4 -8 6 -19z m88 -130 c-1
-48 -30 -118 -61 -145 -39 -35 -49 3 -28 104 4 20 38 72 57 87 21 17 32 1 32
-46z"/>
<path d="M3568 523 c7 -3 16 -2 19 1 4 3 -2 6 -13 5 -11 0 -14 -3 -6 -6z"/>
<path d="M1120 493 c-646 -29 -981 -52 -1054 -71 -14 -4 93 -6 237 -6 145 1
272 4 282 7 40 12 176 18 375 17 951 -3 1496 0 1665 9 337 18 508 31 560 41
38 7 26 8 -55 3 -58 -3 -141 -7 -185 -9 -44 -1 -134 -4 -200 -7 -69 -3 -107
-2 -90 2 28 8 28 9 -13 10 -24 0 -41 -3 -38 -8 10 -16 -179 -24 -353 -15 -91
4 -208 8 -258 8 -51 0 -93 4 -93 8 0 4 8 8 18 8 15 1 15 2 -2 12 -14 7 -65 8
-185 0 -222 -13 -248 -14 -301 -5 -25 5 -164 3 -310 -4z"/>
</g>
</svg>
