<?xml version="1.0" encoding="UTF-8" standalone="no" ?>
<!DOCTYPE svg PUBLIC "-//W3C//DTD SVG 1.1//EN" "http://www.w3.org/Graphics/SVG/1.1/DTD/svg11.dtd">
<svg xmlns="http://www.w3.org/2000/svg" xmlns:xlink="http://www.w3.org/1999/xlink" version="1.1" width="1080" height="1080" viewBox="0 0 1080 1080" xml:space="preserve">
<desc>Created with Fabric.js 5.2.4</desc>
<defs>
</defs>
<g transform="matrix(1 0 0 1 540 540)" id="abbbc0c7-fbc7-4bc0-becd-706301a0157a"  >
<rect style="stroke: none; stroke-width: 1; stroke-dasharray: none; stroke-linecap: butt; stroke-dashoffset: 0; stroke-linejoin: miter; stroke-miterlimit: 4; fill: rgb(255,255,255); fill-rule: nonzero; opacity: 1; visibility: hidden;" vector-effect="non-scaling-stroke"  x="-540" y="-540" rx="0" ry="0" width="1080" height="1080" />
</g>
<g transform="matrix(1 0 0 1 540 540)" id="cdc84de1-c387-45dc-8bae-bf82d9c55b0a"  >
</g>
<g transform="matrix(1 0 0 1 647.35 537.26)"  >
<path style="stroke: none; stroke-width: 1; stroke-dasharray: none; stroke-linecap: butt; stroke-dashoffset: 0; stroke-linejoin: miter; stroke-miterlimit: 4; fill: rgb(254,220,0); fill-rule: nonzero; opacity: 1;" vector-effect="non-scaling-stroke"  transform=" translate(-275.85, -166.26)" d="M 324.255981 180.977005 C 319.627197 204.37883 307.694336 222.766434 287.038147 235.154312 C 285.615417 236.007568 284.126038 236.749649 282.365265 237.266434 C 283.104828 234.120102 282.477112 232.3069 279.559662 230.593613 C 263.103546 220.929703 249.289459 208.131851 237.181549 193.49791 C 233.415695 188.946411 230.362167 183.805573 227.452972 178.925217 C 235.971588 178.63913 244.019791 178.362366 252.50856 178.086594 C 257.303589 177.403427 261.65802 176.719254 266.411499 176.032578 C 271.215118 174.361023 275.61972 172.691971 280.388611 170.997726 C 284.525177 168.653336 288.297424 166.334152 292.402069 163.945007 C 295.159088 161.918365 297.58371 159.96167 300.293304 157.832977 C 302.265717 156.057785 303.943878 154.444687 305.642609 152.853485 C 308.792816 149.902664 308.226624 148.135834 304.218201 146.459427 C 294.556671 142.418793 285.10199 137.884766 275.452515 133.813736 C 269.38327 131.253159 263.112701 129.169724 256.932465 126.872246 C 260.551636 116.442299 264.170776 106.012352 267.906494 95.246498 C 289.83432 95.446144 317.034119 124.498222 324.059967 157.114349 C 324.186157 165.627396 324.221069 173.3022 324.255981 180.977005 z" stroke-linecap="round" />
</g>
<g transform="matrix(1 0 0 1 575.81 668.72)"  >
<path style="stroke: none; stroke-width: 1; stroke-dasharray: none; stroke-linecap: butt; stroke-dashoffset: 0; stroke-linejoin: miter; stroke-miterlimit: 4; fill: rgb(253,220,0); fill-rule: nonzero; opacity: 1;" vector-effect="non-scaling-stroke"  transform=" translate(-204.31, -297.72)" d="M 246.966171 264.619598 C 246.529099 268.178925 246.60199 271.893127 245.575211 275.273315 C 236.392426 305.503845 216.349274 324.329041 185.366165 330.638153 C 177.753647 332.188293 169.624786 331.20282 161.645477 330.99054 C 166.813751 330.002075 168.14505 326.727753 168.059906 321.900665 C 167.866501 310.933258 168.253403 299.952332 167.917572 288.991821 C 167.661224 280.625671 166.657486 272.28244 166.420013 263.935852 C 171.57634 263.962097 176.298889 263.981476 181.249924 264.236572 C 203.307663 264.521393 225.136917 264.570496 246.966171 264.619598 M 189.394043 303.116058 C 191.785889 295.783875 188.979828 289.971161 182.595947 289.033966 C 178.11554 288.376251 173.727875 290.914459 172.198334 295.04895 C 170.705978 299.082855 172.177261 303.873901 175.606766 306.14801 C 179.022964 308.413269 185.689438 307.222443 189.394043 303.116058 z" stroke-linecap="round" />
</g>
<g transform="matrix(1 0 0 1 614.13 583.36)"  >
<path style="stroke: none; stroke-width: 1; stroke-dasharray: none; stroke-linecap: butt; stroke-dashoffset: 0; stroke-linejoin: miter; stroke-miterlimit: 4; fill: rgb(252,210,4); fill-rule: nonzero; opacity: 1;" vector-effect="non-scaling-stroke"  transform=" translate(-242.63, -212.36)" d="M 226.982529 178.934525 C 230.362167 183.805573 233.415695 188.946411 237.181549 193.49791 C 249.289459 208.131851 263.103546 220.929703 279.559662 230.593613 C 282.477112 232.3069 283.104828 234.120102 282.037415 237.342407 C 276.361694 239.759216 270.858459 242.726852 265.026855 243.675385 C 256.246002 245.103638 247.243378 245.434738 238.320633 245.6586 C 226.549194 245.953949 214.763855 245.694214 202.735016 245.289047 C 207.320801 244.599854 212.156067 244.294724 217.460632 243.993744 C 224.283875 243.994705 230.637802 243.991486 237.460724 243.991547 C 243.082138 243.946533 248.245895 244.071381 253.379471 243.735367 C 254.765076 243.644669 256.151642 242.256256 257.294159 241.200043 C 257.462646 241.044312 256.453735 239.237534 255.690292 238.50766 C 244.32283 227.639694 232.281845 217.392548 221.713608 205.801086 C 214.424362 197.806122 209.156494 187.968185 203.454742 178.943176 C 211.610321 178.933167 219.296417 178.933838 226.982529 178.934525 z" stroke-linecap="round" />
</g>
<g transform="matrix(1 0 0 1 520.91 597.53)"  >
<path style="stroke: none; stroke-width: 1; stroke-dasharray: none; stroke-linecap: butt; stroke-dashoffset: 0; stroke-linejoin: miter; stroke-miterlimit: 4; fill: rgb(245,174,17); fill-rule: nonzero; opacity: 1;" vector-effect="non-scaling-stroke"  transform=" translate(-149.41, -226.53)" d="M 181.021439 264.000854 C 176.298889 263.981476 171.57634 263.962097 166.109406 263.784546 C 163.237823 262.776947 161.110626 261.927521 158.895966 260.746399 C 156.041916 257.613251 152.678345 255.192047 150.610275 251.945587 C 140.750229 236.467331 131.267975 220.748795 121.56974 205.166519 C 120.577736 203.572647 119.041679 202.317398 117.75808 200.905014 C 121.624077 197.671707 125.490067 194.438416 129.899536 191.265167 C 130.942368 190.826736 131.441727 190.328262 131.941086 189.829788 C 132.387039 189.485718 132.832993 189.141647 133.736374 189.054565 C 135.654526 191.924789 137.025589 194.593094 138.59082 197.142181 C 147.458954 211.584641 156.344742 226.016495 165.283966 240.415039 C 170.127747 248.217026 178.601425 253.497513 181.064026 263.250061 C 181.084167 263.666748 181.052811 263.833801 181.021439 264.000854 z" stroke-linecap="round" />
</g>
<g transform="matrix(1 0 0 1 535.01 593.53)"  >
<path style="stroke: none; stroke-width: 1; stroke-dasharray: none; stroke-linecap: butt; stroke-dashoffset: 0; stroke-linejoin: miter; stroke-miterlimit: 4; fill: rgb(246,183,14); fill-rule: nonzero; opacity: 1;" vector-effect="non-scaling-stroke"  transform=" translate(-163.51, -222.53)" d="M 181.012543 263.000366 C 178.601425 253.497513 170.127747 248.217026 165.283966 240.415039 C 156.344742 226.016495 147.458954 211.584641 138.59082 197.142181 C 137.025589 194.593094 135.654526 191.924789 134.018677 188.990295 C 136.976395 187.10614 140.109268 185.543243 143.862854 184.142181 C 146.322632 183.568497 148.161682 182.832977 150.000717 182.097443 C 150.431625 182.055176 150.862549 182.012909 151.787781 182.221344 C 154.178085 185.789627 156.18602 189.048859 157.951065 192.434677 C 166.664505 209.149323 176.611053 225.001099 189.334473 239.038879 C 191.19133 241.08757 191.810013 244.258545 193.001617 246.910217 C 193.001617 246.910217 192.734848 247.141479 192.188873 247.129028 C 190.775192 247.78215 189.907486 248.447693 189.039764 249.113235 C 188.948654 249.460754 188.739029 249.707672 187.891678 250.001526 C 186.900833 250.717331 186.429199 251.285614 185.957581 251.853882 C 185.78598 252.152252 185.614395 252.450623 185.023224 252.904205 C 184.469711 253.400177 184.33577 253.740936 184.201813 254.08168 C 183.412262 256.125488 182.622726 258.169312 181.709885 260.818848 C 181.395233 261.949799 181.203873 262.475098 181.012543 263.000366 z" stroke-linecap="round" />
</g>
<g transform="matrix(1 0 0 1 556.05 584.09)"  >
<path style="stroke: none; stroke-width: 1; stroke-dasharray: none; stroke-linecap: butt; stroke-dashoffset: 0; stroke-linejoin: miter; stroke-miterlimit: 4; fill: rgb(246,190,11); fill-rule: nonzero; opacity: 1;" vector-effect="non-scaling-stroke"  transform=" translate(-184.55, -213.09)" d="M 193.406464 246.878662 C 191.810013 244.258545 191.19133 241.08757 189.334473 239.038879 C 176.611053 225.001099 166.664505 209.149323 157.951065 192.434677 C 156.18602 189.048859 154.178085 185.789627 152.108093 182.16716 C 157.984512 180.919693 164.034958 179.977112 170.539276 179.31131 C 170.993149 179.588104 170.99231 180.007935 171.064819 180.346375 C 172.625061 182.860062 174.360062 184.907425 175.561569 187.230698 C 185.628586 206.696747 198.367462 224.174164 213.9897 239.559784 C 215.235825 240.787018 216.002075 242.501526 216.991333 243.989578 C 212.156067 244.294724 207.320801 244.599854 202.278519 245.202545 C 199.3181 245.949097 196.564697 246.398102 193.406464 246.878662 z" stroke-linecap="round" />
</g>
<g transform="matrix(1 0 0 1 610.07 451.34)"  >
<path style="stroke: none; stroke-width: 1; stroke-dasharray: none; stroke-linecap: butt; stroke-dashoffset: 0; stroke-linejoin: miter; stroke-miterlimit: 4; fill: rgb(0,112,226); fill-rule: nonzero; opacity: 1;" vector-effect="non-scaling-stroke"  transform=" translate(-238.57, -80.34)" d="M 232.189697 36.019485 C 250.524643 57.385017 253.450958 92.751053 239.046265 119.134972 C 238.011215 121.030815 236.829987 122.846855 235.204361 124.650757 C 232.793365 120.087288 230.89473 115.573051 228.997375 110.586472 C 228.999588 87.243034 228.985703 64.371933 229.023712 41.500908 C 229.027603 39.154366 228.257111 36.177353 232.189697 36.019485 z" stroke-linecap="round" />
</g>
<g transform="matrix(1 0 0 1 532.15 495.81)"  >
<path style="stroke: none; stroke-width: 1; stroke-dasharray: none; stroke-linecap: butt; stroke-dashoffset: 0; stroke-linejoin: miter; stroke-miterlimit: 4; fill: rgb(1,127,232); fill-rule: nonzero; opacity: 1;" vector-effect="non-scaling-stroke"  transform=" translate(-160.65, -124.81)" d="M 129.947266 92.38916 C 137.044571 91.679863 144.141891 90.970566 151.509277 90.493958 C 150.40361 91.82753 149.027863 92.928429 147.380737 94.24649 C 149.078934 96.490562 150.657913 98.784691 152.444244 100.903999 C 164.157028 114.799942 174.290176 129.752686 182.874496 145.774887 C 185.217316 150.147629 185.380371 156.848724 193.023651 156.054901 C 187.333847 157.111725 181.644058 158.168533 175.129364 159.125397 C 173.522018 158.949265 172.739578 158.873093 171.94754 158.442368 C 171.725708 157.292435 171.654205 156.423065 171.280701 155.712448 C 160.605484 135.401962 147.994324 116.477348 131.733887 100.122124 C 130.097366 98.476059 129.229904 96.065384 128.269897 93.949371 C 129.005264 93.389175 129.476273 92.889168 129.947266 92.38916 z" stroke-linecap="round" />
</g>
<g transform="matrix(1 0 0 1 475.48 627.07)"  >
<path style="stroke: none; stroke-width: 1; stroke-dasharray: none; stroke-linecap: butt; stroke-dashoffset: 0; stroke-linejoin: miter; stroke-miterlimit: 4; fill: rgb(245,179,15); fill-rule: nonzero; opacity: 1;" vector-effect="non-scaling-stroke"  transform=" translate(-103.98, -256.07)" d="M 108.94809 299.249573 C 90.464012 275.796478 90.167725 238.997711 108.568962 212.163513 C 110.263786 216.567581 111.634895 220.764404 112.854317 225.318481 C 112.800392 228.620712 112.97892 231.565567 112.982834 234.510651 C 113.008705 254.009827 113.118484 273.510803 112.838531 293.005981 C 112.804916 295.347076 110.590767 297.65686 109.387283 299.98114 C 109.387283 299.98114 109.094826 299.777405 109.148575 299.526428 C 109.202316 299.275482 109.208282 299.101257 109.208282 299.101257 C 109.208282 299.101257 108.94809 299.249573 108.94809 299.249573 z" stroke-linecap="round" />
</g>
<g transform="matrix(1 0 0 1 565.32 481.01)"  >
<path style="stroke: none; stroke-width: 1; stroke-dasharray: none; stroke-linecap: butt; stroke-dashoffset: 0; stroke-linejoin: miter; stroke-miterlimit: 4; fill: rgb(0,105,223); fill-rule: nonzero; opacity: 1;" vector-effect="non-scaling-stroke"  transform=" translate(-193.82, -110.01)" d="M 223.203491 139.080292 C 219.737564 141.709656 216.271622 144.339005 212.146652 146.855469 C 210.141739 145.128265 208.392136 143.707458 207.511475 141.870132 C 196.980103 119.899078 183.860428 99.699844 167.414459 81.647133 C 165.50267 79.548546 165.118713 76.058075 164.44458 73.170486 C 170.227722 74.06089 175.592712 74.993698 181.056747 76.250748 C 182.764099 78.239868 184.679657 79.702133 185.932205 81.601608 C 196.078827 96.989067 206.111542 112.451752 216.153564 127.908005 C 218.55249 131.600296 220.856064 135.354538 223.203491 139.080292 z" stroke-linecap="round" />
</g>
<g transform="matrix(1 0 0 1 575.75 582.45)"  >
<path style="stroke: none; stroke-width: 1; stroke-dasharray: none; stroke-linecap: butt; stroke-dashoffset: 0; stroke-linejoin: miter; stroke-miterlimit: 4; fill: rgb(250,198,8); fill-rule: nonzero; opacity: 1;" vector-effect="non-scaling-stroke"  transform=" translate(-204.25, -211.45)" d="M 217.460632 243.993744 C 216.002075 242.501526 215.235825 240.787018 213.9897 239.559784 C 198.367462 224.174164 185.628586 206.696747 175.561569 187.230698 C 174.360062 184.907425 172.625061 182.860062 171.508392 180.344269 C 174.913956 179.711594 177.948456 179.419464 180.982956 179.127319 C 181.390839 179.058609 181.798737 178.989899 182.797394 178.909149 C 183.575638 178.910477 183.763123 178.923859 184.071777 179.048889 C 184.192917 179.160522 184.654968 179.215073 184.654968 179.215073 C 184.654968 179.215073 185.049286 178.93721 185.371277 178.921509 C 186.122925 178.913666 186.552597 178.921539 187.006714 179.300095 C 188.133209 181.67865 189.219864 183.695145 190.339676 185.693054 C 199.731094 202.448578 211.066513 217.669662 225.184814 230.81105 C 229.48407 234.81282 233.075897 239.57457 236.99173 243.988266 C 230.637802 243.991486 224.283875 243.994705 217.460632 243.993744 z" stroke-linecap="round" />
</g>
<g transform="matrix(1 0 0 1 442.9 503.9)"  >
<path style="stroke: none; stroke-width: 1; stroke-dasharray: none; stroke-linecap: butt; stroke-dashoffset: 0; stroke-linejoin: miter; stroke-miterlimit: 4; fill: rgb(0,169,254); fill-rule: nonzero; opacity: 1;" vector-effect="non-scaling-stroke"  transform=" translate(-71.4, -132.9)" d="M 38.919617 116.78318 C 42.739479 113.343742 46.559338 109.904305 50.712017 106.708267 C 52.825005 109.025703 54.217896 111.762932 56.448544 113.065514 C 70.355537 121.18647 82.591827 131.344604 93.46965 143.105988 C 98.042793 148.050613 101.849281 153.7043 105.540108 159.06662 C 100.72039 159.106033 96.364861 159.114487 91.711639 158.882935 C 88.347694 157.312225 84.388016 156.779114 82.366982 154.515289 C 72.665382 143.648193 61.547745 134.656326 49.208759 127.018669 C 45.063507 124.452812 41.231415 121.381042 37.256187 118.540504 C 37.256187 118.540504 37.275791 118.470474 37.623039 118.395332 C 38.286732 117.807854 38.603172 117.295517 38.919617 116.78318 z" stroke-linecap="round" />
</g>
<g transform="matrix(1 0 0 1 489.76 641.29)"  >
<path style="stroke: none; stroke-width: 1; stroke-dasharray: none; stroke-linecap: butt; stroke-dashoffset: 0; stroke-linejoin: miter; stroke-miterlimit: 4; fill: rgb(247,188,12); fill-rule: nonzero; opacity: 1;" vector-effect="non-scaling-stroke"  transform=" translate(-118.26, -270.29)" d="M 109.52755 300.261902 C 110.590767 297.65686 112.804916 295.347076 112.838531 293.005981 C 113.118484 273.510803 113.008705 254.009827 112.982834 234.510651 C 112.97892 231.565567 112.800392 228.620712 113.132393 225.514084 C 117.707932 230.896164 121.853706 236.439911 126.028687 242.404816 C 126.364754 244.621536 126.932892 246.41626 126.938591 248.212753 C 127.004997 269.140533 127.046021 290.069122 126.854393 310.9953 C 126.841896 312.360901 124.8731 313.708588 123.814285 315.064606 C 123.503868 315.080566 123.248161 314.970001 122.94043 314.270721 C 122.224983 313.768005 121.616272 313.727509 121.007553 313.687012 C 117.227638 309.305542 113.447723 304.924103 109.52755 300.261902 z" stroke-linecap="round" />
</g>
<g transform="matrix(1 0 0 1 595.02 437.17)"  >
<path style="stroke: none; stroke-width: 1; stroke-dasharray: none; stroke-linecap: butt; stroke-dashoffset: 0; stroke-linejoin: miter; stroke-miterlimit: 4; fill: rgb(0,125,233); fill-rule: nonzero; opacity: 1;" vector-effect="non-scaling-stroke"  transform=" translate(-223.52, -66.17)" d="M 232.055908 35.701057 C 228.257111 36.177353 229.027603 39.154366 229.023712 41.500908 C 228.985703 64.371933 228.999588 87.243034 228.72226 110.388741 C 223.958206 105.115494 219.470551 99.567627 215.203903 93.712387 C 215.285721 90.967888 215.03006 88.530968 215.025787 86.093597 C 214.99234 67.012146 214.901718 47.929283 215.144135 28.850863 C 215.173523 26.53804 217.078979 24.249054 218.114944 21.949017 C 222.717331 26.426888 227.319717 30.90476 232.055908 35.701057 z" stroke-linecap="round" />
</g>
<g transform="matrix(1 0 0 1 579.45 478.34)"  >
<path style="stroke: none; stroke-width: 1; stroke-dasharray: none; stroke-linecap: butt; stroke-dashoffset: 0; stroke-linejoin: miter; stroke-miterlimit: 4; fill: rgb(0,97,218); fill-rule: nonzero; opacity: 1;" vector-effect="non-scaling-stroke"  transform=" translate(-207.95, -107.34)" d="M 214.98291 94.019768 C 219.470551 99.567627 223.958206 105.115494 228.720978 110.861084 C 230.89473 115.573051 232.793365 120.087288 234.940674 124.862083 C 231.392075 129.680267 227.594803 134.2379 223.500519 138.937912 C 220.856064 135.354538 218.55249 131.600296 216.153564 127.908005 C 206.111542 112.451752 196.078827 96.989067 185.932205 81.601608 C 184.679657 79.702133 182.764099 78.239868 181.036804 76.186462 C 180.917816 75.79792 180.900055 75.663109 181.269501 75.807724 C 185.089493 76.959412 188.54007 77.966484 192.323761 79.082024 C 196.096573 81.10289 199.53624 83.015289 203.274323 85.096436 C 207.376099 88.18338 211.179489 91.101578 214.98291 94.019768 z" stroke-linecap="round" />
</g>
<g transform="matrix(1 0 0 1 529.8 666.42)"  >
<path style="stroke: none; stroke-width: 1; stroke-dasharray: none; stroke-linecap: butt; stroke-dashoffset: 0; stroke-linejoin: miter; stroke-miterlimit: 4; fill: rgb(253,213,3); fill-rule: nonzero; opacity: 1;" vector-effect="non-scaling-stroke"  transform=" translate(-158.3, -295.42)" d="M 158.983444 261.078094 C 161.110626 261.927521 163.237823 262.776947 165.675629 263.77771 C 166.657486 272.28244 167.661224 280.625671 167.917572 288.991821 C 168.253403 299.952332 167.866501 310.933258 168.059906 321.900665 C 168.14505 326.727753 166.813751 330.002075 161.266998 330.822083 C 156.844376 330.190887 152.712357 329.335632 148.540741 328.052246 C 149.887451 327.395416 151.273788 327.166656 153 326.881866 C 153 320.163055 152.998611 313.695099 153.00029 307.227142 C 153.004379 291.482086 153.009888 275.73703 153.39415 260.015747 C 155.510132 260.385681 157.24678 260.731903 158.983444 261.078094 z" stroke-linecap="round" />
</g>
<g transform="matrix(1 0 0 1 556.32 483.9)"  >
<path style="stroke: none; stroke-width: 1; stroke-dasharray: none; stroke-linecap: butt; stroke-dashoffset: 0; stroke-linejoin: miter; stroke-miterlimit: 4; fill: rgb(0,113,227); fill-rule: nonzero; opacity: 1;" vector-effect="non-scaling-stroke"  transform=" translate(-184.82, -112.9)" d="M 164.026443 73.212898 C 165.118713 76.058075 165.50267 79.548546 167.414459 81.647133 C 183.860428 99.699844 196.980103 119.899078 207.511475 141.870132 C 208.392136 143.707458 210.141739 145.128265 211.80014 146.898468 C 208.345947 149.070221 204.579208 151.086105 200.258087 152.804474 C 198.920197 151.238556 198.003632 150.0327 197.373199 148.692291 C 188.360184 129.528305 176.786011 112.02169 163.485916 95.57959 C 161.015121 92.525078 156.936127 90.022713 158.005585 85.019424 C 158.03981 84.688652 158.175186 84.406387 158.941223 83.988831 C 159.896744 82.498215 160.322723 81.191414 160.748703 79.884605 C 161.086838 78.4888 161.424957 77.093002 161.860413 75.031265 C 161.921555 73.941658 161.885361 73.517982 162.132462 73.060013 C 162.604752 73.004036 162.793747 72.982338 163.24501 73.01815 C 163.680328 73.121407 163.853394 73.167152 164.026443 73.212898 z" stroke-linecap="round" />
</g>
<g transform="matrix(1 0 0 1 431.09 512.24)"  >
<path style="stroke: none; stroke-width: 1; stroke-dasharray: none; stroke-linecap: butt; stroke-dashoffset: 0; stroke-linejoin: miter; stroke-miterlimit: 4; fill: rgb(0,178,249); fill-rule: nonzero; opacity: 1;" vector-effect="non-scaling-stroke"  transform=" translate(-59.59, -141.24)" d="M 37.010052 118.737152 C 41.231415 121.381042 45.063507 124.452812 49.208759 127.018669 C 61.547745 134.656326 72.665382 143.648193 82.366982 154.515289 C 84.388016 156.779114 88.347694 157.312225 91.369308 158.92453 C 90.210915 159.46347 89.097183 159.72081 87.574074 159.956573 C 85.086739 160.261017 83.008781 160.587021 80.527573 160.917923 C 75.753517 161.976196 71.382706 163.029587 66.944672 163.740936 C 66.024185 162.206055 65.403328 160.698593 64.281219 159.869675 C 54.488544 152.635727 44.560421 145.584885 34.781807 138.332306 C 32.257389 136.459991 30.118839 134.067444 27.803036 131.913864 C 30.789995 127.587181 33.776955 123.260498 37.010052 118.737152 z" stroke-linecap="round" />
</g>
<g transform="matrix(1 0 0 1 497.24 496.74)"  >
<path style="stroke: none; stroke-width: 1; stroke-dasharray: none; stroke-linecap: butt; stroke-dashoffset: 0; stroke-linejoin: miter; stroke-miterlimit: 4; fill: rgb(0,143,243); fill-rule: nonzero; opacity: 1;" vector-effect="non-scaling-stroke"  transform=" translate(-125.74, -125.74)" d="M 89.005173 92.752594 C 90.757706 92.578041 92.510239 92.403496 94.835297 92.621651 C 99.27446 93.346512 103.141106 93.678673 107.03273 94.361656 C 108.034401 95.980255 108.856644 97.413551 110.011124 98.490791 C 125.469254 112.914551 139.339478 128.671951 150.187973 146.890259 C 153.352188 152.204071 156.016327 157.723312 162.47168 158.947235 C 156.672943 158.988388 151.336731 158.99614 145.927368 158.669998 C 143.147141 155.03746 140.034454 151.990799 137.8022 148.397232 C 127.34034 131.555252 113.877777 117.450821 99.222015 104.255226 C 95.493622 100.898293 89.498497 99.120499 89.005173 92.752594 z" stroke-linecap="round" />
</g>
<g transform="matrix(1 0 0 1 543.64 412.07)"  >
<path style="stroke: none; stroke-width: 1; stroke-dasharray: none; stroke-linecap: butt; stroke-dashoffset: 0; stroke-linejoin: miter; stroke-miterlimit: 4; fill: rgb(0,165,251); fill-rule: nonzero; opacity: 1;" vector-effect="non-scaling-stroke"  transform=" translate(-172.14, -41.07)" d="M 164.44458 73.170486 C 163.853394 73.167152 163.680328 73.121407 163.220337 72.602051 C 162.965408 64.478661 162.997421 56.82888 163.320923 49.057217 C 168.47171 47.616299 171.438599 44.569977 171.424454 39.426281 C 171.409439 33.966469 167.920502 31.185358 163.024353 29.276226 C 163.012589 24.27968 163.245117 19.784525 162.928497 15.328392 C 162.648117 11.382201 163.409897 8.230869 167.113251 6.274976 C 171.845749 6.370427 176.578262 6.465878 181.397751 6.989305 C 180.656769 9.39411 179.137894 11.361566 179.110931 13.349257 C 178.908508 28.271017 178.826004 43.199814 179.086945 58.119747 C 179.189377 63.976311 180.266708 69.815826 180.900055 75.663109 C 180.900055 75.663109 180.917816 75.79792 180.937775 75.862213 C 175.592712 74.993698 170.227722 74.06089 164.44458 73.170486 z" stroke-linecap="round" />
</g>
<g transform="matrix(1 0 0 1 503.9 654.31)"  >
<path style="stroke: none; stroke-width: 1; stroke-dasharray: none; stroke-linecap: butt; stroke-dashoffset: 0; stroke-linejoin: miter; stroke-miterlimit: 4; fill: rgb(250,197,9); fill-rule: nonzero; opacity: 1;" vector-effect="non-scaling-stroke"  transform=" translate(-132.4, -283.31)" d="M 124.001053 315.351959 C 124.8731 313.708588 126.841896 312.360901 126.854393 310.9953 C 127.046021 290.069122 127.004997 269.140533 126.938591 248.212753 C 126.932892 246.41626 126.364754 244.621536 126.313286 242.5802 C 131.387405 246.218536 136.206146 250.102692 140.79187 254.330231 C 140.372604 256.633179 140.028824 258.592407 140.024582 260.552368 C 139.983688 279.432922 140.06842 298.314178 139.910843 317.193512 C 139.891754 319.481384 138.653809 321.759033 137.980759 324.041443 C 133.383118 321.240723 128.785461 318.440033 124.001053 315.351959 z" stroke-linecap="round" />
</g>
<g transform="matrix(1 0 0 1 456.78 500.21)"  >
<path style="stroke: none; stroke-width: 1; stroke-dasharray: none; stroke-linecap: butt; stroke-dashoffset: 0; stroke-linejoin: miter; stroke-miterlimit: 4; fill: rgb(0,161,251); fill-rule: nonzero; opacity: 1;" vector-effect="non-scaling-stroke"  transform=" translate(-85.28, -129.21)" d="M 106.004295 159.035645 C 101.849281 153.7043 98.042793 148.050613 93.46965 143.105988 C 82.591827 131.344604 70.355537 121.18647 56.448544 113.065514 C 54.217896 111.762932 52.825005 109.025703 51.020851 106.606079 C 55.09211 103.862396 59.187351 101.464317 63.584702 99.365952 C 64.675972 101.613045 64.897156 104.441605 66.341454 105.372551 C 82.141075 115.556358 95.958595 127.925652 107.840622 142.429428 C 112.18045 147.726837 115.96479 153.47934 119.538338 159.052002 C 114.717514 159.065079 110.360909 159.050354 106.004295 159.035645 z" stroke-linecap="round" />
</g>
<g transform="matrix(1 0 0 1 545.13 491.66)"  >
<path style="stroke: none; stroke-width: 1; stroke-dasharray: none; stroke-linecap: butt; stroke-dashoffset: 0; stroke-linejoin: miter; stroke-miterlimit: 4; fill: rgb(0,120,230); fill-rule: nonzero; opacity: 1;" vector-effect="non-scaling-stroke"  transform=" translate(-173.63, -120.66)" d="M 157.731628 85.199524 C 156.936127 90.022713 161.015121 92.525078 163.485916 95.57959 C 176.786011 112.02169 188.360184 129.528305 197.373199 148.692291 C 198.003632 150.0327 198.920197 151.238556 199.878113 152.81044 C 197.955399 154.093384 195.858292 155.072876 193.39241 156.053619 C 185.380371 156.848724 185.217316 150.147629 182.874496 145.774887 C 174.290176 129.752686 164.157028 114.799942 152.444244 100.903999 C 150.657913 98.784691 149.078934 96.490562 147.380737 94.24649 C 149.027863 92.928429 150.40361 91.82753 151.886368 90.416023 C 153.814835 88.530144 155.636261 86.95488 157.731628 85.199524 z" stroke-linecap="round" />
</g>
<g transform="matrix(1 0 0 1 481.73 496.82)"  >
<path style="stroke: none; stroke-width: 1; stroke-dasharray: none; stroke-linecap: butt; stroke-dashoffset: 0; stroke-linejoin: miter; stroke-miterlimit: 4; fill: rgb(0,149,246); fill-rule: nonzero; opacity: 1;" vector-effect="non-scaling-stroke"  transform=" translate(-110.23, -125.82)" d="M 88.568848 92.690857 C 89.498497 99.120499 95.493622 100.898293 99.222015 104.255226 C 113.877777 117.450821 127.34034 131.555252 137.8022 148.397232 C 140.034454 151.990799 143.147141 155.03746 145.464569 158.692978 C 141.050552 159.038284 137.026138 159.026688 132.93309 158.677155 C 130.023544 154.498306 127.126167 150.697693 124.35141 146.809555 C 111.616814 128.965149 96.302254 113.753883 78.392952 101.084946 C 76.690628 99.880737 76.103386 97.100204 74.998459 95.051491 C 79.37648 94.244034 83.754509 93.436577 88.568848 92.690857 z" stroke-linecap="round" />
</g>
<g transform="matrix(1 0 0 1 517.12 662.16)"  >
<path style="stroke: none; stroke-width: 1; stroke-dasharray: none; stroke-linecap: butt; stroke-dashoffset: 0; stroke-linejoin: miter; stroke-miterlimit: 4; fill: rgb(251,205,6); fill-rule: nonzero; opacity: 1;" vector-effect="non-scaling-stroke"  transform=" translate(-145.62, -291.16)" d="M 138.225143 324.289978 C 138.653809 321.759033 139.891754 319.481384 139.910843 317.193512 C 140.06842 298.314178 139.983688 279.432922 140.024582 260.552368 C 140.028824 258.592407 140.372604 256.633179 141.102325 254.486603 C 145.435486 256.197021 149.225159 258.094513 153.014832 259.991974 C 153.009888 275.73703 153.004379 291.482086 153.00029 307.227142 C 152.998611 313.695099 153 320.163055 153 326.881866 C 151.273788 327.166656 149.887451 327.395416 148.240356 327.832336 C 144.809555 326.873169 141.639542 325.705841 138.225143 324.289978 z" stroke-linecap="round" />
</g>
<g transform="matrix(1 0 0 1 469.71 498.04)"  >
<path style="stroke: none; stroke-width: 1; stroke-dasharray: none; stroke-linecap: butt; stroke-dashoffset: 0; stroke-linejoin: miter; stroke-miterlimit: 4; fill: rgb(0,156,248); fill-rule: nonzero; opacity: 1;" vector-effect="non-scaling-stroke"  transform=" translate(-98.21, -127.04)" d="M 74.624413 95.052269 C 76.103386 97.100204 76.690628 99.880737 78.392952 101.084946 C 96.302254 113.753883 111.616814 128.965149 124.35141 146.809555 C 127.126167 150.697693 130.023544 154.498306 132.470306 158.702454 C 128.05162 159.051865 124.027084 159.038055 120.002548 159.024231 C 115.96479 153.47934 112.18045 147.726837 107.840622 142.429428 C 95.958595 127.925652 82.141075 115.556358 66.341454 105.372551 C 64.897156 104.441605 64.675972 101.613045 63.943459 99.32962 C 67.416855 97.680061 70.833611 96.366554 74.624413 95.052269 z" stroke-linecap="round" />
</g>
<g transform="matrix(1 0 0 1 581.96 425.7)"  >
<path style="stroke: none; stroke-width: 1; stroke-dasharray: none; stroke-linecap: butt; stroke-dashoffset: 0; stroke-linejoin: miter; stroke-miterlimit: 4; fill: rgb(0,136,238); fill-rule: nonzero; opacity: 1;" vector-effect="non-scaling-stroke"  transform=" translate(-210.46, -54.7)" d="M 215.203888 93.712402 C 211.179489 91.101578 207.376099 88.18338 203.281723 84.635635 C 202.990738 61.323444 202.990738 38.64082 202.990738 15.689915 C 205.18042 15.807688 206.639282 15.886152 208.098145 15.964619 C 211.306961 17.775068 214.515762 19.585518 217.919769 21.672493 C 217.078979 24.249054 215.173523 26.53804 215.144135 28.850863 C 214.901718 47.929283 214.99234 67.012146 215.025787 86.093597 C 215.03006 88.530968 215.285721 90.967888 215.203888 93.712402 z" stroke-linecap="round" />
</g>
<g transform="matrix(1 0 0 1 505.37 601.9)"  >
<path style="stroke: none; stroke-width: 1; stroke-dasharray: none; stroke-linecap: butt; stroke-dashoffset: 0; stroke-linejoin: miter; stroke-miterlimit: 4; fill: rgb(243,167,20); fill-rule: nonzero; opacity: 1;" vector-effect="non-scaling-stroke"  transform=" translate(-133.87, -230.9)" d="M 153.39415 260.015747 C 149.225159 258.094513 145.435486 256.197021 141.335342 254.143204 C 136.206146 250.102692 131.387405 246.218536 126.284081 242.159027 C 121.853706 236.439911 117.707932 230.896164 113.284081 225.156815 C 111.634895 220.764404 110.263786 216.567581 108.848663 211.949738 C 111.592491 208.082626 114.380325 204.636566 117.46312 201.04776 C 119.041679 202.317398 120.577736 203.572647 121.56974 205.166519 C 131.267975 220.748795 140.750229 236.467331 150.610275 251.945587 C 152.678345 255.192047 156.041916 257.613251 158.895966 260.746399 C 157.24678 260.731903 155.510132 260.385681 153.39415 260.015747 z" stroke-linecap="round" />
</g>
<g transform="matrix(1 0 0 1 570.94 418.17)"  >
<path style="stroke: none; stroke-width: 1; stroke-dasharray: none; stroke-linecap: butt; stroke-dashoffset: 0; stroke-linejoin: miter; stroke-miterlimit: 4; fill: rgb(0,146,243); fill-rule: nonzero; opacity: 1;" vector-effect="non-scaling-stroke"  transform=" translate(-199.44, -47.17)" d="M 207.948868 15.648 C 206.639282 15.886152 205.18042 15.807688 202.990738 15.689915 C 202.990738 38.64082 202.990738 61.323444 202.983337 84.466881 C 199.53624 83.015289 196.096573 81.10289 192.243973 78.674957 C 191.554291 76.02459 191.044754 73.890564 191.037323 71.754784 C 190.973526 53.427559 191.085663 35.09927 190.924515 16.773235 C 190.894363 13.342578 191.796463 11.04731 195.057877 9.867132 C 199.305115 11.688548 203.552353 13.509965 207.948868 15.648 z" stroke-linecap="round" />
</g>
<g transform="matrix(1 0 0 1 558.35 413.87)"  >
<path style="stroke: none; stroke-width: 1; stroke-dasharray: none; stroke-linecap: butt; stroke-dashoffset: 0; stroke-linejoin: miter; stroke-miterlimit: 4; fill: rgb(0,156,248); fill-rule: nonzero; opacity: 1;" vector-effect="non-scaling-stroke"  transform=" translate(-186.85, -42.87)" d="M 194.76947 9.645584 C 191.796463 11.04731 190.894363 13.342578 190.924515 16.773235 C 191.085663 35.09927 190.973526 53.427559 191.037323 71.754784 C 191.044754 73.890564 191.554291 76.02459 191.910843 78.56649 C 188.54007 77.966484 185.089493 76.959412 181.269501 75.807724 C 180.266708 69.815826 179.189377 63.976311 179.086945 58.119747 C 178.826004 43.199814 178.908508 28.271017 179.110931 13.349257 C 179.137894 11.361566 180.656769 9.39411 181.764893 7.16449 C 183.132797 7.261546 184.22052 7.611394 185.841125 8.15902 C 186.916229 8.233506 187.458466 8.110214 188.000717 7.986924 C 190.160843 8.465962 192.320953 8.944999 194.76947 9.645584 z" stroke-linecap="round" />
</g>
<g transform="matrix(1 0 0 1 516.96 411.78)"  >
<path style="stroke: none; stroke-width: 1; stroke-dasharray: none; stroke-linecap: butt; stroke-dashoffset: 0; stroke-linejoin: miter; stroke-miterlimit: 4; fill: rgb(0,185,244); fill-rule: nonzero; opacity: 1;" vector-effect="non-scaling-stroke"  transform=" translate(-145.46, -40.78)" d="M 137.884796 13.942415 C 142.673264 12.086096 147.461761 10.229776 152.494644 8.658359 C 152.015091 10.315377 150.697861 11.67615 150.671371 13.061604 C 150.564789 18.636303 150.708374 24.228815 151.088928 29.792217 C 151.21022 31.565599 152.35228 33.269161 152.98288 35.380798 C 153.027512 38.484146 153.116531 41.211361 152.799652 43.996777 C 151.596863 45.616192 150.157684 47.158535 150.11116 48.74181 C 149.875 56.777245 150.000046 64.823296 149.99855 72.865623 C 146.632675 72.92321 143.2668 72.980797 139.450195 72.491608 C 138.627899 52.610699 138.256348 33.276554 137.884796 13.942415 z" stroke-linecap="round" />
</g>
<g transform="matrix(1 0 0 1 415.74 522.63)"  >
<path style="stroke: none; stroke-width: 1; stroke-dasharray: none; stroke-linecap: butt; stroke-dashoffset: 0; stroke-linejoin: miter; stroke-miterlimit: 4; fill: rgb(0,187,244); fill-rule: nonzero; opacity: 1;" vector-effect="non-scaling-stroke"  transform=" translate(-44.24, -151.63)" d="M 27.513454 132.108704 C 30.118839 134.067444 32.257389 136.459991 34.781807 138.332306 C 44.560421 145.584885 54.488544 152.635727 64.281219 159.869675 C 65.403328 160.698593 66.024185 162.206055 66.75502 163.870392 C 66.389168 164.534592 66.187607 164.764069 65.681763 165.069901 C 63.534988 166.044373 61.734356 166.979279 59.60675 168.003387 C 57.552399 169.10788 55.82502 170.123154 53.841881 171.146973 C 53.415951 171.167435 53.24577 171.179367 52.999565 170.842255 C 52.302616 169.529343 51.900631 168.24118 51.027103 167.651505 C 41.723511 161.371078 32.345131 155.201431 22.965441 148.651337 C 22.534649 147.498718 22.125725 146.696075 21.716799 145.893448 C 23.55249 141.36348 25.388184 136.833527 27.513454 132.108704 z" stroke-linecap="round" />
</g>
<g transform="matrix(1 0 0 1 504.44 414.4)"  >
<path style="stroke: none; stroke-width: 1; stroke-dasharray: none; stroke-linecap: butt; stroke-dashoffset: 0; stroke-linejoin: miter; stroke-miterlimit: 4; fill: rgb(0,194,239); fill-rule: nonzero; opacity: 1;" vector-effect="non-scaling-stroke"  transform=" translate(-132.94, -43.4)" d="M 137.53009 13.94959 C 138.256348 33.276554 138.627899 52.610699 138.998901 72.404694 C 136.292709 72.921738 133.587051 72.978928 130.300064 72.620407 C 128.812943 70.066032 127.292732 67.974297 127.125084 65.779259 C 126.736176 60.687225 126.902679 55.543026 127.020988 50.424061 C 127.257111 40.20853 127.612114 29.995752 127.918015 19.781839 C 131.003815 17.840149 134.0896 15.898458 137.53009 13.94959 z" stroke-linecap="round" />
</g>
<g transform="matrix(1 0 0 1 650.51 513.34)"  >
<path style="stroke: none; stroke-width: 1; stroke-dasharray: none; stroke-linecap: butt; stroke-dashoffset: 0; stroke-linejoin: miter; stroke-miterlimit: 4; fill: rgb(251,207,5); fill-rule: nonzero; opacity: 1;" vector-effect="non-scaling-stroke"  transform=" translate(-279.01, -142.34)" d="M 256.670654 127.096558 C 263.112701 129.169724 269.38327 131.253159 275.452515 133.813736 C 285.10199 137.884766 294.556671 142.418793 304.218201 146.459427 C 308.226624 148.135834 308.792816 149.902664 305.642609 152.853485 C 303.943878 154.444687 302.265717 156.057785 300.043945 157.587341 C 293.136383 154.741913 286.81839 151.833633 280.377258 149.22998 C 270.413879 145.202591 260.366364 141.383286 250.354538 137.475739 C 252.37265 134.09079 254.390762 130.705826 256.670654 127.096558 z" stroke-linecap="round" />
</g>
<g transform="matrix(1 0 0 1 643.74 521.71)"  >
<path style="stroke: none; stroke-width: 1; stroke-dasharray: none; stroke-linecap: butt; stroke-dashoffset: 0; stroke-linejoin: miter; stroke-miterlimit: 4; fill: rgb(249,196,9); fill-rule: nonzero; opacity: 1;" vector-effect="non-scaling-stroke"  transform=" translate(-272.24, -150.71)" d="M 250.364136 137.485626 C 260.366364 141.383286 270.413879 145.202591 280.377258 149.22998 C 286.81839 151.833633 293.136383 154.741913 299.758972 157.759308 C 297.58371 159.96167 295.159088 161.918365 291.996521 163.934998 C 289.324432 163.539459 287.273834 163.355911 285.474731 162.58522 C 271.863342 156.75441 258.301361 150.808395 244.723938 144.898331 C 245.837891 143.399521 246.951843 141.900696 248.669495 140.124512 C 249.633896 139.068588 249.994614 138.290009 250.355316 137.511414 C 250.355316 137.511414 250.373749 137.495529 250.364136 137.485626 z" stroke-linecap="round" />
</g>
<g transform="matrix(1 0 0 1 589.09 541.99)"  >
<path style="stroke: none; stroke-width: 1; stroke-dasharray: none; stroke-linecap: butt; stroke-dashoffset: 0; stroke-linejoin: miter; stroke-miterlimit: 4; fill: rgb(239,156,23); fill-rule: nonzero; opacity: 1;" vector-effect="non-scaling-stroke"  transform=" translate(-217.59, -170.99)" d="M 186.982254 178.929413 C 186.552597 178.921539 186.122925 178.913666 185.096191 178.916992 C 184.316284 178.931213 184.133453 178.934235 183.950623 178.937256 C 183.763123 178.923859 183.575638 178.910477 183.107315 178.877258 C 183.985657 178.371887 185.104095 177.634842 186.310303 177.439362 C 199.947388 175.229401 212.538849 170.3517 224.634552 163.040695 C 231.56546 166.48378 238.033676 169.632401 244.37735 173.014603 C 247.075211 174.453018 249.51236 176.380417 252.067978 178.085587 C 244.019791 178.362366 235.971588 178.63913 227.452972 178.925217 C 219.296417 178.933838 211.610321 178.933167 202.989716 178.933884 C 197.030884 178.933319 192.006577 178.931366 186.982254 178.929413 z" stroke-linecap="round" />
</g>
<g transform="matrix(1 0 0 1 492.94 417.34)"  >
<path style="stroke: none; stroke-width: 1; stroke-dasharray: none; stroke-linecap: butt; stroke-dashoffset: 0; stroke-linejoin: miter; stroke-miterlimit: 4; fill: rgb(0,202,234); fill-rule: nonzero; opacity: 1;" vector-effect="non-scaling-stroke"  transform=" translate(-121.44, -46.34)" d="M 127.56691 19.839582 C 127.612114 29.995752 127.257111 40.20853 127.020988 50.424061 C 126.902679 55.543026 126.736176 60.687225 127.125084 65.779259 C 127.292732 67.974297 128.812943 70.066032 129.856384 72.534088 C 126.297211 72.921928 122.600365 72.980377 118.362839 72.550888 C 117.54818 69.766624 117.06089 67.472427 117.037704 65.173553 C 116.945496 56.028606 116.951744 46.881828 117.024345 37.736542 C 117.047043 34.87606 116.57843 32.701694 113.019218 32.994598 C 117.751419 28.628843 122.48362 24.263084 127.56691 19.839582 z" stroke-linecap="round" />
</g>
<g transform="matrix(1 0 0 1 636.02 528.91)"  >
<path style="stroke: none; stroke-width: 1; stroke-dasharray: none; stroke-linecap: butt; stroke-dashoffset: 0; stroke-linejoin: miter; stroke-miterlimit: 4; fill: rgb(247,185,13); fill-rule: nonzero; opacity: 1;" vector-effect="non-scaling-stroke"  transform=" translate(-264.52, -157.91)" d="M 244.441101 145.057892 C 258.301361 150.808395 271.863342 156.75441 285.474731 162.58522 C 287.273834 163.355911 289.324432 163.539459 291.664124 164.004944 C 288.297424 166.334152 284.525177 168.653336 280.117493 170.771561 C 265.44577 164.537567 251.409393 158.504547 237.373047 152.471527 C 239.634781 150.053513 241.896515 147.635483 244.441101 145.057892 z" stroke-linecap="round" />
</g>
<g transform="matrix(1 0 0 1 502.83 536.35)"  >
<path style="stroke: none; stroke-width: 1; stroke-dasharray: none; stroke-linecap: butt; stroke-dashoffset: 0; stroke-linejoin: miter; stroke-miterlimit: 4; fill: rgb(1,80,207); fill-rule: nonzero; opacity: 1;" vector-effect="non-scaling-stroke"  transform=" translate(-131.33, -165.35)" d="M 119.538338 159.052002 C 124.027084 159.038055 128.05162 159.051865 132.53894 159.040375 C 137.026138 159.026688 141.050552 159.038284 145.537735 159.026886 C 151.336731 158.99614 156.672943 158.988388 162.927521 158.965012 C 166.549637 158.89856 169.253372 158.847733 171.957123 158.796906 C 172.739578 158.873093 173.522018 158.949265 174.684021 159.102783 C 172.059662 159.684464 168.981262 160.883881 166.06488 160.571396 C 154.191193 159.299118 143.547684 163.332993 132.926468 167.582047 C 129.855743 168.810486 126.971703 170.5056 123.325592 171.907013 C 111.724091 167.528137 101.974052 159.713715 89.279846 160.670059 C 88.867432 160.701141 88.416451 160.220352 87.983452 159.978149 C 89.097183 159.72081 90.210915 159.46347 91.666992 159.16452 C 96.364861 159.114487 100.72039 159.106033 105.540108 159.06662 C 110.360909 159.050354 114.717514 159.065079 119.538338 159.052002 z" stroke-linecap="round" />
</g>
<g transform="matrix(1 0 0 1 407.16 534.02)"  >
<path style="stroke: none; stroke-width: 1; stroke-dasharray: none; stroke-linecap: butt; stroke-dashoffset: 0; stroke-linejoin: miter; stroke-miterlimit: 4; fill: rgb(0,194,239); fill-rule: nonzero; opacity: 1;" vector-effect="non-scaling-stroke"  transform=" translate(-35.66, -163.02)" d="M 22.987309 149.001328 C 32.345131 155.201431 41.723511 161.371078 51.027103 167.651505 C 51.900631 168.24118 52.302616 169.529343 52.793648 171.089096 C 50.434486 173.454834 48.205215 175.22467 45.767677 177.013901 C 45.559414 177.033279 45.141483 177.051437 44.764946 177.018616 C 42.026646 175.594971 39.554329 174.360428 37.324612 172.782974 C 31.482941 168.650177 26.318914 163.2854 18.518942 162.890106 C 18.596012 161.839981 18.673082 160.789871 19.226345 159.224976 C 20.797462 155.473907 21.892385 152.23761 22.987309 149.001328 z" stroke-linecap="round" />
</g>
<g transform="matrix(1 0 0 1 427.96 578.45)"  >
<path style="stroke: none; stroke-width: 1; stroke-dasharray: none; stroke-linecap: butt; stroke-dashoffset: 0; stroke-linejoin: miter; stroke-miterlimit: 4; fill: rgb(0,169,254); fill-rule: nonzero; opacity: 1;" vector-effect="non-scaling-stroke"  transform=" translate(-56.46, -207.45)" d="M 84.778511 214.005768 C 83.739182 216.592499 82.699852 219.17926 81.16011 221.770523 C 63.107372 214.185745 45.555038 206.596481 28.138105 198.698776 C 29.496655 196.562103 30.719801 194.733856 32.222336 193.135223 C 43.688774 198.087112 54.821335 202.944809 66.084656 207.4776 C 72.201065 209.939087 78.53997 211.847748 84.778511 214.005768 z" stroke-linecap="round" />
</g>
<g transform="matrix(1 0 0 1 626.35 535.09)"  >
<path style="stroke: none; stroke-width: 1; stroke-dasharray: none; stroke-linecap: butt; stroke-dashoffset: 0; stroke-linejoin: miter; stroke-miterlimit: 4; fill: rgb(245,174,17); fill-rule: nonzero; opacity: 1;" vector-effect="non-scaling-stroke"  transform=" translate(-254.85, -164.09)" d="M 237.362671 152.480225 C 251.409393 158.504547 265.44577 164.537567 279.753204 170.796753 C 275.61972 172.691971 271.215118 174.361023 266.303589 175.697586 C 264.458099 174.496048 263.20874 173.424103 261.766815 172.790359 C 251.179825 168.137344 240.554291 163.572052 229.940903 158.979095 C 232.087646 157.069489 234.23439 155.159866 236.804749 153.172455 C 237.228348 153.094666 237.458206 152.875854 237.458206 152.875854 C 237.458206 152.875854 237.344788 152.514923 237.344788 152.514923 C 237.344788 152.514923 237.352325 152.488907 237.362671 152.480225 z" stroke-linecap="round" />
</g>
<g transform="matrix(1 0 0 1 425.03 583.86)"  >
<path style="stroke: none; stroke-width: 1; stroke-dasharray: none; stroke-linecap: butt; stroke-dashoffset: 0; stroke-linejoin: miter; stroke-miterlimit: 4; fill: rgb(0,176,249); fill-rule: nonzero; opacity: 1;" vector-effect="non-scaling-stroke"  transform=" translate(-53.53, -212.86)" d="M 28.002708 199.007202 C 45.555038 206.596481 63.107372 214.185745 80.922043 222.036591 C 80.817657 223.65654 80.450935 225.014938 79.53093 226.684875 C 77.516205 226.748657 75.943489 226.766754 74.611664 226.209305 C 66.954041 223.00415 59.471302 219.345306 51.699165 216.460144 C 44.489059 213.783615 38.119686 208.446701 29.778967 209.155411 C 29.778967 209.155411 29.865108 209.131592 29.875357 208.851746 C 29.229725 207.774521 28.573845 206.977173 27.917965 206.17981 C 27.260092 205.035721 26.602219 203.891632 26.145971 202.180405 C 26.899302 200.744583 27.451008 199.8759 28.002708 199.007202 z" stroke-linecap="round" />
</g>
<g transform="matrix(1 0 0 1 444.04 555.02)"  >
<path style="stroke: none; stroke-width: 1; stroke-dasharray: none; stroke-linecap: butt; stroke-dashoffset: 0; stroke-linejoin: miter; stroke-miterlimit: 4; fill: rgb(0,129,235); fill-rule: nonzero; opacity: 1;" vector-effect="non-scaling-stroke"  transform=" translate(-72.54, -184.02)" d="M 45.975941 176.994522 C 48.205215 175.22467 50.434486 173.454834 52.869675 171.438141 C 53.24577 171.179367 53.415951 171.167435 54.080956 171.372589 C 60.726128 174.452438 66.870827 177.327408 73.028175 180.175003 C 81.714508 184.192154 90.410233 188.189041 99.101944 192.19458 C 97.966476 193.683487 96.831009 195.172379 95.04068 196.805206 C 87.244812 193.959976 80.117645 190.937195 72.959343 187.990082 C 63.978226 184.292465 54.971573 180.656876 45.975941 176.994522 z" stroke-linecap="round" />
</g>
<g transform="matrix(1 0 0 1 426.12 592.51)"  >
<path style="stroke: none; stroke-width: 1; stroke-dasharray: none; stroke-linecap: butt; stroke-dashoffset: 0; stroke-linejoin: miter; stroke-miterlimit: 4; fill: rgb(0,185,244); fill-rule: nonzero; opacity: 1;" vector-effect="non-scaling-stroke"  transform=" translate(-54.62, -221.51)" d="M 29.864532 209.481201 C 38.119686 208.446701 44.489059 213.783615 51.699165 216.460144 C 59.471302 219.345306 66.954041 223.00415 74.611664 226.209305 C 75.943489 226.766754 77.516205 226.748657 79.367004 226.998932 C 79.227852 229.11618 78.699356 231.230911 77.629646 233.666779 C 75.511238 233.561218 73.864555 233.301819 72.368309 232.680283 C 63.687668 229.074371 55.099022 225.238327 46.34639 221.820404 C 44.089111 220.93895 41.354095 221.280884 38.838539 221.060822 C 37.977585 220.193542 37.116627 219.326263 36.048229 217.888245 C 35.420277 216.918167 34.999767 216.518799 34.579258 216.119431 C 33.036209 214.015289 31.493155 211.911148 29.864532 209.481201 z" stroke-linecap="round" />
</g>
<g transform="matrix(1 0 0 1 483.89 424)"  >
<path style="stroke: none; stroke-width: 1; stroke-dasharray: none; stroke-linecap: butt; stroke-dashoffset: 0; stroke-linejoin: miter; stroke-miterlimit: 4; fill: rgb(0,211,231); fill-rule: nonzero; opacity: 1;" vector-effect="non-scaling-stroke"  transform=" translate(-112.39, -53)" d="M 112.838028 33.234337 C 116.57843 32.701694 117.047043 34.87606 117.024345 37.736542 C 116.951744 46.881828 116.945496 56.028606 117.037704 65.173553 C 117.06089 67.472427 117.54818 69.766624 117.909164 72.462677 C 116.276512 72.919411 114.55687 72.976425 112.264816 72.622063 C 107.713173 70.872108 106.685493 68.16256 106.88652 64.030548 C 107.245819 56.645287 106.9105 49.226223 106.86557 41.821293 C 106.86557 41.821293 106.896873 41.894073 107.196335 41.809959 C 107.948959 40.755207 108.402138 39.784576 108.855316 38.813946 C 108.855316 38.813946 108.89006 38.890877 109.184097 38.8097 C 109.974045 37.79129 110.469971 36.854065 110.965889 35.91684 C 111.529541 35.102585 112.093193 34.28833 112.838028 33.234337 z" stroke-linecap="round" />
</g>
<g transform="matrix(1 0 0 1 439.44 560.97)"  >
<path style="stroke: none; stroke-width: 1; stroke-dasharray: none; stroke-linecap: butt; stroke-dashoffset: 0; stroke-linejoin: miter; stroke-miterlimit: 4; fill: rgb(0,140,240); fill-rule: nonzero; opacity: 1;" vector-effect="non-scaling-stroke"  transform=" translate(-67.94, -189.97)" d="M 45.767677 177.013901 C 54.971573 180.656876 63.978226 184.292465 72.959343 187.990082 C 80.117645 190.937195 87.244812 193.959976 94.773178 196.967026 C 93.905128 198.843628 92.649704 200.702377 90.828537 202.781677 C 89.842293 202.998779 89.421776 202.995331 88.807518 202.706024 C 81.137009 198.979553 73.730446 195.374634 66.164665 192.142395 C 57.8326 188.582809 49.354229 185.365677 41.107857 181.721954 C 42.564575 179.980194 43.853031 178.515808 45.141483 177.051437 C 45.141483 177.051437 45.559414 177.033279 45.767677 177.013901 z" stroke-linecap="round" />
</g>
<g transform="matrix(1 0 0 1 451.04 551.11)"  >
<path style="stroke: none; stroke-width: 1; stroke-dasharray: none; stroke-linecap: butt; stroke-dashoffset: 0; stroke-linejoin: miter; stroke-miterlimit: 4; fill: rgb(0,120,230); fill-rule: nonzero; opacity: 1;" vector-effect="non-scaling-stroke"  transform=" translate(-79.54, -180.11)" d="M 99.394852 192.022888 C 90.410233 188.189041 81.714508 184.192154 73.028175 180.175003 C 66.870827 177.327408 60.726128 174.452438 54.336712 171.364044 C 55.82502 170.123154 57.552399 169.10788 59.851685 168.194763 C 62.757862 168.935791 65.199371 169.321091 67.408653 170.255463 C 79.882324 175.53093 92.30027 180.938187 104.737198 186.300537 C 103.054054 188.150742 101.370911 190.000961 99.394852 192.022888 z" stroke-linecap="round" />
</g>
<g transform="matrix(1 0 0 1 431.29 571.89)"  >
<path style="stroke: none; stroke-width: 1; stroke-dasharray: none; stroke-linecap: butt; stroke-dashoffset: 0; stroke-linejoin: miter; stroke-miterlimit: 4; fill: rgb(0,159,250); fill-rule: nonzero; opacity: 1;" vector-effect="non-scaling-stroke"  transform=" translate(-59.79, -200.89)" d="M 84.992249 213.725494 C 78.53997 211.847748 72.201065 209.939087 66.084656 207.4776 C 54.821335 202.944809 43.688774 198.087112 32.294174 192.817795 C 33.055389 190.845581 34.024147 189.420395 35.349091 188.06308 C 45.14465 192.256775 54.509827 196.564682 64.046844 200.450882 C 71.687981 203.564545 79.537781 206.166107 87.294983 208.994934 C 86.598648 210.478363 85.902321 211.961777 84.992249 213.725494 z" stroke-linecap="round" />
</g>
<g transform="matrix(1 0 0 1 429.73 603.32)"  >
<path style="stroke: none; stroke-width: 1; stroke-dasharray: none; stroke-linecap: butt; stroke-dashoffset: 0; stroke-linejoin: miter; stroke-miterlimit: 4; fill: rgb(0,194,239); fill-rule: nonzero; opacity: 1;" vector-effect="non-scaling-stroke"  transform=" translate(-58.23, -232.32)" d="M 38.980015 221.368988 C 41.354095 221.280884 44.089111 220.93895 46.34639 221.820404 C 55.099022 225.238327 63.687668 229.074371 72.368309 232.680283 C 73.864555 233.301819 75.511238 233.561218 77.473984 233.995255 C 77.423096 236.927338 76.986664 239.852066 76.455116 243.414139 C 61.577347 239.77269 49.381626 232.43222 38.980015 221.368988 z" stroke-linecap="round" />
</g>
<g transform="matrix(1 0 0 1 528.01 429.71)"  >
<path style="stroke: none; stroke-width: 1; stroke-dasharray: none; stroke-linecap: butt; stroke-dashoffset: 0; stroke-linejoin: miter; stroke-miterlimit: 4; fill: rgb(0,176,249); fill-rule: nonzero; opacity: 1;" vector-effect="non-scaling-stroke"  transform=" translate(-156.51, -58.71)" d="M 150.448975 72.952042 C 150.000046 64.823296 149.875 56.777245 150.11116 48.74181 C 150.157684 47.158535 151.596863 45.616192 153.055588 44.202583 C 156.821411 45.959827 159.92543 47.569466 163.029434 49.179104 C 162.997421 56.82888 162.965408 64.478661 162.958069 72.544533 C 162.793747 72.982338 162.604752 73.004036 161.902557 73.047318 C 161.389374 73.068901 160.955017 73.222061 160.955017 73.222061 C 157.603134 73.160858 154.251266 73.099663 150.448975 72.952042 z" stroke-linecap="round" />
</g>
<g transform="matrix(1 0 0 1 462.5 542.07)"  >
<path style="stroke: none; stroke-width: 1; stroke-dasharray: none; stroke-linecap: butt; stroke-dashoffset: 0; stroke-linejoin: miter; stroke-miterlimit: 4; fill: rgb(0,101,220); fill-rule: nonzero; opacity: 1;" vector-effect="non-scaling-stroke"  transform=" translate(-91, -171.07)" d="M 66.027893 165.030319 C 66.187607 164.764069 66.389168 164.534592 66.822243 164.212433 C 71.382706 163.029587 75.753517 161.976196 80.795761 161.154297 C 85.89785 163.285995 90.362015 165.11235 94.751534 167.103256 C 101.848549 170.322159 108.8965 173.649231 115.965179 176.930603 C 114.324837 178.24884 112.684486 179.567062 110.333862 180.975708 C 108.062492 180.597839 106.46492 180.225235 104.946022 179.64621 C 91.997345 174.710022 80.226562 166.641663 66.027893 165.030319 z" stroke-linecap="round" />
</g>
<g transform="matrix(1 0 0 1 403.01 544.65)"  >
<path style="stroke: none; stroke-width: 1; stroke-dasharray: none; stroke-linecap: butt; stroke-dashoffset: 0; stroke-linejoin: miter; stroke-miterlimit: 4; fill: rgb(0,200,234); fill-rule: nonzero; opacity: 1;" vector-effect="non-scaling-stroke"  transform=" translate(-31.51, -173.65)" d="M 44.764946 177.018616 C 43.853031 178.515808 42.564575 179.980194 40.894424 181.921082 C 39.700672 182.93515 38.888611 183.472672 37.712837 184.025238 C 30.911871 184.925629 20.746946 176.80838 19.922646 170.283081 C 19.778469 169.141754 18.829811 168.102036 18.252699 167.015396 C 18.257048 165.85701 18.261396 164.698608 18.392344 163.215164 C 26.318914 163.2854 31.482941 168.650177 37.324612 172.782974 C 39.554329 174.360428 42.026646 175.594971 44.764946 177.018616 z" stroke-linecap="round" />
</g>
<g transform="matrix(1 0 0 1 456.61 546.61)"  >
<path style="stroke: none; stroke-width: 1; stroke-dasharray: none; stroke-linecap: butt; stroke-dashoffset: 0; stroke-linejoin: miter; stroke-miterlimit: 4; fill: rgb(0,112,226); fill-rule: nonzero; opacity: 1;" vector-effect="non-scaling-stroke"  transform=" translate(-85.11, -175.61)" d="M 65.681763 165.069901 C 80.226562 166.641663 91.997345 174.710022 104.946022 179.64621 C 106.46492 180.225235 108.062492 180.597839 110.044868 181.09668 C 108.732971 182.749924 106.999794 184.372589 105.001907 186.147903 C 92.30027 180.938187 79.882324 175.53093 67.408653 170.255463 C 65.199371 169.321091 62.757862 168.935791 60.178658 168.10556 C 61.734356 166.979279 63.534988 166.044373 65.681763 165.069901 z" stroke-linecap="round" />
</g>
<g transform="matrix(1 0 0 1 530.14 391.61)"  >
<path style="stroke: none; stroke-width: 1; stroke-dasharray: none; stroke-linecap: butt; stroke-dashoffset: 0; stroke-linejoin: miter; stroke-miterlimit: 4; fill: rgb(0,176,249); fill-rule: nonzero; opacity: 1;" vector-effect="non-scaling-stroke"  transform=" translate(-158.64, -20.61)" d="M 153.027267 35.004669 C 152.35228 33.269161 151.21022 31.565599 151.088928 29.792217 C 150.708374 24.228815 150.564789 18.636303 150.671371 13.061604 C 150.697861 11.67615 152.015091 10.315377 152.862335 8.648745 C 157.384048 7.622224 161.782501 6.890221 166.647095 6.216597 C 163.409897 8.230869 162.648117 11.382201 162.928497 15.328392 C 163.245117 19.784525 163.012589 24.27968 162.673645 29.33699 C 159.228012 31.612301 156.12764 33.308483 153.027267 35.004669 z" stroke-linecap="round" />
</g>
<g transform="matrix(1 0 0 1 616.93 539.55)"  >
<path style="stroke: none; stroke-width: 1; stroke-dasharray: none; stroke-linecap: butt; stroke-dashoffset: 0; stroke-linejoin: miter; stroke-miterlimit: 4; fill: rgb(243,167,20); fill-rule: nonzero; opacity: 1;" vector-effect="non-scaling-stroke"  transform=" translate(-245.43, -168.55)" d="M 229.714462 159.019257 C 240.554291 163.572052 251.179825 168.137344 261.766815 172.790359 C 263.20874 173.424103 264.458099 174.496048 265.904541 175.700089 C 261.65802 176.719254 257.303589 177.403427 252.50856 178.086594 C 249.51236 176.380417 247.075211 174.453018 244.37735 173.014603 C 238.033676 169.632401 231.56546 166.48378 224.965103 162.913742 C 224.910599 162.296478 225.125336 162.101715 226.006073 161.957977 C 227.358856 161.186707 228.132324 160.459991 228.905777 159.733261 C 228.983368 159.40799 229.177444 159.18338 229.714462 159.019257 z" stroke-linecap="round" />
</g>
<g transform="matrix(1 0 0 1 399.53 555.65)"  >
<path style="stroke: none; stroke-width: 1; stroke-dasharray: none; stroke-linecap: butt; stroke-dashoffset: 0; stroke-linejoin: miter; stroke-miterlimit: 4; fill: rgb(0,211,231); fill-rule: nonzero; opacity: 1;" vector-effect="non-scaling-stroke"  transform=" translate(-28.03, -184.65)" d="M 18.172575 167.465576 C 18.829811 168.102036 19.778469 169.141754 19.922646 170.283081 C 20.746946 176.80838 30.911871 184.925629 37.674644 184.265961 C 38.000156 184.491653 37.929504 184.973892 37.670334 185.133087 C 36.605072 186.193268 35.798985 187.094238 34.992901 187.995209 C 34.024147 189.420395 33.055389 190.845581 32.01479 192.588196 C 30.719801 194.733856 29.496655 196.562103 28.138111 198.698776 C 27.451008 199.8759 26.899302 200.744583 26.132469 201.838135 C 20.188931 191.395554 18.139597 179.885056 18.172575 167.465576 z" stroke-linecap="round" />
</g>
<g transform="matrix(1 0 0 1 473.59 539.39)"  >
<path style="stroke: none; stroke-width: 1; stroke-dasharray: none; stroke-linecap: butt; stroke-dashoffset: 0; stroke-linejoin: miter; stroke-miterlimit: 4; fill: rgb(0,90,215); fill-rule: nonzero; opacity: 1;" vector-effect="non-scaling-stroke"  transform=" translate(-102.09, -168.39)" d="M 116.281265 176.817017 C 108.8965 173.649231 101.848549 170.322159 94.751534 167.103256 C 90.362015 165.11235 85.89785 163.285995 81.199005 161.149414 C 83.008781 160.587021 85.086739 160.261017 87.574074 159.956573 C 88.416451 160.220352 88.867432 160.701141 89.279846 160.670059 C 101.974052 159.713715 111.724091 167.528137 122.989296 171.987991 C 121.085449 173.666962 118.841408 175.185196 116.281265 176.817017 z" stroke-linecap="round" />
</g>
<g transform="matrix(1 0 0 1 434.46 567.98)"  >
<path style="stroke: none; stroke-width: 1; stroke-dasharray: none; stroke-linecap: butt; stroke-dashoffset: 0; stroke-linejoin: miter; stroke-miterlimit: 4; fill: rgb(0,149,246); fill-rule: nonzero; opacity: 1;" vector-effect="non-scaling-stroke"  transform=" translate(-62.96, -196.98)" d="M 35.349091 188.06308 C 35.798985 187.094238 36.605072 186.193268 38.049664 185.162155 C 53.133652 191.191666 67.584709 197.338318 82.019257 203.523514 C 84.480759 204.578262 86.896545 206.132828 89.001266 202.991882 C 89.421776 202.995331 89.842293 202.998779 90.578217 203.002991 C 89.85463 204.864487 88.81562 206.725266 87.535797 208.790482 C 79.537781 206.166107 71.687981 203.564545 64.046844 200.450882 C 54.509827 196.564682 45.14465 192.256775 35.349091 188.06308 z" stroke-linecap="round" />
</g>
<g transform="matrix(1 0 0 1 475.24 428.45)"  >
<path style="stroke: none; stroke-width: 1; stroke-dasharray: none; stroke-linecap: butt; stroke-dashoffset: 0; stroke-linejoin: miter; stroke-miterlimit: 4; fill: rgb(1,217,226); fill-rule: nonzero; opacity: 1;" vector-effect="non-scaling-stroke"  transform=" translate(-103.74, -57.45)" d="M 106.593048 42.033051 C 106.9105 49.226223 107.245819 56.645287 106.88652 64.030548 C 106.685493 68.16256 107.713173 70.872108 111.842316 72.535095 C 106.714821 72.859512 101.437416 72.859512 95.645493 72.859512 C 96.785706 61.631733 100.51487 51.592045 106.593048 42.033051 z" stroke-linecap="round" />
</g>
<g transform="matrix(1 0 0 1 585.41 633.83)"  >
<path style="stroke: none; stroke-width: 1; stroke-dasharray: none; stroke-linecap: butt; stroke-dashoffset: 0; stroke-linejoin: miter; stroke-miterlimit: 4; fill: rgb(15,18,37); fill-rule: nonzero; opacity: 1;" vector-effect="non-scaling-stroke"  transform=" translate(-213.91, -262.83)" d="M 181.064026 263.250061 C 181.203873 262.475098 181.395233 261.949799 181.740417 261.188538 C 184.173904 261.634918 186.448105 262.887146 188.734039 262.908936 C 206.11731 263.074677 223.503006 262.969269 240.887543 263.043884 C 242.778214 263.052002 244.66629 263.66687 246.760864 264.309937 C 225.136917 264.570496 203.307663 264.521393 181.249924 264.236572 C 181.052811 263.833801 181.084167 263.666748 181.064026 263.250061 z" stroke-linecap="round" />
</g>
<g transform="matrix(1 0 0 1 483.85 464.16)"  >
<path style="stroke: none; stroke-width: 1; stroke-dasharray: none; stroke-linecap: butt; stroke-dashoffset: 0; stroke-linejoin: miter; stroke-miterlimit: 4; fill: rgb(0,149,246); fill-rule: nonzero; opacity: 1;" vector-effect="non-scaling-stroke"  transform=" translate(-112.35, -93.16)" d="M 107.007744 94.010834 C 103.141106 93.678673 99.27446 93.346512 95.210052 92.703552 C 106.351372 92.341263 117.69046 92.289772 129.488403 92.313721 C 129.476273 92.889168 129.005264 93.389175 127.800758 93.944138 C 120.380745 94.003006 113.694244 94.00692 107.007744 94.010834 z" stroke-linecap="round" />
</g>
<g transform="matrix(1 0 0 1 696.3 540.11)"  >
<path style="stroke: none; stroke-width: 1; stroke-dasharray: none; stroke-linecap: butt; stroke-dashoffset: 0; stroke-linejoin: miter; stroke-miterlimit: 4; fill: rgb(15,18,37); fill-rule: nonzero; opacity: 1;" vector-effect="non-scaling-stroke"  transform=" translate(-324.8, -169.11)" d="M 324.582397 180.785828 C 324.221069 173.3022 324.186157 165.627396 324.207153 157.487991 C 324.657776 157.313339 325.400818 157.608612 325.396515 157.892456 C 325.280853 165.460571 325.088287 173.027527 324.582397 180.785828 z" stroke-linecap="round" />
</g>
<g transform="matrix(1 0 0 1 392.67 523.5)"  >
<path style="stroke: none; stroke-width: 1; stroke-dasharray: none; stroke-linecap: butt; stroke-dashoffset: 0; stroke-linejoin: miter; stroke-miterlimit: 4; fill: rgb(0,200,234); fill-rule: nonzero; opacity: 1;" vector-effect="non-scaling-stroke"  transform=" translate(-21.17, -152.5)" d="M 22.965443 148.651337 C 21.892385 152.23761 20.797462 155.473907 19.369059 158.854004 C 19.741108 154.7995 20.446636 150.601196 21.434483 146.148163 C 22.125725 146.696075 22.534649 147.498718 22.965443 148.651337 z" stroke-linecap="round" />
</g>
<g transform="matrix(1 0 0 1 518.44 554.07)"  >
<path style="stroke: none; stroke-width: 1; stroke-dasharray: none; stroke-linecap: butt; stroke-dashoffset: 0; stroke-linejoin: miter; stroke-miterlimit: 4; fill: rgb(246,190,11); fill-rule: nonzero; opacity: 1;" vector-effect="non-scaling-stroke"  transform=" translate(-146.94, -183.07)" d="M 149.644882 182.011871 C 148.161682 182.832977 146.322632 183.568497 144.228516 184.119171 C 145.7453 183.264969 147.517181 182.595627 149.644882 182.011871 z" stroke-linecap="round" />
</g>
<g transform="matrix(1 0 0 1 547.26 550.54)"  >
<path style="stroke: none; stroke-width: 1; stroke-dasharray: none; stroke-linecap: butt; stroke-dashoffset: 0; stroke-linejoin: miter; stroke-miterlimit: 4; fill: rgb(251,203,7); fill-rule: nonzero; opacity: 1;" vector-effect="non-scaling-stroke"  transform=" translate(-175.76, -179.54)" d="M 180.533295 179.067398 C 177.948456 179.419464 174.913956 179.711594 171.435883 180.005829 C 170.99231 180.007935 170.993149 179.588104 170.99675 179.378235 C 174.028107 179.114731 177.055862 179.061096 180.533295 179.067398 z" stroke-linecap="round" />
</g>
<g transform="matrix(1 0 0 1 531.32 452.98)"  >
<path style="stroke: none; stroke-width: 1; stroke-dasharray: none; stroke-linecap: butt; stroke-dashoffset: 0; stroke-linejoin: miter; stroke-miterlimit: 4; fill: rgb(0,120,230); fill-rule: nonzero; opacity: 1;" vector-effect="non-scaling-stroke"  transform=" translate(-159.82, -81.98)" d="M 160.489288 80.086723 C 160.322723 81.191414 159.896744 82.498215 159.149429 83.872467 C 159.29538 82.722885 159.762634 81.505859 160.489288 80.086723 z" stroke-linecap="round" />
</g>
<g transform="matrix(1 0 0 1 400.43 578.68)"  >
<path style="stroke: none; stroke-width: 1; stroke-dasharray: none; stroke-linecap: butt; stroke-dashoffset: 0; stroke-linejoin: miter; stroke-miterlimit: 4; fill: rgb(0,185,244); fill-rule: nonzero; opacity: 1;" vector-effect="non-scaling-stroke"  transform=" translate(-28.93, -207.68)" d="M 27.999287 206.473267 C 28.573845 206.977173 29.229725 207.774521 29.85726 208.892609 C 29.246143 208.397781 28.663374 207.58226 27.999287 206.473267 z" stroke-linecap="round" />
</g>
<g transform="matrix(1 0 0 1 598.92 531.89)"  >
<path style="stroke: none; stroke-width: 1; stroke-dasharray: none; stroke-linecap: butt; stroke-dashoffset: 0; stroke-linejoin: miter; stroke-miterlimit: 4; fill: rgb(245,174,17); fill-rule: nonzero; opacity: 1;" vector-effect="non-scaling-stroke"  transform=" translate(-227.42, -160.89)" d="M 228.605743 159.84079 C 228.132324 160.459991 227.358856 161.186707 226.227402 161.933228 C 226.681503 161.28479 227.493591 160.616562 228.605743 159.84079 z" stroke-linecap="round" />
</g>
<g transform="matrix(1 0 0 1 481.42 408.44)"  >
<path style="stroke: none; stroke-width: 1; stroke-dasharray: none; stroke-linecap: butt; stroke-dashoffset: 0; stroke-linejoin: miter; stroke-miterlimit: 4; fill: rgb(1,217,226); fill-rule: nonzero; opacity: 1;" vector-effect="non-scaling-stroke"  transform=" translate(-109.92, -37.44)" d="M 110.703514 36.08445 C 110.469971 36.854065 109.974045 37.79129 109.142792 38.801025 C 109.352013 37.99971 109.896576 37.125889 110.703514 36.08445 z" stroke-linecap="round" />
</g>
<g transform="matrix(1 0 0 1 479.38 411.4)"  >
<path style="stroke: none; stroke-width: 1; stroke-dasharray: none; stroke-linecap: butt; stroke-dashoffset: 0; stroke-linejoin: miter; stroke-miterlimit: 4; fill: rgb(1,217,226); fill-rule: nonzero; opacity: 1;" vector-effect="non-scaling-stroke"  transform=" translate(-107.88, -40.4)" d="M 108.593544 38.988533 C 108.402138 39.784576 107.948959 40.755207 107.156883 41.80629 C 107.322578 40.978863 107.827179 40.070992 108.593544 38.988533 z" stroke-linecap="round" />
</g>
<g transform="matrix(1 0 0 1 562.18 619.07)"  >
<path style="stroke: none; stroke-width: 1; stroke-dasharray: none; stroke-linecap: butt; stroke-dashoffset: 0; stroke-linejoin: miter; stroke-miterlimit: 4; fill: rgb(246,190,11); fill-rule: nonzero; opacity: 1;" vector-effect="non-scaling-stroke"  transform=" translate(-190.68, -248.07)" d="M 189.357147 249.028351 C 189.907486 248.447693 190.775192 247.78215 192.012695 247.117981 C 191.479843 247.727417 190.577179 248.335434 189.357147 249.028351 z" stroke-linecap="round" />
</g>
<g transform="matrix(1 0 0 1 493.58 684.96)"  >
<path style="stroke: none; stroke-width: 1; stroke-dasharray: none; stroke-linecap: butt; stroke-dashoffset: 0; stroke-linejoin: miter; stroke-miterlimit: 4; fill: rgb(250,197,9); fill-rule: nonzero; opacity: 1;" vector-effect="non-scaling-stroke"  transform=" translate(-122.08, -313.96)" d="M 121.301804 313.842987 C 121.616272 313.727509 122.224983 313.768005 122.859482 314.071289 C 122.455528 314.222351 122.025795 314.110657 121.301804 313.842987 z" stroke-linecap="round" />
</g>
<g transform="matrix(1 0 0 1 502.44 561.54)"  >
<path style="stroke: none; stroke-width: 1; stroke-dasharray: none; stroke-linecap: butt; stroke-dashoffset: 0; stroke-linejoin: miter; stroke-miterlimit: 4; fill: rgb(246,183,14); fill-rule: nonzero; opacity: 1;" vector-effect="non-scaling-stroke"  transform=" translate(-130.94, -190.54)" d="M 131.653976 189.893036 C 131.441727 190.328262 130.942368 190.826736 130.231598 191.187271 C 130.46907 190.684982 130.917969 190.320633 131.653976 189.893036 z" stroke-linecap="round" />
</g>
<g transform="matrix(1 0 0 1 558.51 379.03)"  >
<path style="stroke: none; stroke-width: 1; stroke-dasharray: none; stroke-linecap: butt; stroke-dashoffset: 0; stroke-linejoin: miter; stroke-miterlimit: 4; fill: rgb(0,165,251); fill-rule: nonzero; opacity: 1;" vector-effect="non-scaling-stroke"  transform=" translate(-187.01, -8.03)" d="M 187.823853 7.857208 C 187.458466 8.110214 186.916229 8.233506 186.197296 8.20343 C 186.562729 7.942539 187.104858 7.835017 187.823853 7.857208 z" stroke-linecap="round" />
</g>
<g transform="matrix(1 0 0 1 621.03 509.84)"  >
<path style="stroke: none; stroke-width: 1; stroke-dasharray: none; stroke-linecap: butt; stroke-dashoffset: 0; stroke-linejoin: miter; stroke-miterlimit: 4; fill: rgb(251,207,5); fill-rule: nonzero; opacity: 1;" vector-effect="non-scaling-stroke"  transform=" translate(-249.53, -138.84)" d="M 250.138123 137.735626 C 249.994614 138.290009 249.633896 139.068588 248.919525 139.952637 C 249.017548 139.358658 249.469223 138.659241 250.138123 137.735626 z" stroke-linecap="round" />
</g>
<g transform="matrix(1 0 0 1 558.43 621.9)"  >
<path style="stroke: none; stroke-width: 1; stroke-dasharray: none; stroke-linecap: butt; stroke-dashoffset: 0; stroke-linejoin: miter; stroke-miterlimit: 4; fill: rgb(246,190,11); fill-rule: nonzero; opacity: 1;" vector-effect="non-scaling-stroke"  transform=" translate(-186.93, -250.9)" d="M 186.207748 251.733444 C 186.429199 251.285614 186.900833 250.717331 187.649506 250.062958 C 187.437012 250.522247 186.947464 251.067627 186.207748 251.733444 z" stroke-linecap="round" />
</g>
<g transform="matrix(1 0 0 1 556.13 624.5)"  >
<path style="stroke: none; stroke-width: 1; stroke-dasharray: none; stroke-linecap: butt; stroke-dashoffset: 0; stroke-linejoin: miter; stroke-miterlimit: 4; fill: rgb(246,190,11); fill-rule: nonzero; opacity: 1;" vector-effect="non-scaling-stroke"  transform=" translate(-184.63, -253.5)" d="M 184.412216 253.970276 C 184.33577 253.740936 184.469711 253.400177 184.791321 253.026733 C 184.970764 253.327866 184.851974 253.61615 184.412216 253.970276 z" stroke-linecap="round" />
</g>
<g transform="matrix(1 0 0 1 409.66 488.65)"  >
<path style="stroke: none; stroke-width: 1; stroke-dasharray: none; stroke-linecap: butt; stroke-dashoffset: 0; stroke-linejoin: miter; stroke-miterlimit: 4; fill: rgb(0,178,249); fill-rule: nonzero; opacity: 1;" vector-effect="non-scaling-stroke"  transform=" translate(-38.16, -117.65)" d="M 38.657742 116.912697 C 38.603172 117.295517 38.286732 117.807854 37.657509 118.383759 C 37.69511 117.978958 38.04549 117.51059 38.657742 116.912697 z" stroke-linecap="round" />
</g>
<g transform="matrix(1 0 0 1 532.95 444.88)"  >
<path style="stroke: none; stroke-width: 1; stroke-dasharray: none; stroke-linecap: butt; stroke-dashoffset: 0; stroke-linejoin: miter; stroke-miterlimit: 4; fill: rgb(27,64,72); fill-rule: nonzero; opacity: 1;" vector-effect="non-scaling-stroke"  transform=" translate(-161.45, -73.88)" d="M 161.0047 73.464157 C 160.955017 73.222061 161.389374 73.068901 161.619263 73.081604 C 161.885361 73.517982 161.921555 73.941658 161.873871 74.672501 C 161.5448 74.555199 161.299576 74.13073 161.0047 73.464157 z" stroke-linecap="round" />
</g>
<g transform="matrix(1 0 0 1 406.82 587.99)"  >
<path style="stroke: none; stroke-width: 1; stroke-dasharray: none; stroke-linecap: butt; stroke-dashoffset: 0; stroke-linejoin: miter; stroke-miterlimit: 4; fill: rgb(0,194,239); fill-rule: nonzero; opacity: 1;" vector-effect="non-scaling-stroke"  transform=" translate(-35.32, -216.99)" d="M 34.695339 216.389008 C 34.999767 216.518799 35.420277 216.918167 35.940674 217.598419 C 35.630852 217.472397 35.221138 217.065506 34.695339 216.389008 z" stroke-linecap="round" />
</g>
<g transform="matrix(1 0 0 1 608.76 523.82)"  >
<path style="stroke: none; stroke-width: 1; stroke-dasharray: none; stroke-linecap: butt; stroke-dashoffset: 0; stroke-linejoin: miter; stroke-miterlimit: 4; fill: rgb(247,185,13); fill-rule: nonzero; opacity: 1;" vector-effect="non-scaling-stroke"  transform=" translate(-237.26, -152.82)" d="M 237.214966 152.604858 C 237.344788 152.514923 237.458206 152.875854 237.458206 152.875854 C 237.458206 152.875854 237.228348 153.094666 237.111038 153.045898 C 236.993729 152.997116 237.085144 152.694778 237.214966 152.604858 z" stroke-linecap="round" />
</g>
<g transform="matrix(1 0 0 1 480.57 670.24)"  >
<path style="stroke: none; stroke-width: 1; stroke-dasharray: none; stroke-linecap: butt; stroke-dashoffset: 0; stroke-linejoin: miter; stroke-miterlimit: 4; fill: rgb(247,188,12); fill-rule: nonzero; opacity: 1;" vector-effect="non-scaling-stroke"  transform=" translate(-109.07, -299.24)" d="M 108.935928 299.309814 C 108.94809 299.249573 109.208282 299.101257 109.208282 299.101257 C 109.208282 299.101257 109.202316 299.275482 109.117661 299.350952 C 109.032997 299.426392 108.923759 299.370056 108.935928 299.309814 z" stroke-linecap="round" />
</g>
<g transform="matrix(1 0 0 1 593.66 582.47)"  >
<path style="stroke: none; stroke-width: 1; stroke-dasharray: none; stroke-linecap: butt; stroke-dashoffset: 0; stroke-linejoin: miter; stroke-miterlimit: 4; fill: rgb(251,203,7); fill-rule: nonzero; opacity: 1;" vector-effect="non-scaling-stroke"  transform=" translate(-222.16, -211.47)" d="M 187.006714 179.300079 C 192.006577 178.931366 197.030884 178.933319 202.520233 178.94458 C 209.156494 187.968185 214.424362 197.806122 221.713608 205.801086 C 232.281845 217.392548 244.32283 227.639694 255.690292 238.50766 C 256.453735 239.237534 257.462646 241.044312 257.294159 241.200043 C 256.151642 242.256256 254.765076 243.644669 253.379471 243.735367 C 248.245895 244.071381 243.082138 243.946533 237.460724 243.991547 C 233.075897 239.57457 229.48407 234.81282 225.184814 230.81105 C 211.066513 217.669662 199.731094 202.448578 190.339676 185.693054 C 189.219864 183.695145 188.133209 181.67865 187.006714 179.300079 z" stroke-linecap="round" />
</g>
<g transform="matrix(1 0 0 1 510.99 497.47)"  >
<path style="stroke: none; stroke-width: 1; stroke-dasharray: none; stroke-linecap: butt; stroke-dashoffset: 0; stroke-linejoin: miter; stroke-miterlimit: 4; fill: rgb(0,136,239); fill-rule: nonzero; opacity: 1;" vector-effect="non-scaling-stroke"  transform=" translate(-139.49, -126.47)" d="M 107.03273 94.361656 C 113.694244 94.00692 120.380745 94.003006 127.536392 94.004326 C 129.229904 96.065384 130.097366 98.476059 131.733887 100.122124 C 147.994324 116.477348 160.605484 135.401962 171.280701 155.712448 C 171.654205 156.423065 171.725708 157.292435 171.94754 158.442352 C 169.253372 158.847733 166.549637 158.89856 163.390045 158.931625 C 156.016327 157.723312 153.352188 152.204071 150.187973 146.890259 C 139.339478 128.671951 125.469254 112.914551 110.011124 98.490791 C 108.856644 97.413551 108.034401 95.980255 107.03273 94.361656 z" stroke-linecap="round" />
</g>
<g transform="matrix(1 0 0 1 555.97 550.07)"  >
<path style="stroke: none; stroke-width: 1; stroke-dasharray: none; stroke-linecap: butt; stroke-dashoffset: 0; stroke-linejoin: miter; stroke-miterlimit: 4; fill: rgb(251,203,7); fill-rule: nonzero; opacity: 1;" vector-effect="non-scaling-stroke"  transform=" translate(-184.47, -179.07)" d="M 184.071777 179.048889 C 184.133453 178.934235 184.316284 178.931213 184.7742 178.932709 C 185.049286 178.93721 184.654968 179.215073 184.654968 179.215073 C 184.654968 179.215073 184.192917 179.160522 184.071777 179.048889 z" stroke-linecap="round" />
</g>
<g transform="matrix(1 0 0 1 434.91 564.5)"  >
<path style="stroke: none; stroke-width: 1; stroke-dasharray: none; stroke-linecap: butt; stroke-dashoffset: 0; stroke-linejoin: miter; stroke-miterlimit: 4; fill: rgb(0,146,243); fill-rule: nonzero; opacity: 1;" vector-effect="non-scaling-stroke"  transform=" translate(-63.41, -193.5)" d="M 88.807518 202.706024 C 86.896545 206.132828 84.480759 204.578262 82.019257 203.523514 C 67.584709 197.338318 53.133652 191.191666 38.308838 185.00296 C 37.929504 184.973892 38.000156 184.491653 38.038353 184.250916 C 38.888611 183.472672 39.700672 182.93515 40.726166 182.198486 C 49.354229 185.365677 57.8326 188.582809 66.164665 192.142395 C 73.730446 195.374634 81.137009 198.979553 88.807518 202.706024 z" stroke-linecap="round" />
</g>
</svg>