<?xml version="1.0" encoding="UTF-8" standalone="no" ?>
<!DOCTYPE svg PUBLIC "-//W3C//DTD SVG 1.1//EN" "http://www.w3.org/Graphics/SVG/1.1/DTD/svg11.dtd">
<svg xmlns="http://www.w3.org/2000/svg" xmlns:xlink="http://www.w3.org/1999/xlink" version="1.1" width="1080" height="1080" viewBox="0 0 1080 1080" xml:space="preserve">
<desc>Created with Fabric.js 5.2.4</desc>
<defs>
</defs>
<rect x="0" y="0" width="100%" height="100%" fill="transparent"></rect>
<g transform="matrix(1 0 0 1 540 540)" id="bc2a90c0-29f1-4edc-a7cd-38da02bc1555"  >
<rect style="stroke: none; stroke-width: 1; stroke-dasharray: none; stroke-linecap: butt; stroke-dashoffset: 0; stroke-linejoin: miter; stroke-miterlimit: 4; fill: rgb(255,255,255); fill-rule: nonzero; opacity: 1; visibility: hidden;" vector-effect="non-scaling-stroke"  x="-540" y="-540" rx="0" ry="0" width="1080" height="1080" />
</g>
<g transform="matrix(1 0 0 1 540 540)" id="77e322e3-ed0d-4077-ade8-cce49adf6022"  >
</g>
<g transform="matrix(1 0 0 1 540.04 500.62)"  >
<path style="stroke: none; stroke-width: 1; stroke-dasharray: none; stroke-linecap: butt; stroke-dashoffset: 0; stroke-linejoin: miter; stroke-miterlimit: 4; fill: rgb(0,0,0); fill-rule: nonzero; opacity: 1;" vector-effect="non-scaling-stroke"  transform=" translate(-501.07, -411.91)" d="M 723.282104 505.000061 C 723.281921 518.832092 723.289429 532.164185 723.271484 545.496216 C 723.269043 547.32666 723.303284 549.180603 723.042114 550.983398 C 721.602905 560.918457 719.966553 562.323608 710.065125 562.326294 C 663.402954 562.338989 616.740723 562.345642 570.078552 562.3573 C 562.142212 562.359253 561.877991 562.614868 561.222534 570.704529 C 560.787048 576.079102 558.419128 578.086914 552.061035 578.100281 C 528.396729 578.150024 504.7323 578.13739 481.067902 578.141174 C 470.902252 578.142822 460.736053 578.188049 450.571106 578.09967 C 443.009613 578.033875 441.215332 576.207336 440.870728 568.689941 C 440.621613 563.256042 439.574097 562.359619 433.137512 562.35791 C 387.47522 562.345764 341.812958 562.350403 296.150665 562.349487 C 294.9841 562.349426 293.817566 562.348145 292.651001 562.345703 C 281.910797 562.323364 280.682953 561.277344 279.122223 550.573914 C 278.883209 548.934692 278.855316 547.253723 278.855194 545.592102 C 278.84729 454.600922 278.846313 363.609772 278.863861 272.618591 C 278.866577 258.65506 285.321991 249.566116 297.321136 246.260498 C 299.797546 245.578247 302.271484 245.677399 304.758636 245.677246 C 435.246124 245.66893 565.733582 245.671951 696.221069 245.677582 C 713.659546 245.678329 723.285156 255.390274 723.286438 273.022614 C 723.292114 350.181763 723.284546 427.340881 723.282104 505.000061 M 695.583069 469.500122 C 695.623413 436.378326 695.076599 403.259583 695.494568 370.13385 C 695.845581 342.31311 695.578735 314.484497 695.575745 286.659393 C 695.574646 276.039001 692.877319 273.303345 682.368347 273.303314 C 561.570679 273.303009 440.77301 273.307373 319.975342 273.31723 C 309.288208 273.318115 306.96994 275.575592 306.969116 286.110504 C 306.963196 364.420532 306.969086 442.73056 306.992554 521.040588 C 306.995728 531.650085 310.084167 534.679321 320.728882 534.679932 C 441.026703 534.68689 561.324524 534.689148 681.622314 534.688354 C 692.118774 534.688293 695.550293 531.186096 695.559875 520.485352 C 695.574768 503.823608 695.576111 487.161896 695.583069 469.500122 z" stroke-linecap="round" />
</g>
<g transform="matrix(1 0 0 1 540 711.04)"  >
<path style="stroke: none; stroke-width: 1; stroke-dasharray: none; stroke-linecap: butt; stroke-dashoffset: 0; stroke-linejoin: miter; stroke-miterlimit: 4; fill: rgb(0,0,0); fill-rule: nonzero; opacity: 1;" vector-effect="non-scaling-stroke"  transform=" translate(-501.03, -622.33)" d="M 288 587.811035 C 328.491119 587.810852 368.482208 587.809265 408.473328 587.813599 C 415.22348 587.814331 415.22345 587.826111 415.350891 594.755676 C 415.550537 605.613647 422.448273 612.64447 433.231628 612.656189 C 478.388336 612.7052 523.545166 612.701538 568.701904 612.661316 C 579.914795 612.651306 586.556885 605.830322 586.66803 594.488037 C 586.733398 587.816711 586.733398 587.806641 593.331421 587.807007 C 647.819397 587.81012 702.307434 587.814453 756.79541 587.82666 C 764.223572 587.828308 764.245728 587.849243 764.253845 595.296753 C 764.264954 605.461182 764.358521 615.627441 764.2005 625.789551 C 763.94281 642.362488 752.391113 654.817322 735.881775 656.463684 C 732.904724 656.760498 729.899719 656.903381 726.907593 656.903564 C 576.274109 656.914124 425.640594 656.9021 275.007111 656.88916 C 269.335693 656.888672 263.665741 656.797668 258.25235 654.780823 C 245.735062 650.11731 238.182205 639.223877 237.911423 624.982788 C 237.708725 614.322083 237.963898 603.652832 237.772812 592.991699 C 237.702789 589.085266 239.111145 587.709656 243.010605 587.749268 C 257.839081 587.900085 272.669983 587.811035 288 587.811035 z" stroke-linecap="round" />
</g>
<g transform="matrix(1 0 0 1 545.24 500.78)"  >
<path style="stroke: none; stroke-width: 1; stroke-dasharray: none; stroke-linecap: butt; stroke-dashoffset: 0; stroke-linejoin: miter; stroke-miterlimit: 4; fill: rgb(0,0,0); fill-rule: nonzero; opacity: 1;" vector-effect="non-scaling-stroke"  transform=" translate(-506.27, -412.07)" d="M 555.19397 351.513672 C 556.582153 352.76593 557.689697 353.777466 558.75177 354.834686 C 568.518494 364.556763 568.856445 366.798431 561.296631 378.771393 C 559.97699 380.861328 560.671509 382.129944 561.025574 384.10379 C 562.795166 393.969574 569.788574 397.988739 578.363281 400.331299 C 582.882202 401.565796 584.078308 404.392792 584.034302 408.845734 C 583.900513 422.376038 582.418884 424.516724 569.028564 427.272186 C 566.724609 427.746277 565.36615 428.526123 564.917847 430.789032 C 564.886047 430.949829 564.823364 431.115662 564.734009 431.252289 C 559.625061 439.062439 560.759094 446.712219 565.29303 454.293701 C 567.6651 458.260162 567.014954 461.287262 563.479492 464.665436 C 553.471619 474.228088 551.232727 474.743866 539.493958 467.272095 C 537.719788 466.142822 536.534546 465.807648 534.59259 466.774445 C 531.324402 468.401489 527.885437 469.711761 524.447571 470.960663 C 522.716003 471.589661 521.56488 472.352722 521.386536 474.361053 C 520.978333 478.956604 518.251221 482.730957 516.733826 486.938751 C 516.269653 488.22583 515.545654 489.432831 514.022217 489.584259 C 508.708496 490.112427 503.382935 490.126343 498.072632 489.56723 C 496.577362 489.40979 495.87616 488.131012 495.402863 486.853821 C 493.846222 482.653168 491.34082 478.80365 490.652802 474.287872 C 490.431793 472.837585 489.882416 471.8591 488.449402 471.287201 C 484.58667 469.745667 480.75058 468.134216 476.936523 466.475586 C 475.739502 465.955048 474.722473 465.902283 473.708679 466.788269 C 473.335052 467.114868 472.910156 467.395477 472.475586 467.637726 C 460.172546 474.496033 454.353241 473.192627 446.037994 461.871979 C 445.01001 460.472351 444.851257 459.283691 445.501984 457.743469 C 446.992371 454.21582 447.901337 450.333466 449.9487 447.181213 C 451.956665 444.089722 451.218231 441.798828 450.538727 438.551056 C 448.699249 429.758911 442.718506 426.24408 435.035553 424.314697 C 429.744049 422.98587 428.355072 419.759064 428.512451 414.463348 C 428.898102 401.488953 429.770538 399.869415 442.657623 396.878082 C 445.332703 396.257172 446.265503 394.895386 447.587128 392.796631 C 452.527069 384.951721 451.649933 377.533508 446.996338 370.040253 C 444.327911 365.74353 445.171753 362.491547 449.091919 358.89325 C 458.128754 350.598419 458.446289 349.382233 469.095795 355.347076 C 477.548279 360.08139 482.650543 353.795837 489.224915 352.363983 C 490.24704 352.141327 490.525665 350.965546 490.633087 349.914093 C 491.103088 345.313843 493.157959 341.09552 495.527863 337.461823 C 499.505249 331.363434 506.253113 335.836639 511.627411 334.589325 C 513.897156 334.062531 515.936096 334.631409 516.774109 337.277374 C 518.125732 341.544861 521.031128 345.245667 521.420837 349.862579 C 521.568115 351.60788 522.562866 352.437286 524.115295 353.039429 C 527.681702 354.422729 531.231995 355.864868 534.704163 357.466644 C 536.410767 358.253937 537.556885 357.969818 539.235291 357.077942 C 544.163269 354.459351 549.087158 351.618164 555.19397 351.513672 M 502.125092 446.437317 C 516.92395 447.338379 528.507874 441.789948 535.94928 428.832428 C 543.118958 416.348053 542.371155 403.733307 534.037964 392.206482 C 525.507751 380.407074 513.534363 375.459869 499.05307 378.413879 C 481.754333 381.942596 470.410034 397.425232 471.634521 413.958191 C 472.927673 431.417236 484.064484 442.772339 502.125092 446.437317 z" stroke-linecap="round" />
</g>
<g transform="matrix(1 0 0 1 406.9 501.04)"  >
<path style="stroke: none; stroke-width: 1; stroke-dasharray: none; stroke-linecap: butt; stroke-dashoffset: 0; stroke-linejoin: miter; stroke-miterlimit: 4; fill: rgb(0,0,0); fill-rule: nonzero; opacity: 1;" vector-effect="non-scaling-stroke"  transform=" translate(-367.93, -412.33)" d="M 357.800018 416.192566 C 373.242004 441.937622 388.522461 467.351593 403.785065 492.776276 C 408.557831 500.726959 406.000183 505.223694 396.753082 506.043549 C 388.524261 506.773132 383.044647 504.588043 378.516388 496.679962 C 363.537994 470.521759 347.634064 444.891937 331.970184 419.129333 C 329.046906 414.321442 328.956879 409.867188 331.845276 405.092896 C 348.142517 378.154694 364.427795 351.208954 380.598206 324.194611 C 382.997681 320.186005 385.981567 318.034149 390.739624 318.550812 C 392.386749 318.729706 394.069458 318.598907 395.735596 318.581116 C 399.278412 318.543304 402.863159 318.393555 404.914734 322.157776 C 406.888062 325.778351 405.372437 328.844025 403.479065 331.952209 C 397.066498 342.479156 390.726166 353.050232 384.372894 363.613251 C 375.958618 377.602997 367.574127 391.610657 359.139923 405.588318 C 357.181702 408.833557 355.62207 412.069763 357.800018 416.192566 z" stroke-linecap="round" />
</g>
<g transform="matrix(1 0 0 1 671.24 501.19)"  >
<path style="stroke: none; stroke-width: 1; stroke-dasharray: none; stroke-linecap: butt; stroke-dashoffset: 0; stroke-linejoin: miter; stroke-miterlimit: 4; fill: rgb(0,0,0); fill-rule: nonzero; opacity: 1;" vector-effect="non-scaling-stroke"  transform=" translate(-632.27, -412.48)" d="M 659.546509 433.479736 C 646.041443 455.906342 632.729065 478.023315 619.394348 500.12674 C 615.840637 506.017212 602.031738 508.554688 596.706482 504.15979 C 593.174683 501.245026 593.266418 497.766815 595.609009 493.924622 C 604.365845 479.561737 612.992615 465.119629 621.666382 450.706146 C 628.107178 440.003082 634.404602 429.210022 641.048706 418.634674 C 644.000366 413.936462 643.814941 409.961304 640.94696 405.256134 C 626.471008 381.506683 612.230347 357.61377 597.918762 333.764252 C 596.890991 332.051575 595.769104 330.360138 595.014404 328.525757 C 593.076294 323.815094 595.826843 319.112488 600.877747 318.734222 C 604.687439 318.448914 608.536438 318.619537 612.366028 318.690521 C 615.334961 318.745514 617.233337 320.508514 618.690735 322.930756 C 635.349487 350.617828 652.012268 378.30249 668.699158 405.972626 C 671.171082 410.071655 671.315125 414.014099 668.700989 418.156403 C 665.591431 423.083862 662.710693 428.155731 659.546509 433.479736 z" stroke-linecap="round" />
</g>
</svg>