<?xml version="1.0" encoding="UTF-8" standalone="no" ?>
<!DOCTYPE svg PUBLIC "-//W3C//DTD SVG 1.1//EN" "http://www.w3.org/Graphics/SVG/1.1/DTD/svg11.dtd">
<svg xmlns="http://www.w3.org/2000/svg" xmlns:xlink="http://www.w3.org/1999/xlink" version="1.1" width="1080" height="1080" viewBox="0 0 1080 1080" xml:space="preserve">
<desc>Created with Fabric.js 5.2.4</desc>
<defs>
</defs>
<g transform="matrix(1 0 0 1 540 540)" id="ff02199a-dc0b-4fe0-976c-d81f830a6816"  >
<rect style="stroke: none; stroke-width: 1; stroke-dasharray: none; stroke-linecap: butt; stroke-dashoffset: 0; stroke-linejoin: miter; stroke-miterlimit: 4; fill: rgb(255,255,255); fill-rule: nonzero; opacity: 1; visibility: hidden;" vector-effect="non-scaling-stroke"  x="-540" y="-540" rx="0" ry="0" width="1080" height="1080" />
</g>
<g transform="matrix(1 0 0 1 540 540)" id="0ca2dfb0-fc84-4f71-b83b-1c5d277ebd92"  >
</g>
<g transform="matrix(1 0 0 1 538.21 524.19)"  >
<path style="stroke: none; stroke-width: 1; stroke-dasharray: none; stroke-linecap: butt; stroke-dashoffset: 0; stroke-linejoin: miter; stroke-miterlimit: 4; fill: rgb(96,107,187); fill-rule: nonzero; opacity: 1;" vector-effect="non-scaling-stroke"  transform=" translate(-168.21, -285.69)" d="M 39.184467 396.313019 C 36.326382 394.200409 36.045067 391.374725 36.044239 388.512878 C 36.031551 344.557556 36.026611 300.602203 36.066452 256.646912 C 36.072029 250.495895 38.759628 245.801804 44.21376 242.747833 C 83.271667 220.877701 122.319847 198.990219 161.372726 177.111115 C 167.903549 173.45224 174.083054 174.686646 180.296448 178.175385 C 206.705688 193.003952 233.168594 207.736984 259.615845 222.497849 C 270.803284 228.741852 282.000519 234.968338 293.193054 241.203186 C 295.966431 242.748108 298.719238 244.317505 300.389252 247.63208 C 296.63913 252.214005 291.228851 254.092773 286.426971 256.864807 C 277.143372 262.22406 268.236603 268.301086 257.82196 272.307831 C 254.91391 272.451691 253.747757 270.745117 252.567383 268.859009 C 251.272659 266.790161 250.141006 264.568207 247.929413 262.738678 C 247.495438 262.347717 247.322021 262.193695 246.957016 261.754944 C 246.257324 260.216522 245.546371 259.140106 243.940887 258.465759 C 243.261765 258.153625 242.910141 257.919128 242.374222 257.417328 C 241.906708 256.887085 241.673523 256.563721 241.297073 255.99292 C 241.028534 255.605728 240.923035 255.451767 240.659302 255.070709 C 240.394028 254.694382 240.286972 254.545151 239.851425 253.951843 C 239.414307 253.357147 239.305695 253.206543 239.04248 252.821136 C 238.799942 252.420151 238.71199 252.253983 238.504059 251.834625 C 238.068436 251.095047 237.659653 250.712067 236.872894 250.291473 C 236.449585 249.983871 236.288879 249.841949 235.928467 249.439392 C 234.731186 247.182251 232.804199 246.399155 230.624695 245.435013 C 230.098816 245.253082 229.899506 245.155548 229.437668 244.860229 C 228.49913 243.886765 228 242.913223 226.584808 242.546448 C 226.07489 242.406387 225.871902 242.340958 225.37735 242.138367 C 224.900986 241.889816 224.716232 241.778412 224.032974 241.257294 C 223.010315 240.140717 222.320618 239.677536 221.160172 239.336243 C 220.655289 239.111588 220.462936 238.998032 220.019989 238.661179 C 215.873947 235.335892 211.445602 233.210983 206.530182 231.252426 C 199.238922 227.864685 192.072678 225.52269 183.830414 226.40799 C 182.907822 226.425308 182.383682 226.3423 181.486511 226.048401 C 173.215515 223.224426 165.163345 224.584305 157.168549 225.041641 C 155.405472 225.142487 153.595642 225.611176 151.468323 226.171356 C 145.053009 228.244614 138.051712 226.00824 132.40921 230.810913 C 131.582077 232.192307 130.341156 232.553268 129.235443 233.637787 C 128.766418 233.999893 128.561691 234.120193 128.020874 234.347839 C 124.136749 235.151917 120.854195 236.354584 118.061104 238.8069 C 115.529709 241.029434 112.464172 242.433044 109.317703 244.12738 C 109.130402 244.625809 109.043442 244.819443 108.791245 245.282227 C 108.138397 246.208206 107.372032 246.569107 106.712036 247.451111 C 106.473526 247.867523 106.390427 248.04071 106.154541 248.455658 C 105.881561 248.842514 105.761353 248.987625 105.444336 249.328522 C 105.109756 249.642197 104.97197 249.760117 104.623154 250.039093 C 104.271286 250.299911 104.130432 250.399673 103.781624 250.642395 C 103.573669 250.785355 103.168793 251.066803 102.972885 251.208237 C 102.776978 251.34967 102.398636 251.637589 102.03978 251.937912 C 101.680931 252.238235 101.338928 252.552963 101.009827 252.881516 C 100.680733 253.210068 100.362579 253.554855 100.056 253.920258 C 99.749413 254.285645 99.452477 254.677582 99.157593 255.096527 C 98.761162 255.662979 98.659622 255.810471 98.396912 256.18457 C 98.119331 256.56311 98.00293 256.715088 97.693459 257.091187 C 97.356071 257.456848 97.211754 257.598328 96.821877 257.928284 C 96.3909 258.213287 96.20549 258.309784 95.73201 258.5354 C 93.056938 259.962799 91.511574 261.966278 90.460175 264.796814 C 90.245689 265.320038 90.14402 265.524628 89.8237 265.99585 C 85.358688 270.391266 83.6782 276.128296 80.323593 281.223724 C 78.104515 286.667053 76.024193 291.782074 75.106369 297.666077 C 71.917328 308.516052 70.014664 319.092957 72.692963 330.389191 C 72.830254 331.034729 72.871155 331.292725 72.93544 331.935425 C 72.729904 334.221619 72.497597 336.12326 73.334198 338.31488 C 73.473549 338.880646 73.516228 339.108551 73.582268 339.679535 C 73.403267 341.389221 73.910782 342.63089 74.373795 344.224548 C 74.476402 344.780792 74.492317 345.008087 74.50811 345.578156 C 75.260307 351.656433 77.663429 356.907837 79.63031 362.546143 C 80.109329 362.858948 80.290695 363.000031 80.693359 363.40564 C 81.642509 365.044769 81.547539 366.799377 83.062119 368.19812 C 83.580917 369.166199 83.726303 369.875305 83.64994 370.989746 C 83.40213 371.837036 83.145882 372.267548 82.531319 372.898193 C 69.804901 380.892578 56.710537 387.52124 44.225571 395.201569 C 42.813255 396.070404 41.30875 396.861298 39.184467 396.313019 z" stroke-linecap="round" />
</g>
<g transform="matrix(1 0 0 1 606.01 561.12)"  >
<path style="stroke: none; stroke-width: 1; stroke-dasharray: none; stroke-linecap: butt; stroke-dashoffset: 0; stroke-linejoin: miter; stroke-miterlimit: 4; fill: rgb(65,74,166); fill-rule: nonzero; opacity: 1;" vector-effect="non-scaling-stroke"  transform=" translate(-236.02, -322.63)" d="M 256.758667 271.271667 C 268.952545 264.282196 280.902588 257.513855 292.851685 250.743729 C 295.006104 249.523071 297.060242 248.058899 300.098297 247.967468 C 303.487579 250.261093 303.916443 253.607391 303.921234 256.937653 C 303.984131 300.796844 303.985687 344.656128 303.98526 388.515411 C 303.985199 391.753357 303.307434 394.78775 300.456482 397.283875 C 292.285065 394.393524 285.011932 390.186371 277.779816 385.95697 C 272.504944 382.872223 267.026276 380.180481 261.753296 377.108032 C 260.437012 376.341034 259.061493 375.87027 257.164917 375.927216 C 255.829544 375.672119 255.047348 375.139801 254.148743 374.146332 C 250.003494 369.903168 244.123444 368.863068 240.076508 364.503479 C 236.518005 359.687408 231.268921 358.078094 226.237213 355.578217 C 225.675018 355.531128 225.448334 355.522278 224.879456 355.492462 C 223.856339 355.362427 223.199631 355.154602 222.195541 354.893738 C 218.317856 353.464386 215.125 351.466217 211.562302 349.398193 C 198.387527 342.368561 185.722 335.156586 172.875381 328.27533 C 170.970169 327.254791 169.174454 326.029602 168.088776 323.598755 C 167.711838 320.000763 169.984589 318.485657 172.297501 317.131866 C 184.334656 310.086395 196.535583 303.326508 208.940033 296.179596 C 209.471161 295.872467 209.693863 295.769012 210.268158 295.562347 C 217.795807 291.976166 224.014862 286.61499 232.294952 284.573883 C 240.075378 282.908295 245.644119 277.814667 252.227646 273.918884 C 252.623047 273.509369 252.77832 273.343811 253.220825 272.999939 C 254.520569 272.401917 255.673248 272.299194 256.758667 271.271667 z" stroke-linecap="round" />
</g>
<g transform="matrix(1 0 0 1 539.47 659.51)"  >
<path style="stroke: none; stroke-width: 1; stroke-dasharray: none; stroke-linecap: butt; stroke-dashoffset: 0; stroke-linejoin: miter; stroke-miterlimit: 4; fill: rgb(49,56,144); fill-rule: nonzero; opacity: 1;" vector-effect="non-scaling-stroke"  transform=" translate(-169.48, -421.02)" d="M 256.675659 375.252747 C 257.971954 371.925293 260.084106 373.772125 261.354065 374.438782 C 273.40097 380.762787 284.855408 388.17926 297.238312 393.897369 C 298.407196 394.437134 299.534363 395.291382 300.033844 397.080078 C 300.055176 399.857758 298.277924 400.778717 296.494385 401.778687 C 273.269012 414.80014 250.05545 427.842773 226.840851 440.883453 C 211.610687 449.438965 196.213867 457.715851 181.222824 466.671783 C 173.062729 471.546722 166.166748 471.085693 158.035629 466.287872 C 138.54689 454.78833 118.546867 444.157745 98.807335 433.079987 C 80.382774 422.740204 62.034763 412.264038 43.633293 401.882965 C 41.50877 400.684387 39.963577 399.059204 38.927032 396.50647 C 52.552097 387.451172 66.772934 379.62738 81.430008 371.918457 C 86.135246 373.97525 87.843529 378.367584 90.49157 381.928467 C 90.954231 382.550629 91.093475 383.422699 92.025894 384.141693 C 92.526001 384.394714 92.735474 384.477661 93.247757 384.713135 C 93.74073 384.988464 93.930901 385.111298 94.646042 385.666626 C 95.326744 386.264465 95.482475 386.42984 95.84079 386.867981 C 96.145668 387.340637 96.247963 387.540588 96.475357 388.050049 C 98.142838 391.110596 100.537712 393.052948 103.20771 395.160889 C 103.708969 395.387695 103.915436 395.467529 104.437393 395.661377 C 105.154846 395.983826 105.534088 396.227631 106.157211 396.723358 C 106.579674 397.109589 106.736046 397.278534 107.082771 397.735901 C 107.593956 398.884094 108.086349 399.674652 108.350555 400.915833 C 109.638023 405.153412 113.487556 405.180664 116.406464 406.466583 C 117.528648 406.960968 118.884125 407.302551 120.538361 407.481262 C 121.33271 407.60849 121.767426 407.752594 122.476196 408.129303 C 123.281937 408.735962 123.77626 409.191925 124.691742 409.633667 C 125.193619 409.893738 125.385406 410.018005 125.831406 410.374878 C 127.792747 413.717194 131.120667 413.435638 134.213074 414.387238 C 134.760284 414.458984 134.97876 414.478149 135.524384 414.505981 C 136.488525 414.610626 137.097763 414.814362 138.01828 415.072205 C 138.525269 415.208832 138.727203 415.267303 139.229263 415.421814 C 140.128113 415.718658 140.713013 415.95932 141.634338 416.234375 C 142.15567 416.415405 142.361603 416.501587 142.856873 416.760254 C 148.383606 422.152252 155.066833 420.342255 161.671722 420.765961 C 167.279465 421.859741 172.53038 421.792419 178.161575 420.815918 C 180.840042 420.497162 183.137802 420.258301 185.766724 419.749939 C 186.964844 419.079865 187.897644 418.755402 189.214691 418.455872 C 193.090363 418.619537 196.69722 419.214966 200.135651 415.909058 C 200.995926 415.590485 201.225998 415.563477 201.801727 415.522308 C 206.995575 415.044495 211.480896 413.798859 214.825287 409.406677 C 220.037888 404.82254 225.67746 401.44455 231.669708 397.968201 C 232.772583 397.389496 233.694595 397.256683 234.667862 396.460785 C 235.096863 396.094055 235.284698 395.965637 235.780792 395.690277 C 239.971802 393.368286 242.60408 389.912292 245.456024 386.218933 C 245.704514 385.693848 245.812073 385.486786 246.148163 385.014038 C 250.052292 382.005707 251.599884 376.987366 256.675659 375.252747 z" stroke-linecap="round" />
</g>
<g transform="matrix(1 0 0 1 532.84 561.23)"  >
<path style="stroke: none; stroke-width: 1; stroke-dasharray: none; stroke-linecap: butt; stroke-dashoffset: 0; stroke-linejoin: miter; stroke-miterlimit: 4; fill: rgb(253,254,254); fill-rule: nonzero; opacity: 1;" vector-effect="non-scaling-stroke"  transform=" translate(-162.85, -322.74)" d="M 142.433014 418.178589 C 142.019043 418.115417 141.606415 417.969147 141.387939 417.955658 C 140.665695 417.616211 140.094147 417.506226 139.267242 417.266754 C 139.020218 417.110718 138.607941 416.966949 138.39006 416.953247 C 137.665161 416.615448 137.091034 416.506287 136.265518 416.257874 C 136.021393 416.095398 135.613953 415.941467 135.396271 415.934509 C 132.130615 414.092285 128.335297 413.843109 125.29126 411.219727 C 125.009552 411.037872 124.599335 410.93869 124.388336 410.941284 C 123.679749 410.591919 123.18428 410.234924 122.292686 410.063843 C 122.050446 409.583618 121.973763 409.318329 121.646988 408.96405 C 118.478508 407.327393 115.039589 406.79126 111.998688 404.577942 C 111.314552 404.246124 110.95121 404.014771 110.334137 403.592224 C 109.87825 403.32309 109.69841 403.21048 109.270752 402.898163 C 108.878227 402.543915 108.733513 402.389435 108.417587 401.970154 C 108.17997 401.508423 108.113548 401.311432 107.96579 400.816101 C 107.52478 399.767883 106.812943 399.292175 106.159279 398.391754 C 105.931976 398.189331 105.914299 398.054352 105.847321 398.066376 C 105.46846 397.466919 104.721558 397.506104 104.327881 396.771118 C 104.369637 396.46286 104.375183 396.564178 104.421158 396.542725 C 100.690407 394.673981 98.480255 391.099121 95.315216 388.08905 C 95.138557 387.795654 95.122902 387.911041 95.181061 387.913757 C 94.873322 387.794495 94.566574 387.583984 94.1791 387.045013 C 94.047081 386.793365 94.009911 386.977234 94.101982 386.995117 C 93.829948 386.805084 93.533028 386.525696 93.394432 385.878357 C 93.485924 385.581451 93.682533 385.424103 93.619682 385.315002 C 88.522606 382.747894 87.505989 377.141907 84.260597 373.277863 C 83.766518 372.689545 83.580574 371.797363 83.253647 370.776672 C 83.256691 370.063568 83.11985 369.68988 82.780556 369.264465 C 80.81823 368.138641 80.883858 366.22406 80.265686 364.203064 C 80.10083 363.857697 80.066422 363.939117 80.10717 363.921997 C 76.353966 358.352631 75.198166 351.835083 73.262077 345.19873 C 73.095238 344.855499 73.030479 344.965698 73.086227 344.996948 C 71.882019 343.702515 72.812477 342.029633 72.250885 340.219086 C 72.067444 339.873993 72.015114 339.981506 72.069168 340.007019 C 70.84407 337.990723 71.842834 335.708588 71.235359 333.21228 C 71.028877 332.850433 71.015167 332.402283 70.943893 332.189728 C 70.217163 321.390045 70.512245 310.868622 73.119591 300.104858 C 75.323814 293.638062 76.757874 287.322968 79.745773 281.155457 C 82.562607 275.562775 85.470779 270.45517 88.931496 265.276825 C 89.229286 265.060944 89.102692 265.081665 89.117416 265.144104 C 90.883255 262.292938 92.987595 259.674744 95.870117 257.278564 C 96.145073 257.079803 96.051613 257.048157 96.037933 257.095581 C 96.201103 256.842987 96.416489 256.573822 96.874161 256.174072 C 97.07795 256.012726 97.011925 256.015961 97.024002 256.046753 C 97.459274 255.560181 97.482285 254.850616 98.207886 254.338318 C 98.535896 254.355637 98.371216 254.318954 98.369064 254.40329 C 98.220726 253.994888 98.337616 253.587128 99.114227 253.29071 C 99.47068 253.304108 99.295029 253.308228 99.311386 253.394531 C 99.204659 252.979752 99.364784 252.581833 100.11937 252.32753 C 100.470695 252.382538 100.364395 252.409439 100.393219 252.45607 C 100.223709 252.001984 100.339745 251.589798 101.135101 251.308533 C 101.499954 251.350906 101.342598 251.34668 101.356934 251.424072 C 101.205093 250.995514 101.350616 250.589706 102.127838 250.310349 C 102.489044 250.349884 102.308144 250.386093 102.341141 250.472229 C 102.13916 249.555771 102.947952 249.583496 103.819405 249.221405 C 104.10878 249.055374 104.033852 249.032883 104.024078 249.070755 C 104.220528 248.810928 104.45507 248.537827 104.966003 248.174561 C 105.209465 248.055771 105.092232 248.094254 105.11541 248.151428 C 105.776741 247.057526 106.769638 246.245926 108.099503 245.449829 C 108.420296 245.44986 108.476974 245.441971 108.493652 245.418732 C 108.236664 244.482254 108.603081 243.488052 109.271591 243.230225 C 115.769547 240.72406 120.586105 235.103775 127.848465 233.280365 C 128.184341 233.13652 128.085587 233.114182 128.079193 233.164398 C 128.93605 231.846359 130.785431 231.83107 131.993286 230.281097 C 137.83725 227.247925 144.079773 227.13443 150.348358 225.434326 C 160.845276 223.223175 170.987442 222.819199 181.581055 224.545944 C 182.423615 224.839371 182.879883 224.922623 183.682434 224.951309 C 191.70874 224.858505 198.788742 227.358322 206.183167 230.181 C 211.284103 232.507965 216.002884 234.746658 220.684982 237.813171 C 220.93457 238.090424 220.986664 238.00769 220.949219 238.039139 C 222.04892 238.837082 223.46727 238.996704 224.681702 240.107452 C 224.766052 240.436447 224.84877 240.253632 224.754318 240.219772 C 225.064301 240.202362 225.401276 240.357513 225.808044 240.925018 C 225.955551 241.177505 225.927582 241.083511 225.881744 241.100937 C 227.251038 241.690872 228.576813 242.395218 229.717651 243.903076 C 229.892685 244.175491 229.914505 244.097656 229.875244 244.1073 C 232.434021 245.199951 234.434158 247.129089 236.461578 249.202332 C 236.357407 249.532455 236.403107 249.6521 236.466766 249.658936 C 238.496201 248.979477 238.810471 250.610153 239.463318 252.116043 C 239.458755 252.47261 239.550934 252.439056 239.525665 252.397003 C 240.007278 252.203278 240.412476 252.354233 240.684113 253.127365 C 240.638763 253.486908 240.639282 253.351868 240.573822 253.368469 C 241.008942 253.211899 241.411438 253.352768 241.689911 254.124695 C 241.651001 254.483215 241.662277 254.307022 241.574554 254.316833 C 242.432632 254.232193 242.437958 254.987762 242.784958 255.871979 C 242.973724 256.476471 243.112686 256.728485 243.573456 256.992737 C 245.246338 258.090851 246.444778 259.382721 247.512238 261.11673 C 247.491425 261.447754 247.622833 261.388031 247.551086 261.380188 C 250.650314 264.773285 254.306915 267.891174 253.981049 273.277222 C 253.631729 273.427765 253.653366 273.552765 253.714417 273.535522 C 247.588913 278.281433 240.550812 281.628693 233.602966 285.783936 C 227.281708 287.10614 222.812576 291.423462 217.459259 293.959656 C 215.666168 294.809143 213.940018 295.799896 211.859879 296.719055 C 210.634003 296.682098 210.122314 295.927948 209.119568 295.417542 C 208.663071 295.151428 208.48912 295.027985 208.085693 294.678802 C 207.580444 294.121765 207.33075 293.771759 206.94339 293.125031 C 206.709656 292.643494 206.635956 292.442627 206.456406 291.940948 C 205.670929 290.013062 204.452332 288.870728 202.725128 287.792175 C 202.238525 287.584534 202.038666 287.512573 201.536377 287.333832 C 200.852646 287.034729 200.489807 286.812134 199.887848 286.376892 C 199.478806 286.050568 199.325302 285.909882 198.977631 285.530212 C 198.499039 284.765289 198.166672 284.276825 197.438934 283.754517 C 197.001053 283.538605 196.816971 283.46756 196.353729 283.288696 C 195.710587 283.004822 195.355042 282.813171 194.739746 282.446838 C 194.300827 282.165283 194.131149 282.040894 193.737839 281.692993 C 192.534012 280.587433 191.372818 280.04422 189.78717 279.599213 C 185.201706 278.577332 181.246429 276.440887 176.387848 276.37439 C 172.924484 275.655457 169.841415 275.096863 166.335999 276.147156 C 159.147461 276.039368 153.169876 278.654419 147.031891 281.930847 C 146.116257 282.380066 145.480377 282.598083 144.583496 283.021149 C 144.09877 283.240906 143.90184 283.318665 143.404297 283.481384 C 142.302582 283.868225 141.675201 284.377289 141.037079 285.377289 C 140.654663 285.7724 140.482147 285.914001 140.011841 286.214783 C 136.685104 287.312531 134.725525 289.387238 133.385315 292.567291 C 133.162323 293.107117 133.044403 293.311279 132.686401 293.775055 C 130.980179 294.919891 130.136795 296.312378 129.20282 298.095215 C 125.539444 304.778961 123.09333 311.481232 122.500916 319.157959 C 122.41288 322.122528 122.518532 324.686768 123.329842 327.559998 C 123.908379 333.271881 125.13475 338.409424 127.8312 343.491211 C 128.557663 345.461945 128.743454 347.270111 130.101044 348.949585 C 130.494339 349.32193 130.666977 349.456329 131.076538 349.821198 C 131.455841 350.22113 131.598236 350.390564 131.92337 350.837463 C 132.196121 351.316071 132.286118 351.517242 132.48999 352.026428 C 133.425537 354.221741 134.941971 355.444275 136.899765 356.685852 C 139.021957 358.459198 140.971359 359.921722 143.213715 361.55365 C 143.928619 361.933044 144.337479 362.157623 145.074631 362.53775 C 145.58934 362.853119 145.77887 363.007233 146.215866 363.433838 C 154.654984 369.121674 163.687286 371.126617 173.422928 370.543488 C 175.468582 370.420929 177.340637 369.952454 179.523727 369.047852 C 180.261063 368.613129 180.690155 368.381775 181.4729 368.047913 C 182.261276 367.758301 182.721298 367.630402 183.532166 367.452026 C 184.106674 367.351288 184.337418 367.326508 184.911423 367.30777 C 189.233063 367.642029 191.655182 364.714783 194.841644 362.634491 C 195.252457 362.25119 195.408157 362.086151 195.826889 361.700378 C 196.280411 361.350159 196.470901 361.220703 196.966721 360.927124 C 197.486572 360.678253 197.701111 360.593536 198.247192 360.424316 C 201.861984 358.581696 204.029221 355.656616 206.463028 352.563049 C 207.647919 350.266937 209.020645 348.651611 211.704224 348.134644 C 215.956512 348.705658 218.697983 351.709503 222.621292 353.003815 C 223.426941 353.476227 224.068924 353.481079 224.765717 353.985168 C 224.926865 354.238647 224.902954 354.121582 224.845673 354.138611 C 230.461365 356.090149 235.339554 359.522583 240.687988 362.760406 C 245.175293 366.82605 251.459686 367.509521 255.086914 372.638763 C 255.229355 376.771698 251.926071 378.5401 250.293625 381.270233 C 249.370468 382.814117 248.027161 384.065796 246.737122 385.452606 C 246.402985 385.307587 246.28006 385.363342 246.276093 385.430725 C 244.115143 390.244965 239.703491 392.947327 235.919495 396.55719 C 235.573044 396.58139 235.912323 396.885529 235.753693 396.721985 C 235.673279 397.929688 234.416061 398.014252 233.412079 398.763092 C 227.552292 402.64325 221.932983 406.334839 216.126953 410.352386 C 211.863556 412.713074 208.085815 415.428345 203.112808 416.269226 C 202.336655 416.456421 201.886902 416.534912 201.107758 416.702698 C 200.779617 416.799194 200.874786 416.807983 200.871521 416.760315 C 197.633682 418.647369 194.03894 419.279175 189.982239 419.741394 C 188.951401 420.170532 188.301147 420.474854 187.372726 420.771332 C 183.949905 421.97821 180.54715 421.080627 176.943939 421.969635 C 173.430481 422.013794 170.333664 421.993835 166.815735 421.999878 C 158.457565 421.297485 150.360489 421.59787 142.433014 418.178589 z" stroke-linecap="round" />
</g>
<g transform="matrix(1 0 0 1 510.83 466.62)"  >
<path style="stroke: none; stroke-width: 1; stroke-dasharray: none; stroke-linecap: butt; stroke-dashoffset: 0; stroke-linejoin: miter; stroke-miterlimit: 4; fill: rgb(96,102,182); fill-rule: nonzero; opacity: 1;" vector-effect="non-scaling-stroke"  transform=" translate(-140.83, -228.13)" d="M 150.271362 225.680267 C 144.45665 227.655716 138.906204 229.391022 132.994186 231.141724 C 132.346268 231.238525 132.059937 231.319931 131.380219 231.190125 C 131.572632 226.98764 135.154068 226.183548 137.867386 226.050369 C 141.654526 225.864487 145.395004 225.53714 149.556305 225.001144 C 150.162964 225.143845 150.349304 225.291992 150.271362 225.680267 z" stroke-linecap="round" />
</g>
<g transform="matrix(1 0 0 1 442.03 552.95)"  >
<path style="stroke: none; stroke-width: 1; stroke-dasharray: none; stroke-linecap: butt; stroke-dashoffset: 0; stroke-linejoin: miter; stroke-miterlimit: 4; fill: rgb(84,91,160); fill-rule: nonzero; opacity: 1;" vector-effect="non-scaling-stroke"  transform=" translate(-72.04, -314.46)" d="M 74.222076 298.709351 C 71.682854 309.586121 70.977394 320.319885 70.93187 331.549133 C 69.173485 324.839813 69.646202 317.599854 70.5327 310.479614 C 71.069771 306.165863 71.282753 301.627197 73.677124 297.362305 C 74.321693 297.474091 74.485123 297.904907 74.222076 298.709351 z" stroke-linecap="round" />
</g>
<g transform="matrix(1 0 0 1 487.56 477.68)"  >
<path style="stroke: none; stroke-width: 1; stroke-dasharray: none; stroke-linecap: butt; stroke-dashoffset: 0; stroke-linejoin: miter; stroke-miterlimit: 4; fill: rgb(97,102,169); fill-rule: nonzero; opacity: 1;" vector-effect="non-scaling-stroke"  transform=" translate(-117.56, -239.19)" d="M 127.782951 233.118896 C 121.636467 236.831009 115.036331 240.442291 108.808548 245.25824 C 107.274818 243.206558 105.930542 241.130508 110.329964 241.20549 C 113.731216 241.263458 115.839241 238.425552 118.308662 236.672501 C 121.120659 234.676239 124.019318 233.43808 127.782951 233.118896 z" stroke-linecap="round" />
</g>
<g transform="matrix(1 0 0 1 535.88 462.87)"  >
<path style="stroke: none; stroke-width: 1; stroke-dasharray: none; stroke-linecap: butt; stroke-dashoffset: 0; stroke-linejoin: miter; stroke-miterlimit: 4; fill: rgb(80,90,176); fill-rule: nonzero; opacity: 1;" vector-effect="non-scaling-stroke"  transform=" translate(-165.89, -224.38)" d="M 150.426758 225.955353 C 150.007095 225.920395 149.99054 225.458145 149.983582 225.226913 C 160.45108 222.118958 171.01001 222.15976 181.795334 224.417709 C 171.531769 223.606079 161.153488 223.900009 150.426758 225.955353 z" stroke-linecap="round" />
</g>
<g transform="matrix(1 0 0 1 565.8 466.18)"  >
<path style="stroke: none; stroke-width: 1; stroke-dasharray: none; stroke-linecap: butt; stroke-dashoffset: 0; stroke-linejoin: miter; stroke-miterlimit: 4; fill: rgb(84,92,179); fill-rule: nonzero; opacity: 1;" vector-effect="non-scaling-stroke"  transform=" translate(-195.81, -227.69)" d="M 207.190704 230.800934 C 199.601608 229.068314 192.450073 226.132202 184.40921 224.995667 C 192.147079 223.512482 199.43129 226.180756 206.803986 229.787552 C 207.146896 230.209229 207.259628 230.380768 207.190704 230.800934 z" stroke-linecap="round" />
</g>
<g transform="matrix(1 0 0 1 457.72 616.53)"  >
<path style="stroke: none; stroke-width: 1; stroke-dasharray: none; stroke-linecap: butt; stroke-dashoffset: 0; stroke-linejoin: miter; stroke-miterlimit: 4; fill: rgb(38,41,119); fill-rule: nonzero; opacity: 1;" vector-effect="non-scaling-stroke"  transform=" translate(-87.72, -378.03)" d="M 83.08609 370.635132 C 86.673035 375.173706 89.952538 379.910126 93.39444 384.926239 C 91.869667 386.000824 90.652687 385.222534 89.772453 383.894684 C 87.246796 380.084595 84.799034 376.22287 82.052773 372.136475 C 82.116135 371.538696 82.447388 371.185852 83.08609 370.635132 z" stroke-linecap="round" />
</g>
<g transform="matrix(1 0 0 1 446.57 593)"  >
<path style="stroke: none; stroke-width: 1; stroke-dasharray: none; stroke-linecap: butt; stroke-dashoffset: 0; stroke-linejoin: miter; stroke-miterlimit: 4; fill: rgb(97,102,169); fill-rule: nonzero; opacity: 1;" vector-effect="non-scaling-stroke"  transform=" translate(-76.58, -354.51)" d="M 73.067917 345.279419 C 75.406693 350.958527 77.718147 357.061584 80.08876 363.534729 C 78.950241 363.913696 77.548897 363.872131 77.330307 362.464203 C 76.440315 356.731689 72.945976 351.674927 73.067917 345.279419 z" stroke-linecap="round" />
</g>
<g transform="matrix(1 0 0 1 454.04 511.75)"  >
<path style="stroke: none; stroke-width: 1; stroke-dasharray: none; stroke-linecap: butt; stroke-dashoffset: 0; stroke-linejoin: miter; stroke-miterlimit: 4; fill: rgb(90,96,166); fill-rule: nonzero; opacity: 1;" vector-effect="non-scaling-stroke"  transform=" translate(-84.05, -273.26)" d="M 88.902206 265.189453 C 86.456085 270.187134 83.682892 275.313324 80.653381 280.701416 C 80.161736 281.321472 79.828293 281.455963 79.189735 281.197205 C 81.592773 275.41684 83.927612 269.659058 88.902206 265.189453 z" stroke-linecap="round" />
</g>
<g transform="matrix(1 0 0 1 447.05 528.32)"  >
<path style="stroke: none; stroke-width: 1; stroke-dasharray: none; stroke-linecap: butt; stroke-dashoffset: 0; stroke-linejoin: miter; stroke-miterlimit: 4; fill: rgb(97,102,169); fill-rule: nonzero; opacity: 1;" vector-effect="non-scaling-stroke"  transform=" translate(-77.05, -289.83)" d="M 78.707626 281.079041 C 79.287384 280.996094 79.604782 280.986603 80.159515 280.966461 C 78.382271 286.763855 76.36747 292.564453 74.17836 298.684448 C 73.983711 298.584961 73.963364 298.166046 73.946373 297.434753 C 73.991394 291.391266 76.688393 286.40802 78.707626 281.079041 z" stroke-linecap="round" />
</g>
<g transform="matrix(1 0 0 1 622.13 506.08)"  >
<path style="stroke: none; stroke-width: 1; stroke-dasharray: none; stroke-linecap: butt; stroke-dashoffset: 0; stroke-linejoin: miter; stroke-miterlimit: 4; fill: rgb(97,102,169); fill-rule: nonzero; opacity: 1;" vector-effect="non-scaling-stroke"  transform=" translate(-252.14, -267.59)" d="M 253.965759 273.477356 C 254.316864 268.251862 249.560638 265.891998 247.603485 261.695801 C 252.574341 262.528046 252.718735 268.32135 256.67804 270.948151 C 256.64917 272.47403 255.951309 273.521088 253.965759 273.477356 z" stroke-linecap="round" />
</g>
<g transform="matrix(1 0 0 1 583.94 472.51)"  >
<path style="stroke: none; stroke-width: 1; stroke-dasharray: none; stroke-linecap: butt; stroke-dashoffset: 0; stroke-linejoin: miter; stroke-miterlimit: 4; fill: rgb(97,102,169); fill-rule: nonzero; opacity: 1;" vector-effect="non-scaling-stroke"  transform=" translate(-213.94, -234.02)" d="M 207.244965 231.292389 C 207.010559 230.880676 207.012054 230.711792 207.023865 230.290298 C 212.14772 231.514175 216.872253 233.716583 220.865341 237.751694 C 216.449997 235.905365 211.965424 233.720291 207.244965 231.292389 z" stroke-linecap="round" />
</g>
<g transform="matrix(1 0 0 1 462.61 499.6)"  >
<path style="stroke: none; stroke-width: 1; stroke-dasharray: none; stroke-linecap: butt; stroke-dashoffset: 0; stroke-linejoin: miter; stroke-miterlimit: 4; fill: rgb(97,102,169); fill-rule: nonzero; opacity: 1;" vector-effect="non-scaling-stroke"  transform=" translate(-92.62, -261.1)" d="M 95.78775 257.115356 C 94.017815 259.711853 91.890541 262.343872 89.447708 265.091187 C 89.357956 261.056427 91.880531 258.702087 95.78775 257.115356 z" stroke-linecap="round" />
</g>
<g transform="matrix(1 0 0 1 603.23 485.27)"  >
<path style="stroke: none; stroke-width: 1; stroke-dasharray: none; stroke-linecap: butt; stroke-dashoffset: 0; stroke-linejoin: miter; stroke-miterlimit: 4; fill: rgb(97,102,169); fill-rule: nonzero; opacity: 1;" vector-effect="non-scaling-stroke"  transform=" translate(-233.24, -246.78)" d="M 236.464935 249.163574 C 234.303864 247.914536 232.250305 246.296616 230.016373 244.397827 C 233.001297 244.351578 235.747192 245.190186 236.464935 249.163574 z" stroke-linecap="round" />
</g>
<g transform="matrix(1 0 0 1 615.74 497.71)"  >
<path style="stroke: none; stroke-width: 1; stroke-dasharray: none; stroke-linecap: butt; stroke-dashoffset: 0; stroke-linejoin: miter; stroke-miterlimit: 4; fill: rgb(97,102,169); fill-rule: nonzero; opacity: 1;" vector-effect="non-scaling-stroke"  transform=" translate(-245.75, -259.22)" d="M 247.572357 261.076752 C 246.34758 260.184784 245.203735 258.921844 243.920776 257.363251 C 245.988586 257.305145 247.5112 258.270874 247.572357 261.076752 z" stroke-linecap="round" />
</g>
<g transform="matrix(1 0 0 1 597.93 481.02)"  >
<path style="stroke: none; stroke-width: 1; stroke-dasharray: none; stroke-linecap: butt; stroke-dashoffset: 0; stroke-linejoin: miter; stroke-miterlimit: 4; fill: rgb(97,102,169); fill-rule: nonzero; opacity: 1;" vector-effect="non-scaling-stroke"  transform=" translate(-227.94, -242.52)" d="M 229.857452 243.810394 C 228.664291 243.331589 227.435883 242.487686 226.021698 241.381073 C 227.695099 240.985336 229.32019 241.253311 229.857452 243.810394 z" stroke-linecap="round" />
</g>
<g transform="matrix(1 0 0 1 476.71 485.23)"  >
<path style="stroke: none; stroke-width: 1; stroke-dasharray: none; stroke-linecap: butt; stroke-dashoffset: 0; stroke-linejoin: miter; stroke-miterlimit: 4; fill: rgb(97,102,169); fill-rule: nonzero; opacity: 1;" vector-effect="non-scaling-stroke"  transform=" translate(-106.72, -246.74)" d="M 108.05381 245.387222 C 107.51944 246.290787 106.618584 247.131714 105.428162 248.090637 C 105.178421 246.531647 105.807259 245.375244 108.05381 245.387222 z" stroke-linecap="round" />
</g>
<g transform="matrix(1 0 0 1 451.28 605.04)"  >
<path style="stroke: none; stroke-width: 1; stroke-dasharray: none; stroke-linecap: butt; stroke-dashoffset: 0; stroke-linejoin: miter; stroke-miterlimit: 4; fill: rgb(97,102,169); fill-rule: nonzero; opacity: 1;" vector-effect="non-scaling-stroke"  transform=" translate(-81.28, -366.54)" d="M 80.080231 364.25946 C 80.888916 365.386078 81.677002 366.914429 82.521599 368.827759 C 80.531136 368.363708 79.884735 366.739685 80.080231 364.25946 z" stroke-linecap="round" />
</g>
<g transform="matrix(1 0 0 1 608.13 489.24)"  >
<path style="stroke: none; stroke-width: 1; stroke-dasharray: none; stroke-linecap: butt; stroke-dashoffset: 0; stroke-linejoin: miter; stroke-miterlimit: 4; fill: rgb(97,102,169); fill-rule: nonzero; opacity: 1;" vector-effect="non-scaling-stroke"  transform=" translate(-238.14, -250.74)" d="M 239.56868 252.075226 C 238.583862 251.70105 237.708969 250.929489 236.682251 249.911835 C 238.456711 248.964447 239.778275 249.209274 239.56868 252.075226 z" stroke-linecap="round" />
</g>
<g transform="matrix(1 0 0 1 441.59 574.94)"  >
<path style="stroke: none; stroke-width: 1; stroke-dasharray: none; stroke-linecap: butt; stroke-dashoffset: 0; stroke-linejoin: miter; stroke-miterlimit: 4; fill: rgb(84,91,160); fill-rule: nonzero; opacity: 1;" vector-effect="non-scaling-stroke"  transform=" translate(-71.6, -336.44)" d="M 71.018982 333.278442 C 72.972122 334.702179 71.96122 337.026398 72.08194 339.604401 C 70.400848 338.161804 71.135429 335.858337 71.018982 333.278442 z" stroke-linecap="round" />
</g>
<g transform="matrix(1 0 0 1 592.89 477.63)"  >
<path style="stroke: none; stroke-width: 1; stroke-dasharray: none; stroke-linecap: butt; stroke-dashoffset: 0; stroke-linejoin: miter; stroke-miterlimit: 4; fill: rgb(97,102,169); fill-rule: nonzero; opacity: 1;" vector-effect="non-scaling-stroke"  transform=" translate(-222.9, -239.14)" d="M 224.674133 240.083405 C 223.619415 239.815292 222.472794 239.194153 221.118958 238.321793 C 222.400421 238.03746 223.847168 238.096954 224.674133 240.083405 z" stroke-linecap="round" />
</g>
<g transform="matrix(1 0 0 1 442.62 580.94)"  >
<path style="stroke: none; stroke-width: 1; stroke-dasharray: none; stroke-linecap: butt; stroke-dashoffset: 0; stroke-linejoin: miter; stroke-miterlimit: 4; fill: rgb(84,91,160); fill-rule: nonzero; opacity: 1;" vector-effect="non-scaling-stroke"  transform=" translate(-72.63, -342.45)" d="M 72.047928 340.270203 C 73.628517 341.031219 73.190498 342.67038 73.128799 344.625061 C 71.817375 343.817657 72.033554 342.213806 72.047928 340.270203 z" stroke-linecap="round" />
</g>
<g transform="matrix(1 0 0 1 500.32 470.59)"  >
<path style="stroke: none; stroke-width: 1; stroke-dasharray: none; stroke-linecap: butt; stroke-dashoffset: 0; stroke-linejoin: miter; stroke-miterlimit: 4; fill: rgb(97,102,169); fill-rule: nonzero; opacity: 1;" vector-effect="non-scaling-stroke"  transform=" translate(-130.32, -232.09)" d="M 130.667206 231.041443 C 131.26062 231.009247 131.534424 231.039536 132.220428 231.113464 C 131.349152 231.80397 130.065689 232.450821 128.427521 233.156158 C 128.456955 232.107849 129.183044 231.369614 130.667206 231.041443 z" stroke-linecap="round" />
</g>
<g transform="matrix(1 0 0 1 612.23 493.73)"  >
<path style="stroke: none; stroke-width: 1; stroke-dasharray: none; stroke-linecap: butt; stroke-dashoffset: 0; stroke-linejoin: miter; stroke-miterlimit: 4; fill: rgb(97,102,169); fill-rule: nonzero; opacity: 1;" vector-effect="non-scaling-stroke"  transform=" translate(-242.24, -255.23)" d="M 242.894348 255.846954 C 242.524292 255.745041 242.100281 255.328278 241.581543 254.61908 C 241.938019 254.72847 242.389206 255.130295 242.894348 255.846954 z" stroke-linecap="round" />
</g>
<g transform="matrix(1 0 0 1 467.76 493.68)"  >
<path style="stroke: none; stroke-width: 1; stroke-dasharray: none; stroke-linecap: butt; stroke-dashoffset: 0; stroke-linejoin: miter; stroke-miterlimit: 4; fill: rgb(97,102,169); fill-rule: nonzero; opacity: 1;" vector-effect="non-scaling-stroke"  transform=" translate(-97.76, -255.19)" d="M 98.231369 254.43692 C 98.209923 254.83783 97.883942 255.320007 97.29702 255.93985 C 97.333 255.557739 97.629921 255.037964 98.231369 254.43692 z" stroke-linecap="round" />
</g>
<g transform="matrix(1 0 0 1 473.22 488.28)"  >
<path style="stroke: none; stroke-width: 1; stroke-dasharray: none; stroke-linecap: butt; stroke-dashoffset: 0; stroke-linejoin: miter; stroke-miterlimit: 4; fill: rgb(97,102,169); fill-rule: nonzero; opacity: 1;" vector-effect="non-scaling-stroke"  transform=" translate(-103.23, -249.79)" d="M 103.798157 249.114319 C 103.71888 249.48851 103.328987 249.921646 102.656616 250.456573 C 102.74527 250.096664 103.116402 249.634964 103.798157 249.114319 z" stroke-linecap="round" />
</g>
<g transform="matrix(1 0 0 1 595.28 479.2)"  >
<path style="stroke: none; stroke-width: 1; stroke-dasharray: none; stroke-linecap: butt; stroke-dashoffset: 0; stroke-linejoin: miter; stroke-miterlimit: 4; fill: rgb(97,102,169); fill-rule: nonzero; opacity: 1;" vector-effect="non-scaling-stroke"  transform=" translate(-225.28, -240.7)" d="M 225.789124 240.954346 C 225.603149 241.027039 225.250732 240.876587 224.779099 240.456024 C 224.980804 240.367661 225.301758 240.549423 225.789124 240.954346 z" stroke-linecap="round" />
</g>
<g transform="matrix(1 0 0 1 611.08 492.42)"  >
<path style="stroke: none; stroke-width: 1; stroke-dasharray: none; stroke-linecap: butt; stroke-dashoffset: 0; stroke-linejoin: miter; stroke-miterlimit: 4; fill: rgb(97,102,169); fill-rule: nonzero; opacity: 1;" vector-effect="non-scaling-stroke"  transform=" translate(-241.09, -253.93)" d="M 241.56601 254.207825 C 241.340088 254.292099 241.02919 254.100983 240.613327 253.647461 C 240.832596 253.56752 241.156815 253.749985 241.56601 254.207825 z" stroke-linecap="round" />
</g>
<g transform="matrix(1 0 0 1 468.91 492.38)"  >
<path style="stroke: none; stroke-width: 1; stroke-dasharray: none; stroke-linecap: butt; stroke-dashoffset: 0; stroke-linejoin: miter; stroke-miterlimit: 4; fill: rgb(97,102,169); fill-rule: nonzero; opacity: 1;" vector-effect="non-scaling-stroke"  transform=" translate(-98.92, -253.89)" d="M 99.19754 253.403961 C 99.280426 253.625046 99.090179 253.945984 98.633423 254.377258 C 98.55275 254.159668 98.738579 253.831741 99.19754 253.403961 z" stroke-linecap="round" />
</g>
<g transform="matrix(1 0 0 1 610.07 491.41)"  >
<path style="stroke: none; stroke-width: 1; stroke-dasharray: none; stroke-linecap: butt; stroke-dashoffset: 0; stroke-linejoin: miter; stroke-miterlimit: 4; fill: rgb(97,102,169); fill-rule: nonzero; opacity: 1;" vector-effect="non-scaling-stroke"  transform=" translate(-240.08, -252.92)" d="M 240.556519 253.207367 C 240.326141 253.288666 240.013519 253.090408 239.600647 252.623566 C 239.825043 252.545914 240.149658 252.736862 240.556519 253.207367 z" stroke-linecap="round" />
</g>
<g transform="matrix(1 0 0 1 466.57 495.1)"  >
<path style="stroke: none; stroke-width: 1; stroke-dasharray: none; stroke-linecap: butt; stroke-dashoffset: 0; stroke-linejoin: miter; stroke-miterlimit: 4; fill: rgb(97,102,169); fill-rule: nonzero; opacity: 1;" vector-effect="non-scaling-stroke"  transform=" translate(-96.57, -256.61)" d="M 96.866714 256.165192 C 96.900902 256.325989 96.723846 256.639252 96.285522 257.047729 C 96.234673 256.867859 96.445076 256.592773 96.866714 256.165192 z" stroke-linecap="round" />
</g>
<g transform="matrix(1 0 0 1 469.89 491.42)"  >
<path style="stroke: none; stroke-width: 1; stroke-dasharray: none; stroke-linecap: butt; stroke-dashoffset: 0; stroke-linejoin: miter; stroke-miterlimit: 4; fill: rgb(97,102,169); fill-rule: nonzero; opacity: 1;" vector-effect="non-scaling-stroke"  transform=" translate(-99.89, -252.92)" d="M 100.19487 252.459473 C 100.266754 252.683884 100.062813 252.985214 99.593307 253.383698 C 99.524857 253.166031 99.721954 252.851212 100.19487 252.459473 z" stroke-linecap="round" />
</g>
<g transform="matrix(1 0 0 1 474.62 487.1)"  >
<path style="stroke: none; stroke-width: 1; stroke-dasharray: none; stroke-linecap: butt; stroke-dashoffset: 0; stroke-linejoin: miter; stroke-miterlimit: 4; fill: rgb(97,102,169); fill-rule: nonzero; opacity: 1;" vector-effect="non-scaling-stroke"  transform=" translate(-104.63, -248.61)" d="M 104.974625 248.188324 C 104.992699 248.353043 104.775932 248.65033 104.286736 249.028122 C 104.256134 248.846039 104.497963 248.58345 104.974625 248.188324 z" stroke-linecap="round" />
</g>
<g transform="matrix(1 0 0 1 470.95 490.41)"  >
<path style="stroke: none; stroke-width: 1; stroke-dasharray: none; stroke-linecap: butt; stroke-dashoffset: 0; stroke-linejoin: miter; stroke-miterlimit: 4; fill: rgb(97,102,169); fill-rule: nonzero; opacity: 1;" vector-effect="non-scaling-stroke"  transform=" translate(-100.95, -251.92)" d="M 101.224289 251.436279 C 101.315239 251.665405 101.130531 251.979904 100.683929 252.39856 C 100.597565 252.17569 100.773102 251.848663 101.224289 251.436279 z" stroke-linecap="round" />
</g>
<g transform="matrix(1 0 0 1 471.92 489.41)"  >
<path style="stroke: none; stroke-width: 1; stroke-dasharray: none; stroke-linecap: butt; stroke-dashoffset: 0; stroke-linejoin: miter; stroke-miterlimit: 4; fill: rgb(97,102,169); fill-rule: nonzero; opacity: 1;" vector-effect="non-scaling-stroke"  transform=" translate(-101.93, -250.92)" d="M 102.211533 250.436951 C 102.295418 250.666107 102.101807 250.98233 101.63974 251.400009 C 101.558861 251.175644 101.746445 250.849838 102.211533 250.436951 z" stroke-linecap="round" />
</g>
<g transform="matrix(1 0 0 1 535.68 548.37)"  >
<path style="stroke: none; stroke-width: 1; stroke-dasharray: none; stroke-linecap: butt; stroke-dashoffset: 0; stroke-linejoin: miter; stroke-miterlimit: 4; fill: rgb(96,107,187); fill-rule: nonzero; opacity: 1;" vector-effect="non-scaling-stroke"  transform=" translate(-165.69, -309.88)" d="M 144.766663 280.955627 C 150.744965 276.734711 157.18866 274.552643 164.580292 273.934692 C 168.69632 275.069336 172.475357 274.27182 176.58786 274.293884 C 181.717499 274.377014 186.110718 275.903564 190.662262 278.15448 C 191.856506 279.667419 193.311188 280.041595 194.920944 280.738708 C 195.220001 280.828094 195.083481 280.885834 195.059006 280.815887 C 195.345856 281.397644 195.98584 281.482025 196.862915 281.781891 C 197.143967 281.921539 197.069885 281.927734 197.076813 281.891205 C 197.825409 282.920349 198.757599 283.789429 200.14328 284.45163 C 200.457565 284.388428 200.421341 284.502136 200.368378 284.47467 C 200.158524 285.463074 200.978714 285.42804 201.909836 285.731567 C 202.236893 285.837616 202.147522 285.832703 202.157333 285.789032 C 203.613358 288.01535 205.760071 289.628296 207.861267 291.73233 C 208.126724 291.931732 208.055435 291.948853 208.06012 291.912476 C 208.423294 292.415985 208.482803 293.078583 209.087677 293.753235 C 209.386383 293.866577 209.239594 293.753082 209.303024 293.685394 C 209.644653 294.539581 210.118042 295.394958 210.192657 296.696991 C 203.895477 302.720673 195.93924 305.526855 189.004608 309.995361 C 182.484024 314.197083 175.084488 316.95459 169.026215 322.406189 C 167.070724 325.99173 163.458252 326.830109 160.574539 328.60965 C 151.738235 334.062592 142.600433 339.00473 133.543594 344.081787 C 131.957657 344.970825 130.368271 345.854828 128.111191 345.820007 C 127.524651 345.605682 127.306786 345.478058 126.743217 345.195801 C 123.206528 340.429535 122.183601 335.074951 121.182251 329.332611 C 121.833527 326.037964 121.34037 323.09845 121.519455 319.786011 C 121.944733 312.278931 124.95903 305.904968 127.350006 298.962219 C 128.514969 296.649384 130.277023 295.217102 131.383392 292.917847 C 131.423584 292.556549 131.491898 292.545807 131.486481 292.579956 C 134.343613 290.285065 136.239685 286.899719 139.604462 284.800781 C 139.57373 284.448395 139.490463 284.53653 139.503357 284.477295 C 141.102081 284.600708 141.57106 283.122711 142.722488 282.120483 C 142.906662 281.855347 142.930145 281.927551 142.892334 281.924194 C 143.402145 281.597198 144.046097 281.51712 144.766663 280.955627 z" stroke-linecap="round" />
</g>
<g transform="matrix(1 0 0 1 539.86 585.38)"  >
<path style="stroke: none; stroke-width: 1; stroke-dasharray: none; stroke-linecap: butt; stroke-dashoffset: 0; stroke-linejoin: miter; stroke-miterlimit: 4; fill: rgb(49,56,144); fill-rule: nonzero; opacity: 1;" vector-effect="non-scaling-stroke"  transform=" translate(-169.87, -346.89)" d="M 127.884338 345.360382 C 140.122131 337.983429 152.24411 330.934509 164.409744 323.9617 C 165.51535 323.328003 166.901413 323.183655 168.536392 322.764343 C 176.226898 328.80014 185.19397 332.049622 193.206207 336.926971 C 199.269928 340.618164 205.943375 343.246704 211.845947 347.850525 C 211.617432 350.258057 209.558334 350.977692 208.168396 352.697449 C 203.775314 354.950287 201.935272 359.562103 198.372955 362.316772 C 198.602264 362.597229 198.454498 362.57608 198.46579 362.502319 C 198.05368 362.134399 197.694489 362.213226 197.195679 362.888794 C 197.000381 363.16214 197.042877 363.057312 197.094376 363.080688 C 192.995636 364.323242 189.816483 367.602051 185.276794 368.778259 C 185.004913 368.98468 184.580246 369.053558 184.365234 369.047485 C 183.875656 369.212311 183.614319 369.401489 183.195679 369.780762 C 182.664963 370.079285 182.304794 370.205933 181.661331 370.242889 C 172.529602 371.068298 163.702408 371.900146 155.009155 368.948059 C 151.50441 367.757874 149.313492 363.706238 144.60672 364.387634 C 144.130722 364.203278 144.020905 364.059662 143.940216 363.646362 C 143.825714 363.272461 143.682129 363.168213 143.291443 362.964966 C 139.878601 362.949432 138.353546 360.392517 136.134399 358.391418 C 134.958466 355.79718 133.227814 354.083221 131.069244 352.319153 C 130.7771 352.157898 130.921158 352.110168 130.940659 352.183502 C 130.834641 351.908936 130.634415 351.611267 130.145538 351.193481 C 129.931503 351.023163 129.99559 351.016907 129.978363 351.044128 C 129.089493 349.342743 128.179871 347.629639 127.884338 345.360382 z" stroke-linecap="round" />
</g>
<g transform="matrix(1 0 0 1 613.52 518.97)"  >
<path style="stroke: none; stroke-width: 1; stroke-dasharray: none; stroke-linecap: butt; stroke-dashoffset: 0; stroke-linejoin: miter; stroke-miterlimit: 4; fill: rgb(49,56,144); fill-rule: nonzero; opacity: 1;" vector-effect="non-scaling-stroke"  transform=" translate(-243.53, -280.48)" d="M 233.629242 286.097046 C 237.601562 281.045502 244.099228 279.516357 249.174515 275.793091 C 250.344376 274.934906 251.769608 274.424774 253.426392 273.636383 C 251.40802 278.957153 245.174454 279.170654 241.360886 282.681396 C 239.753357 284.161255 237.086197 284.165405 236.249664 286.946503 C 235.905807 288.089752 234.781372 286.252289 233.629242 286.097046 z" stroke-linecap="round" />
</g>
<g transform="matrix(1 0 0 1 621.76 617.78)"  >
<path style="stroke: none; stroke-width: 1; stroke-dasharray: none; stroke-linecap: butt; stroke-dashoffset: 0; stroke-linejoin: miter; stroke-miterlimit: 4; fill: rgb(38,41,119); fill-rule: nonzero; opacity: 1;" vector-effect="non-scaling-stroke"  transform=" translate(-251.76, -379.28)" d="M 246.755615 385.351074 C 249.113342 381.345459 251.823715 377.383301 254.805481 373.216125 C 255.570816 373.57962 256.064758 374.148224 256.772858 374.906586 C 253.909729 378.735962 251.195084 382.723389 246.755615 385.351074 z" stroke-linecap="round" />
</g>
<g transform="matrix(1 0 0 1 603.02 597.11)"  >
<path style="stroke: none; stroke-width: 1; stroke-dasharray: none; stroke-linecap: butt; stroke-dashoffset: 0; stroke-linejoin: miter; stroke-miterlimit: 4; fill: rgb(59,65,150); fill-rule: nonzero; opacity: 1;" vector-effect="non-scaling-stroke"  transform=" translate(-233.02, -358.62)" d="M 241.034271 362.816284 C 235.680878 360.255829 230.457077 357.467926 225.010834 354.417816 C 231.405243 354.717438 236.323959 358.57663 241.034271 362.816284 z" stroke-linecap="round" />
</g>
<g transform="matrix(1 0 0 1 580.36 533.97)"  >
<path style="stroke: none; stroke-width: 1; stroke-dasharray: none; stroke-linecap: butt; stroke-dashoffset: 0; stroke-linejoin: miter; stroke-miterlimit: 4; fill: rgb(90,96,166); fill-rule: nonzero; opacity: 1;" vector-effect="non-scaling-stroke"  transform=" translate(-210.37, -295.47)" d="M 210.452087 296.968262 C 209.806778 296.140442 209.525314 295.237518 209.305145 293.976135 C 210.02124 294.445465 210.676025 295.273224 211.433655 296.406525 C 211.29631 296.77243 211.056122 296.832794 210.452087 296.968262 z" stroke-linecap="round" />
</g>
<g transform="matrix(1 0 0 1 593.95 592.13)"  >
<path style="stroke: none; stroke-width: 1; stroke-dasharray: none; stroke-linecap: butt; stroke-dashoffset: 0; stroke-linejoin: miter; stroke-miterlimit: 4; fill: rgb(59,65,150); fill-rule: nonzero; opacity: 1;" vector-effect="non-scaling-stroke"  transform=" translate(-223.95, -353.63)" d="M 224.759399 353.989105 C 224.388947 353.999359 223.851044 353.760071 223.145081 353.274109 C 223.51532 353.264832 224.053619 353.502197 224.759399 353.989105 z" stroke-linecap="round" />
</g>
<g transform="matrix(1 0 0 1 523.89 659.38)"  >
<path style="stroke: none; stroke-width: 1; stroke-dasharray: none; stroke-linecap: butt; stroke-dashoffset: 0; stroke-linejoin: miter; stroke-miterlimit: 4; fill: rgb(36,40,125); fill-rule: nonzero; opacity: 1;" vector-effect="non-scaling-stroke"  transform=" translate(-153.9, -420.89)" d="M 142.276184 418.335144 C 147.094101 417.615112 151.671265 420.286926 156.66893 420.396027 C 159.480286 420.457397 162.284103 420.864685 165.517761 421.222046 C 165.041336 423.64566 163.110382 422.056763 161.351501 422.220062 C 158.116226 422.23233 155.219116 421.663849 152.348724 423.01767 C 150.49379 423.892609 148.244263 423.976837 147.032776 421.293152 C 146.228714 419.512024 144.10611 419.365479 142.276184 418.335144 z" stroke-linecap="round" />
</g>
<g transform="matrix(1 0 0 1 483.9 643.09)"  >
<path style="stroke: none; stroke-width: 1; stroke-dasharray: none; stroke-linecap: butt; stroke-dashoffset: 0; stroke-linejoin: miter; stroke-miterlimit: 4; fill: rgb(44,50,135); fill-rule: nonzero; opacity: 1;" vector-effect="non-scaling-stroke"  transform=" translate(-113.9, -404.59)" d="M 111.588348 402.493652 C 114.964493 404.420715 118.042931 406.343201 121.295288 408.559875 C 116.604485 409.209839 112.455093 407.204224 108.327705 404.995575 C 106.775978 404.165253 105.96244 403.284088 106.928673 401.233704 C 107.491379 400.566101 107.991737 400.397308 108.950348 400.551178 C 109.34063 400.672394 109.227394 400.710144 109.220673 400.650848 C 109.246506 401.100677 109.469948 401.510895 110.177628 401.653992 C 110.496628 401.472534 110.34864 401.808289 110.442291 401.650513 C 110.05674 402.378418 110.719437 402.399109 111.588348 402.493652 z" stroke-linecap="round" />
</g>
<g transform="matrix(1 0 0 1 578.68 652.36)"  >
<path style="stroke: none; stroke-width: 1; stroke-dasharray: none; stroke-linecap: butt; stroke-dashoffset: 0; stroke-linejoin: miter; stroke-miterlimit: 4; fill: rgb(36,40,125); fill-rule: nonzero; opacity: 1;" vector-effect="non-scaling-stroke"  transform=" translate(-208.69, -413.86)" d="M 201.795288 416.333954 C 206.427124 414.332275 210.843124 412.544891 215.59967 410.717896 C 212.659668 415.114624 207.983597 416.643799 202.36496 417.007996 C 201.846802 416.853119 201.71312 416.700653 201.795288 416.333954 z" stroke-linecap="round" />
</g>
<g transform="matrix(1 0 0 1 610.98 629.66)"  >
<path style="stroke: none; stroke-width: 1; stroke-dasharray: none; stroke-linecap: butt; stroke-dashoffset: 0; stroke-linejoin: miter; stroke-miterlimit: 4; fill: rgb(38,41,119); fill-rule: nonzero; opacity: 1;" vector-effect="non-scaling-stroke"  transform=" translate(-240.98, -391.17)" d="M 235.940842 396.634979 C 238.975815 393.021729 242.378586 389.462036 246.026733 385.700226 C 245.248184 391.273621 241.151733 394.313477 235.940842 396.634979 z" stroke-linecap="round" />
</g>
<g transform="matrix(1 0 0 1 540.09 660.63)"  >
<path style="stroke: none; stroke-width: 1; stroke-dasharray: none; stroke-linecap: butt; stroke-dashoffset: 0; stroke-linejoin: miter; stroke-miterlimit: 4; fill: rgb(27,34,133); fill-rule: nonzero; opacity: 1;" vector-effect="non-scaling-stroke"  transform=" translate(-170.1, -422.14)" d="M 161.338654 422.236816 C 162.43988 421.884491 163.876526 421.773834 165.628693 421.495575 C 169.331818 421.257233 172.719421 421.186493 176.565369 421.168945 C 177.538528 421.497955 178.115433 421.489044 178.855133 421.795929 C 173.296524 423.845276 167.483154 423.082275 161.338654 422.236816 z" stroke-linecap="round" />
</g>
<g transform="matrix(1 0 0 1 500.02 651.96)"  >
<path style="stroke: none; stroke-width: 1; stroke-dasharray: none; stroke-linecap: butt; stroke-dashoffset: 0; stroke-linejoin: miter; stroke-miterlimit: 4; fill: rgb(36,40,125); fill-rule: nonzero; opacity: 1;" vector-effect="non-scaling-stroke"  transform=" translate(-130.03, -413.47)" d="M 125.006195 411.333679 C 128.563568 411.866119 131.783936 413.471771 135.046188 415.607971 C 131.552124 415.050171 127.167061 415.968781 125.006195 411.333679 z" stroke-linecap="round" />
</g>
<g transform="matrix(1 0 0 1 469.7 630.7)"  >
<path style="stroke: none; stroke-width: 1; stroke-dasharray: none; stroke-linecap: butt; stroke-dashoffset: 0; stroke-linejoin: miter; stroke-miterlimit: 4; fill: rgb(38,41,119); fill-rule: nonzero; opacity: 1;" vector-effect="non-scaling-stroke"  transform=" translate(-99.71, -392.21)" d="M 95.147797 388.149536 C 98.738571 389.851593 100.886642 393.487549 104.266968 396.260803 C 99.486282 396.028748 97.498436 392.060822 95.147797 388.149536 z" stroke-linecap="round" />
</g>
<g transform="matrix(1 0 0 1 565.23 657.28)"  >
<path style="stroke: none; stroke-width: 1; stroke-dasharray: none; stroke-linecap: butt; stroke-dashoffset: 0; stroke-linejoin: miter; stroke-miterlimit: 4; fill: rgb(44,50,135); fill-rule: nonzero; opacity: 1;" vector-effect="non-scaling-stroke"  transform=" translate(-195.24, -418.79)" d="M 190.013443 419.897217 C 192.865204 418.078491 196.574493 417.809235 200.466629 416.753632 C 198.393951 421.053833 194.771378 421.665955 190.013443 419.897217 z" stroke-linecap="round" />
</g>
<g transform="matrix(1 0 0 1 552.05 659.73)"  >
<path style="stroke: none; stroke-width: 1; stroke-dasharray: none; stroke-linecap: butt; stroke-dashoffset: 0; stroke-linejoin: miter; stroke-miterlimit: 4; fill: rgb(36,40,125); fill-rule: nonzero; opacity: 1;" vector-effect="non-scaling-stroke"  transform=" translate(-182.05, -421.24)" d="M 179.469788 422.014709 C 178.513504 421.859955 177.987076 421.709167 177.242172 421.390259 C 180.229248 420.862274 183.434799 420.502441 186.867432 420.453064 C 184.972458 422.765137 182.327988 421.772522 179.469788 422.014709 z" stroke-linecap="round" />
</g>
<g transform="matrix(1 0 0 1 477.59 638.18)"  >
<path style="stroke: none; stroke-width: 1; stroke-dasharray: none; stroke-linecap: butt; stroke-dashoffset: 0; stroke-linejoin: miter; stroke-miterlimit: 4; fill: rgb(38,41,119); fill-rule: nonzero; opacity: 1;" vector-effect="non-scaling-stroke"  transform=" translate(-107.59, -399.68)" d="M 109.171448 400.410828 C 108.835037 400.75 108.329445 400.827606 107.441452 400.920837 C 106.738419 400.212646 106.417793 399.4888 106.014572 398.477173 C 107.344566 398.233002 107.980118 399.493927 109.171448 400.410828 z" stroke-linecap="round" />
</g>
<g transform="matrix(1 0 0 1 604.51 636.3)"  >
<path style="stroke: none; stroke-width: 1; stroke-dasharray: none; stroke-linecap: butt; stroke-dashoffset: 0; stroke-linejoin: miter; stroke-miterlimit: 4; fill: rgb(38,41,119); fill-rule: nonzero; opacity: 1;" vector-effect="non-scaling-stroke"  transform=" translate(-234.52, -397.8)" d="M 233.518311 398.927246 C 233.797729 398.233551 234.423859 397.515442 235.322525 396.677856 C 235.843109 397.948517 235.315552 398.766266 233.518311 398.927246 z" stroke-linecap="round" />
</g>
<g transform="matrix(1 0 0 1 493.17 648.81)"  >
<path style="stroke: none; stroke-width: 1; stroke-dasharray: none; stroke-linecap: butt; stroke-dashoffset: 0; stroke-linejoin: miter; stroke-miterlimit: 4; fill: rgb(36,40,125); fill-rule: nonzero; opacity: 1;" vector-effect="non-scaling-stroke"  transform=" translate(-123.18, -410.32)" d="M 122.260147 410.10141 C 122.695709 410.122375 123.666969 409.364807 124.096436 410.727478 C 123.606712 410.740234 123.036095 410.536621 122.260147 410.10141 z" stroke-linecap="round" />
</g>
<g transform="matrix(1 0 0 1 510.13 655.97)"  >
<path style="stroke: none; stroke-width: 1; stroke-dasharray: none; stroke-linecap: butt; stroke-dashoffset: 0; stroke-linejoin: miter; stroke-miterlimit: 4; fill: rgb(36,40,125); fill-rule: nonzero; opacity: 1;" vector-effect="non-scaling-stroke"  transform=" translate(-140.14, -417.48)" d="M 139.238464 417.314087 C 139.646042 417.183105 140.271866 417.255493 141.033569 417.63501 C 140.598557 417.800598 140.027634 417.659027 139.238464 417.314087 z" stroke-linecap="round" />
</g>
<g transform="matrix(1 0 0 1 475.09 635.76)"  >
<path style="stroke: none; stroke-width: 1; stroke-dasharray: none; stroke-linecap: butt; stroke-dashoffset: 0; stroke-linejoin: miter; stroke-miterlimit: 4; fill: rgb(38,41,119); fill-rule: nonzero; opacity: 1;" vector-effect="non-scaling-stroke"  transform=" translate(-105.1, -397.27)" d="M 104.43692 396.741028 C 104.824234 396.810638 105.278831 397.158417 105.756882 397.792297 C 105.354958 397.725342 104.929581 397.372253 104.43692 396.741028 z" stroke-linecap="round" />
</g>
<g transform="matrix(1 0 0 1 507.13 654.97)"  >
<path style="stroke: none; stroke-width: 1; stroke-dasharray: none; stroke-linecap: butt; stroke-dashoffset: 0; stroke-linejoin: miter; stroke-miterlimit: 4; fill: rgb(36,40,125); fill-rule: nonzero; opacity: 1;" vector-effect="non-scaling-stroke"  transform=" translate(-137.14, -416.47)" d="M 136.237274 416.303345 C 136.646393 416.175781 137.271393 416.256134 138.034286 416.638 C 137.599182 416.796814 137.026169 416.654053 136.237274 416.303345 z" stroke-linecap="round" />
</g>
<g transform="matrix(1 0 0 1 571.52 655)"  >
<path style="stroke: none; stroke-width: 1; stroke-dasharray: none; stroke-linecap: butt; stroke-dashoffset: 0; stroke-linejoin: miter; stroke-miterlimit: 4; fill: rgb(44,50,135); fill-rule: nonzero; opacity: 1;" vector-effect="non-scaling-stroke"  transform=" translate(-201.53, -416.51)" d="M 201.746185 416.080597 C 202.011139 416.11969 201.996674 416.5625 201.988586 416.784027 C 201.778946 416.980713 201.577377 416.955872 201.077728 416.865112 C 201.013489 416.546631 201.247375 416.294067 201.746185 416.080597 z" stroke-linecap="round" />
</g>
<g transform="matrix(1 0 0 1 464.66 625.83)"  >
<path style="stroke: none; stroke-width: 1; stroke-dasharray: none; stroke-linecap: butt; stroke-dashoffset: 0; stroke-linejoin: miter; stroke-miterlimit: 4; fill: rgb(38,41,119); fill-rule: nonzero; opacity: 1;" vector-effect="non-scaling-stroke"  transform=" translate(-94.66, -387.34)" d="M 94.203232 387.022583 C 94.368538 386.990662 94.68998 387.187958 95.12532 387.650848 C 94.945938 387.694885 94.652657 387.473358 94.203232 387.022583 z" stroke-linecap="round" />
</g>
<g transform="matrix(1 0 0 1 463.83 624.79)"  >
<path style="stroke: none; stroke-width: 1; stroke-dasharray: none; stroke-linecap: butt; stroke-dashoffset: 0; stroke-linejoin: miter; stroke-miterlimit: 4; fill: rgb(38,41,119); fill-rule: nonzero; opacity: 1;" vector-effect="non-scaling-stroke"  transform=" translate(-93.84, -386.29)" d="M 93.549271 385.843353 C 93.674881 385.878387 93.863823 386.175323 94.123413 386.742615 C 94.000237 386.710419 93.806419 386.407837 93.549271 385.843353 z" stroke-linecap="round" />
</g>
<g transform="matrix(1 0 0 1 532.75 605.69)"  >
<path style="stroke: none; stroke-width: 1; stroke-dasharray: none; stroke-linecap: butt; stroke-dashoffset: 0; stroke-linejoin: miter; stroke-miterlimit: 4; fill: rgb(44,50,135); fill-rule: nonzero; opacity: 1;" vector-effect="non-scaling-stroke"  transform=" translate(-162.76, -367.2)" d="M 144.462585 364.630798 C 146.136337 363.751038 148.025375 363.132355 149.930389 362.567566 C 151.129288 362.212158 152.507156 362.138306 152.722275 363.675262 C 153.682465 370.535706 159.440933 368.698914 163.518677 369.577667 C 169.18956 370.799835 175.010681 368.728577 181.05751 370.041443 C 168.30629 374.295197 156.231735 371.452271 144.462585 364.630798 z" stroke-linecap="round" />
</g>
<g transform="matrix(1 0 0 1 494.62 547.05)"  >
<path style="stroke: none; stroke-width: 1; stroke-dasharray: none; stroke-linecap: butt; stroke-dashoffset: 0; stroke-linejoin: miter; stroke-miterlimit: 4; fill: rgb(97,102,169); fill-rule: nonzero; opacity: 1;" vector-effect="non-scaling-stroke"  transform=" translate(-124.62, -308.56)" d="M 127.883698 297.748718 C 128.091873 301.994629 125.648453 305.469208 124.487198 309.34613 C 123.604019 312.294647 123.129143 315.365479 122.24733 318.690369 C 121.876266 319.221252 121.730484 319.443665 121.355942 319.339294 C 121.263634 311.29953 124.148674 304.427826 127.883698 297.748718 z" stroke-linecap="round" />
</g>
<g transform="matrix(1 0 0 1 573.28 596.25)"  >
<path style="stroke: none; stroke-width: 1; stroke-dasharray: none; stroke-linecap: butt; stroke-dashoffset: 0; stroke-linejoin: miter; stroke-miterlimit: 4; fill: rgb(36,40,125); fill-rule: nonzero; opacity: 1;" vector-effect="non-scaling-stroke"  transform=" translate(-203.29, -357.76)" d="M 198.910019 362.461182 C 200.256058 358.295898 201.594299 353.705444 207.668533 353.054199 C 206.265259 357.20816 202.544189 359.579926 198.910019 362.461182 z" stroke-linecap="round" />
</g>
<g transform="matrix(1 0 0 1 561.09 604.57)"  >
<path style="stroke: none; stroke-width: 1; stroke-dasharray: none; stroke-linecap: butt; stroke-dashoffset: 0; stroke-linejoin: miter; stroke-miterlimit: 4; fill: rgb(36,40,125); fill-rule: nonzero; opacity: 1;" vector-effect="non-scaling-stroke"  transform=" translate(-191.09, -366.07)" d="M 185.380066 369.090027 C 188.294342 365.972076 192.033203 363.821594 196.80748 363.056122 C 193.676544 365.74707 190.145737 368.275055 185.380066 369.090027 z" stroke-linecap="round" />
</g>
<g transform="matrix(1 0 0 1 505.54 527.07)"  >
<path style="stroke: none; stroke-width: 1; stroke-dasharray: none; stroke-linecap: butt; stroke-dashoffset: 0; stroke-linejoin: miter; stroke-miterlimit: 4; fill: rgb(90,96,166); fill-rule: nonzero; opacity: 1;" vector-effect="non-scaling-stroke"  transform=" translate(-135.55, -288.58)" d="M 139.255035 284.562988 C 138.348923 288.272614 135.238907 290.388641 131.844818 292.59549 C 133.182846 289.232788 136.007919 286.906647 139.255035 284.562988 z" stroke-linecap="round" />
</g>
<g transform="matrix(1 0 0 1 575.08 527.36)"  >
<path style="stroke: none; stroke-width: 1; stroke-dasharray: none; stroke-linecap: butt; stroke-dashoffset: 0; stroke-linejoin: miter; stroke-miterlimit: 4; fill: rgb(90,96,166); fill-rule: nonzero; opacity: 1;" vector-effect="non-scaling-stroke"  transform=" translate(-205.09, -288.86)" d="M 208.010223 291.618347 C 204.980713 291.376282 203.268829 289.259003 202.171539 286.106476 C 204.490265 287.171844 206.221359 289.20813 208.010223 291.618347 z" stroke-linecap="round" />
</g>
<g transform="matrix(1 0 0 1 503.43 593.6)"  >
<path style="stroke: none; stroke-width: 1; stroke-dasharray: none; stroke-linecap: butt; stroke-dashoffset: 0; stroke-linejoin: miter; stroke-miterlimit: 4; fill: rgb(38,41,119); fill-rule: nonzero; opacity: 1;" vector-effect="non-scaling-stroke"  transform=" translate(-133.43, -355.1)" d="M 130.888885 352.474731 C 133.935333 352.468933 135.439285 354.436127 135.975113 357.732971 C 133.583603 357.011688 132.585297 354.627777 130.888885 352.474731 z" stroke-linecap="round" />
</g>
<g transform="matrix(1 0 0 1 540.91 512.83)"  >
<path style="stroke: none; stroke-width: 1; stroke-dasharray: none; stroke-linecap: butt; stroke-dashoffset: 0; stroke-linejoin: miter; stroke-miterlimit: 4; fill: rgb(80,90,176); fill-rule: nonzero; opacity: 1;" vector-effect="non-scaling-stroke"  transform=" translate(-170.91, -274.34)" d="M 176.509888 274.046326 C 173.23172 275.658112 169.440689 275.172546 165.318985 274.235046 C 168.680038 273.16391 172.369247 273.609192 176.509888 274.046326 z" stroke-linecap="round" />
</g>
<g transform="matrix(1 0 0 1 499.77 533.7)"  >
<path style="stroke: none; stroke-width: 1; stroke-dasharray: none; stroke-linecap: butt; stroke-dashoffset: 0; stroke-linejoin: miter; stroke-miterlimit: 4; fill: rgb(90,96,166); fill-rule: nonzero; opacity: 1;" vector-effect="non-scaling-stroke"  transform=" translate(-129.77, -295.21)" d="M 128.428513 297.646362 C 128.129578 297.756378 128.085022 297.486511 128.066895 297.351013 C 129.007828 295.788025 129.966858 294.360504 131.174744 292.744781 C 132.255661 295.153564 130.224869 296.200592 128.428513 297.646362 z" stroke-linecap="round" />
</g>
<g transform="matrix(1 0 0 1 491.43 562.29)"  >
<path style="stroke: none; stroke-width: 1; stroke-dasharray: none; stroke-linecap: butt; stroke-dashoffset: 0; stroke-linejoin: miter; stroke-miterlimit: 4; fill: rgb(84,91,160); fill-rule: nonzero; opacity: 1;" vector-effect="non-scaling-stroke"  transform=" translate(-121.43, -323.8)" d="M 121.041809 319.45752 C 121.127182 319.012482 121.574348 319.005249 121.798195 319.002014 C 121.882217 322.082092 121.742393 325.165405 121.409081 328.594727 C 121.129204 325.92804 121.042824 322.915314 121.041809 319.45752 z" stroke-linecap="round" />
</g>
<g transform="matrix(1 0 0 1 498.22 586.36)"  >
<path style="stroke: none; stroke-width: 1; stroke-dasharray: none; stroke-linecap: butt; stroke-dashoffset: 0; stroke-linejoin: miter; stroke-miterlimit: 4; fill: rgb(38,41,119); fill-rule: nonzero; opacity: 1;" vector-effect="non-scaling-stroke"  transform=" translate(-128.22, -347.86)" d="M 127.590668 345.02179 C 128.791061 346.733948 129.979919 348.314545 129.952637 350.707825 C 128.836563 349.295441 127.712006 347.519531 126.492477 345.392395 C 126.662682 345.038025 126.927849 345.034912 127.590668 345.02179 z" stroke-linecap="round" />
</g>
<g transform="matrix(1 0 0 1 562.95 518.21)"  >
<path style="stroke: none; stroke-width: 1; stroke-dasharray: none; stroke-linecap: butt; stroke-dashoffset: 0; stroke-linejoin: miter; stroke-miterlimit: 4; fill: rgb(90,96,166); fill-rule: nonzero; opacity: 1;" vector-effect="non-scaling-stroke"  transform=" translate(-192.96, -279.72)" d="M 195.035309 280.573578 C 193.462357 280.830627 191.476013 281.355591 190.878143 278.641357 C 192.255814 279.033356 193.553223 279.676208 195.035309 280.573578 z" stroke-linecap="round" />
</g>
<g transform="matrix(1 0 0 1 511.25 521.73)"  >
<path style="stroke: none; stroke-width: 1; stroke-dasharray: none; stroke-linecap: butt; stroke-dashoffset: 0; stroke-linejoin: miter; stroke-miterlimit: 4; fill: rgb(90,96,166); fill-rule: nonzero; opacity: 1;" vector-effect="non-scaling-stroke"  transform=" translate(-141.26, -283.24)" d="M 142.605148 281.941467 C 142.784988 283.514587 142.137177 284.668762 139.880539 284.523193 C 140.445358 283.621246 141.374496 282.824402 142.605148 281.941467 z" stroke-linecap="round" />
</g>
<g transform="matrix(1 0 0 1 568.69 521.85)"  >
<path style="stroke: none; stroke-width: 1; stroke-dasharray: none; stroke-linecap: butt; stroke-dashoffset: 0; stroke-linejoin: miter; stroke-miterlimit: 4; fill: rgb(90,96,166); fill-rule: nonzero; opacity: 1;" vector-effect="non-scaling-stroke"  transform=" translate(-198.7, -283.36)" d="M 200.280151 284.144501 C 198.696365 284.989105 197.634552 284.316437 197.121323 282.215637 C 198.090057 282.536652 199.09639 283.218597 200.280151 284.144501 z" stroke-linecap="round" />
</g>
<g transform="matrix(1 0 0 1 513.56 601.19)"  >
<path style="stroke: none; stroke-width: 1; stroke-dasharray: none; stroke-linecap: butt; stroke-dashoffset: 0; stroke-linejoin: miter; stroke-miterlimit: 4; fill: rgb(44,50,135); fill-rule: nonzero; opacity: 1;" vector-effect="non-scaling-stroke"  transform=" translate(-143.56, -362.7)" d="M 143.174866 362.990234 C 143.156891 362.621399 143.26947 362.376801 143.382034 362.132233 C 143.565475 362.421753 143.748917 362.711304 143.950836 363.188782 C 143.726166 363.344604 143.504852 363.257202 143.174866 362.990234 z" stroke-linecap="round" />
</g>
<g transform="matrix(1 0 0 1 513.89 519.81)"  >
<path style="stroke: none; stroke-width: 1; stroke-dasharray: none; stroke-linecap: butt; stroke-dashoffset: 0; stroke-linejoin: miter; stroke-miterlimit: 4; fill: rgb(90,96,166); fill-rule: nonzero; opacity: 1;" vector-effect="non-scaling-stroke"  transform=" translate(-143.9, -281.32)" d="M 144.625519 280.766846 C 144.444962 281.060669 143.963806 281.437714 143.168594 281.867798 C 143.344666 281.563934 143.834793 281.207001 144.625519 280.766846 z" stroke-linecap="round" />
</g>
<g transform="matrix(1 0 0 1 481.1 640.65)"  >
<path style="stroke: none; stroke-width: 1; stroke-dasharray: none; stroke-linecap: butt; stroke-dashoffset: 0; stroke-linejoin: miter; stroke-miterlimit: 4; fill: rgb(38,41,119); fill-rule: nonzero; opacity: 1;" vector-effect="non-scaling-stroke"  transform=" translate(-111.11, -402.15)" d="M 111.698196 402.285492 C 111.275963 402.692474 110.677879 402.856659 110.52256 401.720093 C 110.860725 401.686096 111.185524 401.879425 111.698196 402.285492 z" stroke-linecap="round" />
</g>
<g transform="matrix(1 0 0 1 566.09 519.83)"  >
<path style="stroke: none; stroke-width: 1; stroke-dasharray: none; stroke-linecap: butt; stroke-dashoffset: 0; stroke-linejoin: miter; stroke-miterlimit: 4; fill: rgb(90,96,166); fill-rule: nonzero; opacity: 1;" vector-effect="non-scaling-stroke"  transform=" translate(-196.09, -281.33)" d="M 196.961273 281.665131 C 196.567474 281.699615 195.990982 281.477661 195.224518 281.000854 C 195.615891 280.966858 196.197235 281.187805 196.961273 281.665131 z" stroke-linecap="round" />
</g>
<g transform="matrix(1 0 0 1 571.24 523.66)"  >
<path style="stroke: none; stroke-width: 1; stroke-dasharray: none; stroke-linecap: butt; stroke-dashoffset: 0; stroke-linejoin: miter; stroke-miterlimit: 4; fill: rgb(90,96,166); fill-rule: nonzero; opacity: 1;" vector-effect="non-scaling-stroke"  transform=" translate(-201.25, -285.17)" d="M 202.08432 285.565979 C 201.661606 285.587708 201.086334 285.337799 200.413239 284.767517 C 200.854187 284.729553 201.392975 285.011932 202.08432 285.565979 z" stroke-linecap="round" />
</g>
<g transform="matrix(1 0 0 1 578.72 531.37)"  >
<path style="stroke: none; stroke-width: 1; stroke-dasharray: none; stroke-linecap: butt; stroke-dashoffset: 0; stroke-linejoin: miter; stroke-miterlimit: 4; fill: rgb(90,96,166); fill-rule: nonzero; opacity: 1;" vector-effect="non-scaling-stroke"  transform=" translate(-208.72, -292.87)" d="M 209.329224 293.556641 C 208.978836 293.412598 208.571304 292.958618 208.114273 292.190369 C 208.467224 292.332977 208.869644 292.789825 209.329224 293.556641 z" stroke-linecap="round" />
</g>
<g transform="matrix(1 0 0 1 479.84 639.53)"  >
<path style="stroke: none; stroke-width: 1; stroke-dasharray: none; stroke-linecap: butt; stroke-dashoffset: 0; stroke-linejoin: miter; stroke-miterlimit: 4; fill: rgb(38,41,119); fill-rule: nonzero; opacity: 1;" vector-effect="non-scaling-stroke"  transform=" translate(-109.85, -401.04)" d="M 110.335678 401.257935 C 110.166397 401.335266 109.836166 401.197998 109.359947 400.826141 C 109.53421 400.742126 109.854462 400.892731 110.335678 401.257935 z" stroke-linecap="round" />
</g>
<g transform="matrix(1 0 0 1 500.4 590.16)"  >
<path style="stroke: none; stroke-width: 1; stroke-dasharray: none; stroke-linecap: butt; stroke-dashoffset: 0; stroke-linejoin: miter; stroke-miterlimit: 4; fill: rgb(38,41,119); fill-rule: nonzero; opacity: 1;" vector-effect="non-scaling-stroke"  transform=" translate(-130.41, -351.66)" d="M 130.00531 351.298767 C 130.175446 351.283386 130.419403 351.543579 130.811768 352.030334 C 130.666489 352.029327 130.372818 351.801849 130.00531 351.298767 z" stroke-linecap="round" />
</g>
<g transform="matrix(1 0 0 1 567.73 601.28)"  >
<path style="stroke: none; stroke-width: 1; stroke-dasharray: none; stroke-linecap: butt; stroke-dashoffset: 0; stroke-linejoin: miter; stroke-miterlimit: 4; fill: rgb(36,40,125); fill-rule: nonzero; opacity: 1;" vector-effect="non-scaling-stroke"  transform=" translate(-197.74, -362.79)" d="M 197.280411 363.097839 C 197.306229 362.9505 197.612061 362.738831 198.197479 362.477844 C 198.171509 362.630188 197.865967 362.831848 197.280411 363.097839 z" stroke-linecap="round" />
</g>
<g transform="matrix(1 0 0 1 553.61 608.05)"  >
<path style="stroke: none; stroke-width: 1; stroke-dasharray: none; stroke-linecap: butt; stroke-dashoffset: 0; stroke-linejoin: miter; stroke-miterlimit: 4; fill: rgb(36,40,125); fill-rule: nonzero; opacity: 1;" vector-effect="non-scaling-stroke"  transform=" translate(-183.62, -369.56)" d="M 183.296387 369.945984 C 183.226883 369.695312 183.466537 369.480225 183.947144 369.174377 C 183.956024 369.340729 183.761826 369.640045 183.296387 369.945984 z" stroke-linecap="round" />
</g>
</svg>